<?xml version="1.0" encoding="utf-8"?>
<!-- Generator: Adobe Illustrator 27.1.1, SVG Export Plug-In . SVG Version: 6.00 Build 0)  -->
<svg version="1.1" id="Layer_1" xmlns:xodm="http://www.corel.com/coreldraw/odm/2003"
	 xmlns="http://www.w3.org/2000/svg" xmlns:xlink="http://www.w3.org/1999/xlink" x="0px" y="0px" viewBox="0 0 161.2 221.9"
	 style="enable-background:new 0 0 161.2 221.9;" xml:space="preserve">
<style type="text/css">
	.st0{fill:none;stroke:#5B5B5B;stroke-width:5;stroke-linejoin:bevel;stroke-miterlimit:10;}
</style>
<g id="图层_x0020_1">
	<g id="_1986941289616">
		<line class="st0" x1="9.9" y1="31.6" x2="9.9" y2="31.6"/>
		<line class="st0" x1="13.4" y1="34.2" x2="13.5" y2="35.4"/>
		<line class="st0" x1="152" y1="32.5" x2="152" y2="32.5"/>
		<path class="st0" d="M25.1,16.9c-0.1,0.1-0.2,0.1-0.3,0.2"/>
		<path class="st0" d="M20.5,20.4c-0.1,0.1-0.2,0.2-0.4,0.3"/>
		<path class="st0" d="M17,24.1c-0.1,0.1-0.2,0.3-0.3,0.4"/>
		<path class="st0" d="M14.6,28.1c-0.1,0.2-0.2,0.4-0.2,0.5"/>
		<path class="st0" d="M13.6,36.3c0,0.3,0.1,0.5,0.2,0.8"/>
		<path class="st0" d="M13.4,34.2c0,0.7,0.1,1.4,0.2,2.1"/>
		<path class="st0" d="M144.2,23.9c0,0-0.1-0.1-0.1-0.1"/>
		<path class="st0" d="M146.9,28c-0.1-0.1-0.1-0.2-0.2-0.3"/>
		<path class="st0" d="M148.4,32.3c0-0.2-0.1-0.4-0.1-0.6"/>
		<path class="st0" d="M148.6,35c0-0.9,0-1.8-0.2-2.7"/>
		<path class="st0" d="M97.9,5c3.5,0.4,7.1,1,10.6,1.7c3.3,0.7,6.6,1.5,9.8,2.5c3,0.9,5.9,1.9,8.8,3.2c2.6,1.1,5.1,2.3,7.5,3.8
			c1.1,0.7,2.2,1.3,3.2,2.1c1,0.7,1.9,1.4,2.8,2.2c0.8,0.7,1.7,1.5,2.4,2.3c0.7,0.7,1.4,1.5,2,2.4c0.6,0.8,1.1,1.6,1.5,2.4
			c0.4,0.8,0.8,1.6,1.1,2.5c0.3,0.8,0.5,1.7,0.6,2.5c0.1,0.8,0.2,1.7,0.2,2.5"/>
		<line class="st0" x1="148.4" y1="35" x2="148.4" y2="35"/>
		<path class="st0" d="M97.9,5c-5.1-0.6-10.2-1-15.3-1c-5.1-0.1-10.2,0.1-15.3,0.5C62.4,5,57.5,5.7,52.7,6.6c-2.3,0.5-4.6,1-6.8,1.6
			c-2.1,0.6-4.3,1.2-6.4,1.9c-2,0.7-3.9,1.4-5.8,2.3c-1.8,0.8-3.5,1.6-5.2,2.5c-1.5,0.9-3.1,1.8-4.5,2.8c-1.3,0.9-2.6,1.9-3.8,3
			c-1.1,1-2.1,2-3,3.2c-0.8,1-1.5,2.1-2.1,3.3c-0.5,1.1-1,2.2-1.3,3.4c-0.3,1.1-0.4,2.3-0.4,3.5"/>
		<line class="st0" x1="13.4" y1="34.1" x2="13.4" y2="34.2"/>
		<path class="st0" d="M13.8,37c0.1,0.3,0.1,0.6,0.2,0.9c0.3,0.9,0.6,1.8,1,2.6"/>
		<path class="st0" d="M148.4,35c0,0.8-0.1,1.6-0.3,2.4c-0.2,0.8-0.4,1.6-0.7,2.4"/>
		<path class="st0" d="M147.4,39.8c-0.1,0.3-0.2,0.5-0.3,0.8c-0.4,0.8-0.8,1.6-1.3,2.4"/>
		<path class="st0" d="M9.9,31.6C8.6,38,7.4,44.4,6.3,50.8c-1.1,6.6-2,13.3-2.5,19.9"/>
		<path class="st0" d="M157.7,71.7c-0.5-6.7-1.3-13.3-2.3-20c-1-6.5-2.1-12.9-3.4-19.3"/>
		<path class="st0" d="M9.9,31.6c0.2-1.2,0.6-2.4,1.2-3.5c0.5-1.2,1.2-2.4,2-3.4c0.8-1.2,1.8-2.3,2.8-3.3c1.1-1.1,2.3-2.1,3.5-3.1
			c1.4-1,2.8-2,4.2-2.9c1.6-1,3.2-1.9,4.9-2.7c1.8-0.9,3.6-1.7,5.5-2.4c2-0.8,4-1.5,6-2.1c4.4-1.4,8.9-2.4,13.4-3.3
			C58.3,4,63.2,3.3,68.2,3c5.1-0.4,10.2-0.5,15.3-0.4C88.6,2.6,93.6,3,98.7,3.6"/>
		<line class="st0" x1="98.7" y1="3.6" x2="98.8" y2="3.6"/>
		<path class="st0" d="M98.8,3.6c3.5,0.4,6.9,1,10.3,1.6c3.3,0.6,6.5,1.4,9.7,2.3c3,0.9,5.9,1.8,8.8,3c1.3,0.5,2.7,1.1,4,1.7
			c1.3,0.6,2.5,1.2,3.7,1.8c2.2,1.2,4.4,2.5,6.4,4.1c1.8,1.3,3.5,2.8,5,4.5c1.3,1.5,2.5,3.1,3.5,4.8c0.9,1.6,1.5,3.3,1.8,5"/>
		<path class="st0" d="M134.9,52.9c2-1.2,4-2.5,5.7-4c1.6-1.3,3-2.8,4.2-4.4c1.1-1.4,2-3,2.6-4.6c0.3-0.8,0.5-1.6,0.7-2.4
			c0.2-0.8,0.3-1.6,0.3-2.4"/>
		<line class="st0" x1="148.6" y1="35" x2="148.6" y2="35"/>
		<line class="st0" x1="13.3" y1="34.1" x2="13.3" y2="34.2"/>
		<path class="st0" d="M13.3,34.2c0,0.8,0.1,1.5,0.2,2.3c0.1,0.8,0.3,1.5,0.6,2.2c0.5,1.6,1.3,3,2.3,4.4"/>
		<path class="st0" d="M148.2,31.7c-0.1-0.3-0.1-0.6-0.2-0.9c-0.3-0.9-0.6-1.9-1.1-2.7"/>
		<path class="st0" d="M146.8,27.7c-0.2-0.3-0.3-0.6-0.5-0.9c-0.6-1-1.3-1.9-2-2.8"/>
		<path class="st0" d="M144.2,23.8c-1-1.2-2.1-2.3-3.3-3.3c-1.3-1.1-2.7-2.2-4.2-3.1c-1.6-1.1-3.3-2-4.9-2.9c-1.8-1-3.7-1.8-5.7-2.6
			c-2.1-0.8-4.2-1.6-6.3-2.3c-2.3-0.7-4.6-1.4-6.9-1.9C108,6.5,103,5.6,97.9,5"/>
		<path class="st0" d="M97.9,5c-6.1-0.7-12.2-1.1-18.3-1.1c-6.1,0-12.2,0.4-18.2,1.2c-2.9,0.4-5.8,0.8-8.6,1.4
			c-2.7,0.5-5.4,1.2-8.1,1.9c-2.5,0.7-5,1.5-7.4,2.4c-2.3,0.8-4.5,1.8-6.6,2.9"/>
		<line class="st0" x1="30.7" y1="13.7" x2="30.6" y2="13.8"/>
		<path class="st0" d="M30.6,13.8c-0.5,0.2-1,0.5-1.5,0.7c-1.4,0.7-2.7,1.5-4,2.4"/>
		<path class="st0" d="M24.8,17.1c-0.4,0.3-0.8,0.5-1.2,0.8c-1.1,0.8-2.2,1.6-3.2,2.5"/>
		<path class="st0" d="M20.1,20.7c-0.3,0.3-0.6,0.6-0.9,0.8c-0.8,0.8-1.6,1.7-2.3,2.6"/>
		<path class="st0" d="M16.6,24.6c-0.2,0.3-0.4,0.6-0.6,0.9c-0.6,0.8-1,1.7-1.4,2.7"/>
		<path class="st0" d="M14.4,28.7c-0.3,0.9-0.6,1.8-0.8,2.7c-0.2,0.9-0.3,1.8-0.2,2.7"/>
		<line class="st0" x1="98.7" y1="3.7" x2="98.7" y2="3.7"/>
		<path class="st0" d="M98.7,3.7c4.5,0.6,9,1.3,13.5,2.3c4.1,0.9,8.2,2.1,12.2,3.5c3.6,1.3,7,2.7,10.4,4.5c1.5,0.8,3,1.7,4.4,2.6
			c1.3,0.9,2.6,1.8,3.8,2.8c1.1,0.9,2.1,1.9,3.1,2.9c0.9,1,1.7,2,2.4,3.1c0.7,1,1.3,2,1.7,3.1c0.4,1,0.8,2.1,1,3.2
			c0.2,1.1,0.3,2.1,0.3,3.2c0,1.1-0.2,2.2-0.4,3.2c-0.3,1.1-0.7,2.2-1.2,3.2c-0.5,1.1-1.2,2.1-1.9,3.1"/>
		<path class="st0" d="M14.1,44.1c-1-1.3-1.8-2.7-2.4-4.1c-0.6-1.3-1-2.8-1.2-4.2c-0.2-1.4-0.2-2.9,0.1-4.3c0.2-1.5,0.7-2.9,1.4-4.2
			c0.7-1.5,1.6-2.8,2.6-4.1c1.1-1.4,2.4-2.7,3.8-3.9c1.5-1.3,3.2-2.5,4.9-3.6c1.9-1.2,3.9-2.3,6-3.3c2.3-1.1,4.6-2,6.9-2.9
			c2.5-0.9,5.1-1.7,7.7-2.4c2.8-0.8,5.6-1.4,8.4-1.9c3-0.6,5.9-1,8.9-1.4C67.4,3,73.6,2.6,79.9,2.6c6.3,0,12.6,0.3,18.8,1.1"/>
		<path class="st0" d="M63,65.8c-4-0.5-7.9-1.1-11.8-1.9c-3.7-0.8-7.3-1.7-10.9-2.8c-3.3-1-6.5-2.2-9.6-3.7
			c-2.8-1.3-5.5-2.7-8.1-4.3c-2.2-1.4-4.4-3.1-6.3-4.9c-0.9-0.8-1.7-1.7-2.4-2.6c-0.7-0.9-1.3-1.8-1.9-2.7c-0.5-0.9-1-1.8-1.3-2.8
			c-0.4-0.9-0.6-1.8-0.8-2.8c-0.2-0.9-0.3-1.9-0.3-2.8c0-0.9,0.1-1.9,0.3-2.8"/>
		<path class="st0" d="M152,32.5c0.2,1,0.3,2.1,0.3,3.2c0,1.1-0.2,2.1-0.5,3.2c-0.3,1.1-0.7,2.1-1.2,3.1c-0.5,1.1-1.1,2.1-1.8,3.1"
			/>
		<line class="st0" x1="3.8" y1="70.8" x2="2.6" y2="84.8"/>
		<line class="st0" x1="2.6" y1="87.4" x2="3.5" y2="99"/>
		<line class="st0" x1="17.6" y1="147.8" x2="16.1" y2="189.9"/>
		<line class="st0" x1="13.8" y1="136.7" x2="13.8" y2="136.7"/>
		<line class="st0" x1="142.8" y1="148.6" x2="143.8" y2="190.7"/>
		<line class="st0" x1="126.8" y1="161.2" x2="126.8" y2="161.2"/>
		<line class="st0" x1="158.7" y1="85.7" x2="157.7" y2="71.7"/>
		<line class="st0" x1="157.6" y1="100" x2="158.7" y2="88.4"/>
		<line class="st0" x1="146.8" y1="137.6" x2="146.8" y2="137.6"/>
		<path class="st0" d="M64.5,175.7c2.3,0.3,4.6,0.5,6.9,0.7"/>
		<path class="st0" d="M56.5,174c2.7,0.5,5.4,0.9,8.1,1.3"/>
		<path class="st0" d="M66.4,172.1c0.1,0,0.3,0,0.4,0"/>
		<path class="st0" d="M21.9,109.3c0.4,0.2,0.7,0.4,1.1,0.6"/>
		<path class="st0" d="M21.5,109.2c0.1,0,0.2,0.1,0.3,0.1"/>
		<path class="st0" d="M20.5,108.6c0.3,0.2,0.7,0.4,1,0.5"/>
		<path class="st0" d="M42,165.7c0.1,0.1,0.2,0.1,0.4,0.2"/>
		<path class="st0" d="M7.4,98.4c0.4,0.5,0.8,0.9,1.2,1.3"/>
		<path class="st0" d="M7.4,98.4c0.4,0.5,0.8,0.9,1.2,1.4"/>
		<path class="st0" d="M33,160.2c0.2,0.1,0.3,0.3,0.5,0.4"/>
		<path class="st0" d="M17.6,44.5c0.2,0.2,0.4,0.4,0.5,0.6"/>
		<path class="st0" d="M16.4,43c0.1,0.1,0.2,0.3,0.3,0.4"/>
		<path class="st0" d="M15,40.5c0.1,0.2,0.2,0.4,0.3,0.7"/>
		<path class="st0" d="M2.6,87.4c0.1,0.6,0.1,1.3,0.3,1.9"/>
		<path class="st0" d="M2.6,84.8c-0.1,0.9-0.1,1.8,0,2.7"/>
		<path class="st0" d="M61,120.4c3.1,0.4,6.3,0.7,9.5,0.9"/>
		<path class="st0" d="M52.2,119.1c2.9,0.5,5.9,1,8.8,1.3"/>
		<path class="st0" d="M67.6,64c7.8,0.7,15.7,0.9,23.6,0.4"/>
		<path class="st0" d="M64,63.6c1.2,0.1,2.4,0.3,3.6,0.4"/>
		<path class="st0" d="M64,63.6c1.2,0.1,2.4,0.3,3.6,0.4"/>
		<path class="st0" d="M32.4,55.2c0.1,0.1,0.3,0.1,0.4,0.2"/>
		<path class="st0" d="M26.4,51.9c0.2,0.1,0.5,0.3,0.7,0.4"/>
		<path class="st0" d="M21.5,48.4c0.2,0.2,0.4,0.4,0.7,0.5"/>
		<path class="st0" d="M33.5,160.5c1.3,1,2.6,2,4,3"/>
		<path class="st0" d="M126.8,161.1c8.2-6.4,15.1-14.4,20.1-23.6"/>
		<path class="st0" d="M13.8,136.7c4.9,9.2,11.6,17.3,19.8,23.8"/>
		<path class="st0" d="M124.7,162.7c0.7-0.5,1.4-1,2.1-1.5"/>
		<path class="st0" d="M124.4,162.9c0.1-0.1,0.2-0.1,0.3-0.2"/>
		<path class="st0" d="M137.6,110.8c0.2-0.1,0.4-0.2,0.6-0.3"/>
		<path class="st0" d="M138.2,110.5c0.3-0.2,0.7-0.3,1-0.5"/>
		<path class="st0" d="M138.4,110.4c0.3-0.2,0.7-0.3,1-0.5"/>
		<path class="st0" d="M139.2,110c0.4-0.2,0.7-0.4,1.1-0.6"/>
		<path class="st0" d="M140.3,109.5c0.3-0.1,0.5-0.3,0.8-0.4"/>
		<path class="st0" d="M141.1,109c0.5-0.3,1-0.5,1.4-0.8"/>
		<path class="st0" d="M142.5,108.2c0.4-0.2,0.8-0.4,1.1-0.7"/>
		<path class="st0" d="M158.7,88.4c0-0.1,0-0.3,0-0.4"/>
		<path class="st0" d="M158.7,88.4c0-0.1,0-0.3,0-0.4"/>
		<path class="st0" d="M158.7,86.9c0-0.4,0-0.8,0-1.2"/>
		<path class="st0" d="M158.7,87.9c0-0.1,0-0.1,0-0.2"/>
		<path class="st0" d="M158.7,88c0-0.1,0-0.2,0-0.2"/>
		<path class="st0" d="M158.7,87.7c0-0.3,0-0.5,0-0.8"/>
		<path class="st0" d="M111.4,64c0.7-0.1,1.4-0.3,2-0.4"/>
		<path class="st0" d="M111.2,63.1c0.7-0.1,1.4-0.3,2-0.4"/>
		<path class="st0" d="M122.6,116.3c0.1,0,0.2-0.1,0.3-0.1"/>
		<path class="st0" d="M122.7,116.3c0.6-0.2,1.2-0.3,1.8-0.5"/>
		<path class="st0" d="M123,116.3c0.5-0.1,1-0.3,1.5-0.4"/>
		<path class="st0" d="M113.4,63.6c1.7-0.4,3.4-0.8,5.1-1.3"/>
		<path class="st0" d="M113.2,62.7c1.7-0.4,3.4-0.8,5-1.3"/>
		<path class="st0" d="M135.9,54.4c0.1-0.1,0.3-0.1,0.4-0.2"/>
		<path class="st0" d="M136.3,54.2c0.1,0,0.2-0.1,0.3-0.1"/>
		<path class="st0" d="M136.6,54.1c0.3-0.2,0.6-0.3,0.9-0.5"/>
		<path class="st0" d="M115.7,167.3c2.1-0.8,4.1-1.8,6.1-2.9c1.7-1,3.4-2,4.9-3.3"/>
		<path class="st0" d="M33.5,160.6c1.2,1,2.5,1.9,3.8,2.7c1.5,0.9,3,1.7,4.6,2.5"/>
		<path class="st0" d="M42.3,165.9c0.3,0.1,0.6,0.3,0.9,0.4c1,0.4,2,0.8,3,1.2"/>
		<path class="st0" d="M63.9,218.4c-3.4-0.4-6.7-0.9-10-1.6c-3.1-0.6-6.2-1.4-9.3-2.4c-2.8-0.9-5.6-1.8-8.3-3
			c-2.4-1-4.8-2.2-7.1-3.6c-1-0.6-2.1-1.3-3-2c-0.9-0.7-1.8-1.3-2.7-2.1c-0.8-0.7-1.6-1.4-2.3-2.2c-0.7-0.7-1.3-1.5-1.9-2.2
			c-0.5-0.7-1-1.5-1.4-2.3c-0.4-0.8-0.7-1.5-1-2.4c-0.3-0.8-0.5-1.6-0.6-2.4c-0.1-0.8-0.2-1.6-0.1-2.4"/>
		<path class="st0" d="M141.8,198.2c-1.1,2-2.6,3.7-4.3,5.3c-1,0.9-2,1.7-3,2.5c-1.1,0.8-2.3,1.6-3.5,2.3c-1.3,0.8-2.6,1.5-4,2.1
			c-1.5,0.7-3,1.4-4.5,2c-1.6,0.6-3.2,1.2-4.9,1.7c-1.7,0.6-3.5,1.1-5.2,1.5c-3.7,1-7.5,1.7-11.4,2.3c-4,0.6-8.1,1-12.2,1.3
			c-4.2,0.2-8.3,0.3-12.5,0.2c-4.1-0.1-8.3-0.4-12.4-0.9"/>
		<path class="st0" d="M66.4,172.1c-3.3-0.4-6.7-1-9.9-1.7c-3.1-0.7-6.1-1.5-9.1-2.5c-1.4-0.5-2.7-1-4.1-1.5
			c-1.3-0.5-2.5-1.1-3.8-1.7c-1.1-0.6-2.3-1.2-3.4-1.9c-1-0.6-2-1.3-3-2"/>
		<path class="st0" d="M33.2,160.8c-1.1-0.8-2.2-1.7-3.2-2.7c-0.9-0.9-1.7-1.9-2.4-2.9"/>
		<path class="st0" d="M17.6,147.8c0-0.6,0.1-1.3,0.2-1.9c0.1-0.6,0.3-1.3,0.5-1.9"/>
		<path class="st0" d="M142.2,144.8c0.2,0.6,0.4,1.3,0.5,1.9c0.1,0.6,0.2,1.3,0.2,1.9"/>
		<path class="st0" d="M143.8,190.7c0,0.6,0,1.3-0.1,1.9c-0.1,0.6-0.2,1.3-0.4,1.9c-0.4,1.3-0.9,2.5-1.6,3.7"/>
		<path class="st0" d="M132.4,156.4c-0.7,0.9-1.5,1.8-2.3,2.6c-0.9,0.9-1.9,1.7-3,2.5"/>
		<path class="st0" d="M127,161.5c-1.6,1.2-3.4,2.2-5.1,3.1c-2,1-4.1,1.9-6.2,2.7c-2.3,0.9-4.7,1.6-7.1,2.2
			c-2.6,0.7-5.2,1.2-7.8,1.7c-2.7,0.5-5.5,0.9-8.3,1.1c-2.9,0.3-5.7,0.5-8.6,0.5c-2.9,0.1-5.8,0-8.7-0.1c-2.9-0.1-5.7-0.4-8.6-0.7"
			/>
		<path class="st0" d="M18.5,144.5c-0.2,0.7-0.3,1.5-0.4,2.3c-0.1,0.8-0.1,1.5,0,2.3c0.1,0.8,0.2,1.5,0.4,2.3
			c0.2,0.8,0.5,1.5,0.8,2.3c0.7,1.6,1.7,3,2.8,4.4c0.6,0.7,1.3,1.4,2,2.1c0.8,0.7,1.5,1.4,2.4,2c1.8,1.4,3.8,2.7,5.8,3.8
			c2.3,1.3,4.6,2.3,7.1,3.3c2.7,1.1,5.4,2,8.1,2.7c3,0.8,6,1.5,9,2.1"/>
		<line class="st0" x1="56.4" y1="173.9" x2="56.5" y2="174"/>
		<path class="st0" d="M64.6,175.2c3.3,0.4,6.5,0.7,9.8,0.8c3.3,0.2,6.6,0.2,10,0.1c3.3-0.1,6.6-0.3,9.9-0.6
			c3.2-0.3,6.4-0.7,9.5-1.3"/>
		<path class="st0" d="M103.8,174.2c3-0.5,6.1-1.2,9-2c2.8-0.7,5.5-1.6,8.2-2.6c2.4-0.9,4.8-2,7.1-3.2c2-1.1,4-2.3,5.8-3.7
			c0.8-0.6,1.6-1.3,2.4-2c0.7-0.7,1.4-1.3,2-2.1c1.1-1.3,2.1-2.8,2.9-4.4c0.3-0.7,0.6-1.5,0.8-2.2c0.2-0.7,0.3-1.5,0.4-2.3
			c0.1-0.8,0.1-1.5,0-2.3c-0.1-0.8-0.2-1.5-0.4-2.3"/>
		<path class="st0" d="M64.5,175.7c-3.3-0.4-6.6-0.9-9.8-1.6c-3.1-0.6-6.1-1.4-9.1-2.3c-2.8-0.8-5.5-1.8-8.2-3c-2.4-1-4.7-2.2-7-3.5
			c-1-0.6-2-1.3-3-1.9c-0.9-0.6-1.8-1.3-2.6-2c-0.8-0.7-1.5-1.4-2.2-2.1c-0.7-0.7-1.3-1.4-1.8-2.2c-0.5-0.7-1-1.5-1.4-2.3
			c-0.4-0.7-0.7-1.5-1-2.3c-0.3-0.8-0.4-1.5-0.6-2.3c-0.1-0.8-0.2-1.6-0.1-2.3"/>
		<path class="st0" d="M142.8,148.6c0,1-0.1,2-0.3,3c-0.2,1-0.6,2-1,3c-0.5,1-1.1,2-1.7,2.9c-0.7,1-1.5,1.9-2.4,2.8
			c-1,1-2,1.9-3.1,2.7c-1.2,0.9-2.4,1.7-3.7,2.5c-1.4,0.8-2.8,1.6-4.3,2.3c-1.6,0.8-3.2,1.5-4.8,2.1c-1.7,0.7-3.5,1.3-5.3,1.8
			c-1.9,0.6-3.8,1.1-5.7,1.6c-4.1,1-8.2,1.7-12.4,2.3c-4.4,0.6-8.8,0.9-13.2,1c-4.5,0.1-9,0-13.5-0.3"/>
		<path class="st0" d="M15.4,41.2c0.2,0.3,0.3,0.6,0.5,0.9c0.5,0.9,1.1,1.7,1.8,2.5"/>
		<path class="st0" d="M18.2,45.2c0.2,0.3,0.5,0.5,0.7,0.8c0.8,0.8,1.7,1.6,2.5,2.4"/>
		<path class="st0" d="M22.1,48.9c0.3,0.3,0.7,0.5,1,0.8c1.1,0.8,2.2,1.5,3.3,2.3"/>
		<path class="st0" d="M27.1,52.3c0.4,0.3,0.8,0.5,1.3,0.7c1.3,0.7,2.7,1.4,4.1,2.1"/>
		<path class="st0" d="M32.9,55.4c2.2,1,4.5,1.9,6.8,2.7c2.5,0.9,5,1.6,7.5,2.3c2.7,0.7,5.4,1.3,8.1,1.8c2.9,0.5,5.7,1,8.6,1.3"/>
		<line class="st0" x1="64" y1="63.6" x2="64" y2="63.6"/>
		<path class="st0" d="M145.8,43c-0.9,1.5-2.1,2.8-3.3,4c-1.4,1.4-2.9,2.6-4.5,3.8c-1.8,1.3-3.7,2.4-5.7,3.4c-2.2,1.1-4.4,2.1-6.7,3
			c-2.5,1-5.1,1.8-7.6,2.6c-2.8,0.8-5.6,1.5-8.4,2.1c-3,0.6-6,1.1-9,1.5c-3.1,0.4-6.2,0.7-9.4,0.9"/>
		<path class="st0" d="M146.8,137.6c1.6-2.9,3-5.9,4.2-9c1.2-3.1,2.2-6.2,3.1-9.4c1.7-6.3,2.8-12.7,3.4-19.2"/>
		<path class="st0" d="M3.5,99c0.5,6.5,1.5,13,3.2,19.3c0.8,3.2,1.8,6.3,3,9.4c1.2,3.1,2.5,6.1,4.1,9"/>
		<path class="st0" d="M52.2,119.1c-5.6-1-11.1-2.3-16.5-4.1c-2.5-0.8-4.9-1.7-7.3-2.7c-2.2-0.9-4.4-1.9-6.6-3"/>
		<path class="st0" d="M20.5,108.6c-0.6-0.3-1.2-0.7-1.8-1c-1.7-1-3.4-2.1-5-3.3"/>
		<line class="st0" x1="13.6" y1="104.3" x2="13.6" y2="104.2"/>
		<path class="st0" d="M13.6,104.2c-0.5-0.4-0.9-0.7-1.4-1.1c-1.3-1-2.5-2.2-3.6-3.4"/>
		<path class="st0" d="M7.4,98.4c-1.1-1.4-2.2-2.9-3-4.5c-0.7-1.5-1.3-3-1.6-4.6"/>
		<path class="st0" d="M158.7,88.4c0,0.4-0.1,0.8-0.2,1.2c-0.2,1.2-0.5,2.4-1,3.5"/>
		<path class="st0" d="M157.5,93.1c-0.5,1.4-1.2,2.6-2,3.9c-0.9,1.3-1.9,2.6-3,3.7c-1.2,1.3-2.5,2.5-3.9,3.5
			c-1.5,1.2-3.1,2.3-4.8,3.3"/>
		<path class="st0" d="M143.8,107.5c-0.3,0.2-0.7,0.4-1,0.6c-1.1,0.6-2.1,1.2-3.2,1.8"/>
		<path class="st0" d="M138.4,110.4c-1.1,0.5-2.1,1-3.2,1.5c-3.5,1.5-7.1,2.8-10.8,3.9"/>
		<path class="st0" d="M122.6,116.3c-4,1.1-8,2-12.1,2.8c-4.3,0.8-8.6,1.4-13,1.8c-4.5,0.4-9,0.7-13.5,0.7c-4.5,0.1-9.1,0-13.6-0.3"
			/>
		<path class="st0" d="M2.6,87.4c0.1,0.9,0.2,1.9,0.5,2.8c0.2,0.9,0.6,1.9,1,2.8c0.9,1.9,2,3.8,3.4,5.4"/>
		<path class="st0" d="M8.6,99.7c0.4,0.4,0.7,0.8,1.1,1.2c1.2,1.2,2.6,2.3,4,3.4"/>
		<path class="st0" d="M13.7,104.3c0.6,0.5,1.2,0.9,1.8,1.3c2,1.4,4.1,2.6,6.2,3.7"/>
		<line class="st0" x1="21.7" y1="109.3" x2="21.9" y2="109.3"/>
		<path class="st0" d="M23,109.9c2.7,1.3,5.4,2.5,8.2,3.5c3,1.1,6.1,2.1,9.2,3c3.3,0.9,6.7,1.7,10,2.3c3.5,0.7,7.1,1.2,10.7,1.7"/>
		<path class="st0" d="M67.6,64c6.3,0.6,12.6,0.8,18.9,0.6c6.2-0.2,12.4-0.8,18.5-1.8c2.9-0.5,5.8-1.1,8.6-1.7
			c2.7-0.7,5.3-1.4,8-2.3c2.4-0.8,4.8-1.7,7.2-2.8c2.1-0.9,4.2-2,6.2-3.2"/>
		<path class="st0" d="M16.7,43.5c0.9,1.3,2,2.5,3.1,3.5c1.3,1.2,2.6,2.3,4.1,3.3c1.6,1.1,3.3,2.2,5,3.1c1.9,1,3.8,2,5.8,2.8
			c2.1,0.9,4.3,1.7,6.5,2.5c2.3,0.8,4.7,1.5,7.1,2.1C53.5,62,58.7,63,64,63.6"/>
		<path class="st0" d="M61,120.4c5.3,0.6,10.6,1,15.9,1.2c5.3,0.1,10.7,0,16-0.3c5.2-0.3,10.4-0.9,15.5-1.8
			c4.8-0.8,9.6-1.8,14.3-3.2"/>
		<path class="st0" d="M124.5,115.8c1.2-0.4,2.3-0.7,3.5-1.1c3.3-1.1,6.5-2.4,9.6-3.9"/>
		<path class="st0" d="M143.6,107.6c0.4-0.2,0.8-0.5,1.2-0.8c1.1-0.7,2.3-1.5,3.3-2.3"/>
		<path class="st0" d="M148.2,104.4c1.5-1.2,2.9-2.4,4.2-3.8c1.2-1.2,2.3-2.5,3.2-4c0.8-1.3,1.6-2.7,2.1-4.1c0.5-1.4,0.8-2.8,1-4.2"
			/>
		<line class="st0" x1="158.7" y1="88" x2="158.7" y2="87.9"/>
		<path class="st0" d="M148,44.5c-1.3,1.8-2.8,3.3-4.4,4.7c-1.9,1.6-4,3.1-6.1,4.3"/>
		<path class="st0" d="M135.9,54.4c-2.6,1.5-5.4,2.7-8.2,3.8c-3.1,1.2-6.3,2.3-9.5,3.1"/>
		<path class="st0" d="M111.2,63.1c-3.8,0.8-7.6,1.4-11.5,1.9c-4,0.5-8,0.8-12.1,0.9c-4.1,0.2-8.2,0.1-12.3,0c-4-0.2-8.1-0.5-12.1-1
			"/>
		<path class="st0" d="M63.2,64.9c-3.8-0.5-7.6-1.1-11.4-1.9c-3.6-0.7-7.1-1.6-10.5-2.7c-3.2-1-6.3-2.1-9.4-3.5
			c-2.7-1.2-5.4-2.6-7.9-4.1"/>
		<path class="st0" d="M23.9,52.7c-0.4-0.2-0.7-0.5-1.1-0.7c-1.1-0.7-2.1-1.4-3.1-2.2"/>
		<path class="st0" d="M19.8,49.8c-0.6-0.4-1.1-0.9-1.6-1.4c-1.5-1.3-2.8-2.7-4-4.3"/>
		<path class="st0" d="M148.8,45.1c-0.4,0.5-0.7,1-1.1,1.4c-1.3,1.5-2.7,2.9-4.2,4.1"/>
		<path class="st0" d="M143.5,50.6c-0.5,0.4-1,0.8-1.4,1.1c-1.6,1.2-3.2,2.2-4.9,3.2"/>
		<path class="st0" d="M137.1,54.9c-0.7,0.4-1.3,0.7-2,1.1c-2.2,1.1-4.4,2.1-6.7,3"/>
		<path class="st0" d="M128.4,59c-0.8,0.3-1.6,0.6-2.4,0.9c-2.5,0.9-5,1.7-7.6,2.4"/>
		<path class="st0" d="M111.4,64c-3.8,0.8-7.7,1.4-11.6,1.9c-4,0.5-8.1,0.8-12.2,0.9c-4.1,0.2-8.2,0.1-12.4,0
			c-4.1-0.2-8.1-0.5-12.2-1"/>
	</g>
</g>
</svg>
