<?xml version="1.0" encoding="utf-8"?>
<!-- Generator: Adobe Illustrator 27.1.1, SVG Export Plug-In . SVG Version: 6.00 Build 0)  -->
<svg version="1.1" id="Layer_1" xmlns="http://www.w3.org/2000/svg" xmlns:xlink="http://www.w3.org/1999/xlink" x="0px" y="0px"
	 viewBox="0 0 108.8 60.7" style="enable-background:new 0 0 108.8 60.7;" xml:space="preserve">
<style type="text/css">
	.st0{fill:none;stroke:#000000;stroke-width:0.216;stroke-linejoin:bevel;stroke-miterlimit:22.926;}
	.st1{clip-path:url(#SVGID_00000133511897724377535420000015266802345179241620_);fill:#FFFFFF;}
	
		.st2{clip-path:url(#SVGID_00000133511897724377535420000015266802345179241620_);fill:none;stroke:#000000;stroke-width:0.216;stroke-linejoin:bevel;stroke-miterlimit:22.926;}
	.st3{fill:#FFFFFF;}
	.st4{fill:none;stroke:#000000;stroke-miterlimit:10;}
	.st5{fill:none;stroke:#000000;stroke-width:0.283;stroke-miterlimit:22.926;}
	.st6{clip-path:url(#SVGID_00000169529070692619858320000016969920458865266102_);fill:#FFFFFF;}
	.st7{clip-path:url(#SVGID_00000169529070692619858320000016969920458865266102_);fill:none;stroke:#000000;stroke-miterlimit:10;}
	
		.st8{clip-path:url(#SVGID_00000169529070692619858320000016969920458865266102_);fill:none;stroke:#000000;stroke-width:0.323;stroke-linecap:round;stroke-linejoin:round;stroke-miterlimit:10;}
	
		.st9{clip-path:url(#SVGID_00000169529070692619858320000016969920458865266102_);fill:none;stroke:#000000;stroke-width:0.102;stroke-linecap:round;stroke-linejoin:round;stroke-miterlimit:10;}
</style>
<path class="st0" d="M22.9,10.3l-0.2-0.1 M30.8,12.3l0.2,0.1 M20.2,10l0.2,0.1 M28.4,12.1l0.2,0.1 M26.6,11.8l-0.2-0.1 M26.6,11.9
	l-0.2-0.1 M21.8,10.9L22,11 M19.8,11.2l-0.2-0.1 M19.8,11.3l-0.2-0.1 M20.6,10l-0.3-0.1 M20.6,10.1L20.3,10 M26.2,11.9l0.3,0.1
	 M19.4,11.3l0.3,0.1 M22.7,10.1l-0.3,0 M24.7,10.3l-0.3,0 M28.1,10.6l-1.8-0.2 M28.9,10.7l-0.4,0 M30.5,10.8l-0.3,0 M32,10.9l-0.5,0
	 M22.7,10.2l-0.3,0 M24.6,10.4l-0.3,0 M28.1,10.7l-1.8-0.2 M28.9,10.8l-0.3,0 M30.4,10.9l-0.3,0 M32,11l-0.5,0 M26.2,10.6l1.4,0.1
	 M22.3,10.2l0.3,0 M31.5,11.1l0.5,0 M30.7,11.2l0.3,0 M23,10.5l0.3,0 M24.2,10.7l-0.5,0 M25.7,10.8l-1.2-0.1 M24.2,10.8l-0.5,0
	 M25.7,10.9l-1.2-0.1 M24.4,10.9l0.9,0.1 M23.6,10.8l0.5,0 M23.2,10.8l-0.4,0 M29.9,11.4L29,11.3 M23.1,10.9l-0.3,0 M29.9,11.5
	L29,11.4 M22.4,10.9l-0.3,0 M28.9,11.5l1,0.1 M22.4,11l-0.3,0 M22,11l0.3,0 M30.8,11.9l-0.3,0 M27.6,11.7l-0.3,0 M30.8,12l-0.3,0
	 M27.6,11.8l-0.2,0 M31.5,12.2l-0.5,0 M22.7,11.4l-1.5-0.1 M26.8,11.8l-0.2,0 M29.7,12.1l-1-0.1 M31.6,12.3l-0.5,0 M22.7,11.5
	l-1.5-0.1 M26.8,11.9l-0.2,0 M29.7,12.2l-1-0.1 M31,12.3l0.5,0 M28.7,12.1l1.2,0.1 M26.5,11.9l0.2,0 M23.8,11.7l0.3,0 M21.1,11.5
	l1.7,0.2 M26.7,12l0.4,0 M20.3,9.9l-0.3,0 M20.3,10L20,10 M19.7,11.3l0.3,0 M19.9,10.1l0.3,0 M22.4,10.1l-0.3,0 M22.4,10.2l-0.3,0
	 M22.3,11l0.3,0 M20,11.2l-0.3,0 M31.6,10.9l-0.3,0 M20,11.3l-0.3,0 M31.6,11l-0.3,0 M27.1,11.8l-0.3,0 M27.1,11.9l-0.3,0
	 M22.1,10.2l0.2,0 M22.6,10.9l-0.2,0 M22.6,11l-0.2,0 M31.3,11.1l0.2,0 M20,9.9L19.7,10 M20,10l-0.3,0.1 M22.1,10.1l-0.3,0.1
	 M22.1,10.2l-0.3,0.1 M20,11.3l0.3-0.1 M22.6,11l0.3-0.1 M19.8,10.1l0.2,0 M21.9,10.3l0.2,0 M20.2,11.1l-0.2,0 M20.2,11.2l-0.2,0
	 M16.2,8.8l-0.1-0.9 M15.4,9l-0.1-1.5 M17.7,33l0.2,2.3 M14.9,7.2L15,8.6 M19.6,44.2l-0.3-3.7 M10.9,16.9L10.9,16.9 M24.1,24.7
	l-0.2-0.3 M37.3,31l-2.2-2 M35.1,30.4l-1.1-1 M31.2,30.6l1.1,1 M24.3,17l-0.8-0.1 M24.3,17.1L23.5,17 M31.5,12.4l0.3,0 M31.8,12.2
	l-0.2,0 M31.8,12.3l-0.2,0 M28.7,11.5l0.2,0 M39,11.6l1.3-0.2 M40.6,11.8L39.3,12 M40.7,11.9l-1.3,0.2 M28.7,11.4l-0.2,0 M31.3,10.9
	l-0.2,0 M28.7,11.5l-0.2,0 M31.3,11l-0.2,0 M27.1,12l0.2,0 M31.7,12.4l0.2,0 M9.4,16.7l-0.9,0.2 M10.9,16.8l-2.1,0.5 M10.5,17.7
	L9,18 M38.6,9.2l1.2-0.3 M27.2,11.7l-0.2,0 M27.2,11.8l-0.2,0 M31.1,11.1l0.2,0 M31.9,12.1l-0.2,0 M31.9,12.2l-0.2,0 M10.1,18.2
	l-1,0.3 M10.2,18.3l-1,0.3 M8.9,16.8l-0.1-2.3 M8.8,21.1L9,24.2 M8.6,20.8l-0.1-1 M8.5,24.2l0.1,0.8 M11.1,19.1l-0.2-2.2 M7.9,25.5
	L7.9,25.5 M8,26.5L8,26.5 M31.2,31.3l1.1,1 M29,31.4l2.2,2 M29.1,33.3l2.1,1.9 M38.2,33.9l0.4,0.3 M22.4,23.5l0.9,0.4 M22.9,18.4
	l-2.5-0.2 M26.2,18.7l-2.5-0.2 M22.9,18.5l-2.5-0.2 M26.2,18.7l-2.5-0.2 M23.5,18.9l2.5,0.2 M20.2,18.6l2.5,0.2 M22.2,20.3l0.8,0.1
	 M4.5,25.7L4.5,25.7 M5.6,24.6l0,0.5 M5.8,28.8L5.6,25 M4.2,31.1l0.1,2.1 M7.9,23.5l0-0.5 M8.3,24.3l0-0.5 M8.2,27L8.2,27 M8,23.8
	l0.1,1.4 M7.7,26.3l0-0.6 M5.7,26.6l0-0.2 M4.5,26.8l-0.1-1 M7.9,25.5l0.1,1 M8.7,24.3L8.8,25 M8.9,24.5l-0.2-0.3 M26.2,26.3
	L26.2,26.3 M42.9,31.3l-0.5-0.2 M43.1,33.5l-0.6-0.2 M38.6,29.3l0.8,0.3 M37.6,30.8l1,0.3 M39.6,31.7l-1.2-0.4 M37.5,31l0.9,0.3
	 M41.7,27.1L40.8,27 M41.8,28.9l0.5,0.1 M37.9,26.2L37,26.2 M36.4,27.1l0.7,0.1 M7.8,23.3l-1.3-0.1 M6.5,24.6l-0.9,0 M3,27.7
	l-0.6,0.1 M6.4,27.9l0.9-0.2 M9,24.1l-0.7,0.1 M8.3,25.1l1-0.2 M8.6,28.5l0.5-0.1 M2.1,26.1l0,1 M2.4,27.8l0,0.6 M2.6,28.8l0-0.4
	 M3.7,28.7l0.2,2.7 M3.1,29.8L3,27.7 M3,29l0-0.6 M1.5,33l-0.6-3.9 M27.1,35.8l0.2,0.1 M26.4,30.9l0.5,0.2 M22.8,30.4l1.8,0.7
	 M42,29.9l-0.1,0 M38.1,29.6l-0.8-0.1 M43.5,24.6l-2.5,0.2 M5.8,28.8l-1,0.1 M5.1,29.4L6,29.2 M44.8,25.2l0.2,0 M44.8,25.3l0.2,0
	 M2.4,28.3L3,28.2 M2.3,28.5L3,28.4 M7.7,29.6l0.6-0.1 M7.8,29.7L6.5,30 M8.8,29.5l-1.1,0.2 M9.4,28.8L8.8,29 M2.6,28.8L3,29"/>
<path class="st0" d="M28.9,10.6L28.9,10.6 M28.7,11.4L28.7,11.4 M28.7,12L28.7,12 M28.6,11.9L28.6,11.9 M28.5,11.4L28.5,11.4
	 M28.5,11.8L28.5,11.8 M28.5,11.7L28.5,11.7 M28.3,11.5L28.3,11.5 M28.2,11.6L28.2,11.6 M27.7,10.7L27.7,10.7 M29.1,33.3l-0.1-2
	 M27.4,11.7L27.4,11.7 M27.3,11.7L27.3,11.7 M27.1,11.8L27.1,11.8 M26.8,11.8L26.8,11.8 M26.6,11.8L26.6,11.8 M26.3,10.4L26.3,10.4
	 M26.4,11.7L26.4,11.7 M26.2,11.6L26.2,11.6 M26.2,11.5L26.2,11.5 M26.1,11.3L26.1,11.3 M26,11.3L26,11.3 M25.9,11.5L25.9,11.5
	 M25.9,11.5L25.9,11.5 M38.6,34.1L38.6,34.1 M26.2,11.6l-0.1-0.1 M26.2,11.7l-0.1-0.1 M42.9,31.4L42.9,31.4 M28.2,11.8l0.1,0.1
	 M32.6,11.2l-0.2-0.1 M32.6,11.3l-0.2-0.1 M30.5,12.1l0.2,0.1 M19.5,10.1l-0.1,0.1 M19.5,10l-0.1,0.1 M19.3,10.2L19.3,10.2
	 M19.3,10.1L19.3,10.1 M2.4,27.7L2.4,27.7 M20.8,11l0.1-0.1 M19.3,10.3l-0.1,0.1 M19.3,10.2l-0.1,0.1 M20.6,10.9L20.5,11 M20.6,10.8
	l-0.1,0.2 M19.4,10.4l0.1-0.2 M4.2,31.1L4.2,31.1 M21.7,10.5L21.7,10.5 M21.2,11.4L21.2,11.4 M21.2,11.3l-0.1,0.2 M21.5,10.5
	L21.5,10.5 M21.5,10.4l0,0.1 M20.9,10.8l0.1-0.3 M20.7,10.6l-0.1,0.2 M20.7,10.6l-0.1,0.2 M19.3,10.6l0.1-0.2 M19.1,10.5L19,10.8
	 M19.1,10.4L19,10.7 M20.7,10.5l0,0.2 M20.7,10.4l0,0.2 M21,10.5l0-0.2 M24.6,21l0,0.9 M26.4,30.9l-0.3-4.6 M22.4,23.5l0.4,7
	 M25.3,11L25.3,11 M24.5,10.7L24.5,10.7 M24.4,10.2L24.4,10.2 M24.2,10.7L24.2,10.7 M24.2,11.5L24.2,11.5 M24.1,10.9L24.1,10.9
	 M23.7,10.6L23.7,10.6 M23.2,10.4L23.2,10.4 M23.7,18.4L23.7,18.4 M23.1,10.3L23.1,10.3 M23.5,16.9L23.5,16.9 M22.9,10.1L22.9,10.1
	 M22.9,10.9L22.9,10.9 M22.8,10.8L22.8,10.8 M22.7,10.1L22.7,10.1 M22.7,11.4L22.7,11.4 M22.6,10.8L22.6,10.8 M22.9,18.3L22.9,18.3
	 M22.4,10.1L22.4,10.1 M22.4,10.9L22.4,10.9 M23.9,33.6l0.1,1.6 M22.7,18.8L22.7,18.8 M22.1,10.1L22.1,10.1 M22.1,10.8L22.1,10.8
	 M21.9,10.8L21.9,10.8 M21.8,10.1L21.8,10.1 M21.8,10.7L21.8,10.7 M21.7,10.6L21.7,10.6 M21.7,10.5L21.7,10.5 M21.6,10.3L21.6,10.3
	 M21.5,10.4L21.5,10.4 M21.2,11.3L21.2,11.3 M25.9,25.4l0.4,5.5 M24.1,24.6l0.4,6.5 M27,30.4l0.1,0.8 M23.5,33.6l0.2,2.3 M26.6,25.9
	l0.4,4.5 M21.7,10.6L21.7,10.6 M21.7,10.7L21.7,10.7 M21,10.4L21,10.4 M21,10.4L21,10.4 M19,10.8L19,10.8 M21.4,10.5l0,0.2
	 M23.3,10.5l-0.1-0.1 M23.3,10.5L23.3,10.5 M22.9,10.4l0.1,0.1 M21,10.3l-0.1-0.1 M21,10.4l-0.1-0.1 M19,10.9l0.1,0.1 M29.6,21.2
	l-0.5-0.8 M21.8,10.7l-0.1-0.1 M21.8,10.8L21.8,10.8 M20.6,10.2l0.1,0.2 M23.2,10.4l-0.1-0.1 M23.3,10.5l-0.1-0.1 M21.4,10.7
	l0.1,0.1 M18.7,6.2l-0.6-0.7 M18.4,6.1l-0.6-0.7 M28.6,11.9L28.6,11.9 M28.6,12L28.6,12 M25.9,11.6l0.2,0.1 M28.3,12l0.2,0.1
	 M32.2,11.2l0.1,0.1 M30.9,12.1L30.8,12 M30.9,12.2l-0.1-0.1 M26.4,11.7l-0.1-0.1 M26.4,11.8l-0.1-0.1 M32.5,11.1L32.3,11
	 M32.5,11.2l-0.2-0.1 M30.6,12.2l0.2,0.1 M8.7,22.4l0.1-0.2 M19.3,10.8l0-0.2 M19,10.8l0,0.1 M19,10.7l0,0.2 M17.1,8.3L17.1,8.3
	 M19.6,39.7l-0.1-2.1 M21,10.3L21,10.3 M20.9,10.2L20.9,10.2 M20.8,10.1L20.8,10.1 M20.7,10.4L20.7,10.4 M20.7,10.6L20.7,10.6
	 M20.6,9.9L20.6,9.9 M20.6,10.8L20.6,10.8 M20.5,10.9L20.5,10.9 M20.3,9.9L20.3,9.9 M20.2,11.1L20.2,11.1 M20,9.9L20,9.9 M20,11.2
	L20,11.2 M20.4,18.1L20.4,18.1 M19.8,11.2L19.8,11.2 M19.7,10L19.7,10 M19.5,10L19.5,10 M19.5,11.1L19.5,11.1 M19.4,11L19.4,11
	 M19.3,10.1L19.3,10.1 M19.3,10.2L19.3,10.2 M19.3,10.8L19.3,10.8 M19.1,10.4L19.1,10.4 M19,10.7L19,10.7 M17.2,7.6l0,0.3 M17,7.1
	l0.1,1.3 M16.8,7.6l0.1,0.9 M17.2,7.9l0-0.3 M16.9,6.6L16.9,6.6 M15.3,7.4L15.3,7.4 M19.4,11l-0.1-0.2 M19.4,11.1l-0.1-0.2
	 M20.9,10.2l-0.1-0.1 M20.9,10.3l-0.1-0.1 M19.1,11l0.1,0.1 M17,6.4l-0.7-0.6 M16.9,6.6l-1-0.8 M14,6.6l1.2,0.7 M13.6,7.4l0.9,0.5
	 M15.4,8.9l-0.2-0.1 M22.8,10.3l0.1,0.1 M21.9,10.8l-0.1-0.1 M21.9,10.9l-0.1-0.1 M20.5,10.1l0.1,0.1 M19.5,11.1L19.4,11 M19.5,11.2
	l-0.1-0.1 M23.1,10.3l-0.2-0.1 M23.1,10.4l-0.2-0.1 M20.8,10.1l-0.2-0.1 M20.8,10.2L20.6,10 M21.6,10.8l0.2,0.1 M19.2,11.1l0.2,0.1
	 M26,11.8l0.2,0.1 M28.7,12l-0.1,0 M28.7,12.1l-0.1,0 M32,11.1l0.2,0 M31.1,12.1l-0.2,0 M31.1,12.2l-0.2,0 M22.6,10.2l0.2,0
	 M22.1,10.8l-0.2,0 M22.1,10.9l-0.2,0 M32.3,11l-0.2-0.1 M32.3,11.1L32.1,11 M22.9,10.1l-0.2-0.1"/>
<path class="st0" d="M41.3,26.4L41.1,27 M41.7,27.2l0.3-0.7 M48.4,29.9l0.1-3.9 M28.9,29.9l-1.7,1.4 M27,30.4l1.3-1 M26.2,31
	l0.1-0.1 M40.8,22l-1.3,3 M41,25.1L41,25.1 M42,26.5L42,26.5 M44.8,25.2L44.8,25.2 M44.8,25.9l0-0.7 M44.8,25.9l0-0.7 M47.1,25.3
	l-0.2-2.1 M40.7,12.4l-0.1-0.4 M26.6,25.9l-0.5,0.4 M25.9,25.4l2.1-1.6 M23.9,24.4l1.9-1.5 M41.1,25L41,22.7 M41.6,24.7l-0.3-5.3
	 M40.8,22l0.2,3.3 M42.5,33.3l-0.1-2.1 M44.1,27l0,0.2 M42.3,29l0,0.6 M41.3,19.4l0-0.1 M41.9,30l-0.2-2.9 M41.3,27l0-0.6
	 M40.5,31.1l-0.1-2 M41.3,19.3l-0.5-6.9 M39.9,9.4l0-0.5 M42.9,31.4l0.2,2.1 M23.3,22.8l1.2-0.9 M23.2,23.8l1.5-1.1 M32.2,12
	l-0.1,0.1 M32.2,11.9L32.1,12 M32.4,12.1l0.1-0.1 M35.6,7.3L35.6,7.3 M34.4,6.7L34.4,6.7 M23.7,35.8L23.7,35.8 M23.9,35.2l-0.3,0.7
	 M32.5,11.9l0.2-0.5 M32.4,11.6L32.2,12 M32.4,11.5l-0.2,0.5 M38.1,29.6l-0.1-3.3 M36.5,9.2l0-0.3 M36,6.7l0.1,1.8 M38.7,9.8l0-0.5
	 M40.4,32l0.2,2.7 M38.4,36l0-0.7 M39.6,31.7l-0.1-2.1 M37.5,31l-0.1-0.9 M37.1,27.2l0.1,2.3 M37,26.1l0,0.5 M37.5,32.9l-0.1-2
	 M35.7,8.9l-0.1-1.5 M34.8,8.7l-0.1-0.9 M34.5,8.5l-0.1-0.9 M38.7,34.8l0-0.6 M39.4,12.2l0,0.4 M41.6,30.3L41,28.5 M40.4,29.1
	l0.5,1.7 M32,12.3l0.3-0.1 M31.1,11l-0.3,0.1 M31.1,10.9L30.8,11 M28.6,11.6l0.1-0.1 M27.3,11.9l0.3-0.1 M35.9,8.8l-0.2,0.1
	 M35.6,7.3L35.6,7.3 M28.5,11.5l-0.2,0.1 M28.5,11.4l-0.2,0.1 M32.1,12.1L32,12.2 M32.1,12l-0.1,0.1 M27.4,11.7l-0.1,0.1 M27.4,11.6
	l-0.1,0.1 M26.1,11.3L26,11.4 M34.5,6.6L34.5,6.6 M34.2,6l-0.5,0.4 M34,5.5l-0.9,0.6 M32.2,12.2l0.1-0.1 M26.2,11.5l0.1-0.1
	 M31,11.2L31,11.2 M28.5,11.7L28.5,11.7 M28.3,11.6L28.3,11.6 M28.3,11.5L28.3,11.5 M27.5,11.8l0.1-0.1 M30.8,11.1L30.8,11.1
	 M30.8,11l-0.1,0.1 M29.9,12.2l0.6-1.4 M29.8,11.7l-0.2,0.5 M30.2,10.9l-0.3,0.6 M29.8,11.6L29.7,12 M30.2,10.8l-0.3,0.6 M26,19.1
	l0.2-0.5 M28.5,11.7L28.5,11.7 M28.2,11.7l0,0.1 M28.2,11.6l0,0.1 M28.1,10.7l0.1-0.2 M32.7,11.5l0-0.2 M30.5,12L30.5,12 M30.5,11.9
	l0,0.2 M32.4,11.4l0,0.1 M32.4,11.3l0,0.1 M34.2,6l0-0.4 M34.3,8.4l-0.1-1.1 M35.1,31.1l0-0.7 M32.6,11.2L32.6,11.2 M32.5,11.1
	L32.5,11.1 M32.4,11.3L32.4,11.3 M32.4,11.5L32.4,11.5 M32.3,11L32.3,11 M32.2,11.9L32.2,11.9 M32,10.9L32,10.9 M32.1,12L32.1,12
	 M31.9,12.1L31.9,12.1 M31.8,12.2L31.8,12.2 M31.6,10.9L31.6,10.9 M31.6,12.2L31.6,12.2 M31.3,10.9L31.3,10.9 M31.1,10.9L31.1,10.9
	 M31.1,12.1L31.1,12.1 M32.3,32.2l0-0.7 M30.8,11L30.8,11 M30.9,12.1L30.9,12.1 M30.8,12L30.8,12 M30.8,11.9L30.8,11.9 M30.5,11.9
	L30.5,11.9 M30.2,10.8L30.2,10.8 M34.5,38.1L34.4,37 M30.8,12L30.8,12 M30.8,12.1L30.8,12.1 M28.5,11.8L28.5,11.8 M28.5,11.9
	L28.5,11.9 M28.1,11.7L28.1,11.7 M29,11.3l-0.2-0.7 M29,11.4l-0.2-0.7 M28.5,10.6l0.2,0.7 M32.7,11.3l-0.1-0.1 M32.7,11.4l0-0.1
	 M32.3,11.2l0.1,0.1 M22.8,10.9l-0.2,0.1 M22.8,10.8l-0.2,0.1 M27.7,10.8l-1.5,0.6 M27.6,10.7l-1.5,0.6 M26.3,11.4l1.7-0.6
	 M20.3,11.2l0.2-0.1 M19.7,10l-0.2,0.1 M19.7,10L19.5,10 M25.3,11.1l-1.1,0.5 M25.3,11l-1.1,0.5 M24.1,11.7l1.5-0.7 M21.8,10.2
	l-0.2,0.1 M21.8,10.1l-0.2,0.1 M26.1,11.3L26,11.3 M21.8,10.4l0.1-0.1 M20.5,11l-0.3,0.2 M20.5,10.9l-0.3,0.2 M19.5,10.3l0.3-0.2
	 M34.7,4.5l-0.4,0.2 M33.8,5.6L33,6.2 M20.5,11.2l0.1-0.1 M21.6,10.3l-0.2,0.1 M21.6,10.3l-0.2,0.1 M21.7,10.4L21.7,10.4 M20.6,11
	L20.6,11 M26,11.4l-0.1,0.1 M26,11.3l-0.1,0.1 M17.9,35.3L17.9,35.3 M23.7,18.4l0.6-1.5 M23,20.4l0.6-1.5 M26.2,11.5L26.2,11.5
	 M25.9,11.5L25.9,11.5 M26.3,10.5L26.3,10.5 M25.9,11.5L25.9,11.5 M26.3,10.4l-0.1,0.2 M22.7,18.9l-0.5,1.4 M23.5,17l-0.6,1.5
	 M22.7,18.8l-0.6,1.5 M23.5,16.9l-0.6,1.5 M25.6,11l0.1-0.2 M24.5,10.7l0.2-0.4 M24.2,11.5l0.2-0.6 M24.1,10.9l-0.3,0.7 M24.4,10.3
	l-0.2,0.4 M24.1,10.9l-0.3,0.8 M24.3,10.2l-0.2,0.4 M23.7,10.7L23.7,10.7 M23.7,10.6l-0.1,0.2 M20.4,18.2l-0.2,0.4 M20.4,18.1
	l-0.2,0.5 M22.9,11.6l0.3-0.8 M22.9,11l-0.2,0.5 M22.9,10.9l-0.2,0.5 M27.4,32.6l0-1 M25.9,11.5l0,0.1 M28.3,29.3l0,0.5 M31.2,31.3
	l0-0.7 M29.9,11.4L29.9,11.4 M29.8,11.6L29.8,11.6 M31.3,35.2l-0.1-1.8 M29.7,12L29.7,12 M29,11.3L29,11.3"/>
<g>
	<defs>
		<rect id="SVGID_1_" width="101.9" height="60.7"/>
	</defs>
	<clipPath id="SVGID_00000166663193608964743170000010882626169634332291_">
		<use xlink:href="#SVGID_1_"  style="overflow:visible;"/>
	</clipPath>
	<path style="clip-path:url(#SVGID_00000166663193608964743170000010882626169634332291_);fill:#FFFFFF;" d="M9.3,25.2
		c0.6,0.8,1.4,1.5,2.3,2.1c0.5,0.3,1,0.6,1.5,0.9c0.5,0.3,1.1,0.5,1.7,0.8c0.6,0.2,1.2,0.4,1.8,0.6c0.7,0.2,1.3,0.3,2,0.5
		c1.4,0.3,2.8,0.4,4.2,0.5 M18.7,6.2C18.7,6.2,18.7,6.1,18.7,6.2c-0.1-0.1-0.1-0.1-0.1-0.1c-0.1,0-0.1,0-0.2,0 M35.7,7.2
		c-0.1-0.1-0.2-0.1-0.3-0.2c-0.3-0.2-0.6-0.3-0.9-0.5 M9.3,24l0.1,1.1 M9.2,23l0.1,1 M9.1,20.7L9.2,23 M9,18.7l0.1,2 M8.8,22.3
		l-1,0.7 M8.8,21.1l-0.2-4.2 M8.8,22.3l0-0.8 M36.4,27.1c-0.5,0.3-1.1,0.6-1.6,0.9c-0.6,0.3-1.2,0.6-1.8,0.8c-1.3,0.5-2.7,0.9-4,1.1
		 M8.3,24.3c0-0.1-0.1-0.1-0.1-0.2c-0.1-0.2-0.2-0.4-0.3-0.6 M9,25l0-0.4 M40.1,10.2c0,0.1,0.1,0.2,0.1,0.2c0,0.1,0,0.2,0.1,0.3
		c0,0.2,0.1,0.4,0.1,0.5 M40.1,10.2c0-0.1-0.1-0.3-0.1-0.4c0-0.1-0.1-0.3-0.1-0.4 M39.7,7.6c0.1,0.2,0.1,0.5,0.1,0.7
		c0,0.2,0.1,0.4,0.1,0.6 M15.8,5.7c0.1,0,0.1,0,0.2,0c0,0,0.1,0,0.1,0c0,0,0.1,0,0.1,0 M13.6,7.4c0-0.1,0-0.1,0-0.2
		c0-0.1,0-0.1,0.1-0.2c0-0.1,0.1-0.1,0.1-0.2c0-0.1,0.1-0.1,0.2-0.1 M17.9,5.5c0.1,0,0.1,0,0.2,0c0,0,0,0,0.1,0c0,0,0,0,0.1,0
		 M8,26.6c0.1,0.4,0.3,0.7,0.5,1.1c0.2,0.4,0.5,0.7,0.8,1c0.3,0.3,0.6,0.7,1,1c0.4,0.3,0.8,0.6,1.2,0.9c0.4,0.3,0.9,0.6,1.3,0.8
		c0.5,0.3,1,0.5,1.5,0.7c1.1,0.4,2.3,0.8,3.4,1 M15.7,9c-0.1,0-0.1,0-0.2,0c-0.1,0-0.1,0-0.2-0.1 M35.7,8.9
		C35.7,8.9,35.6,8.9,35.7,8.9C35.5,9,35.4,9,35.3,9 M34.5,8.5C34.5,8.5,34.5,8.5,34.5,8.5c-0.1,0-0.1-0.1-0.1-0.1c0,0,0,0,0,0
		c0,0,0,0,0,0c0,0,0,0,0,0c0,0,0,0,0,0c0,0,0,0,0,0 M35.3,9c0,0-0.1,0-0.1-0.1c-0.1-0.1-0.2-0.1-0.3-0.2 M39.3,6.9
		c-0.1-0.1-0.1-0.1-0.2-0.2c-0.2-0.2-0.4-0.4-0.6-0.6 M39.7,7.6c0-0.1-0.1-0.2-0.2-0.4c-0.1-0.1-0.2-0.2-0.2-0.3 M38,5.9
		c0.1,0,0.1,0.1,0.2,0.1c0.1,0.1,0.1,0.1,0.2,0.2 M34.9,4.5c0.6,0.2,1.2,0.4,1.7,0.6c0.5,0.2,1,0.4,1.4,0.7 M34.2,6
		c0,0.1,0,0.1,0,0.2c0,0,0,0.1,0,0.1c0,0,0,0-0.1,0.1 M36,8.7C36,8.7,36,8.7,36,8.7C36,8.7,36.1,8.7,36,8.7 M35.9,8.8
		C35.9,8.8,35.9,8.8,35.9,8.8C35.9,8.7,36,8.7,35.9,8.8 M15.8,5.7c-0.2,0.1-0.3,0.1-0.5,0.2c-0.5,0.2-0.9,0.4-1.3,0.7 M8.3,25.1
		c-0.1,0-0.1,0-0.2,0.1c0,0-0.1,0.1-0.1,0.1c0,0-0.1,0.1-0.1,0.1c0,0,0,0.1,0,0.1 M10.2,18.3c0.7,0.7,1.5,1.4,2.3,1.9
		c0.5,0.3,1,0.6,1.5,0.8c0.5,0.2,1.1,0.5,1.6,0.7c0.6,0.2,1.2,0.4,1.8,0.5c0.6,0.2,1.3,0.3,1.9,0.4c1.3,0.2,2.7,0.3,4,0.3
		 M25.7,20.3c-0.1,0-0.3,0-0.4,0.1c-0.1,0-0.2,0.1-0.4,0.2c0,0-0.1,0.1-0.1,0.1c0,0-0.1,0.1-0.1,0.1c0,0,0,0.1-0.1,0.1
		c0,0,0,0.1,0,0.1 M29.1,20.4c-0.1-0.1-0.1-0.2-0.2-0.2c-0.1,0-0.1-0.1-0.2-0.1c-0.1,0-0.1,0-0.2-0.1c-0.1,0-0.3-0.1-0.4-0.1
		c-0.1,0-0.3,0-0.4,0 M34.3,4.9c0,0,0,0.1,0,0.1c0,0.2-0.1,0.3-0.1,0.5 M34.2,5.6L34.2,5.6 M18.8,6.3C18.8,6.3,18.8,6.3,18.8,6.3
		c0-0.1,0-0.1-0.1-0.1 M17.1,6.6c0,0,0-0.1,0-0.1c0,0,0-0.1-0.1-0.1 M10.9,16.7c-0.2-0.4-0.4-0.7-0.5-1.1c-0.1-0.4-0.2-0.8-0.2-1.2
		 M14.6,8.9l0,0.3 M16.9,6.6c0,0,0,0.1,0,0.1C17,6.8,17,6.9,17,7.1 M34.5,6.6c0,0,0.1-0.1,0.1-0.1c0,0,0.1-0.1,0.1-0.1
		c0,0,0-0.1,0.1-0.2c0,0,0-0.1,0-0.1 M39.4,12.5c0,0.4,0,0.9-0.1,1.3c-0.1,0.5-0.3,0.9-0.5,1.3c-0.2,0.5-0.5,0.9-0.8,1.3
		c-0.3,0.4-0.7,0.8-1.2,1.2c-0.5,0.4-1,0.8-1.5,1.1c-0.6,0.4-1.1,0.7-1.7,1c-0.6,0.3-1.3,0.6-2,0.8c-0.7,0.2-1.4,0.5-2.1,0.6
		 M23.7,35.9c-1,0-2,0-3-0.1c-1-0.1-1.9-0.2-2.8-0.4 M27.4,32.6c0,0,0,0.1,0,0.1c0,0,0,0.1-0.1,0.1c0,0-0.1,0.1-0.1,0.1
		c0,0-0.1,0.1-0.1,0.1c-0.1,0.1-0.2,0.1-0.4,0.2c-0.1,0-0.3,0.1-0.4,0.1 M27.4,31.6c0-0.1,0-0.1,0-0.2c0-0.1-0.1-0.1-0.1-0.1
		c0-0.1-0.1-0.1-0.2-0.1c-0.1,0-0.1-0.1-0.2-0.1 M40.6,11.8C40.6,11.8,40.7,11.8,40.6,11.8C40.7,11.8,40.7,11.8,40.6,11.8
		C40.7,11.8,40.7,11.8,40.6,11.8c0,0.1,0,0.1,0,0.2 M39.4,12C39.3,12,39.3,12,39.4,12C39.3,12,39.3,12,39.4,12
		C39.3,12,39.3,12,39.4,12c0,0.1,0,0.1,0,0.1c0,0,0,0.1,0,0.1c0,0.1,0,0.1,0,0.2 M10.1,18.2C10.1,18.2,10.1,18.2,10.1,18.2
		c0.1,0,0.1,0,0.1,0c0,0,0,0,0,0 M9.1,18.5C9.1,18.5,9,18.5,9.1,18.5C9,18.5,9,18.5,9.1,18.5C9,18.6,9,18.6,9,18.6c0,0,0,0.1,0,0.1
		 M8.8,14.4c0-0.3,0-0.6,0-1c0-0.3,0.1-0.6,0.2-1c0.1-0.3,0.2-0.6,0.4-0.9c0.2-0.3,0.3-0.6,0.5-0.9c0.2-0.3,0.4-0.6,0.7-0.9
		c0.3-0.3,0.5-0.6,0.8-0.9c0.6-0.6,1.4-1.1,2.1-1.6 M33.8,5.6C33.9,5.5,33.9,5.5,33.8,5.6c0.1,0,0.2,0,0.2,0 M33,6.2
		C33,6.2,32.9,6.2,33,6.2c-0.1,0.1-0.1,0.1-0.1,0.2 M34.3,7.3c0-0.1,0-0.2,0-0.3c0-0.1,0.1-0.2,0.1-0.3 M15.2,8.8
		C15.2,8.8,15.2,8.8,15.2,8.8C15.2,8.8,15.2,8.8,15.2,8.8 M15.1,8.8C15.1,8.8,15.1,8.8,15.1,8.8C15.1,8.8,15.2,8.8,15.1,8.8
		 M34.7,4.5C34.7,4.5,34.8,4.5,34.7,4.5c0.1,0,0.1,0,0.2,0 M34.4,4.8C34.3,4.8,34.3,4.8,34.4,4.8c-0.1,0-0.1,0.1-0.1,0.1 M8.6,28.5
		C8.6,28.5,8.6,28.5,8.6,28.5 M17.9,35.3c0.1,0,0.2,0,0.3,0.1c0.1,0,0.2,0,0.3,0.1c0,0,0.1,0,0.1,0c0,0,0.1,0,0.1,0c0,0,0,0,0,0
		c0,0,0,0,0,0c0,0,0.1,0,0.1,0c0.1,0,0.1,0,0.2,0c0.1,0,0.1,0,0.2,0c0.1,0,0.1,0,0.2,0c0.1,0,0.1,0,0.2,0c0,0,0.1,0,0.1,0
		c0,0,0,0,0,0c0,0,0,0,0,0c0,0,0.1,0,0.1,0c0,0,0.1,0,0.1,0c0.1,0,0.2,0,0.4,0c0.1,0,0.1,0,0.2,0c0,0,0.1,0,0.1,0c0,0,0.1,0,0.1,0
		s0.1,0,0.1,0c0,0,0.1,0,0.1,0c0.1,0,0.1,0,0.2,0c0.1,0,0.2,0,0.4,0c0,0,0.1,0,0.1,0c0,0,0.1,0,0.1,0c0,0,0,0,0,0c0,0,0,0,0,0
		c0,0,0.1,0,0.1,0c0.1,0,0.1,0,0.2,0c0.1,0,0.1,0,0.2,0c0.1,0,0.1,0,0.2,0c0.1,0,0.1,0,0.2,0c0,0,0.1,0,0.1,0c0,0,0,0,0,0
		c0,0,0,0,0,0c0,0,0.1,0,0.1,0c0,0,0.1,0,0.1,0c0.1,0,0.3,0,0.4,0c0.1,0,0.3,0,0.4,0 M41.1,25.1L41.1,25.1 M41,25.2
		C41,25.2,41,25.2,41,25.2C41,25.2,41,25.2,41,25.2C41,25.2,41,25.2,41,25.2C41,25.2,41,25.2,41,25.2C41,25.2,41,25.2,41,25.2
		C41,25.2,41,25.2,41,25.2C41,25.2,41,25.2,41,25.2 M41,25.3C41,25.3,41,25.3,41,25.3C41,25.3,41,25.3,41,25.3
		C41,25.3,41,25.3,41,25.3C41,25.3,41,25.3,41,25.3C41,25.3,41,25.3,41,25.3C41,25.3,41,25.3,41,25.3c0-0.1,0-0.1,0-0.1 M27,35.5
		c-0.1,0-0.3,0-0.4,0c-0.1,0-0.3,0.1-0.4,0.1c-0.1,0-0.1,0.1-0.2,0.1c0,0-0.1,0.1-0.1,0.1c0,0-0.1,0.1-0.1,0.1c0,0,0,0.1,0,0.1
		 M42,26.5C42,26.4,42,26.4,42,26.5c0-0.1-0.1-0.1-0.1-0.1c0,0-0.1,0-0.1,0c0,0-0.1,0-0.1,0c0,0-0.1,0-0.1,0c0,0-0.1,0-0.1,0
		c-0.1,0-0.1,0.1-0.1,0.1 M4.5,25.8c0,0,0,0.1,0,0.1c0,0,0,0.1,0.1,0.1c0,0,0.1,0.1,0.1,0.1c0,0,0.1,0.1,0.1,0.1
		c0.1,0.1,0.2,0.1,0.4,0.1c0.1,0,0.3,0,0.4,0 M42.3,29c0,0,0.1,0,0.1,0c0.1,0,0.3,0,0.4,0 M44.2,27c-0.1,0-0.2,0-0.3,0.1
		c-0.1,0-0.2,0.1-0.2,0.1c0,0-0.1,0-0.1,0.1c0,0,0,0.1-0.1,0.1c0,0,0,0.1,0,0.1c0,0,0,0.1,0,0.1 M8.5,19.8c0,0.1,0,0.1,0.1,0.2
		c0,0.1,0.1,0.1,0.1,0.2 M44.2,27C44.2,27,44.2,27,44.2,27c0.1,0,0.1,0,0.2,0 M27.7,35.9c-0.1-0.1-0.2-0.2-0.3-0.2
		c-0.1,0-0.1-0.1-0.2-0.1c-0.1,0-0.2,0-0.2,0 M8,26.6C8,26.6,8,26.6,8,26.6C8,26.7,8,26.7,8,26.6 M8,26.6C8,26.6,8,26.6,8,26.6
		 M38.5,31.3L38.5,31.3 M8.1,26.9C8.1,26.9,8.1,26.9,8.1,26.9C8.1,26.9,8.2,27,8.1,26.9 M44.8,25.2c0,0,0-0.1,0-0.1
		c0,0,0-0.1-0.1-0.1c0,0-0.1-0.1-0.1-0.1c0,0-0.1-0.1-0.2-0.1c-0.1-0.1-0.3-0.1-0.4-0.1c-0.2,0-0.3,0-0.5,0 M43.5,27.5
		c0,0,0,0.1,0,0.1c0,0,0,0.1,0.1,0.1c0,0,0.1,0.1,0.1,0.1c0,0,0.1,0.1,0.1,0.1 M5.1,23.8c-0.1,0.3-0.3,0.6-0.4,1
		c-0.1,0.3-0.2,0.6-0.2,1 M8.7,19.4c-0.1,0.1-0.1,0.1-0.1,0.2c0,0.1,0,0.1,0,0.2 M6.5,23.2c-0.2,0-0.3,0-0.5,0
		c-0.1,0-0.3,0.1-0.4,0.1c-0.1,0-0.1,0.1-0.2,0.1c-0.1,0-0.1,0.1-0.2,0.1c-0.1,0.1-0.2,0.1-0.2,0.2 M6.5,30c-0.1,0-0.3,0.1-0.4,0.1
		c-0.1,0.1-0.2,0.1-0.3,0.2 M5.7,27.4c-0.1,0-0.3,0-0.4,0c-0.1,0-0.3-0.1-0.4-0.1c-0.1,0-0.1-0.1-0.1-0.1c0,0-0.1-0.1-0.1-0.1
		c0,0-0.1-0.1-0.1-0.1c0,0,0-0.1,0-0.1 M8.8,21.1c0,0-0.1-0.1-0.1-0.2c0-0.1,0-0.1-0.1-0.2 M11,18.2c0.3,0.5,0.7,1,1.2,1.4
		c0.2,0.2,0.5,0.5,0.8,0.7c0.3,0.2,0.6,0.4,0.9,0.6 M18.9,22.3c0.7,0.2,1.5,0.3,2.2,0.4c0.8,0.1,1.6,0.1,2.3,0.1 M18.8,22.3
		L18.8,22.3 M10.9,16.9c0.1,0.3,0.2,0.6,0.4,0.8c0.2,0.3,0.4,0.5,0.6,0.8c0.2,0.3,0.5,0.5,0.7,0.7c0.3,0.2,0.6,0.5,0.9,0.7
		c0.3,0.2,0.6,0.4,1,0.6c0.4,0.2,0.7,0.4,1.1,0.6c0.8,0.4,1.7,0.7,2.5,0.9 M10.9,13.3c-0.1,0.3-0.2,0.5-0.2,0.8
		c-0.1,0.3-0.1,0.5-0.1,0.8c0,0.3,0,0.5,0,0.8c0,0.3,0.1,0.5,0.2,0.8 M15.1,8.9c-0.5,0.3-1,0.6-1.4,1c-0.4,0.3-0.8,0.7-1.2,1.1
		c-0.3,0.4-0.7,0.7-0.9,1.1c-0.2,0.4-0.5,0.8-0.6,1.2 M34.3,7.9c-0.6-0.3-1.2-0.5-1.9-0.7c-0.7-0.2-1.4-0.4-2.1-0.5
		c-0.7-0.1-1.5-0.3-2.2-0.3c-0.8-0.1-1.5-0.1-2.3-0.1c-0.8,0-1.6,0-2.3,0.1c-0.8,0.1-1.5,0.2-2.3,0.3c-0.7,0.1-1.5,0.3-2.2,0.5
		c-0.7,0.2-1.4,0.4-2,0.7 M39.1,14.6c0-0.3,0.1-0.5,0.1-0.8c0-0.3,0-0.5-0.1-0.8c0-0.3-0.1-0.5-0.2-0.8c-0.1-0.3-0.2-0.5-0.3-0.7
		c-0.3-0.5-0.6-1-1-1.4c-0.4-0.5-1-0.9-1.5-1.2 M14.6,9.1c-0.5,0.3-0.9,0.6-1.3,1c-0.4,0.3-0.8,0.7-1.1,1c-0.3,0.3-0.6,0.7-0.9,1.1
		c-0.2,0.4-0.4,0.8-0.6,1.2 M18.9,7.2c-0.2,0-0.3,0.1-0.5,0.1c-0.5,0.2-0.9,0.3-1.4,0.5 M32.9,7.3c-0.5-0.2-1.1-0.3-1.6-0.5
		c-0.6-0.1-1.1-0.2-1.7-0.3c-1.2-0.2-2.4-0.3-3.6-0.3c-1.2,0-2.5,0.1-3.7,0.3c-1.2,0.2-2.4,0.4-3.5,0.8 M34.3,7.8
		c-0.1,0-0.2-0.1-0.3-0.1c-0.3-0.1-0.7-0.3-1-0.4 M39.2,12.4c-0.1-0.3-0.3-0.6-0.4-0.9c-0.2-0.3-0.4-0.6-0.6-0.9
		c-0.2-0.3-0.5-0.6-0.7-0.8c-0.3-0.3-0.6-0.5-0.9-0.7 M39.4,13.3c0-0.1,0-0.1,0-0.2c0-0.2-0.1-0.4-0.2-0.7 M10.6,13.4
		c-0.1,0.3-0.2,0.5-0.2,0.8c-0.1,0.3-0.1,0.5-0.1,0.8 M26.2,26.3C26.2,26.3,26.2,26.3,26.2,26.3C26.1,26.3,26.1,26.3,26.2,26.3
		 M9.1,21.2c0,0-0.1,0-0.1,0c0,0-0.1,0-0.1,0c0,0,0,0,0,0c0,0,0,0,0,0c0,0,0,0,0,0c0,0,0,0,0,0 M9.3,24.4c0,0-0.1,0-0.1,0
		c0,0-0.1,0-0.1,0c0,0,0,0,0,0c0,0,0,0,0,0c0,0,0,0,0,0c0,0,0,0,0,0 M8.9,24.5C8.9,24.5,8.8,24.5,8.9,24.5c0-0.1,0-0.1,0-0.1
		c0,0,0,0,0-0.1c0,0,0,0,0-0.1 M9.1,20.5c-0.1,0.1-0.2,0.2-0.2,0.3c0,0.1,0,0.1-0.1,0.2c0,0.1,0,0.1,0,0.2 M26.1,26.7
		c0,0,0.1-0.1,0.1-0.1c0,0,0,0,0-0.1c0,0,0,0,0-0.1c0,0,0,0,0-0.1c0,0,0,0,0-0.1c0,0,0,0,0,0c0,0,0,0,0,0 M9,24.2
		C9,24.3,9,24.3,9,24.2C9,24.3,9,24.3,9,24.2C9,24.3,9,24.3,9,24.2C9,24.3,9,24.3,9,24.2C9,24.3,9,24.3,9,24.2C9,24.3,9,24.3,9,24.2
		 M9.3,24.6c0,0-0.1,0-0.1,0c0,0-0.1,0-0.1,0c0,0-0.1,0-0.1-0.1c0,0-0.1-0.1-0.1-0.1 M37.6,33.6c0.2,0.1,0.4,0.2,0.6,0.3 M2.9,26.7
		c-0.2,0.4-0.3,0.7-0.5,1.1 M36.4,27.1c0.2-0.1,0.4-0.3,0.6-0.4 M25.7,20.3c0.7-0.1,1.3-0.1,2-0.3 M30.1,21.9
		c0.2-0.1,0.4-0.1,0.7-0.2 M19.8,36.1c2.1,0.2,4.2,0.2,6.4,0 M27.1,36c0.1,0,0.2,0,0.3,0 M26.9,36c0.1,0,0.1,0,0.2,0 M26.5,36.1
		c0.2,0,0.3,0,0.5,0 M26.3,36.1c0,0,0.1,0,0.1,0 M26.2,36.1c0.1,0,0.1,0,0.2,0 M19.5,37.6c2.7,0.2,5.3,0.2,8-0.1 M37.5,6
		c0.1,0,0.3-0.1,0.4-0.1 M28.4,29.9c0.2,0,0.4,0,0.6,0 M36.4,27.1c0.2-0.1,0.4-0.3,0.6-0.4 M41.7,27.2
		C41.7,27.2,41.7,27.2,41.7,27.2 M41,22.7c0.1-0.1,0.1-0.3,0.1-0.4 M41,25.3c0-0.1,0.1-0.2,0.1-0.3 M44.7,26.3
		c0.1-0.3,0.1-0.7,0.1-1 M43.8,27.9C43.8,27.9,43.8,27.8,43.8,27.9 M36.6,9.1c-0.2-0.1-0.3-0.2-0.5-0.4 M36,8.9c0,0-0.1-0.1-0.1-0.1
		 M38.1,29.6c0.1-0.1,0.3-0.3,0.4-0.4 M35.9,8.8C35.9,8.8,35.9,8.8,35.9,8.8 M36.1,8.8C36,8.8,36,8.8,36.1,8.8 M34.8,7.8
		c-0.1-0.1-0.2-0.1-0.4-0.2 M34.9,8.7c-0.1-0.1-0.2-0.1-0.4-0.2 M37.5,30.1c0.2-0.2,0.4-0.4,0.6-0.6 M34.5,6.6
		C34.5,6.6,34.5,6.6,34.5,6.6 M42.1,16c-0.2-0.1-0.4-0.3-0.5-0.4 M41.5,15.6c-0.2-0.1-0.4-0.2-0.5-0.4 M34.2,5.6c0,0-0.1,0-0.1,0
		 M2.9,26.7c0,0.3,0.1,0.7,0.1,1 M8.6,16.9c0.1,0.1,0.1,0.3,0.2,0.4 M18,22.1c0.3,0.1,0.5,0.1,0.8,0.2 M28.4,29.9
		c0.2,0,0.4-0.1,0.6-0.1 M23.5,33.6c0.9,0,1.8-0.1,2.7-0.2 M10.9,16.8C10.9,16.8,10.9,16.8,10.9,16.8 M7.9,26.6
		C7.9,26.6,7.9,26.6,7.9,26.6 M7.9,26.7C8,26.7,8,26.8,8.1,26.9 M5.8,28.8c0,0.2,0.1,0.3,0.1,0.5 M8.7,28.9c0,0,0,0.1,0.1,0.1
		 M7.8,23c0.1,0.2,0.2,0.4,0.3,0.6 M3,29c0,0.3,0.1,0.5,0.2,0.8 M8.2,23.6c0,0.1,0.1,0.1,0.1,0.2 M3.8,31.5C4,31.7,4.1,32,4.2,32.2
		 M15.2,8.9C15.2,8.9,15.2,8.9,15.2,8.9 M15.1,8.8c-0.2,0.1-0.3,0.2-0.5,0.3 M15.2,8.9C15.2,8.9,15.2,8.9,15.2,8.9 M16.2,8.8
		C16,8.9,15.9,9,15.7,9 M15.1,8.8C15.1,8.8,15.1,8.8,15.1,8.8 M16.2,8.8C16.2,8.8,16.2,8.8,16.2,8.8 M16.8,8.5
		c-0.2,0.1-0.4,0.2-0.6,0.3 M6.5,17.9C6.3,18,6.1,18.2,6,18.3 M16.8,7.6c-0.2,0.1-0.4,0.2-0.6,0.3 M33.7,6.3
		c-0.2-0.1-0.3-0.1-0.5-0.2 M16.8,8.5c-0.2,0.1-0.4,0.2-0.6,0.3 M17.1,8.4c-0.1,0-0.2,0.1-0.2,0.1 M17.2,7.6c0,0-0.1,0-0.1,0
		 M18.4,6.1c-0.5,0.1-0.9,0.3-1.4,0.5 M17.9,5.5c-0.5,0.1-0.9,0.3-1.4,0.5 M8.7,41.3c0.4,0.2,0.9,0.4,1.4,0.6 M10.1,42
		c0,0,0.1,0,0.1,0.1 M10.2,42c0.2,0.1,0.3,0.1,0.5,0.2 M8.9,24.3C8.9,24.3,8.9,24.3,8.9,24.3 M9,24.2C9,24.2,9,24.2,9,24.2 M9,24.2
		C8.9,24.2,8.9,24.2,9,24.2 M8.8,21.1C8.8,21.1,8.8,21.1,8.8,21.1 M2.4,28.3c0,0,0,0.1-0.1,0.1 M2.6,28.4c0,0.1,0,0.3,0,0.4
		 M2.1,25.8c0,0.1,0,0.2,0,0.2 M2.1,27.1c0,0.2,0,0.3,0,0.5 M2.1,26.1c0,0.3,0.1,0.7,0.1,1 M2.2,27.6c0,0.1,0,0.1,0,0.2 M2.2,27.8
		c0,0.2,0.1,0.5,0.1,0.7 M2.2,27.1c0,0.2,0.1,0.5,0.2,0.7 M42.4,31.2c0.1-0.3,0.2-0.6,0.4-1 M38.3,35.5c0.1-0.2,0.3-0.5,0.4-0.7
		 M42.9,31.3c0-0.4-0.1-0.8-0.1-1.1 M5.1,30.7c-0.3,0.1-0.6,0.3-0.8,0.4 M39.9,9.4c-0.4,0.1-0.8,0.2-1.2,0.3 M40.1,10.2
		c-0.4,0.1-0.8,0.2-1.3,0.3 M7.6,25.7c-0.4-0.4-0.7-0.7-1.1-1.1 M32.4,34.9l5-2 M31.2,33.4l6.1-2.4 M32.3,32.3l2.9-1.1 M32.2,31.6
		l2.9-1.1 M34,29.5l-2.9,1.1 M35.1,29L29,31.4 M26.4,35.9l-0.3,0.2 M41,25.3l-1,2.2 M41,25.2L41,25.2"/>
	
		<path style="clip-path:url(#SVGID_00000166663193608964743170000010882626169634332291_);fill:none;stroke:#000000;stroke-width:0.216;stroke-linejoin:bevel;stroke-miterlimit:22.926;" d="
		M9.3,25.2c0.6,0.8,1.4,1.5,2.3,2.1c0.5,0.3,1,0.6,1.5,0.9c0.5,0.3,1.1,0.5,1.7,0.8c0.6,0.2,1.2,0.4,1.8,0.6c0.7,0.2,1.3,0.3,2,0.5
		c1.4,0.3,2.8,0.4,4.2,0.5 M18.7,6.2C18.7,6.2,18.7,6.1,18.7,6.2c-0.1-0.1-0.1-0.1-0.1-0.1c-0.1,0-0.1,0-0.2,0 M35.7,7.2
		c-0.1-0.1-0.2-0.1-0.3-0.2c-0.3-0.2-0.6-0.3-0.9-0.5 M9.3,24l0.1,1.1 M9.2,23l0.1,1 M9.1,20.7L9.2,23 M9,18.7l0.1,2 M8.8,22.3
		l-1,0.7 M8.8,21.1l-0.2-4.2 M8.8,22.3l0-0.8 M36.4,27.1c-0.5,0.3-1.1,0.6-1.6,0.9c-0.6,0.3-1.2,0.6-1.8,0.8c-1.3,0.5-2.7,0.9-4,1.1
		 M8.3,24.3c0-0.1-0.1-0.1-0.1-0.2c-0.1-0.2-0.2-0.4-0.3-0.6 M9,25l0-0.4 M40.1,10.2c0,0.1,0.1,0.2,0.1,0.2c0,0.1,0,0.2,0.1,0.3
		c0,0.2,0.1,0.4,0.1,0.5 M40.1,10.2c0-0.1-0.1-0.3-0.1-0.4c0-0.1-0.1-0.3-0.1-0.4 M39.7,7.6c0.1,0.2,0.1,0.5,0.1,0.7
		c0,0.2,0.1,0.4,0.1,0.6 M15.8,5.7c0.1,0,0.1,0,0.2,0c0,0,0.1,0,0.1,0c0,0,0.1,0,0.1,0 M13.6,7.4c0-0.1,0-0.1,0-0.2
		c0-0.1,0-0.1,0.1-0.2c0-0.1,0.1-0.1,0.1-0.2c0-0.1,0.1-0.1,0.2-0.1 M17.9,5.5c0.1,0,0.1,0,0.2,0c0,0,0,0,0.1,0c0,0,0,0,0.1,0
		 M8,26.6c0.1,0.4,0.3,0.7,0.5,1.1c0.2,0.4,0.5,0.7,0.8,1c0.3,0.3,0.6,0.7,1,1c0.4,0.3,0.8,0.6,1.2,0.9c0.4,0.3,0.9,0.6,1.3,0.8
		c0.5,0.3,1,0.5,1.5,0.7c1.1,0.4,2.3,0.8,3.4,1 M15.7,9c-0.1,0-0.1,0-0.2,0c-0.1,0-0.1,0-0.2-0.1 M35.7,8.9
		C35.7,8.9,35.6,8.9,35.7,8.9C35.5,9,35.4,9,35.3,9 M34.5,8.5C34.5,8.5,34.5,8.5,34.5,8.5c-0.1,0-0.1-0.1-0.1-0.1c0,0,0,0,0,0
		c0,0,0,0,0,0c0,0,0,0,0,0c0,0,0,0,0,0c0,0,0,0,0,0 M35.3,9c0,0-0.1,0-0.1-0.1c-0.1-0.1-0.2-0.1-0.3-0.2 M39.3,6.9
		c-0.1-0.1-0.1-0.1-0.2-0.2c-0.2-0.2-0.4-0.4-0.6-0.6 M39.7,7.6c0-0.1-0.1-0.2-0.2-0.4c-0.1-0.1-0.2-0.2-0.2-0.3 M38,5.9
		c0.1,0,0.1,0.1,0.2,0.1c0.1,0.1,0.1,0.1,0.2,0.2 M34.9,4.5c0.6,0.2,1.2,0.4,1.7,0.6c0.5,0.2,1,0.4,1.4,0.7 M34.2,6
		c0,0.1,0,0.1,0,0.2c0,0,0,0.1,0,0.1c0,0,0,0-0.1,0.1 M36,8.7C36,8.7,36,8.7,36,8.7C36,8.7,36.1,8.7,36,8.7 M35.9,8.8
		C35.9,8.8,35.9,8.8,35.9,8.8C35.9,8.7,36,8.7,35.9,8.8 M15.8,5.7c-0.2,0.1-0.3,0.1-0.5,0.2c-0.5,0.2-0.9,0.4-1.3,0.7 M8.3,25.1
		c-0.1,0-0.1,0-0.2,0.1c0,0-0.1,0.1-0.1,0.1c0,0-0.1,0.1-0.1,0.1c0,0,0,0.1,0,0.1 M10.2,18.3c0.7,0.7,1.5,1.4,2.3,1.9
		c0.5,0.3,1,0.6,1.5,0.8c0.5,0.2,1.1,0.5,1.6,0.7c0.6,0.2,1.2,0.4,1.8,0.5c0.6,0.2,1.3,0.3,1.9,0.4c1.3,0.2,2.7,0.3,4,0.3
		 M25.7,20.3c-0.1,0-0.3,0-0.4,0.1c-0.1,0-0.2,0.1-0.4,0.2c0,0-0.1,0.1-0.1,0.1c0,0-0.1,0.1-0.1,0.1c0,0,0,0.1-0.1,0.1
		c0,0,0,0.1,0,0.1 M29.1,20.4c-0.1-0.1-0.1-0.2-0.2-0.2c-0.1,0-0.1-0.1-0.2-0.1c-0.1,0-0.1,0-0.2-0.1c-0.1,0-0.3-0.1-0.4-0.1
		c-0.1,0-0.3,0-0.4,0 M34.3,4.9c0,0,0,0.1,0,0.1c0,0.2-0.1,0.3-0.1,0.5 M34.2,5.6L34.2,5.6 M18.8,6.3C18.8,6.3,18.8,6.3,18.8,6.3
		c0-0.1,0-0.1-0.1-0.1 M17.1,6.6c0,0,0-0.1,0-0.1c0,0,0-0.1-0.1-0.1 M10.9,16.7c-0.2-0.4-0.4-0.7-0.5-1.1c-0.1-0.4-0.2-0.8-0.2-1.2
		 M14.6,8.9l0,0.3 M16.9,6.6c0,0,0,0.1,0,0.1C17,6.8,17,6.9,17,7.1 M34.5,6.6c0,0,0.1-0.1,0.1-0.1c0,0,0.1-0.1,0.1-0.1
		c0,0,0-0.1,0.1-0.2c0,0,0-0.1,0-0.1 M39.4,12.5c0,0.4,0,0.9-0.1,1.3c-0.1,0.5-0.3,0.9-0.5,1.3c-0.2,0.5-0.5,0.9-0.8,1.3
		c-0.3,0.4-0.7,0.8-1.2,1.2c-0.5,0.4-1,0.8-1.5,1.1c-0.6,0.4-1.1,0.7-1.7,1c-0.6,0.3-1.3,0.6-2,0.8c-0.7,0.2-1.4,0.5-2.1,0.6
		 M23.7,35.9c-1,0-2,0-3-0.1c-1-0.1-1.9-0.2-2.8-0.4 M27.4,32.6c0,0,0,0.1,0,0.1c0,0,0,0.1-0.1,0.1c0,0-0.1,0.1-0.1,0.1
		c0,0-0.1,0.1-0.1,0.1c-0.1,0.1-0.2,0.1-0.4,0.2c-0.1,0-0.3,0.1-0.4,0.1 M27.4,31.6c0-0.1,0-0.1,0-0.2c0-0.1-0.1-0.1-0.1-0.1
		c0-0.1-0.1-0.1-0.2-0.1c-0.1,0-0.1-0.1-0.2-0.1 M40.6,11.8C40.6,11.8,40.7,11.8,40.6,11.8C40.7,11.8,40.7,11.8,40.6,11.8
		C40.7,11.8,40.7,11.8,40.6,11.8c0,0.1,0,0.1,0,0.2 M39.4,12C39.3,12,39.3,12,39.4,12C39.3,12,39.3,12,39.4,12
		C39.3,12,39.3,12,39.4,12c0,0.1,0,0.1,0,0.1c0,0,0,0.1,0,0.1c0,0.1,0,0.1,0,0.2 M10.1,18.2C10.1,18.2,10.1,18.2,10.1,18.2
		c0.1,0,0.1,0,0.1,0c0,0,0,0,0,0 M9.1,18.5C9.1,18.5,9,18.5,9.1,18.5C9,18.5,9,18.5,9.1,18.5C9,18.6,9,18.6,9,18.6c0,0,0,0.1,0,0.1
		 M8.8,14.4c0-0.3,0-0.6,0-1c0-0.3,0.1-0.6,0.2-1c0.1-0.3,0.2-0.6,0.4-0.9c0.2-0.3,0.3-0.6,0.5-0.9c0.2-0.3,0.4-0.6,0.7-0.9
		c0.3-0.3,0.5-0.6,0.8-0.9c0.6-0.6,1.4-1.1,2.1-1.6 M33.8,5.6C33.9,5.5,33.9,5.5,33.8,5.6c0.1,0,0.2,0,0.2,0 M33,6.2
		C33,6.2,32.9,6.2,33,6.2c-0.1,0.1-0.1,0.1-0.1,0.2 M34.3,7.3c0-0.1,0-0.2,0-0.3c0-0.1,0.1-0.2,0.1-0.3 M15.2,8.8
		C15.2,8.8,15.2,8.8,15.2,8.8C15.2,8.8,15.2,8.8,15.2,8.8 M15.1,8.8C15.1,8.8,15.1,8.8,15.1,8.8C15.1,8.8,15.2,8.8,15.1,8.8
		 M34.7,4.5C34.7,4.5,34.8,4.5,34.7,4.5c0.1,0,0.1,0,0.2,0 M34.4,4.8C34.3,4.8,34.3,4.8,34.4,4.8c-0.1,0-0.1,0.1-0.1,0.1 M8.6,28.5
		C8.6,28.5,8.6,28.5,8.6,28.5 M17.9,35.3c0.1,0,0.2,0,0.3,0.1c0.1,0,0.2,0,0.3,0.1c0,0,0.1,0,0.1,0c0,0,0.1,0,0.1,0c0,0,0,0,0,0
		c0,0,0,0,0,0c0,0,0.1,0,0.1,0c0.1,0,0.1,0,0.2,0c0.1,0,0.1,0,0.2,0c0.1,0,0.1,0,0.2,0c0.1,0,0.1,0,0.2,0c0,0,0.1,0,0.1,0
		c0,0,0,0,0,0c0,0,0,0,0,0c0,0,0.1,0,0.1,0c0,0,0.1,0,0.1,0c0.1,0,0.2,0,0.4,0c0.1,0,0.1,0,0.2,0c0,0,0.1,0,0.1,0c0,0,0.1,0,0.1,0
		s0.1,0,0.1,0c0,0,0.1,0,0.1,0c0.1,0,0.1,0,0.2,0c0.1,0,0.2,0,0.4,0c0,0,0.1,0,0.1,0c0,0,0.1,0,0.1,0c0,0,0,0,0,0c0,0,0,0,0,0
		c0,0,0.1,0,0.1,0c0.1,0,0.1,0,0.2,0c0.1,0,0.1,0,0.2,0c0.1,0,0.1,0,0.2,0c0.1,0,0.1,0,0.2,0c0,0,0.1,0,0.1,0c0,0,0,0,0,0
		c0,0,0,0,0,0c0,0,0.1,0,0.1,0c0,0,0.1,0,0.1,0c0.1,0,0.3,0,0.4,0c0.1,0,0.3,0,0.4,0 M41.1,25.1L41.1,25.1 M41,25.2
		C41,25.2,41,25.2,41,25.2C41,25.2,41,25.2,41,25.2C41,25.2,41,25.2,41,25.2C41,25.2,41,25.2,41,25.2C41,25.2,41,25.2,41,25.2
		C41,25.2,41,25.2,41,25.2C41,25.2,41,25.2,41,25.2 M41,25.3C41,25.3,41,25.3,41,25.3C41,25.3,41,25.3,41,25.3
		C41,25.3,41,25.3,41,25.3C41,25.3,41,25.3,41,25.3C41,25.3,41,25.3,41,25.3C41,25.3,41,25.3,41,25.3c0-0.1,0-0.1,0-0.1 M27,35.5
		c-0.1,0-0.3,0-0.4,0c-0.1,0-0.3,0.1-0.4,0.1c-0.1,0-0.1,0.1-0.2,0.1c0,0-0.1,0.1-0.1,0.1c0,0-0.1,0.1-0.1,0.1c0,0,0,0.1,0,0.1
		 M42,26.5C42,26.4,42,26.4,42,26.5c0-0.1-0.1-0.1-0.1-0.1c0,0-0.1,0-0.1,0c0,0-0.1,0-0.1,0c0,0-0.1,0-0.1,0c0,0-0.1,0-0.1,0
		c-0.1,0-0.1,0.1-0.1,0.1 M4.5,25.8c0,0,0,0.1,0,0.1c0,0,0,0.1,0.1,0.1c0,0,0.1,0.1,0.1,0.1c0,0,0.1,0.1,0.1,0.1
		c0.1,0.1,0.2,0.1,0.4,0.1c0.1,0,0.3,0,0.4,0 M42.3,29c0,0,0.1,0,0.1,0c0.1,0,0.3,0,0.4,0 M44.2,27c-0.1,0-0.2,0-0.3,0.1
		c-0.1,0-0.2,0.1-0.2,0.1c0,0-0.1,0-0.1,0.1c0,0,0,0.1-0.1,0.1c0,0,0,0.1,0,0.1c0,0,0,0.1,0,0.1 M8.5,19.8c0,0.1,0,0.1,0.1,0.2
		c0,0.1,0.1,0.1,0.1,0.2 M44.2,27C44.2,27,44.2,27,44.2,27c0.1,0,0.1,0,0.2,0 M27.7,35.9c-0.1-0.1-0.2-0.2-0.3-0.2
		c-0.1,0-0.1-0.1-0.2-0.1c-0.1,0-0.2,0-0.2,0 M8,26.6C8,26.6,8,26.6,8,26.6C8,26.7,8,26.7,8,26.6 M8,26.6C8,26.6,8,26.6,8,26.6
		 M38.5,31.3L38.5,31.3 M8.1,26.9C8.1,26.9,8.1,26.9,8.1,26.9C8.1,26.9,8.2,27,8.1,26.9 M44.8,25.2c0,0,0-0.1,0-0.1
		c0,0,0-0.1-0.1-0.1c0,0-0.1-0.1-0.1-0.1c0,0-0.1-0.1-0.2-0.1c-0.1-0.1-0.3-0.1-0.4-0.1c-0.2,0-0.3,0-0.5,0 M43.5,27.5
		c0,0,0,0.1,0,0.1c0,0,0,0.1,0.1,0.1c0,0,0.1,0.1,0.1,0.1c0,0,0.1,0.1,0.1,0.1 M5.1,23.8c-0.1,0.3-0.3,0.6-0.4,1
		c-0.1,0.3-0.2,0.6-0.2,1 M8.7,19.4c-0.1,0.1-0.1,0.1-0.1,0.2c0,0.1,0,0.1,0,0.2 M6.5,23.2c-0.2,0-0.3,0-0.5,0
		c-0.1,0-0.3,0.1-0.4,0.1c-0.1,0-0.1,0.1-0.2,0.1c-0.1,0-0.1,0.1-0.2,0.1c-0.1,0.1-0.2,0.1-0.2,0.2 M6.5,30c-0.1,0-0.3,0.1-0.4,0.1
		c-0.1,0.1-0.2,0.1-0.3,0.2 M5.7,27.4c-0.1,0-0.3,0-0.4,0c-0.1,0-0.3-0.1-0.4-0.1c-0.1,0-0.1-0.1-0.1-0.1c0,0-0.1-0.1-0.1-0.1
		c0,0-0.1-0.1-0.1-0.1c0,0,0-0.1,0-0.1 M8.8,21.1c0,0-0.1-0.1-0.1-0.2c0-0.1,0-0.1-0.1-0.2 M11,18.2c0.3,0.5,0.7,1,1.2,1.4
		c0.2,0.2,0.5,0.5,0.8,0.7c0.3,0.2,0.6,0.4,0.9,0.6 M18.9,22.3c0.7,0.2,1.5,0.3,2.2,0.4c0.8,0.1,1.6,0.1,2.3,0.1 M18.8,22.3
		L18.8,22.3 M10.9,16.9c0.1,0.3,0.2,0.6,0.4,0.8c0.2,0.3,0.4,0.5,0.6,0.8c0.2,0.3,0.5,0.5,0.7,0.7c0.3,0.2,0.6,0.5,0.9,0.7
		c0.3,0.2,0.6,0.4,1,0.6c0.4,0.2,0.7,0.4,1.1,0.6c0.8,0.4,1.7,0.7,2.5,0.9 M10.9,13.3c-0.1,0.3-0.2,0.5-0.2,0.8
		c-0.1,0.3-0.1,0.5-0.1,0.8c0,0.3,0,0.5,0,0.8c0,0.3,0.1,0.5,0.2,0.8 M15.1,8.9c-0.5,0.3-1,0.6-1.4,1c-0.4,0.3-0.8,0.7-1.2,1.1
		c-0.3,0.4-0.7,0.7-0.9,1.1c-0.2,0.4-0.5,0.8-0.6,1.2 M34.3,7.9c-0.6-0.3-1.2-0.5-1.9-0.7c-0.7-0.2-1.4-0.4-2.1-0.5
		c-0.7-0.1-1.5-0.3-2.2-0.3c-0.8-0.1-1.5-0.1-2.3-0.1c-0.8,0-1.6,0-2.3,0.1c-0.8,0.1-1.5,0.2-2.3,0.3c-0.7,0.1-1.5,0.3-2.2,0.5
		c-0.7,0.2-1.4,0.4-2,0.7 M39.1,14.6c0-0.3,0.1-0.5,0.1-0.8c0-0.3,0-0.5-0.1-0.8c0-0.3-0.1-0.5-0.2-0.8c-0.1-0.3-0.2-0.5-0.3-0.7
		c-0.3-0.5-0.6-1-1-1.4c-0.4-0.5-1-0.9-1.5-1.2 M14.6,9.1c-0.5,0.3-0.9,0.6-1.3,1c-0.4,0.3-0.8,0.7-1.1,1c-0.3,0.3-0.6,0.7-0.9,1.1
		c-0.2,0.4-0.4,0.8-0.6,1.2 M18.9,7.2c-0.2,0-0.3,0.1-0.5,0.1c-0.5,0.2-0.9,0.3-1.4,0.5 M32.9,7.3c-0.5-0.2-1.1-0.3-1.6-0.5
		c-0.6-0.1-1.1-0.2-1.7-0.3c-1.2-0.2-2.4-0.3-3.6-0.3c-1.2,0-2.5,0.1-3.7,0.3c-1.2,0.2-2.4,0.4-3.5,0.8 M34.3,7.8
		c-0.1,0-0.2-0.1-0.3-0.1c-0.3-0.1-0.7-0.3-1-0.4 M39.2,12.4c-0.1-0.3-0.3-0.6-0.4-0.9c-0.2-0.3-0.4-0.6-0.6-0.9
		c-0.2-0.3-0.5-0.6-0.7-0.8c-0.3-0.3-0.6-0.5-0.9-0.7 M39.4,13.3c0-0.1,0-0.1,0-0.2c0-0.2-0.1-0.4-0.2-0.7 M10.6,13.4
		c-0.1,0.3-0.2,0.5-0.2,0.8c-0.1,0.3-0.1,0.5-0.1,0.8 M26.2,26.3C26.2,26.3,26.2,26.3,26.2,26.3C26.1,26.3,26.1,26.3,26.2,26.3
		 M9.1,21.2c0,0-0.1,0-0.1,0c0,0-0.1,0-0.1,0c0,0,0,0,0,0c0,0,0,0,0,0c0,0,0,0,0,0c0,0,0,0,0,0 M9.3,24.4c0,0-0.1,0-0.1,0
		c0,0-0.1,0-0.1,0c0,0,0,0,0,0c0,0,0,0,0,0c0,0,0,0,0,0c0,0,0,0,0,0 M8.9,24.5C8.9,24.5,8.8,24.5,8.9,24.5c0-0.1,0-0.1,0-0.1
		c0,0,0,0,0-0.1c0,0,0,0,0-0.1 M9.1,20.5c-0.1,0.1-0.2,0.2-0.2,0.3c0,0.1,0,0.1-0.1,0.2c0,0.1,0,0.1,0,0.2 M26.1,26.7
		c0,0,0.1-0.1,0.1-0.1c0,0,0,0,0-0.1c0,0,0,0,0-0.1c0,0,0,0,0-0.1c0,0,0,0,0-0.1c0,0,0,0,0,0c0,0,0,0,0,0 M9,24.2
		C9,24.3,9,24.3,9,24.2C9,24.3,9,24.3,9,24.2C9,24.3,9,24.3,9,24.2C9,24.3,9,24.3,9,24.2C9,24.3,9,24.3,9,24.2C9,24.3,9,24.3,9,24.2
		 M9.3,24.6c0,0-0.1,0-0.1,0c0,0-0.1,0-0.1,0c0,0-0.1,0-0.1-0.1c0,0-0.1-0.1-0.1-0.1 M37.6,33.6c0.2,0.1,0.4,0.2,0.6,0.3 M2.9,26.7
		c-0.2,0.4-0.3,0.7-0.5,1.1 M36.4,27.1c0.2-0.1,0.4-0.3,0.6-0.4 M25.7,20.3c0.7-0.1,1.3-0.1,2-0.3 M30.1,21.9
		c0.2-0.1,0.4-0.1,0.7-0.2 M19.8,36.1c2.1,0.2,4.2,0.2,6.4,0 M27.1,36c0.1,0,0.2,0,0.3,0 M26.9,36c0.1,0,0.1,0,0.2,0 M26.5,36.1
		c0.2,0,0.3,0,0.5,0 M26.3,36.1c0,0,0.1,0,0.1,0 M26.2,36.1c0.1,0,0.1,0,0.2,0 M19.5,37.6c2.7,0.2,5.3,0.2,8-0.1 M37.5,6
		c0.1,0,0.3-0.1,0.4-0.1 M28.4,29.9c0.2,0,0.4,0,0.6,0 M36.4,27.1c0.2-0.1,0.4-0.3,0.6-0.4 M41.7,27.2
		C41.7,27.2,41.7,27.2,41.7,27.2 M41,22.7c0.1-0.1,0.1-0.3,0.1-0.4 M41,25.3c0-0.1,0.1-0.2,0.1-0.3 M44.7,26.3
		c0.1-0.3,0.1-0.7,0.1-1 M43.8,27.9C43.8,27.9,43.8,27.8,43.8,27.9 M36.6,9.1c-0.2-0.1-0.3-0.2-0.5-0.4 M36,8.9c0,0-0.1-0.1-0.1-0.1
		 M38.1,29.6c0.1-0.1,0.3-0.3,0.4-0.4 M35.9,8.8C35.9,8.8,35.9,8.8,35.9,8.8 M36.1,8.8C36,8.8,36,8.8,36.1,8.8 M34.8,7.8
		c-0.1-0.1-0.2-0.1-0.4-0.2 M34.9,8.7c-0.1-0.1-0.2-0.1-0.4-0.2 M37.5,30.1c0.2-0.2,0.4-0.4,0.6-0.6 M34.5,6.6
		C34.5,6.6,34.5,6.6,34.5,6.6 M42.1,16c-0.2-0.1-0.4-0.3-0.5-0.4 M41.5,15.6c-0.2-0.1-0.4-0.2-0.5-0.4 M34.2,5.6c0,0-0.1,0-0.1,0
		 M2.9,26.7c0,0.3,0.1,0.7,0.1,1 M8.6,16.9c0.1,0.1,0.1,0.3,0.2,0.4 M18,22.1c0.3,0.1,0.5,0.1,0.8,0.2 M28.4,29.9
		c0.2,0,0.4-0.1,0.6-0.1 M23.5,33.6c0.9,0,1.8-0.1,2.7-0.2 M10.9,16.8C10.9,16.8,10.9,16.8,10.9,16.8 M7.9,26.6
		C7.9,26.6,7.9,26.6,7.9,26.6 M7.9,26.7C8,26.7,8,26.8,8.1,26.9 M5.8,28.8c0,0.2,0.1,0.3,0.1,0.5 M8.7,28.9c0,0,0,0.1,0.1,0.1
		 M7.8,23c0.1,0.2,0.2,0.4,0.3,0.6 M3,29c0,0.3,0.1,0.5,0.2,0.8 M8.2,23.6c0,0.1,0.1,0.1,0.1,0.2 M3.8,31.5C4,31.7,4.1,32,4.2,32.2
		 M15.2,8.9C15.2,8.9,15.2,8.9,15.2,8.9 M15.1,8.8c-0.2,0.1-0.3,0.2-0.5,0.3 M15.2,8.9C15.2,8.9,15.2,8.9,15.2,8.9 M16.2,8.8
		C16,8.9,15.9,9,15.7,9 M15.1,8.8C15.1,8.8,15.1,8.8,15.1,8.8 M16.2,8.8C16.2,8.8,16.2,8.8,16.2,8.8 M16.8,8.5
		c-0.2,0.1-0.4,0.2-0.6,0.3 M6.5,17.9C6.3,18,6.1,18.2,6,18.3 M16.8,7.6c-0.2,0.1-0.4,0.2-0.6,0.3 M33.7,6.3
		c-0.2-0.1-0.3-0.1-0.5-0.2 M16.8,8.5c-0.2,0.1-0.4,0.2-0.6,0.3 M17.1,8.4c-0.1,0-0.2,0.1-0.2,0.1 M17.2,7.6c0,0-0.1,0-0.1,0
		 M18.4,6.1c-0.5,0.1-0.9,0.3-1.4,0.5 M17.9,5.5c-0.5,0.1-0.9,0.3-1.4,0.5 M8.7,41.3c0.4,0.2,0.9,0.4,1.4,0.6 M10.1,42
		c0,0,0.1,0,0.1,0.1 M10.2,42c0.2,0.1,0.3,0.1,0.5,0.2 M8.9,24.3C8.9,24.3,8.9,24.3,8.9,24.3 M9,24.2C9,24.2,9,24.2,9,24.2 M9,24.2
		C8.9,24.2,8.9,24.2,9,24.2 M8.8,21.1C8.8,21.1,8.8,21.1,8.8,21.1 M2.4,28.3c0,0,0,0.1-0.1,0.1 M2.6,28.4c0,0.1,0,0.3,0,0.4
		 M2.1,25.8c0,0.1,0,0.2,0,0.2 M2.1,27.1c0,0.2,0,0.3,0,0.5 M2.1,26.1c0,0.3,0.1,0.7,0.1,1 M2.2,27.6c0,0.1,0,0.1,0,0.2 M2.2,27.8
		c0,0.2,0.1,0.5,0.1,0.7 M2.2,27.1c0,0.2,0.1,0.5,0.2,0.7 M42.4,31.2c0.1-0.3,0.2-0.6,0.4-1 M38.3,35.5c0.1-0.2,0.3-0.5,0.4-0.7
		 M42.9,31.3c0-0.4-0.1-0.8-0.1-1.1 M5.1,30.7c-0.3,0.1-0.6,0.3-0.8,0.4 M39.9,9.4c-0.4,0.1-0.8,0.2-1.2,0.3 M40.1,10.2
		c-0.4,0.1-0.8,0.2-1.3,0.3 M7.6,25.7c-0.4-0.4-0.7-0.7-1.1-1.1 M32.4,34.9l5-2 M31.2,33.4l6.1-2.4 M32.3,32.3l2.9-1.1 M32.2,31.6
		l2.9-1.1 M34,29.5l-2.9,1.1 M35.1,29L29,31.4 M26.4,35.9l-0.3,0.2 M41,25.3l-1,2.2 M41,25.2L41,25.2"/>
	<path style="clip-path:url(#SVGID_00000166663193608964743170000010882626169634332291_);fill:#FFFFFF;" d="M40.4,29.1
		c0.2-0.2,0.4-0.4,0.6-0.6 M8.8,29c0,0.2,0,0.3,0,0.5 M41.2,24.7c0-0.8-0.1-1.6-0.1-2.4 M24.6,31.2c0.5,0.2,1.3,0.1,1.7-0.2
		 M25.8,22.9c0.7,0.4,1.4,0.7,2.1,0.9 M24.1,24.6c0.6,0.8,1.3,1.1,1.7,0.8 M39.1,12.2c0-0.2,0-0.5,0-0.7 M37.5,6
		c-0.8-0.5-1.8-0.9-3-1.3 M23.9,24.4c-0.2-0.3-0.4-0.5-0.7-0.6 M18.8,6.3c0,0.3,0.1,0.6,0.1,1 M40.4,11.8c0-0.2,0-0.3,0-0.5
		 M39.4,13.1c0-0.2,0-0.5,0-0.7 M32.9,7.3c0-0.3,0-0.6,0-1 M2.9,26.7c0,0.2,0.1,0.4,0.1,0.5c0.2,0.5,0.4,1.1,0.7,1.6 M5.1,30.7
		L5.1,30.7 M3.7,28.7c0.1,0.2,0.2,0.3,0.3,0.5c0.3,0.5,0.7,1,1.1,1.4 M37.6,33.6c0.2-0.1,0.5-0.2,0.7-0.4c0.7-0.4,1.4-0.8,2.1-1.2
		 M40.4,32c0.2-0.1,0.4-0.3,0.6-0.4c0.6-0.4,1.2-0.9,1.7-1.4 M3,28.2C3,28.3,3,28.3,3,28.2c0,0.1,0,0.1-0.1,0.1 M6.5,30l-0.1-2.1
		 M5.1,30.7c0.8,0.8,1.7,1.6,2.6,2.2c1.1,0.7,2.2,1.3,3.4,1.8c1.3,0.5,2.7,0.9,4,1.3c1.5,0.3,3,0.6,4.5,0.7 M42.7,30.2
		c0.6-0.5,1.1-1.1,1.6-1.7c0.4-0.6,0.8-1.2,1.1-1.8c0.3-0.6,0.5-1.2,0.7-1.9c0.1-0.6,0.2-1.3,0.2-1.9c0-0.6-0.1-1.3-0.3-1.9
		c-0.2-0.6-0.5-1.2-0.8-1.8c-0.4-0.6-0.8-1.2-1.3-1.7c-0.5-0.6-1.1-1.1-1.7-1.5 M19.6,36.6c1.6,0.1,3.1,0.2,4.7,0.1
		c1.6-0.1,3.2-0.2,4.7-0.5c1.5-0.3,3-0.6,4.5-1.1c1.4-0.4,2.8-1,4.1-1.6 M37.6,33.6c0.3,0.2,0.7,0.4,1,0.6 M19.5,37.6
		c-1.6-0.1-3.2-0.4-4.8-0.8c-1.5-0.3-2.9-0.8-4.3-1.4c-0.6-0.3-1.3-0.6-1.9-0.9c-0.6-0.3-1.1-0.7-1.7-1c-1-0.7-1.9-1.5-2.7-2.4
		 M19.5,37.6L19.5,37.6 M42.5,33.3c-0.1,0.1-0.3,0.3-0.4,0.4c-0.5,0.4-1,0.7-1.5,1.1 M40.6,34.8c-0.2,0.1-0.4,0.2-0.5,0.3
		c-0.6,0.3-1.1,0.7-1.7,1 M38.4,36c-0.3,0.2-0.6,0.3-0.9,0.4c-1,0.4-2,0.8-3,1.2 M34.5,38.1c-1.2,0.4-2.4,0.7-3.6,0.9
		c-1.2,0.3-2.5,0.5-3.7,0.6c-1.3,0.1-2.5,0.2-3.8,0.2c-1.3,0-2.5,0-3.8-0.1 M19.6,39.7c-1.6-0.1-3.2-0.4-4.8-0.8
		c-1.5-0.3-2.9-0.8-4.3-1.4c-0.6-0.3-1.3-0.6-1.9-0.9c-0.6-0.3-1.1-0.7-1.7-1c-1-0.7-1.9-1.5-2.7-2.4 M3.8,31.5
		c-0.1-0.1-0.1-0.3-0.2-0.4c-0.2-0.4-0.4-0.8-0.5-1.3 M38.6,34.2c-1.7,0.9-3.4,1.5-5.2,2.1c-1,0.3-1.9,0.5-2.9,0.7
		c-1,0.2-2,0.4-3,0.5 M19.6,36.6c0,0.3,0,0.7-0.1,1 M8.7,41.3c-1-0.5-1.9-1.1-2.8-1.7c-0.4-0.3-0.8-0.6-1.2-1c-0.4-0.3-0.7-0.7-1-1
		c-0.6-0.7-1.1-1.4-1.5-2.2c-0.4-0.8-0.6-1.6-0.8-2.4 M19.6,44.2c-1.6-0.1-3.1-0.4-4.7-0.7c-1.4-0.3-2.9-0.7-4.2-1.3 M6.2,36.4
		c-0.7-0.5-1.4-1-2-1.6C3.6,34.3,3,33.7,2.6,33c-0.4-0.6-0.8-1.2-1.1-1.9c-0.3-0.6-0.5-1.3-0.6-2 M19.3,40.5
		c-1.3-0.1-2.5-0.3-3.7-0.5c-1.2-0.2-2.3-0.5-3.5-0.9c-1.1-0.3-2.1-0.7-3.2-1.2C8,37.5,7.1,37,6.2,36.4 M3.6,25.7c0-0.4,0-0.8,0-1.1
		c0-0.4,0.1-0.8,0.2-1.1c0.1-0.4,0.2-0.8,0.4-1.1c0.2-0.4,0.3-0.8,0.5-1.1c0.4-0.8,1-1.5,1.6-2.2c0.7-0.7,1.5-1.4,2.3-2 M6,18.3
		c-0.6,0.6-1.2,1.3-1.7,2c-0.4,0.6-0.8,1.3-1.1,2.1c-0.3,0.7-0.4,1.4-0.5,2.1c0,0.4,0,0.7,0,1.1c0,0.4,0.1,0.7,0.1,1.1 M7.3,27.7
		c-0.3-0.5-0.5-1-0.6-1.5c-0.1-0.5-0.2-1.1-0.2-1.6 M8.8,29l-1.5-1.3 M48.5,26c0,0.5-0.1,1-0.2,1.5c-0.1,0.5-0.3,1-0.5,1.5
		c-0.2,0.5-0.5,1-0.8,1.5c-0.3,0.5-0.7,1-1,1.5c-0.8,1-1.8,1.9-2.9,2.7c-1.2,0.9-2.5,1.7-3.8,2.3c-1.5,0.7-3,1.3-4.5,1.8
		c-1.6,0.5-3.3,0.9-5,1.2c-1.7,0.3-3.5,0.5-5.3,0.6c-1.8,0.1-3.5,0-5.3-0.1 M5.6,25c0,0.5,0.1,1,0.2,1.5c0.1,0.5,0.3,1,0.6,1.4
		 M6,30.2l0-1 M47.1,25.3c0,0.4,0,0.7,0,1.1c0,0.4-0.1,0.7-0.1,1.1c-0.1,0.7-0.4,1.4-0.7,2.1c-0.4,0.7-0.8,1.4-1.3,2
		c-0.6,0.7-1.2,1.3-1.9,1.9 M26.4,35.9C26.4,35.9,26.4,35.9,26.4,35.9c-0.1,0.1-0.1,0.1-0.1,0.2 M46.9,23.2c0,0.4,0,0.7,0,1.1
		c0,0.4-0.1,0.7-0.1,1.1c-0.1,0.7-0.4,1.4-0.7,2.1c-0.4,0.7-0.8,1.4-1.3,2c-0.6,0.7-1.2,1.3-1.9,1.9 M27.2,35.9
		C27.2,35.9,27.2,35.9,27.2,35.9c0-0.1-0.1-0.1-0.1-0.1 M40.8,27c-0.1,0.2-0.3,0.4-0.4,0.6c-0.5,0.6-1.1,1.2-1.7,1.7 M39.5,29.6
		c0.2-0.2,0.4-0.4,0.7-0.6c0.6-0.6,1.1-1.2,1.6-1.9 M38.7,29.3l-1.2,0.8 M45.4,23c0-0.6-0.1-1.3-0.3-1.9c-0.2-0.6-0.5-1.2-0.8-1.8
		c-0.4-0.6-0.8-1.2-1.3-1.7c-0.5-0.6-1.2-1.1-1.8-1.5 M42.8,38.9c-1.5,1.1-3.1,1.9-4.8,2.6c-1.8,0.8-3.8,1.4-5.7,1.9
		c-2.1,0.5-4.2,0.8-6.3,0.9c-2.1,0.1-4.2,0.1-6.3-0.1 M48.4,30c0,0.8-0.2,1.6-0.4,2.4c-0.3,0.8-0.6,1.6-1.1,2.3
		c-0.5,0.8-1.1,1.5-1.8,2.2c-0.7,0.7-1.5,1.4-2.4,2 M7.5,25.8C7.5,25.8,7.5,25.7,7.5,25.8c0-0.1,0-0.1,0-0.1c0,0,0,0,0,0
		c0,0,0,0,0.1,0 M43.8,27.8c0.5-0.7,0.9-1.5,1.2-2.4c0.1-0.4,0.2-0.8,0.3-1.2c0.1-0.4,0.1-0.8,0.1-1.2 M39.8,31.7
		c0.8-0.5,1.6-1.1,2.3-1.8c0.6-0.6,1.2-1.3,1.7-2 M37.5,33c0.2-0.1,0.4-0.2,0.6-0.3c0.6-0.3,1.1-0.6,1.7-1 M27.4,35.9
		c1.8-0.2,3.6-0.6,5.3-1.1c1.6-0.5,3.2-1.1,4.8-1.9 M8.9,16.1c-0.2,0.1-0.4,0.3-0.6,0.4c-0.6,0.4-1.2,0.9-1.8,1.4 M34.4,37
		c0.3-0.1,0.7-0.2,1-0.3c1-0.3,1.9-0.7,2.8-1.2 M20.7,53.9c-1-0.1-2.1-0.2-3.1-0.4c-0.5-0.1-1-0.2-1.5-0.3c-0.5-0.1-1-0.2-1.4-0.4
		c-1.3-0.4-2.6-0.9-3.9-1.5c-1.1-0.5-2.2-1.2-3.2-2c-0.4-0.4-0.9-0.7-1.3-1.1c-0.4-0.4-0.7-0.8-1-1.2c-0.3-0.4-0.6-0.8-0.8-1.3
		c-0.2-0.4-0.4-0.9-0.5-1.3 M45.5,19.3c0.5,0.5,0.9,1,1.3,1.6c0.4,0.5,0.7,1.1,1,1.7c0.2,0.6,0.4,1.1,0.6,1.7
		c0.1,0.6,0.2,1.2,0.2,1.8 M7.9,26.6c-0.1-0.1-0.1-0.1-0.1-0.2c0-0.1-0.1-0.1-0.1-0.2c0-0.1-0.1-0.1-0.1-0.2c0-0.1,0-0.1,0-0.2
		 M8.7,28.9c-0.2-0.3-0.3-0.7-0.4-1c-0.1-0.3-0.2-0.7-0.2-1 M26.9,35.8c-0.1,0-0.2,0-0.2,0c-0.1,0-0.1,0-0.2,0.1 M38.5,29.1
		c0.1-0.1,0.2-0.2,0.3-0.3c0.2-0.3,0.5-0.6,0.7-0.9 M39.4,28l1.4-1 M27.1,35.8C27.1,35.8,27.1,35.8,27.1,35.8
		c-0.1,0-0.2-0.1-0.2-0.1 M2.1,25.8c0-0.7,0.1-1.3,0.2-2c0.2-0.7,0.4-1.3,0.7-1.9c0.3-0.7,0.8-1.3,1.2-1.9c0.5-0.6,1.1-1.2,1.7-1.8
		 M42.1,16c0.7,0.5,1.4,1,2,1.6c0.6,0.5,1.1,1.1,1.5,1.8c0.4,0.6,0.7,1.2,1,1.9c0.2,0.6,0.4,1.3,0.4,2 M1.5,33
		c0.3,2,0.7,3.9,1.2,5.9c0.4,1.9,1,3.7,1.5,5.5 M47.3,41.6c0.3-1.9,0.5-3.8,0.7-5.7c0.2-2,0.4-4,0.4-6 M19.8,36.1
		c-1.1-0.1-2.1-0.2-3.2-0.4c-1-0.2-2-0.4-3-0.7c-0.9-0.3-1.8-0.6-2.7-1c-0.8-0.4-1.6-0.8-2.4-1.3c-0.7-0.4-1.3-0.9-2-1.5
		c-0.5-0.5-1.1-1.1-1.5-1.7c-0.4-0.6-0.7-1.2-1-1.8c-0.2-0.6-0.4-1.3-0.5-1.9 M47.3,41.6c-0.1,0.5-0.2,0.9-0.3,1.3
		c-0.2,0.5-0.3,0.9-0.6,1.3c-0.2,0.4-0.5,0.9-0.8,1.3c-0.3,0.4-0.7,0.9-1,1.2c-0.8,0.9-1.7,1.6-2.7,2.3c-1.1,0.7-2.2,1.4-3.4,1.9
		c-1.3,0.6-2.6,1.1-4,1.5c-1.4,0.4-2.9,0.8-4.4,1c-1.5,0.2-3.1,0.4-4.6,0.5c-1.5,0.1-3.1,0-4.6-0.1 M0.9,29.1
		c-0.1-0.6-0.1-1.2-0.1-1.8c0-0.6,0.2-1.2,0.3-1.8c0.2-0.6,0.4-1.2,0.7-1.8c0.3-0.6,0.7-1.2,1.1-1.7 M34.5,6.6
		c0.1,0.1,0.2,0.1,0.3,0.2c0.3,0.2,0.6,0.3,0.8,0.5 M8.8,22.3L8.8,22.3 M10.5,17.7c0.1-0.1,0.2-0.3,0.3-0.4c0-0.1,0.1-0.1,0.1-0.2
		c0-0.1,0-0.1,0-0.2 M24.7,22.7c0.2,0,0.4,0,0.6,0c0.2,0,0.4,0.1,0.5,0.2 M9.2,18.5c0.7,0.8,1.5,1.4,2.3,1.9c0.5,0.3,1,0.6,1.5,0.8
		c0.5,0.3,1.1,0.5,1.6,0.7c0.6,0.2,1.2,0.4,1.8,0.6c0.6,0.2,1.3,0.3,1.9,0.4c1.3,0.3,2.7,0.4,4.1,0.4 M36,6.7
		c-0.1-0.1-0.2-0.1-0.3-0.2c-0.3-0.2-0.6-0.4-0.9-0.5 M36.5,8.8c-0.1,0-0.1-0.1-0.2-0.1c-0.1,0-0.1-0.1-0.2-0.1 M39,11.5
		c0-0.2,0-0.3-0.1-0.5c0-0.2-0.1-0.3-0.1-0.5 M38.7,9.8c0,0.1,0,0.3,0.1,0.4c0,0.1,0.1,0.3,0.1,0.4 M38.7,9.2c0-0.2,0-0.5-0.1-0.7
		c0-0.2-0.1-0.5-0.1-0.7c-0.1-0.2-0.1-0.5-0.2-0.7c-0.1-0.2-0.2-0.4-0.3-0.6 M37.9,6.5c-0.1-0.1-0.1-0.2-0.2-0.3
		c-0.1-0.1-0.1-0.1-0.2-0.2 M9,18.5L9,18 M9,18.5L9,18.5 M10.5,17.7l0.1,0.9 M34.6,4.8c0,0-0.1,0-0.1,0c0,0-0.1,0-0.1,0 M8.9,25
		l0-0.4 M26.3,33.4l0-1 M8,26.5l-0.1-1 M8,26.6L8,26.6 M33.2,6.2c0,0-0.1,0-0.1,0c0,0-0.1,0-0.1,0 M9,18c0-0.1,0-0.1,0-0.2
		c0-0.1,0-0.2-0.1-0.2c0-0.1,0-0.1-0.1-0.2c0-0.1,0-0.1-0.1-0.2 M28.9,29.8c1.4-0.2,2.7-0.6,4-1.1c0.6-0.2,1.2-0.5,1.8-0.7
		c0.6-0.3,1.1-0.6,1.7-0.9 M9.2,18.5C9.2,18.5,9.2,18.5,9.2,18.5C9.2,18.5,9.2,18.5,9.2,18.5c-0.1-0.1-0.1-0.1-0.1-0.1 M8.3,23.8
		l0.7-0.5 M9.4,16.7c-0.2-0.4-0.3-0.7-0.4-1.1c-0.1-0.4-0.2-0.8-0.2-1.1 M15,8.6c-0.1,0-0.1,0.1-0.2,0.1c-0.1,0-0.1,0.1-0.2,0.1
		 M14.9,7.1c-0.1,0-0.1,0.1-0.2,0.1c-0.1,0.1-0.1,0.1-0.1,0.2c0,0.1-0.1,0.1-0.1,0.2c0,0.1,0,0.1,0,0.2 M34.1,6.3
		C34,6.3,34,6.4,34.1,6.3c-0.1,0.1-0.1,0.1-0.2,0.1c0,0-0.1,0-0.1,0c0,0-0.1,0-0.1,0 M16.1,7.9c0,0-0.1,0-0.1,0c0,0-0.1,0-0.1,0
		c0,0-0.1,0-0.1,0c0,0-0.1,0-0.1-0.1c-0.1-0.1-0.1-0.1-0.2-0.2s-0.1-0.1-0.2-0.2 M28.3,29.3l-0.4-5.5 M30.8,21.7
		c0.7-0.2,1.5-0.4,2.2-0.7c0.7-0.3,1.4-0.6,2-0.9c0.6-0.3,1.2-0.7,1.8-1.1c0.5-0.4,1-0.8,1.5-1.2c0.4-0.4,0.8-0.8,1.2-1.3
		c0.3-0.4,0.6-0.9,0.8-1.4c0.2-0.4,0.4-0.9,0.5-1.4c0.1-0.5,0.1-0.9,0.1-1.4 M24.7,22.7c0.5,0,0.9,0,1.4-0.1c1.4-0.1,2.7-0.3,4-0.7
		 M40.8,22c-0.2,0.4-0.4,0.8-0.6,1.1c-0.2,0.4-0.5,0.7-0.8,1.1c-0.3,0.4-0.7,0.7-1.1,1c-0.4,0.3-0.8,0.6-1.2,0.9 M39.4,12.2
		C39.4,12.1,39.4,12.1,39.4,12.2c0-0.1,0-0.1,0-0.1c0,0,0,0,0,0c0,0,0,0,0,0 M28.3,29.3c0.8-0.1,1.6-0.3,2.4-0.5
		c0.8-0.2,1.5-0.4,2.3-0.7c0.7-0.3,1.4-0.6,2.1-0.9c0.6-0.3,1.3-0.7,1.9-1.1 M35.6,7.4c0,0.1-0.1,0.2-0.2,0.2
		c-0.1,0.1-0.1,0.1-0.2,0.2c0,0-0.1,0-0.1,0.1c0,0-0.1,0-0.1,0c0,0-0.1,0-0.1,0c0,0-0.1,0-0.1,0 M34.4,7.6
		C34.4,7.6,34.4,7.6,34.4,7.6c-0.1-0.1-0.1-0.1-0.1-0.1c0,0,0-0.1,0-0.1c0,0,0-0.1,0-0.1 M36,6.7c0,0,0,0.1,0,0.1
		C36,6.9,36,7,35.9,7c0,0-0.1,0.1-0.1,0.1c0,0-0.1,0.1-0.1,0.1 M15,8.9l0-0.3 M36.1,8.6l0,0.3 M40.8,22c0.2-0.4,0.3-0.9,0.4-1.3
		c0.1-0.4,0.1-0.9,0.1-1.3 M16.2,8.8c0,0-0.1,0-0.1,0.1C16,8.9,15.9,9,15.7,9 M17,8.4C17,8.4,17,8.4,17,8.4c-0.1,0-0.1,0-0.2,0.1
		 M17.1,8.4C17.1,8.4,17.1,8.4,17.1,8.4C17.1,8.4,17.1,8.4,17.1,8.4C17,8.4,17,8.4,17.1,8.4 M10.1,14.5c0-0.3,0-0.6,0-0.9
		c0-0.3,0.1-0.6,0.2-0.9c0.1-0.3,0.2-0.6,0.3-0.9c0.1-0.3,0.3-0.6,0.5-0.9c0.2-0.3,0.4-0.6,0.6-0.8c0.2-0.3,0.5-0.5,0.8-0.8
		c0.6-0.5,1.3-1,1.9-1.4 M38.4,6.2c0,0-0.1,0.1-0.1,0.1c-0.1,0.1-0.2,0.2-0.3,0.2 M36.1,8.8C36.1,8.8,36.1,8.8,36.1,8.8
		C36.1,8.8,36.1,8.8,36.1,8.8 M39.6,27.8L39.5,25 M37.9,26.2c0.1-0.1,0.3-0.2,0.4-0.3c0.4-0.3,0.8-0.6,1.1-0.9 M34.8,4.6l0.1-0.1
		 M34.7,4.7L34.7,4.7 M34.6,4.8l0.2-0.1 M17,6.3C16.9,6.3,16.9,6.3,17,6.3c-0.1-0.1-0.2-0.1-0.2-0.1c-0.1,0-0.2,0-0.2,0 M15.3,7.4
		c0.1-0.1,0.3-0.1,0.4-0.2c0.4-0.2,0.8-0.4,1.2-0.6 M17,7.1c0,0.1,0,0.1,0,0.2c0,0.1,0,0.1,0,0.1c0,0,0,0.1-0.1,0.1
		c0,0-0.1,0.1-0.1,0.1 M26.3,32.4c-1,0.1-2.1,0.2-3.1,0.2c-1,0-2-0.1-3.1-0.2c-1-0.1-2-0.3-2.9-0.5c-0.9-0.2-1.8-0.5-2.7-0.8
		c-0.8-0.3-1.6-0.7-2.3-1.1c-0.7-0.4-1.3-0.8-1.9-1.3c-0.5-0.5-1-1-1.4-1.5c-0.2-0.3-0.4-0.5-0.5-0.8c-0.1-0.3-0.3-0.6-0.4-0.9
		 M26.3,32.4c0.1,0,0.3,0,0.4-0.1c0.1,0,0.3-0.1,0.4-0.2c0,0,0.1-0.1,0.1-0.1c0,0,0.1-0.1,0.1-0.1c0,0,0-0.1,0.1-0.1
		c0,0,0-0.1,0-0.1"/>
	
		<path style="clip-path:url(#SVGID_00000166663193608964743170000010882626169634332291_);fill:none;stroke:#000000;stroke-width:0.216;stroke-linejoin:bevel;stroke-miterlimit:22.926;" d="
		M40.4,29.1c0.2-0.2,0.4-0.4,0.6-0.6 M8.8,29c0,0.2,0,0.3,0,0.5 M41.2,24.7c0-0.8-0.1-1.6-0.1-2.4 M24.6,31.2
		c0.5,0.2,1.3,0.1,1.7-0.2 M25.8,22.9c0.7,0.4,1.4,0.7,2.1,0.9 M24.1,24.6c0.6,0.8,1.3,1.1,1.7,0.8 M39.1,12.2c0-0.2,0-0.5,0-0.7
		 M37.5,6c-0.8-0.5-1.8-0.9-3-1.3 M23.9,24.4c-0.2-0.3-0.4-0.5-0.7-0.6 M18.8,6.3c0,0.3,0.1,0.6,0.1,1 M40.4,11.8c0-0.2,0-0.3,0-0.5
		 M39.4,13.1c0-0.2,0-0.5,0-0.7 M32.9,7.3c0-0.3,0-0.6,0-1 M2.9,26.7c0,0.2,0.1,0.4,0.1,0.5c0.2,0.5,0.4,1.1,0.7,1.6 M5.1,30.7
		L5.1,30.7 M3.7,28.7c0.1,0.2,0.2,0.3,0.3,0.5c0.3,0.5,0.7,1,1.1,1.4 M37.6,33.6c0.2-0.1,0.5-0.2,0.7-0.4c0.7-0.4,1.4-0.8,2.1-1.2
		 M40.4,32c0.2-0.1,0.4-0.3,0.6-0.4c0.6-0.4,1.2-0.9,1.7-1.4 M3,28.2C3,28.3,3,28.3,3,28.2c0,0.1,0,0.1-0.1,0.1 M6.5,30l-0.1-2.1
		 M5.1,30.7c0.8,0.8,1.7,1.6,2.6,2.2c1.1,0.7,2.2,1.3,3.4,1.8c1.3,0.5,2.7,0.9,4,1.3c1.5,0.3,3,0.6,4.5,0.7 M42.7,30.2
		c0.6-0.5,1.1-1.1,1.6-1.7c0.4-0.6,0.8-1.2,1.1-1.8c0.3-0.6,0.5-1.2,0.7-1.9c0.1-0.6,0.2-1.3,0.2-1.9c0-0.6-0.1-1.3-0.3-1.9
		c-0.2-0.6-0.5-1.2-0.8-1.8c-0.4-0.6-0.8-1.2-1.3-1.7c-0.5-0.6-1.1-1.1-1.7-1.5 M19.6,36.6c1.6,0.1,3.1,0.2,4.7,0.1
		c1.6-0.1,3.2-0.2,4.7-0.5c1.5-0.3,3-0.6,4.5-1.1c1.4-0.4,2.8-1,4.1-1.6 M37.6,33.6c0.3,0.2,0.7,0.4,1,0.6 M19.5,37.6
		c-1.6-0.1-3.2-0.4-4.8-0.8c-1.5-0.3-2.9-0.8-4.3-1.4c-0.6-0.3-1.3-0.6-1.9-0.9c-0.6-0.3-1.1-0.7-1.7-1c-1-0.7-1.9-1.5-2.7-2.4
		 M19.5,37.6L19.5,37.6 M42.5,33.3c-0.1,0.1-0.3,0.3-0.4,0.4c-0.5,0.4-1,0.7-1.5,1.1 M40.6,34.8c-0.2,0.1-0.4,0.2-0.5,0.3
		c-0.6,0.3-1.1,0.7-1.7,1 M38.4,36c-0.3,0.2-0.6,0.3-0.9,0.4c-1,0.4-2,0.8-3,1.2 M34.5,38.1c-1.2,0.4-2.4,0.7-3.6,0.9
		c-1.2,0.3-2.5,0.5-3.7,0.6c-1.3,0.1-2.5,0.2-3.8,0.2c-1.3,0-2.5,0-3.8-0.1 M19.6,39.7c-1.6-0.1-3.2-0.4-4.8-0.8
		c-1.5-0.3-2.9-0.8-4.3-1.4c-0.6-0.3-1.3-0.6-1.9-0.9c-0.6-0.3-1.1-0.7-1.7-1c-1-0.7-1.9-1.5-2.7-2.4 M3.8,31.5
		c-0.1-0.1-0.1-0.3-0.2-0.4c-0.2-0.4-0.4-0.8-0.5-1.3 M38.6,34.2c-1.7,0.9-3.4,1.5-5.2,2.1c-1,0.3-1.9,0.5-2.9,0.7
		c-1,0.2-2,0.4-3,0.5 M19.6,36.6c0,0.3,0,0.7-0.1,1 M8.7,41.3c-1-0.5-1.9-1.1-2.8-1.7c-0.4-0.3-0.8-0.6-1.2-1c-0.4-0.3-0.7-0.7-1-1
		c-0.6-0.7-1.1-1.4-1.5-2.2c-0.4-0.8-0.6-1.6-0.8-2.4 M19.6,44.2c-1.6-0.1-3.1-0.4-4.7-0.7c-1.4-0.3-2.9-0.7-4.2-1.3 M6.2,36.4
		c-0.7-0.5-1.4-1-2-1.6C3.6,34.3,3,33.7,2.6,33c-0.4-0.6-0.8-1.2-1.1-1.9c-0.3-0.6-0.5-1.3-0.6-2 M19.3,40.5
		c-1.3-0.1-2.5-0.3-3.7-0.5c-1.2-0.2-2.3-0.5-3.5-0.9c-1.1-0.3-2.1-0.7-3.2-1.2C8,37.5,7.1,37,6.2,36.4 M3.6,25.7c0-0.4,0-0.8,0-1.1
		c0-0.4,0.1-0.8,0.2-1.1c0.1-0.4,0.2-0.8,0.4-1.1c0.2-0.4,0.3-0.8,0.5-1.1c0.4-0.8,1-1.5,1.6-2.2c0.7-0.7,1.5-1.4,2.3-2 M6,18.3
		c-0.6,0.6-1.2,1.3-1.7,2c-0.4,0.6-0.8,1.3-1.1,2.1c-0.3,0.7-0.4,1.4-0.5,2.1c0,0.4,0,0.7,0,1.1c0,0.4,0.1,0.7,0.1,1.1 M7.3,27.7
		c-0.3-0.5-0.5-1-0.6-1.5c-0.1-0.5-0.2-1.1-0.2-1.6 M8.8,29l-1.5-1.3 M48.5,26c0,0.5-0.1,1-0.2,1.5c-0.1,0.5-0.3,1-0.5,1.5
		c-0.2,0.5-0.5,1-0.8,1.5c-0.3,0.5-0.7,1-1,1.5c-0.8,1-1.8,1.9-2.9,2.7c-1.2,0.9-2.5,1.7-3.8,2.3c-1.5,0.7-3,1.3-4.5,1.8
		c-1.6,0.5-3.3,0.9-5,1.2c-1.7,0.3-3.5,0.5-5.3,0.6c-1.8,0.1-3.5,0-5.3-0.1 M5.6,25c0,0.5,0.1,1,0.2,1.5c0.1,0.5,0.3,1,0.6,1.4
		 M6,30.2l0-1 M47.1,25.3c0,0.4,0,0.7,0,1.1c0,0.4-0.1,0.7-0.1,1.1c-0.1,0.7-0.4,1.4-0.7,2.1c-0.4,0.7-0.8,1.4-1.3,2
		c-0.6,0.7-1.2,1.3-1.9,1.9 M26.4,35.9C26.4,35.9,26.4,35.9,26.4,35.9c-0.1,0.1-0.1,0.1-0.1,0.2 M46.9,23.2c0,0.4,0,0.7,0,1.1
		c0,0.4-0.1,0.7-0.1,1.1c-0.1,0.7-0.4,1.4-0.7,2.1c-0.4,0.7-0.8,1.4-1.3,2c-0.6,0.7-1.2,1.3-1.9,1.9 M27.2,35.9
		C27.2,35.9,27.2,35.9,27.2,35.9c0-0.1-0.1-0.1-0.1-0.1 M40.8,27c-0.1,0.2-0.3,0.4-0.4,0.6c-0.5,0.6-1.1,1.2-1.7,1.7 M39.5,29.6
		c0.2-0.2,0.4-0.4,0.7-0.6c0.6-0.6,1.1-1.2,1.6-1.9 M38.7,29.3l-1.2,0.8 M45.4,23c0-0.6-0.1-1.3-0.3-1.9c-0.2-0.6-0.5-1.2-0.8-1.8
		c-0.4-0.6-0.8-1.2-1.3-1.7c-0.5-0.6-1.2-1.1-1.8-1.5 M42.8,38.9c-1.5,1.1-3.1,1.9-4.8,2.6c-1.8,0.8-3.8,1.4-5.7,1.9
		c-2.1,0.5-4.2,0.8-6.3,0.9c-2.1,0.1-4.2,0.1-6.3-0.1 M48.4,30c0,0.8-0.2,1.6-0.4,2.4c-0.3,0.8-0.6,1.6-1.1,2.3
		c-0.5,0.8-1.1,1.5-1.8,2.2c-0.7,0.7-1.5,1.4-2.4,2 M7.5,25.8C7.5,25.8,7.5,25.7,7.5,25.8c0-0.1,0-0.1,0-0.1c0,0,0,0,0,0
		c0,0,0,0,0.1,0 M43.8,27.8c0.5-0.7,0.9-1.5,1.2-2.4c0.1-0.4,0.2-0.8,0.3-1.2c0.1-0.4,0.1-0.8,0.1-1.2 M39.8,31.7
		c0.8-0.5,1.6-1.1,2.3-1.8c0.6-0.6,1.2-1.3,1.7-2 M37.5,33c0.2-0.1,0.4-0.2,0.6-0.3c0.6-0.3,1.1-0.6,1.7-1 M27.4,35.9
		c1.8-0.2,3.6-0.6,5.3-1.1c1.6-0.5,3.2-1.1,4.8-1.9 M8.9,16.1c-0.2,0.1-0.4,0.3-0.6,0.4c-0.6,0.4-1.2,0.9-1.8,1.4 M34.4,37
		c0.3-0.1,0.7-0.2,1-0.3c1-0.3,1.9-0.7,2.8-1.2 M20.7,53.9c-1-0.1-2.1-0.2-3.1-0.4c-0.5-0.1-1-0.2-1.5-0.3c-0.5-0.1-1-0.2-1.4-0.4
		c-1.3-0.4-2.6-0.9-3.9-1.5c-1.1-0.5-2.2-1.2-3.2-2c-0.4-0.4-0.9-0.7-1.3-1.1c-0.4-0.4-0.7-0.8-1-1.2c-0.3-0.4-0.6-0.8-0.8-1.3
		c-0.2-0.4-0.4-0.9-0.5-1.3 M45.5,19.3c0.5,0.5,0.9,1,1.3,1.6c0.4,0.5,0.7,1.1,1,1.7c0.2,0.6,0.4,1.1,0.6,1.7
		c0.1,0.6,0.2,1.2,0.2,1.8 M7.9,26.6c-0.1-0.1-0.1-0.1-0.1-0.2c0-0.1-0.1-0.1-0.1-0.2c0-0.1-0.1-0.1-0.1-0.2c0-0.1,0-0.1,0-0.2
		 M8.7,28.9c-0.2-0.3-0.3-0.7-0.4-1c-0.1-0.3-0.2-0.7-0.2-1 M26.9,35.8c-0.1,0-0.2,0-0.2,0c-0.1,0-0.1,0-0.2,0.1 M38.5,29.1
		c0.1-0.1,0.2-0.2,0.3-0.3c0.2-0.3,0.5-0.6,0.7-0.9 M39.4,28l1.4-1 M27.1,35.8C27.1,35.8,27.1,35.8,27.1,35.8
		c-0.1,0-0.2-0.1-0.2-0.1 M2.1,25.8c0-0.7,0.1-1.3,0.2-2c0.2-0.7,0.4-1.3,0.7-1.9c0.3-0.7,0.8-1.3,1.2-1.9c0.5-0.6,1.1-1.2,1.7-1.8
		 M42.1,16c0.7,0.5,1.4,1,2,1.6c0.6,0.5,1.1,1.1,1.5,1.8c0.4,0.6,0.7,1.2,1,1.9c0.2,0.6,0.4,1.3,0.4,2 M1.5,33
		c0.3,2,0.7,3.9,1.2,5.9c0.4,1.9,1,3.7,1.5,5.5 M47.3,41.6c0.3-1.9,0.5-3.8,0.7-5.7c0.2-2,0.4-4,0.4-6 M19.8,36.1
		c-1.1-0.1-2.1-0.2-3.2-0.4c-1-0.2-2-0.4-3-0.7c-0.9-0.3-1.8-0.6-2.7-1c-0.8-0.4-1.6-0.8-2.4-1.3c-0.7-0.4-1.3-0.9-2-1.5
		c-0.5-0.5-1.1-1.1-1.5-1.7c-0.4-0.6-0.7-1.2-1-1.8c-0.2-0.6-0.4-1.3-0.5-1.9 M47.3,41.6c-0.1,0.5-0.2,0.9-0.3,1.3
		c-0.2,0.5-0.3,0.9-0.6,1.3c-0.2,0.4-0.5,0.9-0.8,1.3c-0.3,0.4-0.7,0.9-1,1.2c-0.8,0.9-1.7,1.6-2.7,2.3c-1.1,0.7-2.2,1.4-3.4,1.9
		c-1.3,0.6-2.6,1.1-4,1.5c-1.4,0.4-2.9,0.8-4.4,1c-1.5,0.2-3.1,0.4-4.6,0.5c-1.5,0.1-3.1,0-4.6-0.1 M0.9,29.1
		c-0.1-0.6-0.1-1.2-0.1-1.8c0-0.6,0.2-1.2,0.3-1.8c0.2-0.6,0.4-1.2,0.7-1.8c0.3-0.6,0.7-1.2,1.1-1.7 M34.5,6.6
		c0.1,0.1,0.2,0.1,0.3,0.2c0.3,0.2,0.6,0.3,0.8,0.5 M8.8,22.3L8.8,22.3 M10.5,17.7c0.1-0.1,0.2-0.3,0.3-0.4c0-0.1,0.1-0.1,0.1-0.2
		c0-0.1,0-0.1,0-0.2 M24.7,22.7c0.2,0,0.4,0,0.6,0c0.2,0,0.4,0.1,0.5,0.2 M9.2,18.5c0.7,0.8,1.5,1.4,2.3,1.9c0.5,0.3,1,0.6,1.5,0.8
		c0.5,0.3,1.1,0.5,1.6,0.7c0.6,0.2,1.2,0.4,1.8,0.6c0.6,0.2,1.3,0.3,1.9,0.4c1.3,0.3,2.7,0.4,4.1,0.4 M36,6.7
		c-0.1-0.1-0.2-0.1-0.3-0.2c-0.3-0.2-0.6-0.4-0.9-0.5 M36.5,8.8c-0.1,0-0.1-0.1-0.2-0.1c-0.1,0-0.1-0.1-0.2-0.1 M39,11.5
		c0-0.2,0-0.3-0.1-0.5c0-0.2-0.1-0.3-0.1-0.5 M38.7,9.8c0,0.1,0,0.3,0.1,0.4c0,0.1,0.1,0.3,0.1,0.4 M38.7,9.2c0-0.2,0-0.5-0.1-0.7
		c0-0.2-0.1-0.5-0.1-0.7c-0.1-0.2-0.1-0.5-0.2-0.7c-0.1-0.2-0.2-0.4-0.3-0.6 M37.9,6.5c-0.1-0.1-0.1-0.2-0.2-0.3
		c-0.1-0.1-0.1-0.1-0.2-0.2 M9,18.5L9,18 M9,18.5L9,18.5 M10.5,17.7l0.1,0.9 M34.6,4.8c0,0-0.1,0-0.1,0c0,0-0.1,0-0.1,0 M8.9,25
		l0-0.4 M26.3,33.4l0-1 M8,26.5l-0.1-1 M8,26.6L8,26.6 M33.2,6.2c0,0-0.1,0-0.1,0c0,0-0.1,0-0.1,0 M9,18c0-0.1,0-0.1,0-0.2
		c0-0.1,0-0.2-0.1-0.2c0-0.1,0-0.1-0.1-0.2c0-0.1,0-0.1-0.1-0.2 M28.9,29.8c1.4-0.2,2.7-0.6,4-1.1c0.6-0.2,1.2-0.5,1.8-0.7
		c0.6-0.3,1.1-0.6,1.7-0.9 M9.2,18.5C9.2,18.5,9.2,18.5,9.2,18.5C9.2,18.5,9.2,18.5,9.2,18.5c-0.1-0.1-0.1-0.1-0.1-0.1 M8.3,23.8
		l0.7-0.5 M9.4,16.7c-0.2-0.4-0.3-0.7-0.4-1.1c-0.1-0.4-0.2-0.8-0.2-1.1 M15,8.6c-0.1,0-0.1,0.1-0.2,0.1c-0.1,0-0.1,0.1-0.2,0.1
		 M14.9,7.1c-0.1,0-0.1,0.1-0.2,0.1c-0.1,0.1-0.1,0.1-0.1,0.2c0,0.1-0.1,0.1-0.1,0.2c0,0.1,0,0.1,0,0.2 M34.1,6.3
		C34,6.3,34,6.4,34.1,6.3c-0.1,0.1-0.1,0.1-0.2,0.1c0,0-0.1,0-0.1,0c0,0-0.1,0-0.1,0 M16.1,7.9c0,0-0.1,0-0.1,0c0,0-0.1,0-0.1,0
		c0,0-0.1,0-0.1,0c0,0-0.1,0-0.1-0.1c-0.1-0.1-0.1-0.1-0.2-0.2s-0.1-0.1-0.2-0.2 M28.3,29.3l-0.4-5.5 M30.8,21.7
		c0.7-0.2,1.5-0.4,2.2-0.7c0.7-0.3,1.4-0.6,2-0.9c0.6-0.3,1.2-0.7,1.8-1.1c0.5-0.4,1-0.8,1.5-1.2c0.4-0.4,0.8-0.8,1.2-1.3
		c0.3-0.4,0.6-0.9,0.8-1.4c0.2-0.4,0.4-0.9,0.5-1.4c0.1-0.5,0.1-0.9,0.1-1.4 M24.7,22.7c0.5,0,0.9,0,1.4-0.1c1.4-0.1,2.7-0.3,4-0.7
		 M40.8,22c-0.2,0.4-0.4,0.8-0.6,1.1c-0.2,0.4-0.5,0.7-0.8,1.1c-0.3,0.4-0.7,0.7-1.1,1c-0.4,0.3-0.8,0.6-1.2,0.9 M39.4,12.2
		C39.4,12.1,39.4,12.1,39.4,12.2c0-0.1,0-0.1,0-0.1c0,0,0,0,0,0c0,0,0,0,0,0 M28.3,29.3c0.8-0.1,1.6-0.3,2.4-0.5
		c0.8-0.2,1.5-0.4,2.3-0.7c0.7-0.3,1.4-0.6,2.1-0.9c0.6-0.3,1.3-0.7,1.9-1.1 M35.6,7.4c0,0.1-0.1,0.2-0.2,0.2
		c-0.1,0.1-0.1,0.1-0.2,0.2c0,0-0.1,0-0.1,0.1c0,0-0.1,0-0.1,0c0,0-0.1,0-0.1,0c0,0-0.1,0-0.1,0 M34.4,7.6
		C34.4,7.6,34.4,7.6,34.4,7.6c-0.1-0.1-0.1-0.1-0.1-0.1c0,0,0-0.1,0-0.1c0,0,0-0.1,0-0.1 M36,6.7c0,0,0,0.1,0,0.1
		C36,6.9,36,7,35.9,7c0,0-0.1,0.1-0.1,0.1c0,0-0.1,0.1-0.1,0.1 M15,8.9l0-0.3 M36.1,8.6l0,0.3 M40.8,22c0.2-0.4,0.3-0.9,0.4-1.3
		c0.1-0.4,0.1-0.9,0.1-1.3 M16.2,8.8c0,0-0.1,0-0.1,0.1C16,8.9,15.9,9,15.7,9 M17,8.4C17,8.4,17,8.4,17,8.4c-0.1,0-0.1,0-0.2,0.1
		 M17.1,8.4C17.1,8.4,17.1,8.4,17.1,8.4C17.1,8.4,17.1,8.4,17.1,8.4C17,8.4,17,8.4,17.1,8.4 M10.1,14.5c0-0.3,0-0.6,0-0.9
		c0-0.3,0.1-0.6,0.2-0.9c0.1-0.3,0.2-0.6,0.3-0.9c0.1-0.3,0.3-0.6,0.5-0.9c0.2-0.3,0.4-0.6,0.6-0.8c0.2-0.3,0.5-0.5,0.8-0.8
		c0.6-0.5,1.3-1,1.9-1.4 M38.4,6.2c0,0-0.1,0.1-0.1,0.1c-0.1,0.1-0.2,0.2-0.3,0.2 M36.1,8.8C36.1,8.8,36.1,8.8,36.1,8.8
		C36.1,8.8,36.1,8.8,36.1,8.8 M39.6,27.8L39.5,25 M37.9,26.2c0.1-0.1,0.3-0.2,0.4-0.3c0.4-0.3,0.8-0.6,1.1-0.9 M34.8,4.6l0.1-0.1
		 M34.7,4.7L34.7,4.7 M34.6,4.8l0.2-0.1 M17,6.3C16.9,6.3,16.9,6.3,17,6.3c-0.1-0.1-0.2-0.1-0.2-0.1c-0.1,0-0.2,0-0.2,0 M15.3,7.4
		c0.1-0.1,0.3-0.1,0.4-0.2c0.4-0.2,0.8-0.4,1.2-0.6 M17,7.1c0,0.1,0,0.1,0,0.2c0,0.1,0,0.1,0,0.1c0,0,0,0.1-0.1,0.1
		c0,0-0.1,0.1-0.1,0.1 M26.3,32.4c-1,0.1-2.1,0.2-3.1,0.2c-1,0-2-0.1-3.1-0.2c-1-0.1-2-0.3-2.9-0.5c-0.9-0.2-1.8-0.5-2.7-0.8
		c-0.8-0.3-1.6-0.7-2.3-1.1c-0.7-0.4-1.3-0.8-1.9-1.3c-0.5-0.5-1-1-1.4-1.5c-0.2-0.3-0.4-0.5-0.5-0.8c-0.1-0.3-0.3-0.6-0.4-0.9
		 M26.3,32.4c0.1,0,0.3,0,0.4-0.1c0.1,0,0.3-0.1,0.4-0.2c0,0,0.1-0.1,0.1-0.1c0,0,0.1-0.1,0.1-0.1c0,0,0-0.1,0.1-0.1
		c0,0,0-0.1,0-0.1"/>
</g>
<polygon class="st3" points="44.9,35.4 41.1,35.1 35.9,33.9 34.7,32.7 33.8,31 33.9,28.8 34.9,28 36.9,27.6 40.1,27.6 44.9,27.5 
	47.6,30.9 "/>
<polygon class="st4" points="44.9,35.4 41.1,35.1 35.9,33.9 34.7,32.7 33.8,31 33.9,28.8 34.9,28 36.9,27.6 40.1,27.6 44.9,27.5 
	47.6,30.9 "/>
<polygon class="st3" points="44.8,35.3 41.1,35 35.9,33.8 34.7,32.7 33.9,31 34,28.9 35,28.1 37,27.6 40.1,27.7 44.8,27.6 
	47.5,30.9 "/>
<polygon class="st5" points="44.8,35.3 41.1,35 35.9,33.8 34.7,32.7 33.9,31 34,28.9 35,28.1 37,27.6 40.1,27.7 44.8,27.6 
	47.5,30.9 "/>
<g>
	<defs>
		<rect id="SVGID_00000062896691105573597140000002489347341737729952_" width="101.9" height="60.7"/>
	</defs>
	<clipPath id="SVGID_00000080920226023217255020000009661627806131766452_">
		<use xlink:href="#SVGID_00000062896691105573597140000002489347341737729952_"  style="overflow:visible;"/>
	</clipPath>
	<path style="clip-path:url(#SVGID_00000080920226023217255020000009661627806131766452_);fill:#FFFFFF;" d="M103.3,11l-2.6-0.8
		l-2.7-0.8l-2.8-0.8l-2.7-0.7l-2.7-0.7l-2.5-0.6L86,6.4l-1.2-0.2L83.8,6l-1-0.2l-0.4,0l-0.4,0l-0.5,0l-0.4,0l-0.4,0l-0.4,0l-0.4,0
		c-1.4,0-2.5,0.5-3.3,1.7l-0.2,0.3l-0.2,0.5l-0.1,0.5l-0.2,0.5l-0.2,0.4L75.4,10l-0.2,0.3l-0.3,0.3l-0.3,0.3l-0.6,0.6L73.3,12
		l-0.6,0.6l-0.6,0.6l-0.6,0.6l-0.6,0.6l-0.6,0.6l-0.6,0.6L69,16l-0.5,0.5L68,16.9l-0.5,0.5L67,17.9l-0.5,0.5l-0.5,0.5l-0.5,0.5
		l-0.9,0.7l-0.9,0.8l-0.9,0.8L62,22.5l-0.9,0.8l-0.9,0.8l-0.9,0.8l-0.8,0.8L57.9,26l-0.6,0.2l-0.7,0.2l-0.7,0.1
		c-1.8,0.4-3.1,0.2-4.8,0.4l-1.5,0.2L48,27.3c-1.7,0.2-3.2,0.4-4.9,0.4l-0.9,0h-1l-1,0l-1,0c-0.9,0-2,0-2.9,0.2l-0.3,0.1L35.6,28
		l-0.3,0.1L35,28.2l-0.3,0.1l-0.3,0.2L34,28.7l-0.1,0.2l-0.1,0.2l-0.1,0.3l0,0.3l0,0.3l0,0.3l0.1,0.4c0.1,0.6,0.4,1.3,0.7,1.8
		l0.2,0.4l0.3,0.3c0.8,1,2.9,1.1,4,1.5l1.2,0.2L41,35l0.7,0.1l0.7,0.1c1.3,0.1,2.5,0.2,3.8,0.1l2.1,0.2l2.1,0.2
		c2.8,0.2,5.8,0.4,8.6,0.4l1.1,0l1.1,0l1.1-0.1l1.1-0.1l0.4,0.5l0.5,0.4l0.6,0.4l0.6,0.4l0.9,0.1c1.7,0.3,3.5,0.6,5.3,0.9l0.9,0.2
		l0.9-0.2c1.7-0.4,3.4-0.9,5-1.6l0.7-0.3l0.2,0.5c0.4,1.4,0.8,2.8,1.6,4l0.2,0.2l-0.7,0.2c-1.4,0.4-2.8,0.5-4.3,0.5l-0.8,0l-0.3-0.5
		l-0.3-0.5l-0.4-0.5l-0.4-0.4c-1.3-1.2-1.7-1.5-3.5-1.7l-0.7-0.1l-0.7-0.1l-0.7-0.1l-0.7-0.1l-0.7-0.2L66,37.8l-0.4,0.1l-0.4,0.1
		L65.1,38l-0.2,0.1l-0.2,0.1l-0.1,0.1l-0.1,0.1l-0.1,0.1l-0.1,0.1l-0.1,0.2l0,0.2l0,0.2l0,0.2l0,0.2l0.5,0.8l0.5,0.8l0.5,0.7
		l0.5,0.8l0.5,0.8l0.5,0.9l0.4,1l0.4,1.1l0.2,0.6l0.2,0.6l0.2,0.6l0.2,0.5l0.2,0.5l0.2,0.5l0.2,0.5l0.3,0.4l0.3,0.3l0.3,0.3l0.3,0.3
		l0.3,0.2l0.4,0.2l0.4,0.2l0.4,0.1l0.5,0l1,0.1l1,0.1l1,0.1l1.1,0.1l1.2,0.1l1.5,0.1l1.8,0.1l2.3,0.1l0.6,0.1l0.6,0.1l0.6,0l0.6,0
		l0.6-0.1l0.6-0.1l0.6-0.1l0.6-0.2l0.6-0.2l0.6-0.2l0.6-0.3l0.6-0.3l0.5-0.3l0.6-0.3l0.6-0.3l0.5-0.4l1.6-0.7l1.6-0.6l1.6-0.7
		l1.6-0.7l0.8-0.4l0.7-0.4l0.8-0.4l0.7-0.4l0.7-0.5l0.7-0.5l0.7-0.5l0.6-0.6l0.4-0.2l0.4-0.2l0.4-0.2l0.4-0.2l0.9-0.4l0.9-0.4
		L103.3,11z"/>
	
		<path style="clip-path:url(#SVGID_00000080920226023217255020000009661627806131766452_);fill:none;stroke:#000000;stroke-miterlimit:10;" d="
		M103.3,11l-2.6-0.8l-2.7-0.8l-2.8-0.8l-2.7-0.7l-2.7-0.7l-2.5-0.6L86,6.4l-1.2-0.2L83.8,6l-1-0.2l-0.4,0l-0.4,0l-0.5,0l-0.4,0
		l-0.4,0l-0.4,0l-0.4,0c-1.4,0-2.5,0.5-3.3,1.7l-0.2,0.3l-0.2,0.5l-0.1,0.5l-0.2,0.5l-0.2,0.4L75.4,10l-0.2,0.3l-0.3,0.3l-0.3,0.3
		l-0.6,0.6L73.3,12l-0.6,0.6l-0.6,0.6l-0.6,0.6l-0.6,0.6l-0.6,0.6l-0.6,0.6L69,16l-0.5,0.5L68,16.9l-0.5,0.5L67,17.9l-0.5,0.5
		l-0.5,0.5l-0.5,0.5l-0.9,0.7l-0.9,0.8l-0.9,0.8L62,22.5l-0.9,0.8l-0.9,0.8l-0.9,0.8l-0.8,0.8L57.9,26l-0.6,0.2l-0.7,0.2l-0.7,0.1
		c-1.8,0.4-3.1,0.2-4.8,0.4l-1.5,0.2L48,27.3c-1.7,0.2-3.2,0.4-4.9,0.4l-0.9,0h-1l-1,0l-1,0c-0.9,0-2,0-2.9,0.2l-0.3,0.1L35.6,28
		l-0.3,0.1L35,28.2l-0.3,0.1l-0.3,0.2L34,28.7l-0.1,0.2l-0.1,0.2l-0.1,0.3l0,0.3l0,0.3l0,0.3l0.1,0.4c0.1,0.6,0.4,1.3,0.7,1.8
		l0.2,0.4l0.3,0.3c0.8,1,2.9,1.1,4,1.5l1.2,0.2L41,35l0.7,0.1l0.7,0.1c1.3,0.1,2.5,0.2,3.8,0.1l2.1,0.2l2.1,0.2
		c2.8,0.2,5.8,0.4,8.6,0.4l1.1,0l1.1,0l1.1-0.1l1.1-0.1l0.4,0.5l0.5,0.4l0.6,0.4l0.6,0.4l0.9,0.1c1.7,0.3,3.5,0.6,5.3,0.9l0.9,0.2
		l0.9-0.2c1.7-0.4,3.4-0.9,5-1.6l0.7-0.3l0.2,0.5c0.4,1.4,0.8,2.8,1.6,4l0.2,0.2l-0.7,0.2c-1.4,0.4-2.8,0.5-4.3,0.5l-0.8,0l-0.3-0.5
		l-0.3-0.5l-0.4-0.5l-0.4-0.4c-1.3-1.2-1.7-1.5-3.5-1.7l-0.7-0.1l-0.7-0.1l-0.7-0.1l-0.7-0.1l-0.7-0.2L66,37.8l-0.4,0.1l-0.4,0.1
		L65.1,38l-0.2,0.1l-0.2,0.1l-0.1,0.1l-0.1,0.1l-0.1,0.1l-0.1,0.1l-0.1,0.2l0,0.2l0,0.2l0,0.2l0,0.2l0.5,0.8l0.5,0.8l0.5,0.7
		l0.5,0.8l0.5,0.8l0.5,0.9l0.4,1l0.4,1.1l0.2,0.6l0.2,0.6l0.2,0.6l0.2,0.5l0.2,0.5l0.2,0.5l0.2,0.5l0.3,0.4l0.3,0.3l0.3,0.3l0.3,0.3
		l0.3,0.2l0.4,0.2l0.4,0.2l0.4,0.1l0.5,0l1,0.1l1,0.1l1,0.1l1.1,0.1l1.2,0.1l1.5,0.1l1.8,0.1l2.3,0.1l0.6,0.1l0.6,0.1l0.6,0l0.6,0
		l0.6-0.1l0.6-0.1l0.6-0.1l0.6-0.2l0.6-0.2l0.6-0.2l0.6-0.3l0.6-0.3l0.5-0.3l0.6-0.3l0.6-0.3l0.5-0.4l1.6-0.7l1.6-0.6l1.6-0.7
		l1.6-0.7l0.8-0.4l0.7-0.4l0.8-0.4l0.7-0.4l0.7-0.5l0.7-0.5l0.7-0.5l0.6-0.6l0.4-0.2l0.4-0.2l0.4-0.2l0.4-0.2l0.9-0.4l0.9-0.4
		L103.3,11z"/>
	<path style="clip-path:url(#SVGID_00000080920226023217255020000009661627806131766452_);fill:#FFFFFF;" d="M103.2,11.1L103.2,11.1
		l-2.6-0.8l-2.7-0.8l-2.7-0.8L92.4,8l-2.7-0.7l-2.5-0.6L86,6.5l-1.1-0.2l-1.1-0.2l-1-0.2l-0.4,0l-0.4,0l-0.5,0l-0.4,0l-0.4,0l-0.4,0
		l-0.4,0c-1.4,0-2.5,0.5-3.3,1.7l-0.2,0.3L76,8.3l-0.1,0.5l-0.2,0.5l-0.2,0.4L75.3,10l-0.2,0.3l-0.3,0.3l-0.3,0.3l-0.6,0.6l-0.6,0.6
		l-0.6,0.6l-0.6,0.6l-0.6,0.6l-0.6,0.6L70.2,15l-0.6,0.6L69,16.1l-0.5,0.5L68,17l-0.5,0.5L67,17.9l-0.5,0.5L66.1,19l-0.5,0.5
		l-0.9,0.7L63.8,21l-0.9,0.8L62,22.5l-0.9,0.8l-0.9,0.8l-0.9,0.8l-0.8,0.8L57.9,26l-0.6,0.2l-0.7,0.2l-0.7,0.1
		c-1.8,0.4-3,0.2-4.8,0.4l-1.5,0.2L48,27.3c-1.7,0.2-3.2,0.4-4.9,0.4l-0.9,0l-1,0l-1,0l-1,0c-0.9,0-2,0-2.9,0.2L36,27.9L35.7,28
		l-0.3,0.1L35,28.2l-0.3,0.1l-0.3,0.2l-0.3,0.2L34,28.9l-0.1,0.2l-0.1,0.3l0,0.3l0,0.3l0,0.3l0.1,0.4c0.1,0.6,0.4,1.3,0.7,1.8
		l0.2,0.4l0.3,0.3c0.8,1,2.9,1.1,4,1.5l1.2,0.2L41,35l0.7,0.1l0.7,0.1c1.3,0.1,2.5,0.2,3.8,0.1l2.1,0.2l2.1,0.2
		c2.8,0.2,5.8,0.4,8.6,0.4l1.1,0l1.1,0l1.1-0.1l1.1-0.1l0.4,0.5l0.5,0.4l0.5,0.4l0.6,0.4l0.9,0.1c1.7,0.3,3.5,0.6,5.2,0.9l0.9,0.2
		l0.9-0.2c1.7-0.4,3.4-0.9,5-1.5l0.7-0.3l0.2,0.5c0.4,1.3,0.8,2.8,1.6,3.9l0.2,0.2l-0.7,0.2c-1.4,0.4-2.8,0.5-4.3,0.5l-0.8,0
		l-0.3-0.5l-0.3-0.5l-0.4-0.5l-0.4-0.4c-1.3-1.2-1.7-1.5-3.5-1.7l-0.7-0.1l-0.7-0.1l-0.7-0.1L67.5,38l-0.7-0.2L66,37.8l-0.4,0.1
		l-0.4,0.1L65.1,38l-0.2,0.1l-0.2,0.1l-0.1,0.1l-0.1,0.1l-0.1,0.1l-0.1,0.1l-0.1,0.2l0,0.2l0,0.2l0,0.2l0,0.2l0.5,0.7l0.5,0.7
		l0.5,0.7l0.5,0.8l0.5,0.8l0.5,0.9l0.4,1l0.4,1.1l0.2,0.6l0.2,0.6l0.2,0.6l0.2,0.5l0.2,0.5l0.2,0.5l0.2,0.5l0.3,0.4l0.3,0.3l0.3,0.3
		l0.3,0.3l0.3,0.2l0.4,0.2l0.4,0.2l0.4,0.1l0.5,0l1,0.1l1,0.1l1,0.1l1.1,0.1l1.2,0.1l1.5,0.1l1.8,0.1l2.3,0.1l0.6,0.1l0.6,0.1l0.6,0
		l0.6,0l0.6-0.1l0.6-0.1l0.6-0.1l0.6-0.2l0.6-0.2l0.6-0.2l0.6-0.3l0.6-0.3l0.5-0.3l0.6-0.3l0.6-0.3l0.5-0.4l1.6-0.6l1.6-0.6l1.6-0.6
		l1.5-0.7l0.8-0.4l0.7-0.4l0.8-0.4l0.7-0.4l0.7-0.5l0.7-0.5l0.7-0.5l0.6-0.6l0.4-0.2l0.4-0.2l0.4-0.2l0.4-0.2l0.9-0.4l0.9-0.4"/>
	
		<path style="clip-path:url(#SVGID_00000080920226023217255020000009661627806131766452_);fill:none;stroke:#000000;stroke-width:0.323;stroke-linecap:round;stroke-linejoin:round;stroke-miterlimit:10;" d="
		M103.2,11.1L103.2,11.1l-2.6-0.8l-2.7-0.8l-2.7-0.8L92.4,8l-2.7-0.7l-2.5-0.6L86,6.5l-1.1-0.2l-1.1-0.2l-1-0.2l-0.4,0l-0.4,0
		l-0.5,0l-0.4,0l-0.4,0l-0.4,0l-0.4,0c-1.4,0-2.5,0.5-3.3,1.7l-0.2,0.3L76,8.3l-0.1,0.5l-0.2,0.5l-0.2,0.4L75.3,10l-0.2,0.3
		l-0.3,0.3l-0.3,0.3l-0.6,0.6l-0.6,0.6l-0.6,0.6l-0.6,0.6l-0.6,0.6l-0.6,0.6L70.2,15l-0.6,0.6L69,16.1l-0.5,0.5L68,17l-0.5,0.5
		L67,17.9l-0.5,0.5L66.1,19l-0.5,0.5l-0.9,0.7L63.8,21l-0.9,0.8L62,22.5l-0.9,0.8l-0.9,0.8l-0.9,0.8l-0.8,0.8L57.9,26l-0.6,0.2
		l-0.7,0.2l-0.7,0.1c-1.8,0.4-3,0.2-4.8,0.4l-1.5,0.2L48,27.3c-1.7,0.2-3.2,0.4-4.9,0.4l-0.9,0l-1,0l-1,0l-1,0c-0.9,0-2,0-2.9,0.2
		L36,27.9L35.7,28l-0.3,0.1L35,28.2l-0.3,0.1l-0.3,0.2l-0.3,0.2L34,28.9l-0.1,0.2l-0.1,0.3l0,0.3l0,0.3l0,0.3l0.1,0.4
		c0.1,0.6,0.4,1.3,0.7,1.8l0.2,0.4l0.3,0.3c0.8,1,2.9,1.1,4,1.5l1.2,0.2L41,35l0.7,0.1l0.7,0.1c1.3,0.1,2.5,0.2,3.8,0.1l2.1,0.2
		l2.1,0.2c2.8,0.2,5.8,0.4,8.6,0.4l1.1,0l1.1,0l1.1-0.1l1.1-0.1l0.4,0.5l0.5,0.4l0.5,0.4l0.6,0.4l0.9,0.1c1.7,0.3,3.5,0.6,5.2,0.9
		l0.9,0.2l0.9-0.2c1.7-0.4,3.4-0.9,5-1.5l0.7-0.3l0.2,0.5c0.4,1.3,0.8,2.8,1.6,3.9l0.2,0.2l-0.7,0.2c-1.4,0.4-2.8,0.5-4.3,0.5
		l-0.8,0l-0.3-0.5l-0.3-0.5l-0.4-0.5l-0.4-0.4c-1.3-1.2-1.7-1.5-3.5-1.7l-0.7-0.1l-0.7-0.1l-0.7-0.1L67.5,38l-0.7-0.2L66,37.8
		l-0.4,0.1l-0.4,0.1L65.1,38l-0.2,0.1l-0.2,0.1l-0.1,0.1l-0.1,0.1l-0.1,0.1l-0.1,0.1l-0.1,0.2l0,0.2l0,0.2l0,0.2l0,0.2l0.5,0.7
		l0.5,0.7l0.5,0.7l0.5,0.8l0.5,0.8l0.5,0.9l0.4,1l0.4,1.1l0.2,0.6l0.2,0.6l0.2,0.6l0.2,0.5l0.2,0.5l0.2,0.5l0.2,0.5l0.3,0.4l0.3,0.3
		l0.3,0.3l0.3,0.3l0.3,0.2l0.4,0.2l0.4,0.2l0.4,0.1l0.5,0l1,0.1l1,0.1l1,0.1l1.1,0.1l1.2,0.1l1.5,0.1l1.8,0.1l2.3,0.1l0.6,0.1
		l0.6,0.1l0.6,0l0.6,0l0.6-0.1l0.6-0.1l0.6-0.1l0.6-0.2l0.6-0.2l0.6-0.2l0.6-0.3l0.6-0.3l0.5-0.3l0.6-0.3l0.6-0.3l0.5-0.4l1.6-0.6
		l1.6-0.6l1.6-0.6l1.5-0.7l0.8-0.4l0.7-0.4l0.8-0.4l0.7-0.4l0.7-0.5l0.7-0.5l0.7-0.5l0.6-0.6l0.4-0.2l0.4-0.2l0.4-0.2l0.4-0.2
		l0.9-0.4l0.9-0.4"/>
	<path style="clip-path:url(#SVGID_00000080920226023217255020000009661627806131766452_);fill:#FFFFFF;" d="M69.2,36.9l0.3-0.2
		c0.4-0.4,0.6-1,0.6-1.6L70,34.8 M34.7,31.7l0.6,0.1c2.4,0.6,5.1,0.2,4.7-3.1l0-0.3 M56.9,32.4l0.2-0.7c0.2-1.3,0.3-2.4,0.2-3.7
		l-0.1-0.6 M55.9,33.6l-0.2-0.9c-0.3-1.2-1.1-3.9-0.6-5.1l0.1-0.3 M81.7,10.2l-0.4-0.4c-1.8-1.5-3.6-1.6-5.5-0.1L75.5,10 M70.2,15.9
		l0.8-0.5l0.7-0.6c1.1-0.7,2.1-1.9,3.5-2l0.3,0l0.6,0l0.6,0.1l0.7,0.1l0.6,0.1l0.8,0.2l1.1,0.3l1.3,0.3l1.4,0.4l1.4,0.4l1.3,0.3
		l1.1,0.2l0.8,0.1 M71.2,43.9l0.5-0.6c0.9-1.1,1.2-1.3,2.6-1.2l0.8,0 M81,40.7l0.2-0.2c0.3-0.4,0.6-0.9,0.6-1.5l0-0.3 M85.8,41.7
		L85.1,41l-0.8-0.7l-0.8-0.7l-0.8-0.7l-0.8-0.6L81,37.7l-0.9-0.6l-0.9-0.5l-0.8-0.3L77.5,36l-0.8-0.3c-2.1-0.7-4.3-0.9-6.5-1.1
		l-0.9-0.1l-0.9-0.1l-0.6,0.3c-1.2,0.4-2.6,0.7-3.9,0.9l-0.6,0.1 M83,22.7l-0.5-0.3l-0.5-0.3l-0.5-0.3l-0.4-0.3l-0.5-0.1l-0.5-0.1
		l-0.5-0.1l-0.5,0l-0.9,0l-0.9,0l-0.9,0.1l-0.9,0.1l-0.9,0.1L74,21.9L72,22.3l-1.9,0.5l-1.9,0.5l-1.9,0.5l-1.9,0.5l-1.9,0.5
		l-1.9,0.5l-1.9,0.5 M103.2,11.1L103.2,11.1l-2.6-0.8l-2.7-0.8l-2.7-0.8L92.4,8l-2.7-0.7l-2.5-0.6l-1.2-0.3l-1.1-0.2l-1.1-0.2
		l-1-0.2l-0.4,0l-0.4,0l-0.5,0l-0.4,0l-0.4,0l-0.4,0l-0.4,0c-1.4,0-2.5,0.5-3.3,1.7l-0.2,0.3L76,8.3l-0.1,0.5l-0.2,0.5l-0.2,0.4
		l-0.2,0.4l-0.2,0.3l-0.3,0.3l-0.3,0.3l-0.6,0.6l-0.6,0.6l-0.6,0.6l-0.6,0.6l-0.6,0.6l-0.6,0.6L70.2,15l-0.6,0.6L69,16.1l-0.5,0.5
		L68,17l-0.5,0.5L67,17.9l-0.5,0.5L66.1,19l-0.5,0.5l-0.9,0.7L63.9,21L63,21.7L62,22.5l-0.9,0.8l-0.9,0.8L59.4,25l-0.8,0.8L57.9,26
		l-0.6,0.2l-0.7,0.2l-0.7,0.1c-1.8,0.4-3,0.2-4.8,0.4l-1.5,0.2l-1.5,0.2c-1.7,0.2-3.2,0.4-4.9,0.4l-0.9,0l-1,0l-1,0l-1,0
		c-0.9,0-2,0-2.9,0.2L36,27.9L35.7,28l-0.3,0.1l-0.3,0.1l-0.3,0.1l-0.3,0.2l-0.3,0.2L34,28.9l-0.1,0.2l-0.1,0.3l0,0.3l0,0.3l0,0.3
		l0.1,0.4c0.1,0.6,0.4,1.3,0.7,1.8l0.2,0.4l0.3,0.3c0.8,1,2.9,1.1,4,1.5l1.2,0.2L41,35l0.7,0.1l0.7,0.1c1.3,0.1,2.5,0.2,3.8,0.1
		l2.1,0.2l2.1,0.2c2.8,0.2,5.8,0.4,8.6,0.4l1.1,0l1.1,0l1.1-0.1l1.1-0.1l0.4,0.5l0.5,0.4l0.5,0.4l0.6,0.4l0.9,0.1
		c1.7,0.3,3.5,0.6,5.2,0.9l0.9,0.2l0.9-0.2c1.7-0.4,3.4-0.9,5-1.5l0.7-0.3l0.2,0.5c0.4,1.3,0.8,2.8,1.6,3.9l0.2,0.2l-0.7,0.2
		c-1.4,0.4-2.8,0.5-4.3,0.5l-0.8,0l-0.3-0.5l-0.3-0.5l-0.4-0.5l-0.4-0.4c-1.3-1.2-1.7-1.5-3.5-1.7l-0.7-0.1l-0.7-0.1l-0.7-0.1
		L67.5,38l-0.7-0.2L66,37.7l-0.4,0.1l-0.4,0.1L65.1,38L64.9,38l-0.2,0.1l-0.1,0.1l-0.1,0.1l-0.1,0.1l-0.1,0.1l-0.1,0.2l0,0.2l0,0.2
		l0,0.2l0,0.2l0.5,0.7l0.5,0.7l0.5,0.7l0.5,0.8l0.5,0.8l0.5,0.9l0.4,1l0.4,1.1l0.2,0.6l0.2,0.6l0.2,0.6l0.2,0.5l0.2,0.5l0.2,0.5
		l0.2,0.5l0.3,0.4l0.3,0.3l0.3,0.3l0.3,0.3l0.3,0.2l0.4,0.2l0.4,0.2l0.4,0.1l0.5,0l1,0.1l1,0.1l1,0.1l1.1,0.1l1.2,0.1l1.5,0.1
		l1.8,0.1l2.3,0.1l0.6,0.1l0.6,0.1l0.6,0l0.6,0l0.6-0.1l0.6-0.1l0.6-0.1l0.6-0.2l0.6-0.2l0.6-0.2l0.6-0.3l0.6-0.3l0.5-0.3l0.6-0.3
		l0.6-0.3l0.5-0.4l1.6-0.6l1.6-0.6l1.6-0.6l1.5-0.7l0.8-0.4l0.7-0.4l0.8-0.4l0.7-0.4l0.7-0.5l0.7-0.5l0.7-0.5l0.6-0.6l0.4-0.2
		l0.4-0.2l0.4-0.2l0.4-0.2l0.9-0.4l0.9-0.4"/>
	
		<path style="clip-path:url(#SVGID_00000080920226023217255020000009661627806131766452_);fill:none;stroke:#000000;stroke-width:0.102;stroke-linecap:round;stroke-linejoin:round;stroke-miterlimit:10;" d="
		M69.2,36.9l0.3-0.2c0.4-0.4,0.6-1,0.6-1.6L70,34.8 M34.7,31.7l0.6,0.1c2.4,0.6,5.1,0.2,4.7-3.1l0-0.3 M56.9,32.4l0.2-0.7
		c0.2-1.3,0.3-2.4,0.2-3.7l-0.1-0.6 M55.9,33.6l-0.2-0.9c-0.3-1.2-1.1-3.9-0.6-5.1l0.1-0.3 M81.7,10.2l-0.4-0.4
		c-1.8-1.5-3.6-1.6-5.5-0.1L75.5,10 M70.2,15.9l0.8-0.5l0.7-0.6c1.1-0.7,2.1-1.9,3.5-2l0.3,0l0.6,0l0.6,0.1l0.7,0.1l0.6,0.1l0.8,0.2
		l1.1,0.3l1.3,0.3l1.4,0.4l1.4,0.4l1.3,0.3l1.1,0.2l0.8,0.1 M71.2,43.9l0.5-0.6c0.9-1.1,1.2-1.3,2.6-1.2l0.8,0 M81,40.7l0.2-0.2
		c0.3-0.4,0.6-0.9,0.6-1.5l0-0.3 M85.8,41.7L85.1,41l-0.8-0.7l-0.8-0.7l-0.8-0.7l-0.8-0.6L81,37.7l-0.9-0.6l-0.9-0.5l-0.8-0.3
		L77.5,36l-0.8-0.3c-2.1-0.7-4.3-0.9-6.5-1.1l-0.9-0.1l-0.9-0.1l-0.6,0.3c-1.2,0.4-2.6,0.7-3.9,0.9l-0.6,0.1 M83,22.7l-0.5-0.3
		l-0.5-0.3l-0.5-0.3l-0.4-0.3l-0.5-0.1l-0.5-0.1l-0.5-0.1l-0.5,0l-0.9,0l-0.9,0l-0.9,0.1l-0.9,0.1l-0.9,0.1L74,21.9L72,22.3
		l-1.9,0.5l-1.9,0.5l-1.9,0.5l-1.9,0.5l-1.9,0.5l-1.9,0.5l-1.9,0.5 M103.2,11.1L103.2,11.1l-2.6-0.8l-2.7-0.8l-2.7-0.8L92.4,8
		l-2.7-0.7l-2.5-0.6l-1.2-0.3l-1.1-0.2l-1.1-0.2l-1-0.2l-0.4,0l-0.4,0l-0.5,0l-0.4,0l-0.4,0l-0.4,0l-0.4,0c-1.4,0-2.5,0.5-3.3,1.7
		l-0.2,0.3L76,8.3l-0.1,0.5l-0.2,0.5l-0.2,0.4l-0.2,0.4l-0.2,0.3l-0.3,0.3l-0.3,0.3l-0.6,0.6l-0.6,0.6l-0.6,0.6l-0.6,0.6l-0.6,0.6
		l-0.6,0.6L70.2,15l-0.6,0.6L69,16.1l-0.5,0.5L68,17l-0.5,0.5L67,17.9l-0.5,0.5L66.1,19l-0.5,0.5l-0.9,0.7L63.9,21L63,21.7L62,22.5
		l-0.9,0.8l-0.9,0.8L59.4,25l-0.8,0.8L57.9,26l-0.6,0.2l-0.7,0.2l-0.7,0.1c-1.8,0.4-3,0.2-4.8,0.4l-1.5,0.2l-1.5,0.2
		c-1.7,0.2-3.2,0.4-4.9,0.4l-0.9,0l-1,0l-1,0l-1,0c-0.9,0-2,0-2.9,0.2L36,27.9L35.7,28l-0.3,0.1l-0.3,0.1l-0.3,0.1l-0.3,0.2
		l-0.3,0.2L34,28.9l-0.1,0.2l-0.1,0.3l0,0.3l0,0.3l0,0.3l0.1,0.4c0.1,0.6,0.4,1.3,0.7,1.8l0.2,0.4l0.3,0.3c0.8,1,2.9,1.1,4,1.5
		l1.2,0.2L41,35l0.7,0.1l0.7,0.1c1.3,0.1,2.5,0.2,3.8,0.1l2.1,0.2l2.1,0.2c2.8,0.2,5.8,0.4,8.6,0.4l1.1,0l1.1,0l1.1-0.1l1.1-0.1
		l0.4,0.5l0.5,0.4l0.5,0.4l0.6,0.4l0.9,0.1c1.7,0.3,3.5,0.6,5.2,0.9l0.9,0.2l0.9-0.2c1.7-0.4,3.4-0.9,5-1.5l0.7-0.3l0.2,0.5
		c0.4,1.3,0.8,2.8,1.6,3.9l0.2,0.2l-0.7,0.2c-1.4,0.4-2.8,0.5-4.3,0.5l-0.8,0l-0.3-0.5l-0.3-0.5l-0.4-0.5l-0.4-0.4
		c-1.3-1.2-1.7-1.5-3.5-1.7l-0.7-0.1l-0.7-0.1l-0.7-0.1L67.5,38l-0.7-0.2L66,37.7l-0.4,0.1l-0.4,0.1L65.1,38L64.9,38l-0.2,0.1
		l-0.1,0.1l-0.1,0.1l-0.1,0.1l-0.1,0.1l-0.1,0.2l0,0.2l0,0.2l0,0.2l0,0.2l0.5,0.7l0.5,0.7l0.5,0.7l0.5,0.8l0.5,0.8l0.5,0.9l0.4,1
		l0.4,1.1l0.2,0.6l0.2,0.6l0.2,0.6l0.2,0.5l0.2,0.5l0.2,0.5l0.2,0.5l0.3,0.4l0.3,0.3l0.3,0.3l0.3,0.3l0.3,0.2l0.4,0.2l0.4,0.2
		l0.4,0.1l0.5,0l1,0.1l1,0.1l1,0.1l1.1,0.1l1.2,0.1l1.5,0.1l1.8,0.1l2.3,0.1l0.6,0.1l0.6,0.1l0.6,0l0.6,0l0.6-0.1l0.6-0.1l0.6-0.1
		l0.6-0.2l0.6-0.2l0.6-0.2l0.6-0.3l0.6-0.3l0.5-0.3l0.6-0.3l0.6-0.3l0.5-0.4l1.6-0.6l1.6-0.6l1.6-0.6l1.5-0.7l0.8-0.4l0.7-0.4
		l0.8-0.4l0.7-0.4l0.7-0.5l0.7-0.5l0.7-0.5l0.6-0.6l0.4-0.2l0.4-0.2l0.4-0.2l0.4-0.2l0.9-0.4l0.9-0.4"/>
</g>
</svg>
