<?xml version="1.0" encoding="utf-8"?>
<!-- Generator: Adobe Illustrator 23.0.3, SVG Export Plug-In . SVG Version: 6.00 Build 0)  -->
<svg version="1.1" id="Layer_1" xmlns="http://www.w3.org/2000/svg" xmlns:xlink="http://www.w3.org/1999/xlink" x="0px" y="0px"
	 viewBox="0 0 1417.3 1417.3" style="enable-background:new 0 0 1417.3 1417.3;" xml:space="preserve">
<style type="text/css">
	.st0{fill:none;stroke:#000000;stroke-width:8;stroke-linejoin:bevel;stroke-miterlimit:22.9256;}
</style>
<path class="st0" d="M681,710c0-127.1-103-230.2-230.1-230.2c-127.1,0-230.1,103.1-230.1,230.2c0,127.1,103,230.1,230.1,230.1
	C578,940,681,837.1,681,710z"/>
<line class="st0" x1="129.1" y1="1282.1" x2="129.6" y2="1282.1"/>
<line class="st0" x1="772.2" y1="1282.1" x2="772.7" y2="1282.1"/>
<line class="st0" x1="101.1" y1="1282.1" x2="101.1" y2="137.8"/>
<line class="st0" x1="129.1" y1="1282.1" x2="129.1" y2="137.8"/>
<line class="st0" x1="209.5" y1="49.6" x2="209.5" y2="50.1"/>
<line class="st0" x1="209.5" y1="1369.9" x2="209.5" y2="1370.3"/>
<line class="st0" x1="692.2" y1="1369.9" x2="692.3" y2="1370.3"/>
<line class="st0" x1="692.3" y1="49.6" x2="692.2" y2="50.1"/>
<line class="st0" x1="772.2" y1="137.8" x2="772.2" y2="1282.1"/>
<line class="st0" x1="800.7" y1="137.8" x2="800.7" y2="1282.1"/>
<line class="st0" x1="772.7" y1="137.8" x2="772.2" y2="137.8"/>
<line class="st0" x1="129.6" y1="137.8" x2="129.1" y2="137.8"/>
<path class="st0" d="M101.1,1282.1c0,60.2,45.9,110.5,105.8,116.1"/>
<path class="st0" d="M129.1,1282.1c0,45.7,34.8,84,80.4,88.2"/>
<path class="st0" d="M206.9,21.7C147,27.3,101.1,77.6,101.1,137.8"/>
<path class="st0" d="M209.5,49.6c-45.6,4.3-80.4,42.4-80.4,88.3"/>
<path class="st0" d="M450.9,631.8c-27.9,0-53.7,14.9-67.7,39.1c-14,24.2-14,54,0,78.1c14,24.2,39.7,39.1,67.7,39.1"/>
<path class="st0" d="M694.9,21.7c-162.3-15.1-325.7-15.1-488,0"/>
<path class="st0" d="M692.3,49.6c-160.6-14.9-322.2-14.9-482.8,0"/>
<path class="st0" d="M694.9,1398.2c59.9-5.6,105.8-55.9,105.8-116.1"/>
<path class="st0" d="M692.3,1370.3c45.6-4.2,80.4-42.4,80.4-88.2"/>
<path class="st0" d="M206.9,1398.2c162.3,15.1,325.7,15.1,488,0"/>
<path class="st0" d="M209.5,1370.3c160.6,15,322.2,15,482.8,0"/>
<path class="st0" d="M800.7,137.8c0-60.2-45.9-110.6-105.8-116.2"/>
<path class="st0" d="M772.7,137.8c0-45.8-34.8-84-80.4-88.3"/>
<path class="st0" d="M450.9,788c43.1,0,78.1-35,78.1-78.1c0-43.2-35-78.1-78.1-78.1"/>
<line class="st0" x1="1027.8" y1="1318.8" x2="1028.2" y2="1318.8"/>
<line class="st0" x1="1272.6" y1="1318.8" x2="1273" y2="1318.8"/>
<line class="st0" x1="1000" y1="1318.8" x2="1000" y2="81.4"/>
<line class="st0" x1="1027.8" y1="1318.8" x2="1027.8" y2="81.4"/>
<line class="st0" x1="1028.2" y1="81.4" x2="1028.2" y2="1318.8"/>
<line class="st0" x1="1065" y1="40.5" x2="1064.9" y2="40"/>
<line class="st0" x1="1239.1" y1="1359.2" x2="1239.2" y2="1359.6"/>
<line class="st0" x1="1235.8" y1="40.5" x2="1235.8" y2="40"/>
<line class="st0" x1="1061.7" y1="1359.2" x2="1061.6" y2="1359.6"/>
<line class="st0" x1="1272.6" y1="1318.8" x2="1272.6" y2="81.4"/>
<line class="st0" x1="1273" y1="81.4" x2="1273" y2="1318.8"/>
<line class="st0" x1="1300.8" y1="81.4" x2="1300.8" y2="1318.8"/>
<line class="st0" x1="1273" y1="81.4" x2="1272.6" y2="81.4"/>
<line class="st0" x1="1028.2" y1="81.4" x2="1027.8" y2="81.4"/>
<path class="st0" d="M1238.8,12.4c-58.8-6.4-118.1-6.4-176.9,0"/>
<path class="st0" d="M1235.8,40c-56.8-6.1-114.1-6.1-170.9,0"/>
<path class="st0" d="M1056.4,1386.9c62.1,11.9,125.9,11.9,188.1,0"/>
<path class="st0" d="M1061.6,1359.6c58.7,11.3,119,11.3,177.6,0"/>
<path class="st0" d="M1061.7,1359.2c58.6,11.3,118.8,11.3,177.4,0"/>
<path class="st0" d="M1244.4,1386.9c32.7-6.3,56.4-34.9,56.4-68.2"/>
<path class="st0" d="M1000,1318.8c0,33.3,23.7,61.9,56.4,68.2"/>
<path class="st0" d="M1062,12.4c-35.2,3.8-62,33.5-62,69"/>
<path class="st0" d="M1300.8,81.4c0-35.4-26.7-65.2-61.9-69"/>
<path class="st0" d="M1064.9,40c-21.1,2.3-37.2,20.2-37.2,41.4"/>
<path class="st0" d="M1027.8,1318.8c0,20,14.2,37.1,33.8,40.9"/>
<path class="st0" d="M1239.2,1359.6c19.6-3.8,33.8-20.9,33.8-40.9"/>
<path class="st0" d="M1273,81.4c0-21.2-16-39.1-37.2-41.4"/>
<path class="st0" d="M1239.1,1359.2c19.4-3.7,33.4-20.6,33.4-40.4"/>
<path class="st0" d="M1028.2,1318.8c0,19.8,14,36.7,33.4,40.4"/>
<path class="st0" d="M1065,40.5c-20.9,2.2-36.8,19.9-36.8,40.9"/>
<path class="st0" d="M1272.6,81.4c0-21-15.8-38.7-36.8-40.9"/>
</svg>
