<?xml version="1.0" encoding="utf-8"?>
<!-- Generator: Adobe Illustrator 27.1.1, SVG Export Plug-In . SVG Version: 6.00 Build 0)  -->
<svg version="1.1" id="Layer_1" xmlns="http://www.w3.org/2000/svg" xmlns:xlink="http://www.w3.org/1999/xlink" x="0px" y="0px"
	 viewBox="0 0 148.1 148.1" style="enable-background:new 0 0 148.1 148.1;" xml:space="preserve">
<style type="text/css">
	.st0{fill:none;stroke:#5C5C5C;stroke-width:4;stroke-linejoin:bevel;stroke-miterlimit:10;}
	
		.st1{fill-rule:evenodd;clip-rule:evenodd;fill:#010101;stroke:#5C5C5C;stroke-width:4;stroke-linejoin:bevel;stroke-miterlimit:10;}
</style>
<g id="_2023380119584">
	<g>
		<path class="st0" d="M74.1,144.7L74.1,144.7 M74.1,146.1v-1.4"/>
		<path class="st0" d="M74.1,141.5L74.1,141.5 M74.1,141.5L74.1,141.5"/>
		<line class="st0" x1="74.1" y1="6.6" x2="74.1" y2="6.6"/>
		<line class="st0" x1="74.1" y1="2" x2="74.1" y2="3.4"/>
		<line class="st0" x1="146.1" y1="74.1" x2="144.7" y2="74.1"/>
		<line class="st0" x1="6.6" y1="74.1" x2="6.6" y2="74.1"/>
		<line class="st0" x1="141.5" y1="74.1" x2="141.6" y2="74.1"/>
		<line class="st0" x1="2" y1="74.1" x2="3.4" y2="74.1"/>
		<path class="st0" d="M141.3,74.1c0,5-0.1,10.2-0.3,15.3c-0.1,2.6-0.2,5.2-0.4,7.7c-0.1,2.6-0.3,5.2-0.6,7.7c-0.2,2.5-0.5,5-1,7.4
			c-0.4,2.4-1,4.6-1.8,6.8c-0.8,2.2-1.7,4.2-2.9,6.1c-0.6,1-1.2,1.9-1.9,2.8c-0.7,0.9-1.4,1.7-2.2,2.5c-0.8,0.8-1.6,1.5-2.5,2.2
			c-0.9,0.7-1.8,1.3-2.8,1.9c-1,0.6-2,1.1-3,1.6c-1,0.5-2.1,0.9-3.1,1.3c-2.1,0.8-4.4,1.3-6.7,1.8c-2.4,0.4-4.8,0.7-7.4,1
			c-2.5,0.2-5.1,0.4-7.8,0.6c-2.6,0.1-5.2,0.3-7.8,0.4c-5.2,0.2-10.3,0.3-15.2,0.3"/>
		<path class="st0" d="M74.1,141.3c-4.9,0-10-0.1-15.2-0.3c-2.6-0.1-5.2-0.2-7.8-0.4c-2.6-0.1-5.2-0.3-7.8-0.6c-2.5-0.2-5-0.5-7.4-1
			c-2.4-0.4-4.6-1-6.7-1.8c-1.1-0.4-2.1-0.8-3.1-1.3c-1-0.5-2-1-3-1.6c-1-0.6-1.9-1.2-2.8-1.9c-0.9-0.7-1.7-1.4-2.5-2.2
			c-0.8-0.8-1.5-1.6-2.2-2.5c-0.7-0.9-1.3-1.8-1.9-2.8c-1.2-1.9-2.2-4-2.9-6.1c-0.8-2.2-1.3-4.4-1.8-6.8c-0.4-2.4-0.7-4.8-1-7.4
			c-0.2-2.5-0.4-5.1-0.6-7.7c-0.1-2.6-0.3-5.2-0.4-7.7c-0.2-5.2-0.3-10.3-0.3-15.3"/>
		<path class="st0" d="M6.8,74.1c0-5,0.1-10.2,0.3-15.3c0.1-2.6,0.2-5.2,0.4-7.7c0.1-2.6,0.3-5.2,0.6-7.7c0.2-2.5,0.5-5,1-7.4
			c0.4-2.4,1-4.6,1.8-6.8c0.8-2.2,1.7-4.2,2.9-6.1c0.6-1,1.2-1.9,1.9-2.8c0.7-0.9,1.4-1.7,2.2-2.5c0.8-0.8,1.6-1.5,2.5-2.2
			c0.9-0.7,1.8-1.3,2.8-1.9c1-0.6,2-1.1,3-1.6c1-0.5,2.1-0.9,3.1-1.3c2.1-0.8,4.4-1.3,6.7-1.8c2.4-0.4,4.8-0.7,7.4-1
			c2.5-0.2,5.1-0.4,7.8-0.6c2.6-0.1,5.2-0.3,7.8-0.4c5.2-0.2,10.3-0.3,15.2-0.3"/>
		<path class="st0" d="M74.1,6.8c4.9,0,10,0.1,15.2,0.3c2.6,0.1,5.2,0.2,7.8,0.4c2.6,0.1,5.2,0.3,7.8,0.6c2.5,0.2,5,0.5,7.4,1
			c2.4,0.4,4.6,1,6.7,1.8c1.1,0.4,2.1,0.8,3.1,1.3c1,0.5,2,1,3,1.6c1,0.6,1.9,1.2,2.8,1.9c0.9,0.7,1.7,1.4,2.5,2.2
			c0.8,0.8,1.5,1.6,2.2,2.5c0.7,0.9,1.3,1.8,1.9,2.8c1.2,1.9,2.2,4,2.9,6.1c0.8,2.2,1.3,4.4,1.8,6.8c0.4,2.4,0.7,4.8,1,7.4
			c0.2,2.5,0.4,5.1,0.6,7.7c0.1,2.6,0.3,5.2,0.4,7.7c0.2,5.1,0.3,10.3,0.3,15.3"/>
		<path class="st0" d="M74.1,2c-2.6,0-5.2,0-7.8,0.1c-2.6,0-5.2,0.1-7.8,0.2c-2.6,0.1-5.2,0.2-7.8,0.4C48,2.8,45.4,3,42.8,3.2
			c-1.3,0.1-2.6,0.3-3.9,0.4c-1.3,0.2-2.6,0.4-3.9,0.6c-1.3,0.2-2.6,0.5-3.8,0.8c-1.3,0.3-2.5,0.7-3.7,1.1c-2.4,0.9-4.8,2-7,3.4
			c-2.2,1.4-4.3,3-6.1,4.8s-3.5,3.9-4.8,6.1c-1.4,2.2-2.5,4.6-3.4,7c-0.4,1.2-0.8,2.5-1.1,3.7c-0.3,1.3-0.6,2.5-0.8,3.8
			S3.8,37.7,3.6,39c-0.2,1.3-0.3,2.6-0.4,3.9C3,45.4,2.8,48,2.7,50.6c-0.1,2.6-0.3,5.2-0.4,7.8c-0.1,2.6-0.2,5.2-0.2,7.8
			c0,2.6-0.1,5.2-0.1,7.8"/>
		<path class="st0" d="M146.1,74.1c0-2.6,0-5.2-0.1-7.8c0-2.6-0.1-5.2-0.2-7.8c-0.1-2.6-0.2-5.2-0.4-7.8c-0.1-2.6-0.3-5.2-0.6-7.8
			c-0.1-1.3-0.3-2.6-0.4-3.9c-0.2-1.3-0.4-2.6-0.6-3.9c-0.2-1.3-0.5-2.6-0.8-3.8c-0.3-1.3-0.7-2.5-1.1-3.7c-0.9-2.5-2-4.8-3.4-7
			c-1.4-2.2-3-4.3-4.8-6.1s-3.9-3.5-6.1-4.8c-2.2-1.4-4.6-2.5-7-3.4c-1.2-0.4-2.5-0.8-3.7-1.1c-1.3-0.3-2.5-0.6-3.8-0.8
			c-1.3-0.2-2.6-0.4-3.9-0.6c-1.3-0.2-2.6-0.3-3.9-0.4c-2.6-0.2-5.2-0.4-7.8-0.6c-2.6-0.1-5.2-0.3-7.8-0.4c-2.6-0.1-5.2-0.2-7.8-0.2
			c-2.6,0-5.2-0.1-7.8-0.1"/>
		<path class="st0" d="M74.1,146.1c2.6,0,5.2,0,7.8-0.1c2.6,0,5.2-0.1,7.8-0.2c2.6-0.1,5.2-0.2,7.8-0.4c2.6-0.1,5.2-0.3,7.8-0.6
			c1.3-0.1,2.6-0.3,3.9-0.4c1.3-0.2,2.6-0.4,3.9-0.6c1.3-0.2,2.6-0.5,3.8-0.8c1.3-0.3,2.5-0.7,3.7-1.1c2.4-0.9,4.8-2,7-3.4
			c2.2-1.4,4.3-3,6.1-4.8c1.8-1.8,3.5-3.9,4.8-6.1c1.4-2.2,2.5-4.6,3.4-7c0.4-1.2,0.8-2.5,1.1-3.7c0.3-1.3,0.6-2.5,0.8-3.8
			c0.2-1.3,0.4-2.6,0.6-3.9c0.2-1.3,0.3-2.6,0.4-3.9c0.2-2.6,0.4-5.2,0.6-7.8c0.1-2.6,0.3-5.2,0.4-7.8c0.1-2.6,0.2-5.2,0.2-7.8
			c0-2.6,0.1-5.2,0.1-7.8"/>
		<path class="st0" d="M2,74.1c0,2.6,0,5.2,0.1,7.8c0,2.6,0.1,5.2,0.2,7.8c0.1,2.6,0.2,5.2,0.4,7.8c0.1,2.6,0.3,5.2,0.6,7.8
			c0.1,1.3,0.3,2.6,0.4,3.9c0.2,1.3,0.4,2.6,0.6,3.9c0.2,1.3,0.5,2.6,0.8,3.8c0.3,1.3,0.7,2.5,1.1,3.7c0.9,2.5,2,4.8,3.4,7
			c1.4,2.2,3,4.3,4.8,6.1c1.8,1.8,3.9,3.5,6.1,4.8c2.2,1.4,4.6,2.5,7,3.4c1.2,0.4,2.5,0.8,3.7,1.1c1.3,0.3,2.5,0.6,3.8,0.8
			c1.3,0.2,2.6,0.4,3.9,0.6c1.3,0.2,2.6,0.3,3.9,0.4c2.6,0.2,5.2,0.4,7.8,0.6c2.6,0.1,5.2,0.3,7.8,0.4c2.6,0.1,5.2,0.2,7.8,0.2
			c2.6,0,5.2,0.1,7.8,0.1"/>
		<path class="st0" d="M144.7,74.1c0,2.6,0,5.1-0.1,7.7c0,2.6-0.1,5.1-0.2,7.7c0,1.3-0.1,2.6-0.2,3.8s-0.1,2.6-0.2,3.8
			c-0.1,1.3-0.2,2.6-0.2,3.8c-0.1,1.3-0.2,2.6-0.3,3.8c-0.1,1.3-0.2,2.5-0.4,3.8c-0.2,1.3-0.3,2.5-0.6,3.8c-0.2,1.3-0.5,2.5-0.8,3.8
			c-0.3,1.2-0.7,2.5-1.1,3.7c-0.4,1.2-0.9,2.4-1.4,3.6c-0.5,1.2-1.1,2.3-1.8,3.4c-0.7,1.1-1.4,2.1-2.2,3.2c-0.4,0.5-0.8,1-1.2,1.5
			c-0.4,0.5-0.9,0.9-1.3,1.4c-0.9,0.9-1.9,1.8-2.9,2.5c-1,0.8-2.1,1.5-3.2,2.2c-0.5,0.3-1.1,0.7-1.7,1c-0.6,0.3-1.1,0.6-1.7,0.9
			c-0.6,0.3-1.2,0.5-1.8,0.8c-0.6,0.2-1.2,0.5-1.8,0.7c-1.2,0.4-2.4,0.8-3.7,1.1c-1.2,0.3-2.5,0.6-3.8,0.8c-1.3,0.2-2.5,0.4-3.8,0.6
			c-1.3,0.2-2.5,0.3-3.8,0.4c-1.3,0.1-2.5,0.2-3.8,0.3c-1.3,0.1-2.6,0.2-3.8,0.2c-1.3,0.1-2.6,0.1-3.8,0.2c-1.3,0.1-2.6,0.1-3.8,0.2
			c-2.6,0.1-5.1,0.2-7.7,0.2c-2.6,0-5.1,0.1-7.7,0.1"/>
		<path class="st0" d="M74.1,141.6c2.5,0,4.9,0,7.4-0.1c2.5,0,4.9-0.1,7.4-0.2c1.2,0,2.5-0.1,3.7-0.1c1.2-0.1,2.5-0.1,3.7-0.2
			c2.5-0.1,4.9-0.3,7.3-0.5c2.4-0.2,4.9-0.5,7.3-0.8c1.2-0.2,2.4-0.4,3.6-0.7c1.2-0.3,2.4-0.6,3.6-1c1.2-0.4,2.3-0.8,3.4-1.3
			c1.1-0.5,2.2-1.1,3.3-1.7c1.1-0.6,2.1-1.3,3.1-2.1c1-0.8,1.9-1.6,2.8-2.4c0.9-0.9,1.7-1.8,2.4-2.8c0.7-1,1.4-2,2.1-3.1
			c0.6-1.1,1.2-2.2,1.7-3.3c0.5-1.1,0.9-2.3,1.3-3.4c0.4-1.2,0.7-2.4,1-3.6c0.3-1.2,0.5-2.4,0.7-3.6c0.2-1.2,0.3-2.4,0.5-3.7
			c0.1-1.2,0.3-2.4,0.4-3.7c0.1-1.2,0.2-2.4,0.3-3.7c0.1-1.2,0.2-2.5,0.2-3.7c0.1-1.2,0.1-2.5,0.2-3.7c0.1-1.2,0.1-2.5,0.1-3.7
			c0-1.2,0.1-2.5,0.1-3.7c0-1.2,0.1-2.5,0.1-3.7c0-2.5,0.1-4.9,0.1-7.4"/>
		<path class="st0" d="M141.6,74.1c0-2.5,0-4.9-0.1-7.4c0-2.5-0.1-4.9-0.2-7.4c0-1.2-0.1-2.5-0.1-3.7c-0.1-1.2-0.1-2.5-0.2-3.7
			c-0.1-1.2-0.1-2.5-0.2-3.7c-0.1-1.2-0.2-2.4-0.3-3.7c-0.1-1.2-0.2-2.4-0.4-3.7c-0.1-1.2-0.3-2.4-0.5-3.7c-0.2-1.2-0.4-2.4-0.7-3.6
			c-0.3-1.2-0.6-2.4-1-3.6c-0.2-0.6-0.4-1.2-0.6-1.7c-0.2-0.6-0.5-1.1-0.7-1.7c-0.5-1.1-1.1-2.2-1.7-3.3c-0.6-1.1-1.3-2.1-2.1-3.1
			c-0.8-1-1.6-1.9-2.4-2.8c-0.9-0.9-1.8-1.7-2.8-2.4c-1-0.8-2-1.4-3.1-2.1c-1.1-0.6-2.2-1.2-3.3-1.7c-1.1-0.5-2.3-0.9-3.4-1.3
			c-1.2-0.4-2.4-0.7-3.6-1c-1.2-0.3-2.4-0.5-3.6-0.7c-1.2-0.2-2.4-0.3-3.7-0.5c-1.2-0.1-2.4-0.3-3.7-0.4c-1.2-0.1-2.4-0.2-3.7-0.3
			c-1.2-0.1-2.5-0.2-3.7-0.2S93.7,7,92.5,6.9c-1.2-0.1-2.5-0.1-3.7-0.1c-2.5-0.1-4.9-0.1-7.4-0.2c-2.5,0-4.9-0.1-7.4-0.1"/>
		<path class="st0" d="M74.1,6.6c-2.5,0-4.9,0-7.4,0.1c-2.5,0-4.9,0.1-7.4,0.2c-1.2,0-2.5,0.1-3.7,0.1C54.4,7,53.2,7.1,52,7.1
			c-2.5,0.1-4.9,0.3-7.3,0.5c-2.4,0.2-4.9,0.5-7.3,0.8c-1.2,0.2-2.4,0.4-3.6,0.7c-1.2,0.3-2.4,0.6-3.6,1c-1.2,0.4-2.3,0.8-3.4,1.3
			c-1.1,0.5-2.2,1.1-3.3,1.7c-1.1,0.6-2.1,1.3-3.1,2.1c-1,0.7-1.9,1.6-2.8,2.4c-0.9,0.9-1.7,1.8-2.4,2.8c-0.8,1-1.4,2-2.1,3.1
			c-0.6,1.1-1.2,2.2-1.7,3.3c-0.5,1.1-0.9,2.3-1.3,3.4c-0.4,1.2-0.7,2.4-1,3.6c-0.3,1.2-0.5,2.4-0.7,3.6C8.3,38.5,8.1,39.7,8,41
			c-0.1,1.2-0.3,2.4-0.4,3.7c-0.1,1.2-0.2,2.4-0.3,3.7c-0.1,1.2-0.2,2.5-0.2,3.7C7,53.2,7,54.4,6.9,55.6c-0.1,1.2-0.1,2.5-0.1,3.7
			c0,1.2-0.1,2.5-0.1,3.7c0,1.2-0.1,2.5-0.1,3.7c0,2.5-0.1,4.9-0.1,7.4"/>
		<path class="st0" d="M6.6,74.1c0,2.5,0,4.9,0.1,7.4c0,2.5,0.1,4.9,0.2,7.4c0,1.2,0.1,2.5,0.1,3.7C7,93.7,7,94.9,7.1,96.1
			c0.1,1.2,0.1,2.5,0.2,3.7c0.1,1.2,0.2,2.4,0.3,3.7c0.1,1.2,0.2,2.4,0.4,3.7c0.1,1.2,0.3,2.4,0.5,3.7c0.2,1.2,0.4,2.4,0.7,3.6
			c0.3,1.2,0.6,2.4,1,3.6c0.2,0.6,0.4,1.2,0.6,1.7c0.2,0.6,0.5,1.1,0.7,1.7c0.5,1.1,1.1,2.2,1.7,3.3c0.6,1.1,1.3,2.1,2.1,3.1
			c0.8,1,1.6,1.9,2.4,2.8c0.9,0.9,1.8,1.7,2.8,2.4c1,0.7,2,1.4,3.1,2.1c1.1,0.6,2.2,1.2,3.3,1.7c1.1,0.5,2.3,0.9,3.4,1.3
			c1.2,0.4,2.4,0.7,3.6,1c1.2,0.3,2.4,0.5,3.6,0.7c1.2,0.2,2.4,0.3,3.7,0.5c1.2,0.1,2.4,0.3,3.7,0.4c1.2,0.1,2.4,0.2,3.7,0.3
			c1.2,0.1,2.5,0.2,3.7,0.2c1.2,0.1,2.5,0.1,3.7,0.2c1.2,0.1,2.5,0.1,3.7,0.1c2.5,0.1,4.9,0.1,7.4,0.2c2.5,0,4.9,0.1,7.4,0.1"/>
		<path class="st0" d="M3.4,74.1c0,2.6,0,5.1,0.1,7.7c0,2.6,0.1,5.1,0.2,7.7C3.8,92,3.9,94.5,4,97.1c0.1,1.3,0.1,2.6,0.2,3.8
			c0.1,1.3,0.2,2.6,0.3,3.8c0.2,2.5,0.5,5.1,1,7.6c0.2,1.3,0.5,2.5,0.8,3.8c0.3,1.2,0.7,2.5,1.1,3.7c0.4,1.2,0.9,2.4,1.4,3.6
			c0.5,1.2,1.1,2.3,1.8,3.4c0.7,1.1,1.4,2.1,2.2,3.2c0.8,1,1.6,2,2.5,2.9c0.9,0.9,1.9,1.8,2.9,2.5c0.5,0.4,1,0.8,1.5,1.1
			c0.5,0.4,1.1,0.7,1.6,1c0.5,0.3,1.1,0.6,1.7,1c0.6,0.3,1.1,0.6,1.7,0.9c1.2,0.5,2.3,1,3.6,1.5c1.2,0.4,2.4,0.8,3.7,1.1
			c1.2,0.3,2.5,0.6,3.8,0.8c1.3,0.2,2.5,0.4,3.8,0.6c1.3,0.2,2.5,0.3,3.8,0.4c1.3,0.1,2.5,0.2,3.8,0.3c1.3,0.1,2.6,0.2,3.8,0.2
			c1.3,0.1,2.6,0.1,3.8,0.2c1.3,0.1,2.6,0.1,3.8,0.2c2.6,0.1,5.1,0.2,7.7,0.2c2.6,0,5.1,0.1,7.7,0.1"/>
		<path class="st0" d="M74.1,145.3c-2.6,0-5.2,0-7.7-0.1c-2.6,0-5.2-0.1-7.7-0.2c-2.6-0.1-5.2-0.2-7.7-0.4c-1.3-0.1-2.6-0.2-3.9-0.2
			c-1.3-0.1-2.6-0.2-3.9-0.3c-1.3-0.1-2.6-0.2-3.8-0.4c-1.3-0.2-2.6-0.3-3.8-0.6c-1.3-0.2-2.5-0.5-3.8-0.8c-1.3-0.3-2.5-0.7-3.7-1.1
			c-1.2-0.4-2.4-0.9-3.6-1.5c-1.2-0.6-2.3-1.2-3.4-1.8c-1.1-0.7-2.2-1.4-3.2-2.2c-1-0.8-2-1.7-2.9-2.6c-0.9-0.9-1.8-1.9-2.6-2.9
			c-0.8-1-1.5-2.1-2.2-3.2c-0.7-1.1-1.3-2.2-1.8-3.4c-0.6-1.2-1-2.4-1.5-3.6c-0.4-1.2-0.8-2.5-1.1-3.7c-0.3-1.3-0.6-2.5-0.8-3.8
			c-0.2-1.3-0.4-2.5-0.6-3.8c-0.2-1.3-0.3-2.6-0.4-3.8c-0.1-1.3-0.2-2.6-0.3-3.9c-0.1-1.3-0.2-2.6-0.2-3.9c-0.1-2.6-0.3-5.2-0.4-7.7
			c-0.1-2.6-0.2-5.2-0.2-7.7c0-2.6-0.1-5.2-0.1-7.7"/>
		<path class="st0" d="M145.3,74.1c0,2.6,0,5.2-0.1,7.7c0,2.6-0.1,5.2-0.2,7.7c-0.1,2.6-0.2,5.2-0.4,7.7c-0.1,1.3-0.2,2.6-0.2,3.9
			c-0.1,1.3-0.2,2.6-0.3,3.9c-0.1,1.3-0.2,2.6-0.4,3.8c-0.2,1.3-0.3,2.6-0.6,3.8c-0.2,1.3-0.5,2.5-0.8,3.8c-0.3,1.3-0.7,2.5-1.1,3.7
			c-0.4,1.2-0.9,2.4-1.5,3.6c-0.6,1.2-1.2,2.3-1.8,3.4c-0.7,1.1-1.4,2.2-2.2,3.2c-0.8,1-1.7,2-2.6,2.9c-0.9,0.9-1.9,1.8-2.9,2.6
			c-1,0.8-2.1,1.5-3.2,2.2c-1.1,0.7-2.2,1.3-3.4,1.8c-1.2,0.6-2.4,1-3.6,1.5c-1.2,0.4-2.5,0.8-3.7,1.1c-1.3,0.3-2.5,0.6-3.8,0.8
			c-1.3,0.2-2.5,0.4-3.8,0.6c-1.3,0.2-2.6,0.3-3.8,0.4c-1.3,0.1-2.6,0.2-3.9,0.3c-1.3,0.1-2.6,0.2-3.9,0.2c-2.6,0.1-5.2,0.3-7.7,0.4
			c-2.6,0.1-5.2,0.2-7.7,0.2c-2.6,0-5.2,0.1-7.7,0.1"/>
		<path class="st0" d="M144.7,74.1c0-2.6,0-5.1-0.1-7.7c0-2.6-0.1-5.1-0.2-7.7c-0.1-2.6-0.2-5.1-0.4-7.7c-0.1-1.3-0.1-2.6-0.2-3.8
			c-0.1-1.3-0.2-2.6-0.3-3.8c-0.2-2.5-0.5-5.1-1-7.6c-0.2-1.3-0.5-2.5-0.8-3.8c-0.3-1.2-0.7-2.5-1.1-3.7c-0.4-1.2-0.9-2.4-1.4-3.6
			c-0.5-1.2-1.1-2.3-1.8-3.4c-0.7-1.1-1.4-2.1-2.2-3.2c-0.8-1-1.6-2-2.5-2.9c-0.9-0.9-1.9-1.8-2.9-2.5c-0.5-0.4-1-0.8-1.5-1.1
			c-0.5-0.4-1.1-0.7-1.6-1c-0.5-0.3-1.1-0.6-1.7-1c-0.6-0.3-1.1-0.6-1.7-0.9c-1.2-0.5-2.3-1-3.6-1.5c-1.2-0.4-2.4-0.8-3.7-1.1
			c-1.2-0.3-2.5-0.6-3.8-0.8c-1.3-0.2-2.5-0.4-3.8-0.6c-1.3-0.2-2.5-0.3-3.8-0.4c-1.3-0.1-2.5-0.2-3.8-0.3c-1.3-0.1-2.6-0.2-3.8-0.2
			c-1.3-0.1-2.6-0.1-3.8-0.2c-1.3-0.1-2.6-0.1-3.8-0.2c-2.6-0.1-5.1-0.2-7.7-0.2c-2.6,0-5.1-0.1-7.7-0.1"/>
		<path class="st0" d="M74.1,6.6c2.5,0,5,0,7.5,0.1c2.6,0,5.1,0.1,7.7,0.2c2.6,0.1,5.2,0.2,7.8,0.4c2.6,0.1,5.2,0.3,7.8,0.6
			c1.3,0.1,2.5,0.2,3.8,0.4c1.2,0.2,2.4,0.3,3.6,0.6c1.2,0.2,2.3,0.5,3.5,0.8c1.1,0.3,2.2,0.6,3.3,1c2.1,0.8,4.2,1.7,6.2,2.9
			c1.9,1.2,3.7,2.6,5.3,4.2c1.6,1.6,3,3.4,4.2,5.3c0.6,1,1.1,2,1.6,3c0.5,1,0.9,2.1,1.3,3.2c0.4,1.1,0.7,2.2,1,3.3
			c0.3,1.1,0.5,2.3,0.8,3.5c0.2,1.2,0.4,2.4,0.6,3.6c0.2,1.2,0.3,2.5,0.4,3.8c0.2,2.6,0.4,5.1,0.6,7.7c0.1,2.6,0.3,5.2,0.4,7.7
			c0.1,2.6,0.2,5.1,0.2,7.7c0,2.5,0.1,5.1,0.1,7.6"/>
		<path class="st0" d="M6.6,74.1c0-2.5,0-5.1,0.1-7.6c0-2.6,0.1-5.1,0.2-7.7C7,56.2,7.1,53.6,7.2,51c0.1-2.6,0.3-5.1,0.6-7.7
			C7.9,42,8,40.8,8.2,39.5c0.2-1.2,0.3-2.4,0.6-3.6c0.2-1.2,0.5-2.3,0.8-3.5c0.3-1.1,0.6-2.2,1-3.3c0.4-1.1,0.8-2.1,1.3-3.2
			c0.5-1,1-2,1.6-3c1.2-1.9,2.6-3.7,4.2-5.3c1.6-1.6,3.4-3,5.3-4.2c1.9-1.2,4-2.2,6.2-2.9c1.1-0.4,2.2-0.7,3.3-1
			c1.1-0.3,2.3-0.5,3.5-0.8c1.2-0.2,2.4-0.4,3.6-0.6C40.8,8,42,7.9,43.3,7.8c2.6-0.2,5.2-0.4,7.8-0.6c2.6-0.1,5.2-0.3,7.8-0.4
			c2.6-0.1,5.1-0.2,7.7-0.2c2.5,0,5-0.1,7.5-0.1"/>
		<path class="st0" d="M74.1,141.5c-2.5,0-5,0-7.5-0.1c-2.6,0-5.1-0.1-7.7-0.2c-2.6-0.1-5.2-0.2-7.8-0.4c-2.6-0.1-5.2-0.3-7.8-0.6
			c-1.3-0.1-2.5-0.2-3.8-0.4c-1.2-0.2-2.4-0.3-3.6-0.6c-1.2-0.2-2.3-0.5-3.5-0.8c-1.1-0.3-2.2-0.6-3.3-1c-2.1-0.8-4.2-1.7-6.2-2.9
			c-1.9-1.2-3.7-2.6-5.3-4.2c-1.6-1.6-3-3.4-4.2-5.3c-0.6-1-1.1-2-1.6-3c-0.5-1-0.9-2.1-1.3-3.2c-0.4-1.1-0.7-2.2-1-3.3
			c-0.3-1.1-0.5-2.3-0.8-3.5c-0.2-1.2-0.4-2.4-0.6-3.6c-0.2-1.2-0.3-2.5-0.4-3.8c-0.2-2.6-0.4-5.1-0.6-7.7C7.1,94.5,7,92,6.9,89.4
			c-0.1-2.6-0.2-5.1-0.2-7.7c0-2.5-0.1-5.1-0.1-7.6"/>
		<path class="st0" d="M141.5,74.1c0,2.5,0,5.1-0.1,7.6c0,2.6-0.1,5.1-0.2,7.7c-0.1,2.6-0.2,5.2-0.4,7.7c-0.1,2.6-0.3,5.1-0.6,7.7
			c-0.1,1.3-0.2,2.5-0.4,3.8c-0.2,1.2-0.3,2.4-0.6,3.6c-0.2,1.2-0.5,2.3-0.8,3.5c-0.3,1.1-0.6,2.2-1,3.3c-0.4,1.1-0.8,2.1-1.3,3.2
			c-0.5,1-1,2-1.6,3c-1.2,1.9-2.6,3.7-4.2,5.3c-1.6,1.6-3.4,3-5.3,4.2c-1.9,1.2-4,2.2-6.2,2.9c-1.1,0.4-2.2,0.7-3.3,1
			c-1.1,0.3-2.3,0.5-3.5,0.8c-1.2,0.2-2.4,0.4-3.6,0.6c-1.3,0.2-2.5,0.3-3.8,0.4c-2.6,0.2-5.2,0.4-7.8,0.6c-2.6,0.1-5.2,0.3-7.8,0.4
			c-2.6,0.1-5.1,0.2-7.7,0.2c-2.5,0-5,0.1-7.5,0.1"/>
		<path class="st0" d="M74.1,6.6c2.5,0,4.9,0,7.4,0.1c2.5,0,4.9,0.1,7.4,0.2c2.5,0.1,4.9,0.2,7.4,0.3c1.2,0.1,2.4,0.1,3.7,0.2
			c1.2,0.1,2.4,0.2,3.7,0.3c1.2,0.1,2.4,0.2,3.7,0.4c1.2,0.1,2.4,0.3,3.6,0.5c2.4,0.4,4.8,0.9,7.2,1.6c1.2,0.4,2.3,0.8,3.4,1.3
			c1.1,0.5,2.2,1.1,3.3,1.7c2.1,1.2,4.1,2.8,5.8,4.5c1.7,1.7,3.2,3.7,4.5,5.8c0.6,1.1,1.2,2.2,1.7,3.3c0.5,1.1,0.9,2.3,1.3,3.4
			c0.4,1.2,0.7,2.4,1,3.6c0.3,1.2,0.5,2.4,0.7,3.6c0.2,1.2,0.3,2.4,0.5,3.6c0.1,1.2,0.3,2.4,0.4,3.7c0.1,1.2,0.2,2.4,0.3,3.7
			c0.1,1.2,0.2,2.4,0.2,3.7c0.1,1.2,0.1,2.5,0.2,3.7c0.1,1.2,0.1,2.5,0.1,3.7c0.1,2.5,0.1,4.9,0.2,7.4c0,2.5,0.1,4.9,0.1,7.4"/>
		<path class="st0" d="M6.6,74.1c0-2.5,0-4.9,0.1-7.4c0-2.5,0.1-4.9,0.2-7.4C6.9,56.9,7,54.4,7.2,52c0.1-1.2,0.1-2.4,0.2-3.7
			c0.1-1.2,0.2-2.4,0.3-3.7C7.8,43.4,7.9,42.2,8,41c0.1-1.2,0.3-2.4,0.5-3.6c0.4-2.4,0.9-4.8,1.6-7.2c0.4-1.2,0.8-2.3,1.3-3.4
			c0.5-1.1,1.1-2.2,1.7-3.3s1.3-2.1,2.1-3.1c0.7-1,1.6-1.9,2.4-2.8c0.9-0.9,1.8-1.7,2.8-2.4c1-0.7,2-1.4,3.1-2.1
			c1.1-0.6,2.2-1.2,3.3-1.7c1.1-0.5,2.3-0.9,3.4-1.3c1.2-0.4,2.4-0.7,3.6-1c1.2-0.3,2.4-0.5,3.6-0.7C38.5,8.3,39.8,8.1,41,8
			c1.2-0.1,2.4-0.2,3.7-0.4c1.2-0.1,2.4-0.2,3.7-0.3c1.2-0.1,2.4-0.2,3.7-0.2C53.2,7.1,54.4,7,55.7,7c1.2-0.1,2.5-0.1,3.7-0.1
			c2.5-0.1,4.9-0.1,7.4-0.2c2.5,0,4.9-0.1,7.4-0.1"/>
		<path class="st0" d="M74.1,141.5c-2.5,0-4.9,0-7.4-0.1c-2.5,0-4.9-0.1-7.4-0.2c-2.5-0.1-4.9-0.2-7.4-0.3c-1.2-0.1-2.4-0.1-3.7-0.2
			c-1.2-0.1-2.4-0.2-3.7-0.3c-1.2-0.1-2.4-0.2-3.7-0.4c-1.2-0.1-2.4-0.3-3.6-0.5c-2.4-0.4-4.8-0.9-7.2-1.6c-1.2-0.4-2.3-0.8-3.4-1.3
			c-1.1-0.5-2.2-1.1-3.3-1.7c-2.1-1.2-4.1-2.8-5.8-4.5c-1.7-1.7-3.2-3.7-4.5-5.8c-0.6-1.1-1.2-2.2-1.7-3.3c-0.5-1.1-0.9-2.3-1.3-3.4
			c-0.4-1.2-0.7-2.4-1-3.6c-0.3-1.2-0.5-2.4-0.7-3.6c-0.2-1.2-0.3-2.4-0.5-3.6c-0.1-1.2-0.3-2.4-0.4-3.7c-0.1-1.2-0.2-2.4-0.3-3.7
			c-0.1-1.2-0.2-2.4-0.2-3.7C7.1,94.9,7,93.7,7,92.5c-0.1-1.2-0.1-2.5-0.1-3.7c-0.1-2.5-0.1-4.9-0.2-7.4c0-2.5-0.1-4.9-0.1-7.4"/>
		<path class="st0" d="M141.5,74.1c0,2.5,0,4.9-0.1,7.4c0,2.5-0.1,4.9-0.2,7.4c-0.1,2.5-0.2,4.9-0.3,7.4c-0.1,1.2-0.1,2.4-0.2,3.7
			c-0.1,1.2-0.2,2.4-0.3,3.7c-0.1,1.2-0.2,2.4-0.4,3.7c-0.1,1.2-0.3,2.4-0.5,3.6c-0.4,2.4-0.9,4.8-1.6,7.2c-0.4,1.2-0.8,2.3-1.3,3.4
			c-0.5,1.1-1.1,2.2-1.7,3.3c-0.6,1.1-1.3,2.1-2.1,3.1c-0.7,1-1.6,1.9-2.4,2.8c-0.9,0.9-1.8,1.7-2.8,2.4c-1,0.7-2,1.4-3.1,2.1
			c-1.1,0.6-2.2,1.2-3.3,1.7c-1.1,0.5-2.3,0.9-3.4,1.3c-1.2,0.4-2.4,0.7-3.6,1c-1.2,0.3-2.4,0.5-3.6,0.7c-1.2,0.2-2.4,0.3-3.6,0.5
			c-1.2,0.1-2.4,0.2-3.7,0.4c-1.2,0.1-2.4,0.2-3.7,0.3c-1.2,0.1-2.4,0.2-3.7,0.2c-1.2,0.1-2.5,0.1-3.7,0.2c-1.2,0.1-2.5,0.1-3.7,0.1
			c-2.5,0.1-4.9,0.1-7.4,0.2c-2.5,0-4.9,0.1-7.4,0.1"/>
		<path class="st0" d="M74.1,2.8c2.6,0,5.2,0,7.7,0.1C84.4,2.9,87,3,89.5,3c2.6,0.1,5.2,0.2,7.7,0.4c1.3,0.1,2.6,0.2,3.9,0.2
			c1.3,0.1,2.6,0.2,3.9,0.3c1.3,0.1,2.6,0.2,3.8,0.4c1.3,0.2,2.6,0.3,3.8,0.6c1.3,0.2,2.5,0.5,3.8,0.8c1.3,0.3,2.5,0.7,3.7,1.1
			c1.2,0.4,2.4,0.9,3.6,1.5c1.2,0.6,2.3,1.2,3.4,1.8c1.1,0.7,2.2,1.4,3.2,2.2c1,0.8,2,1.7,2.9,2.6c0.9,0.9,1.8,1.9,2.6,2.9
			c0.8,1,1.5,2.1,2.2,3.2c0.7,1.1,1.3,2.2,1.8,3.4c0.6,1.2,1,2.4,1.5,3.6c0.4,1.2,0.8,2.5,1.1,3.7c0.3,1.3,0.6,2.5,0.8,3.8
			c0.2,1.3,0.4,2.5,0.6,3.8c0.2,1.3,0.3,2.6,0.4,3.8c0.1,1.3,0.2,2.6,0.3,3.9s0.2,2.6,0.2,3.9c0.1,2.6,0.3,5.2,0.4,7.7
			c0.1,2.6,0.2,5.2,0.2,7.7c0,2.6,0.1,5.2,0.1,7.7"/>
		<path class="st0" d="M2.8,74.1c0-2.6,0-5.2,0.1-7.7c0-2.6,0.1-5.2,0.2-7.7c0.1-2.6,0.2-5.2,0.4-7.7c0.1-1.3,0.2-2.6,0.2-3.9
			c0.1-1.3,0.2-2.6,0.3-3.9c0.1-1.3,0.2-2.6,0.4-3.8c0.2-1.3,0.3-2.6,0.6-3.8c0.2-1.3,0.5-2.5,0.8-3.8C6,30.4,6.4,29.2,6.8,28
			c0.4-1.2,0.9-2.4,1.5-3.6c0.6-1.2,1.2-2.3,1.8-3.4c0.7-1.1,1.4-2.2,2.2-3.2c0.8-1,1.7-2,2.6-2.9c0.9-0.9,1.9-1.8,2.9-2.6
			c1-0.8,2.1-1.5,3.2-2.2c1.1-0.7,2.2-1.3,3.4-1.8c1.2-0.6,2.4-1,3.6-1.5c1.2-0.4,2.5-0.8,3.7-1.1c1.3-0.3,2.5-0.6,3.8-0.8
			c1.3-0.2,2.5-0.4,3.8-0.6c1.3-0.2,2.6-0.3,3.8-0.4c1.3-0.1,2.6-0.2,3.9-0.3c1.3-0.1,2.6-0.2,3.9-0.2C53.4,3.3,56,3.1,58.6,3
			c2.6-0.1,5.2-0.2,7.7-0.2c2.6,0,5.2-0.1,7.7-0.1"/>
		<path class="st0" d="M3.4,74.1c0-2.6,0-5.1,0.1-7.7c0-2.6,0.1-5.1,0.2-7.7c0-1.3,0.1-2.6,0.2-3.8C3.9,53.6,4,52.3,4,51
			c0.1-1.3,0.2-2.6,0.2-3.8c0.1-1.3,0.2-2.6,0.3-3.8c0.1-1.3,0.2-2.5,0.4-3.8c0.2-1.3,0.3-2.5,0.6-3.8C5.7,34.5,6,33.3,6.3,32
			c0.3-1.2,0.7-2.5,1.1-3.7c0.4-1.2,0.9-2.4,1.4-3.6c0.5-1.2,1.1-2.3,1.8-3.4c0.7-1.1,1.4-2.1,2.2-3.2c0.4-0.5,0.8-1,1.2-1.5
			c0.4-0.5,0.9-0.9,1.3-1.4c0.9-0.9,1.9-1.8,2.9-2.5c1-0.8,2.1-1.5,3.2-2.2c0.5-0.3,1.1-0.7,1.7-1c0.6-0.3,1.1-0.6,1.7-0.9
			c0.6-0.3,1.2-0.5,1.8-0.8c0.6-0.2,1.2-0.5,1.8-0.7C29.5,7,30.8,6.6,32,6.3c1.2-0.3,2.5-0.6,3.8-0.8C37,5.3,38.3,5.1,39.6,5
			c1.3-0.2,2.5-0.3,3.8-0.4c1.3-0.1,2.5-0.2,3.8-0.3C48.5,4.2,49.8,4.1,51,4c1.3-0.1,2.6-0.1,3.8-0.2c1.3-0.1,2.6-0.1,3.8-0.2
			c2.6-0.1,5.1-0.2,7.7-0.2c2.6,0,5.1-0.1,7.7-0.1"/>
		<path class="st1" d="M2.1,74.1C2.1,74,2.1,74,2.1,74.1C2,74,2,74,2.1,74.1C2,74.1,2,74.1,2.1,74.1C2.1,74.1,2.1,74.1,2.1,74.1z"/>
		<path class="st1" d="M146.1,74.1C146.1,74,146.1,74,146.1,74.1C146.1,74,146,74,146.1,74.1C146,74.1,146.1,74.1,146.1,74.1
			C146.1,74.1,146.1,74.1,146.1,74.1z"/>
		<path class="st1" d="M74.1,2C74.1,2,74.1,2,74.1,2C74,2,74,2,74.1,2C74,2.1,74,2.1,74.1,2C74.1,2.1,74.1,2.1,74.1,2z"/>
		<path class="st1" d="M74.1,146.1C74.1,146.1,74.1,146,74.1,146.1C74,146,74,146.1,74.1,146.1C74,146.1,74,146.1,74.1,146.1
			C74.1,146.1,74.1,146.1,74.1,146.1z"/>
	</g>
</g>
</svg>
