<?xml version="1.0" encoding="utf-8"?>
<!-- Generator: Adobe Illustrator 27.1.1, SVG Export Plug-In . SVG Version: 6.00 Build 0)  -->
<svg version="1.1" id="Layer_1" xmlns:xodm="http://www.corel.com/coreldraw/odm/2003"
	 xmlns="http://www.w3.org/2000/svg" xmlns:xlink="http://www.w3.org/1999/xlink" x="0px" y="0px" viewBox="0 0 204 198.3"
	 style="enable-background:new 0 0 204 198.3;" xml:space="preserve">
<style type="text/css">
	.st0{fill-rule:evenodd;clip-rule:evenodd;fill:#B2B3B3;}
	.st1{fill-rule:evenodd;clip-rule:evenodd;fill:#D9DADA;}
	.st2{fill:none;stroke:#5B5B5B;stroke-width:0.5669;stroke-linejoin:bevel;stroke-miterlimit:10;}
	.st3{fill:none;stroke:#5B5B5B;stroke-width:0.216;stroke-linejoin:bevel;stroke-miterlimit:10;}
	.st4{fill-rule:evenodd;clip-rule:evenodd;stroke:#5B5B5B;stroke-width:0.1417;stroke-linejoin:bevel;stroke-miterlimit:10;}
	.st5{fill-rule:evenodd;clip-rule:evenodd;fill:#5B5B5B;}
	.st6{fill:#5B5B5B;}
	.st7{fill:none;}
</style>
<g id="图层_x0020_1">
	<path class="st0" d="M34.7,176.9h134.4c0,0-3.5,5.7-37.4,7.6L94.9,185l-18.1-0.4C76.8,184.6,48.8,184.6,34.7,176.9z"/>
	<path class="st1" d="M78.4,13.4l48.9,0.1c0,0,46.4-2.2,56.4,21.3c0,0,3.9,8.1,4.8,16.6c0.9,8.5,2.2,31.5,2.2,31.5l0.2,18.8
		l-0.4,18.2l-0.2,4.5l-1,14l-1,9.6c0,0-2.1,14.7-8.8,21.5c0,0-6.7,6.6-10.6,7.6s0.6-0.2,0.6-0.2H34.6c0,0-15.4-3.3-19.3-33.3
		c-3.9-30-1.6-68.5-1.6-68.5s0.5-34.2,8.4-43c7.8-8.8,10.1-11.9,26.5-15.8C48.6,16.2,62.8,12.8,78.4,13.4L78.4,13.4z"/>
	<path class="st2" d="M102,185c16,0,31.4-0.2,47.3-2.1c9.4-1.1,21.1-4.6,28-11.2c6.8-6.6,10-15.3,11.1-24.6
		c1.9-16.6,2.5-31.4,2.5-48c0-16.6-0.6-31.5-2.5-48c-1.1-9.3-4.2-18-11-24.6c-6.9-6.7-18.6-10.1-28-11.2
		c-15.9-1.9-31.3-2.1-47.3-2.1s-31.4,0.2-47.3,2.1c-9.4,1.1-21.1,4.6-28,11.2C19.9,33,16.8,41.7,15.7,51c-1.9,16.6-2.5,31.4-2.5,48
		c0,16.6,0.6,31.5,2.5,48c1.1,9.3,4.2,18,11,24.6c6.9,6.7,18.6,10.1,28,11.2C70.6,184.8,86.1,185,102,185L102,185z"/>
	<g id="_1875001920848">
		<polyline class="st3" points="0.1,99.1 0.3,111.6 0.7,123.7 1.3,134.9 2.2,145.5 3.7,155.4 6.4,164.6 10.4,172.5 15.4,179.1 
			21.3,184.5 28.4,188.8 36.5,192.3 45.7,194.8 55.7,196.4 66.3,197.3 77.5,197.8 89.5,198.1 102,198.2 		"/>
		<polyline class="st3" points="102,198.2 114.5,198.1 126.5,197.8 137.7,197.3 148.3,196.4 158.3,194.8 167.4,192.3 175.6,188.8 
			182.6,184.4 188.6,179.1 193.6,172.5 197.5,164.5 200.3,155.4 201.8,145.4 202.7,134.9 203.3,123.6 203.7,111.6 203.8,99.1 		"/>
		<path class="st3" d="M54.5,182.9L54.5,182.9 M54.5,182.9l0,0.1"/>
		<path class="st3" d="M15.8,147.3L15.8,147.3 M15.8,147.3l-0.1,0"/>
		<line class="st3" x1="188.2" y1="147.3" x2="188.3" y2="147.3"/>
		<line class="st3" x1="54.5" y1="15.4" x2="54.5" y2="15.3"/>
		<line class="st3" x1="87.8" y1="0.4" x2="87.8" y2="0.6"/>
		<path class="st3" d="M102,184.9L102,184.9 M102,184.9v0.1"/>
		<path class="st3" d="M102,196.2L102,196.2 M102,196.2v1.9"/>
		<line class="st3" x1="102" y1="0.4" x2="102" y2="2.1"/>
		<line class="st3" x1="102" y1="0.3" x2="102" y2="0.1"/>
		<path class="st3" d="M26.7,171.7L26.7,171.7 M26.7,171.7L26.7,171.7"/>
		<line class="st3" x1="201.9" y1="99.1" x2="203.8" y2="99.1"/>
		<line class="st3" x1="0.1" y1="99.1" x2="2.1" y2="99.1"/>
		<line class="st3" x1="26.7" y1="26.5" x2="26.7" y2="26.5"/>
		<line class="st3" x1="177.2" y1="26.6" x2="177.3" y2="26.5"/>
		<line class="st3" x1="177.2" y1="171.7" x2="177.3" y2="171.8"/>
		<line class="st3" x1="116.1" y1="0.6" x2="116.1" y2="0.4"/>
		<line class="st3" x1="149.5" y1="15.4" x2="149.5" y2="15.3"/>
		<line class="st3" x1="188.2" y1="51" x2="188.3" y2="51"/>
		<line class="st3" x1="15.8" y1="51" x2="15.7" y2="51"/>
		<line class="st3" x1="149.5" y1="182.9" x2="149.5" y2="183"/>
		<polyline class="st3" points="203.8,99.1 203.7,86.6 203.3,74.6 202.7,63.4 201.8,52.8 200.3,42.9 197.5,33.7 193.6,25.8 
			188.6,19.2 182.6,13.8 175.6,9.5 167.4,6 158.2,3.5 148.3,1.9 137.7,1 126.5,0.5 		"/>
		<polyline class="st3" points="89.5,0.2 77.5,0.5 66.2,1 55.6,1.9 45.7,3.5 36.5,6 28.3,9.5 21.3,13.8 15.3,19.2 10.4,25.8 
			6.4,33.8 3.7,42.9 2.1,52.9 1.3,63.4 0.7,74.7 0.3,86.7 0.1,99.1 		"/>
		<line class="st3" x1="102" y1="0.1" x2="89.5" y2="0.2"/>
		<polyline class="st3" points="126.5,0.5 114.4,0.2 102,0.1 		"/>
		<path class="st3" d="M102,0.4c-4.7,0-9.4,0-14.2,0.1"/>
		<path class="st3" d="M116.1,0.6c-4.7-0.1-9.4-0.1-14.2-0.1"/>
		<path class="st3" d="M116.1,0.2c-4.7-0.1-9.4-0.1-14-0.1"/>
		<path class="st3" d="M101.8,0.1c-4.7,0-9.4,0-14,0.1"/>
		<path class="st3" d="M102,0.3c-4.7,0-9.4,0-14.2,0.1"/>
		<path class="st3" d="M116.1,0.4c-4.7-0.1-9.4-0.1-14.2-0.1"/>
		<path class="st3" d="M190.7,106c0.1-4.6,0.1-9.2,0-13.7"/>
		<path class="st3" d="M13.2,92.3c-0.1,4.6-0.1,9.2,0,13.7"/>
		<path class="st3" d="M14.1,68.7c-0.3,4.1-0.5,8.1-0.6,12.2"/>
		<path class="st3" d="M190.5,80.9c-0.1-4.1-0.3-8.1-0.6-12.2"/>
		<path class="st3" d="M189.9,129.6c0.3-4.1,0.5-8.1,0.6-12.2"/>
		<path class="st3" d="M13.5,117.4c0.1,4.1,0.3,8.1,0.6,12.2"/>
		<path class="st3" d="M15.7,51c-0.2,1.9-0.4,3.8-0.6,5.7"/>
		<path class="st3" d="M15.1,141.6c0.2,1.9,0.4,3.8,0.6,5.7"/>
		<path class="st3" d="M188.3,147.3c0.2-1.9,0.4-3.8,0.6-5.7"/>
		<path class="st3" d="M188.9,56.7c-0.2-1.9-0.4-3.8-0.6-5.7"/>
		<path class="st3" d="M54.5,182.9c-2.5-0.3-5-0.7-7.5-1.3c-2.5-0.6-4.9-1.3-7.3-2.2c-1.2-0.4-2.4-0.9-3.5-1.4
			c-1.2-0.5-2.3-1.1-3.4-1.7c-1.1-0.6-2.2-1.3-3.2-2.1c-1-0.7-2-1.6-2.9-2.4"/>
		<path class="st3" d="M26.7,171.7c-3.2-3.2-5.8-7-7.6-11.2c-1.8-4.2-2.8-8.7-3.3-13.2"/>
		<path class="st3" d="M15.8,147.3c-0.9-8-1.6-16-1.9-24c-0.4-8-0.5-16.1-0.5-24.1s0.1-16.1,0.5-24.1c0.4-8,1-16.1,1.9-24"/>
		<path class="st3" d="M15.8,51c0.5-4.5,1.5-9,3.3-13.2c1.8-4.2,4.4-8.1,7.6-11.2"/>
		<path class="st3" d="M26.7,26.5c0.9-0.9,1.9-1.7,2.9-2.4c1-0.7,2.1-1.4,3.2-2.1c1.1-0.6,2.2-1.2,3.4-1.7c1.2-0.5,2.3-1,3.5-1.4
			c2.4-0.9,4.8-1.6,7.3-2.2c2.5-0.6,5-1,7.5-1.3"/>
		<path class="st3" d="M54.5,15.4c7.9-0.9,15.8-1.5,23.7-1.7c7.9-0.3,15.8-0.3,23.8-0.3s15.9,0,23.8,0.3c7.9,0.3,15.8,0.8,23.7,1.7"
			/>
		<path class="st3" d="M149.5,15.3c2.5,0.3,5,0.7,7.5,1.3c2.5,0.6,4.9,1.3,7.3,2.2c1.2,0.4,2.4,0.9,3.6,1.5c1.2,0.5,2.3,1.1,3.4,1.7
			c1.1,0.6,2.2,1.3,3.2,2.1c1,0.7,2,1.5,2.9,2.4"/>
		<path class="st3" d="M54.5,15.3c7.9-0.9,15.8-1.5,23.7-1.7c7.9-0.3,15.9-0.3,23.8-0.3c7.9,0,15.9,0,23.8,0.3
			c7.9,0.3,15.8,0.8,23.7,1.7"/>
		<path class="st3" d="M26.7,26.5c0.9-0.9,1.9-1.7,2.9-2.4c1-0.7,2.1-1.4,3.2-2.1c1.1-0.6,2.3-1.2,3.4-1.7c1.2-0.5,2.4-1,3.6-1.4
			c2.4-0.9,4.8-1.6,7.3-2.2c2.5-0.6,5-1,7.5-1.3"/>
		<path class="st3" d="M15.7,51c0.5-4.5,1.5-9,3.3-13.2c1.8-4.2,4.4-8.1,7.6-11.3"/>
		<path class="st3" d="M26.6,171.8c-3.3-3.2-5.8-7.1-7.6-11.3c-1.8-4.2-2.8-8.7-3.3-13.2"/>
		<path class="st3" d="M54.5,183c-2.5-0.3-5-0.7-7.5-1.3c-2.5-0.6-4.9-1.3-7.3-2.2c-1.2-0.4-2.4-0.9-3.6-1.5
			c-1.2-0.5-2.3-1.1-3.4-1.7c-1.1-0.6-2.2-1.3-3.2-2.1c-1-0.7-2-1.5-2.9-2.4"/>
		<path class="st3" d="M102,185c-4,0-7.9,0-11.9-0.1c-4,0-7.9-0.1-11.9-0.3c-4-0.1-7.9-0.3-11.9-0.6c-4-0.3-7.9-0.7-11.8-1.1"/>
		<path class="st3" d="M149.5,183c-7.9,0.9-15.8,1.5-23.7,1.7c-4,0.1-7.9,0.2-11.9,0.3c-4,0-7.9,0.1-11.9,0.1"/>
		<path class="st3" d="M177.3,171.8c-0.9,0.9-1.9,1.7-2.9,2.4c-1,0.7-2.1,1.4-3.2,2.1c-1.1,0.6-2.3,1.2-3.4,1.7
			c-1.2,0.5-2.4,1-3.6,1.5c-2.4,0.9-4.8,1.6-7.3,2.2c-2.5,0.6-5,1-7.5,1.3"/>
		<path class="st3" d="M188.3,147.3c-0.5,4.5-1.5,9-3.3,13.2c-1.8,4.2-4.4,8.1-7.6,11.3"/>
		<path class="st3" d="M177.3,26.5c3.3,3.2,5.8,7.1,7.6,11.3c1.8,4.2,2.8,8.7,3.3,13.2"/>
		<path class="st3" d="M102,184.9c-4,0-7.9,0-11.9-0.1c-4,0-7.9-0.1-11.9-0.3c-4-0.1-7.9-0.3-11.9-0.6c-4-0.3-7.9-0.7-11.8-1.1"/>
		<path class="st3" d="M149.5,15.4c2.5,0.3,5,0.7,7.5,1.3c2.5,0.6,4.9,1.3,7.3,2.2c1.2,0.4,2.4,0.9,3.5,1.4c1.2,0.5,2.3,1.1,3.4,1.7
			c1.1,0.6,2.2,1.3,3.2,2.1c1,0.7,2,1.6,2.9,2.4"/>
		<path class="st3" d="M177.2,26.6c3.2,3.2,5.8,7,7.6,11.2c1.8,4.2,2.8,8.7,3.3,13.2"/>
		<path class="st3" d="M188.2,51c0.9,8,1.6,16,1.9,24c0.4,8,0.5,16.1,0.5,24.1s-0.1,16.1-0.5,24.1c-0.4,8-1,16.1-1.9,24"/>
		<path class="st3" d="M188.2,147.3c-0.5,4.5-1.5,9-3.3,13.2c-1.8,4.2-4.4,8.1-7.6,11.2"/>
		<path class="st3" d="M177.2,171.7c-0.9,0.9-1.9,1.7-2.9,2.4c-1,0.7-2.1,1.4-3.2,2.1c-1.1,0.6-2.2,1.2-3.4,1.7
			c-1.2,0.5-2.3,1-3.5,1.4c-2.4,0.9-4.8,1.6-7.3,2.2c-2.5,0.6-5,1-7.5,1.3"/>
		<path class="st3" d="M149.5,182.9c-7.9,0.9-15.8,1.5-23.7,1.7c-4,0.1-7.9,0.2-11.9,0.3c-4,0-7.9,0.1-11.9,0.1"/>
		<path class="st3" d="M85.5,0.6C85.5,0.6,85.5,0.6,85.5,0.6C85.5,0.6,85.6,0.6,85.5,0.6c0.1,0,0.1,0,0.1,0c0,0,0.1,0,0.1,0
			c0,0,0.1,0,0.1,0c0,0,0.1,0,0.1,0c0,0,0.1,0,0.1,0c0.1,0,0.1,0,0.2,0c0.1,0,0.2,0,0.3,0c0.1,0,0.3,0,0.4,0c0.1,0,0.3,0,0.4,0
			c0.1,0,0.3,0,0.4,0"/>
		<path class="st3" d="M188.4,147.3c0.5-4,0.8-8,1.2-12c0.3-4,0.6-8,0.8-12c0.2-4,0.3-8,0.4-12.1c0.1-4,0.1-8,0.1-12.1s0-8-0.1-12.1
			c-0.1-4-0.2-8-0.4-12.1c-0.2-4-0.5-8-0.8-12c-0.3-4-0.7-8-1.2-12"/>
		<path class="st3" d="M177.4,171.9c0.8-0.8,1.6-1.6,2.3-2.4c0.7-0.9,1.4-1.7,2-2.7c0.6-0.9,1.2-1.9,1.8-2.8c0.5-1,1-2,1.5-3
			c0.4-1,0.9-2.1,1.2-3.1c0.4-1.1,0.7-2.2,1-3.3c0.3-1.2,0.5-2.3,0.8-3.5c0.2-1.2,0.4-2.5,0.5-3.8"/>
		<path class="st3" d="M149.5,183.1c5-0.6,10-1.7,14.8-3.5c4.8-1.8,9.5-4.2,13.1-7.7"/>
		<path class="st3" d="M102,185.2c5.7,0,11.4,0,17.1-0.1c5.3-0.1,10.6-0.3,15.9-0.6c4.9-0.3,9.7-0.7,14.6-1.3"/>
		<path class="st3" d="M54.5,183.1c4.8,0.6,9.7,1,14.6,1.3c5.3,0.3,10.6,0.5,15.9,0.6c5.7,0.1,11.4,0.1,17.1,0.1"/>
		<path class="st3" d="M26.6,171.9c3.6,3.5,8.3,5.9,13.1,7.7c4.8,1.8,9.8,2.9,14.8,3.5"/>
		<path class="st3" d="M15.6,147.3c0.1,1.3,0.3,2.5,0.6,3.8c0.2,1.2,0.5,2.4,0.8,3.5c0.3,1.1,0.6,2.2,1,3.3c0.4,1.1,0.8,2.1,1.2,3.1
			c0.4,1,0.9,2,1.5,3c0.5,1,1.1,1.9,1.7,2.8c0.6,0.9,1.3,1.8,2,2.6c0.7,0.8,1.5,1.7,2.3,2.4"/>
		<path class="st3" d="M15.6,50.9c-0.5,4-0.8,8-1.2,12c-0.3,4-0.6,8-0.8,12c-0.2,4-0.3,8-0.4,12.1c-0.1,4-0.1,8-0.1,12.1
			s0,8,0.1,12.1c0.1,4,0.2,8,0.4,12.1c0.2,4,0.5,8,0.8,12c0.3,4,0.7,8,1.2,12"/>
		<path class="st3" d="M26.6,26.4c-0.8,0.8-1.6,1.6-2.3,2.4c-0.7,0.9-1.4,1.7-2,2.7c-0.6,0.9-1.2,1.9-1.8,2.8c-0.5,1-1,2-1.5,3
			c-0.4,1-0.9,2.1-1.2,3.1c-0.4,1.1-0.7,2.2-1,3.3c-0.3,1.2-0.5,2.3-0.8,3.5c-0.2,1.2-0.4,2.5-0.5,3.8"/>
		<path class="st3" d="M54.5,15.2c-5,0.6-10,1.7-14.8,3.5c-4.8,1.8-9.5,4.2-13.1,7.7"/>
		<path class="st3" d="M149.5,15.2c-2.6-0.3-5.3-0.6-7.9-0.8c-2.6-0.2-5.3-0.4-8-0.6c-2.7-0.2-5.3-0.3-8-0.4
			c-2.6-0.1-5.3-0.2-7.9-0.2c-2.6,0-5.3-0.1-7.9-0.1c-2.6,0-5.2,0-7.9,0c-2.6,0-5.2,0-7.9,0c-2.6,0-5.3,0-7.9,0.1
			c-2.6,0-5.3,0.1-7.9,0.2c-2.7,0.1-5.3,0.2-8,0.4c-2.7,0.2-5.3,0.3-8,0.6c-2.6,0.2-5.3,0.5-7.9,0.8"/>
		<path class="st3" d="M177.4,26.4c-3.6-3.5-8.3-5.9-13.1-7.7c-4.8-1.8-9.8-2.9-14.8-3.5"/>
		<path class="st3" d="M188.4,50.9c-0.1-1.3-0.3-2.5-0.6-3.8c-0.2-1.2-0.5-2.4-0.8-3.5c-0.3-1.1-0.6-2.2-1-3.3
			c-0.4-1.1-0.8-2.1-1.2-3.1c-0.4-1-0.9-2-1.5-3c-0.5-1-1.1-1.9-1.7-2.8c-0.6-0.9-1.3-1.8-2-2.6c-0.7-0.8-1.5-1.7-2.3-2.4"/>
		<path class="st3" d="M116.1,0.6c0.1,0,0.3,0,0.4,0c0.1,0,0.3,0,0.4,0c0.1,0,0.3,0,0.4,0c0.1,0,0.2,0,0.3,0c0.1,0,0.1,0,0.2,0
			c0,0,0.1,0,0.1,0c0,0,0.1,0,0.1,0c0,0,0.1,0,0.1,0c0,0,0.1,0,0.1,0c0,0,0,0,0.1,0c0,0,0,0,0,0c0,0,0,0,0,0"/>
		<path class="st3" d="M102,198.2L102,198.2 M102,198.2h-0.1"/>
		<path class="st3" d="M101.8,198.2c-3.6,0-7.3,0-10.9-0.1c-3.6-0.1-7.3-0.1-10.9-0.2c-3.6-0.1-7.3-0.2-10.9-0.4
			c-3.6-0.2-7.2-0.4-10.9-0.8c-3.6-0.4-7.2-0.8-10.8-1.5c-3.6-0.7-7.1-1.6-10.5-2.7c-3.4-1.1-6.8-2.6-10-4.3
			c-3.2-1.7-6.2-3.8-8.9-6.3c-2.7-2.4-5.1-5.2-7.1-8.2c-2-3-3.6-6.3-4.9-9.7c-0.6-1.7-1.2-3.4-1.7-5.2c-0.5-1.8-0.9-3.5-1.2-5.3
			c-0.7-3.6-1.1-7.2-1.4-10.8c-0.2-1.8-0.3-3.6-0.4-5.4c-0.1-1.8-0.2-3.6-0.3-5.4c-0.2-3.6-0.4-7.2-0.5-10.9
			c-0.1-3.6-0.3-7.3-0.3-10.9c-0.1-3.6-0.1-7.3-0.1-10.9"/>
		<line class="st3" x1="0.1" y1="99.2" x2="0.1" y2="99.1"/>
		<path class="st3" d="M118.4,0.6C118.4,0.6,118.4,0.5,118.4,0.6C118.4,0.5,118.4,0.5,118.4,0.6C118.4,0.5,118.4,0.5,118.4,0.6
			c-0.1,0-0.1,0-0.2,0c0,0-0.1,0-0.1,0c0,0-0.1,0-0.1,0c-0.1,0-0.2,0-0.3,0c-0.1,0-0.2,0-0.3,0c-0.1,0-0.3,0-0.4,0
			c-0.1,0-0.3,0-0.4,0c-0.2,0-0.3,0-0.5,0"/>
		<path class="st3" d="M2.1,99.1c0-3.6,0-7.1,0.1-10.7c0.1-3.6,0.2-7.1,0.3-10.7c0.1-1.8,0.2-3.6,0.2-5.3c0.1-1.8,0.2-3.6,0.3-5.3
			c0.1-1.8,0.2-3.6,0.3-5.3c0.1-1.8,0.3-3.6,0.4-5.3c0.2-1.8,0.3-3.6,0.6-5.3c0.2-1.8,0.5-3.5,0.8-5.3c0.6-3.5,1.5-7,2.7-10.3
			c0.6-1.7,1.3-3.3,2.1-4.9c0.8-1.6,1.7-3.1,2.7-4.6c1-1.5,2-2.9,3.2-4.3c1.2-1.4,2.4-2.6,3.7-3.8c1.3-1.2,2.7-2.3,4.2-3.3
			c1.5-1,3-1.9,4.6-2.8c1.6-0.8,3.2-1.6,4.8-2.3c1.6-0.7,3.3-1.3,5-1.9c3.4-1.1,6.9-1.9,10.4-2.6c3.5-0.6,7.1-1.1,10.6-1.4
			c3.6-0.3,7.1-0.6,10.7-0.7c3.6-0.2,7.1-0.3,10.7-0.4c3.6-0.1,7.1-0.2,10.7-0.2c3.6-0.1,7.1-0.1,10.7-0.1"/>
		<path class="st3" d="M102,196.2c-3.6,0-7.1,0-10.7-0.1c-3.6-0.1-7.1-0.1-10.7-0.2c-3.6-0.1-7.1-0.2-10.7-0.4
			c-3.6-0.2-7.1-0.4-10.7-0.7c-3.6-0.3-7.1-0.8-10.6-1.4c-3.5-0.6-7-1.5-10.4-2.6c-1.7-0.5-3.4-1.2-5-1.9c-1.6-0.7-3.3-1.5-4.8-2.3
			c-1.6-0.8-3.1-1.8-4.6-2.8c-1.5-1-2.9-2.1-4.2-3.3c-1.3-1.2-2.6-2.5-3.7-3.8c-1.2-1.4-2.2-2.8-3.2-4.3c-1-1.5-1.9-3-2.7-4.6
			c-0.8-1.6-1.5-3.2-2.1-4.9c-1.2-3.3-2.1-6.8-2.7-10.3c-0.3-1.8-0.6-3.5-0.8-5.3c-0.2-1.8-0.4-3.5-0.5-5.3
			c-0.2-1.8-0.3-3.6-0.4-5.3c-0.1-1.8-0.2-3.6-0.3-5.3c-0.1-1.8-0.2-3.6-0.3-5.3c-0.1-1.8-0.2-3.6-0.2-5.3
			c-0.1-3.6-0.3-7.1-0.3-10.7c-0.1-3.6-0.1-7.1-0.1-10.7"/>
		<path class="st3" d="M201.9,99.1c0,3.6,0,7.1-0.1,10.7c-0.1,3.6-0.2,7.1-0.3,10.7c-0.1,1.8-0.2,3.6-0.2,5.3
			c-0.1,1.8-0.2,3.6-0.3,5.3c-0.1,1.8-0.2,3.6-0.3,5.3c-0.1,1.8-0.3,3.6-0.4,5.3c-0.2,1.8-0.3,3.6-0.6,5.3c-0.2,1.8-0.5,3.5-0.8,5.3
			c-0.6,3.5-1.5,7-2.7,10.3c-0.6,1.7-1.3,3.3-2.1,4.9c-0.8,1.6-1.7,3.1-2.7,4.6c-1,1.5-2,2.9-3.2,4.3c-1.2,1.4-2.4,2.6-3.7,3.8
			c-1.3,1.2-2.7,2.3-4.2,3.3c-1.5,1-3,1.9-4.6,2.8c-1.6,0.8-3.2,1.6-4.8,2.3c-1.6,0.7-3.3,1.3-5,1.9c-3.4,1.1-6.9,1.9-10.4,2.6
			c-3.5,0.6-7.1,1.1-10.6,1.4c-3.6,0.3-7.1,0.6-10.7,0.7c-3.6,0.2-7.1,0.3-10.7,0.4c-3.6,0.1-7.1,0.2-10.7,0.2
			c-3.6,0.1-7.1,0.1-10.7,0.1"/>
		<path class="st3" d="M102,2.1c3.6,0,7.1,0,10.7,0.1c3.6,0.1,7.1,0.1,10.7,0.2c3.6,0.1,7.1,0.2,10.7,0.4c3.6,0.2,7.1,0.4,10.7,0.7
			c3.6,0.3,7.1,0.8,10.6,1.4c3.5,0.6,7,1.5,10.4,2.6c1.7,0.6,3.4,1.2,5,1.9c1.6,0.7,3.3,1.5,4.8,2.3c1.6,0.8,3.1,1.8,4.6,2.8
			c1.5,1,2.9,2.1,4.2,3.3c1.3,1.2,2.6,2.5,3.7,3.8c1.2,1.4,2.2,2.8,3.2,4.3c1,1.5,1.9,3,2.7,4.6c0.8,1.6,1.5,3.2,2.1,4.9
			c1.2,3.3,2.1,6.8,2.8,10.3c0.3,1.8,0.6,3.5,0.8,5.3c0.2,1.8,0.4,3.5,0.6,5.3c0.2,1.8,0.3,3.6,0.4,5.3c0.1,1.8,0.2,3.6,0.3,5.3
			c0.1,1.8,0.2,3.6,0.3,5.3c0.1,1.8,0.2,3.6,0.2,5.3c0.1,3.6,0.3,7.1,0.3,10.7c0.1,3.6,0.1,7.1,0.1,10.7"/>
		<path class="st3" d="M1.1,99.1c0-3.6,0-7.2,0.1-10.8c0.1-3.6,0.2-7.2,0.3-10.8C1.7,74,1.8,70.4,2,66.8c0.2-3.6,0.4-7.2,0.8-10.8
			c0.2-1.8,0.3-3.6,0.6-5.4c0.2-1.8,0.5-3.6,0.8-5.3c0.7-3.5,1.6-7,2.8-10.4c0.6-1.7,1.4-3.3,2.2-4.9c0.8-1.6,1.7-3.2,2.7-4.7
			c1-1.5,2.1-2.9,3.2-4.3c1.2-1.4,2.4-2.7,3.8-3.9c1.3-1.2,2.8-2.3,4.2-3.3c1.5-1,3-2,4.6-2.8c1.6-0.9,3.2-1.6,4.9-2.3
			c1.7-0.7,3.3-1.3,5.1-1.9c3.4-1.1,6.9-2,10.5-2.6c3.5-0.7,7.1-1.1,10.7-1.5C62.4,2.2,66,2,69.6,1.8c1.8-0.1,3.6-0.2,5.4-0.2
			c1.8-0.1,3.6-0.1,5.4-0.2c3.6-0.1,7.2-0.2,10.8-0.2c3.6-0.1,7.2-0.1,10.8-0.1"/>
		<path class="st3" d="M87.8,0.4c-0.1,0-0.3,0-0.5,0c-0.1,0-0.3,0-0.4,0c-0.1,0-0.3,0-0.4,0c-0.1,0-0.2,0-0.3,0c-0.1,0-0.2,0-0.3,0
			c0,0-0.1,0-0.1,0c0,0-0.1,0-0.1,0c0,0,0,0-0.1,0c0,0,0,0-0.1,0c0,0,0,0,0,0c0,0,0,0,0,0"/>
		<line class="st3" x1="0.1" y1="99.1" x2="0.1" y2="99.1"/>
		<path class="st3" d="M0.1,99.1c0-3.3,0-6.6,0.1-9.9c0.1-3.3,0.2-6.6,0.3-9.9c0.1-3.3,0.3-6.6,0.4-9.9c0.1-1.6,0.2-3.3,0.3-4.9
			c0.1-1.6,0.2-3.3,0.3-4.9C1.7,58,1.8,56.4,2,54.8c0.2-1.6,0.3-3.3,0.5-4.9C2.7,48.2,3,46.6,3.3,45c0.3-1.6,0.7-3.2,1.1-4.8
			c0.4-1.6,0.9-3.2,1.4-4.7c0.5-1.5,1.2-3.1,1.9-4.6c0.7-1.5,1.5-2.9,2.3-4.4c0.8-1.4,1.8-2.8,2.7-4.1c1-1.3,2.1-2.6,3.2-3.8
			c0.6-0.6,1.1-1.2,1.7-1.7c0.6-0.6,1.2-1.1,1.8-1.6c1.3-1.1,2.6-2,4-2.9c1.4-0.9,2.8-1.7,4.2-2.5C30.6,8.3,33.6,7,36.7,6
			c3.1-1.1,6.3-1.9,9.5-2.5c3.2-0.7,6.5-1.1,9.7-1.5c3.3-0.4,6.5-0.6,9.8-0.8c1.6-0.1,3.3-0.2,4.9-0.3c1.6-0.1,3.3-0.1,4.9-0.2
			c3.3-0.1,6.6-0.2,9.9-0.3"/>
		<line class="st3" x1="85.5" y1="0.3" x2="86.1" y2="0.3"/>
		<line class="st3" x1="86.1" y1="0.3" x2="87.8" y2="0.2"/>
		<line class="st3" x1="101.8" y1="0.1" x2="102" y2="0.1"/>
		<line class="st3" x1="102" y1="0.1" x2="102.1" y2="0.1"/>
		<line class="st3" x1="116.1" y1="0.2" x2="118" y2="0.3"/>
		<line class="st3" x1="118" y1="0.3" x2="118.4" y2="0.3"/>
		<path class="st3" d="M118.4,0.3c3.3,0.1,6.6,0.2,9.9,0.3c1.6,0.1,3.3,0.1,4.9,0.2c1.6,0.1,3.3,0.2,4.9,0.3
			c3.3,0.2,6.6,0.5,9.8,0.8c3.3,0.4,6.5,0.9,9.7,1.5c3.2,0.7,6.4,1.5,9.5,2.5c3.1,1.1,6.2,2.3,9.1,3.9c1.5,0.8,2.9,1.6,4.2,2.5
			c1.4,0.9,2.7,1.9,4,2.9c0.6,0.5,1.2,1.1,1.8,1.6c0.6,0.6,1.2,1.1,1.7,1.7c1.1,1.2,2.2,2.5,3.2,3.8c1,1.3,1.9,2.7,2.7,4.1
			c0.8,1.4,1.6,2.9,2.3,4.4c0.7,1.5,1.3,3,1.9,4.6c0.5,1.5,1,3.1,1.4,4.7c0.4,1.6,0.8,3.2,1.1,4.8c0.3,1.6,0.6,3.2,0.8,4.9
			c0.2,1.6,0.4,3.3,0.5,4.9c0.2,1.6,0.3,3.3,0.4,4.9c0.1,1.6,0.2,3.3,0.3,4.9c0.1,1.6,0.2,3.3,0.3,4.9c0.2,3.3,0.3,6.6,0.4,9.9
			c0.1,3.3,0.2,6.6,0.3,9.9c0.1,3.3,0.1,6.6,0.1,9.9"/>
		<line class="st3" x1="203.8" y1="99.1" x2="203.8" y2="99.1"/>
		<line class="st3" x1="203.8" y1="99.1" x2="203.8" y2="99.2"/>
		<path class="st3" d="M203.8,99.2c0,3.6,0,7.3-0.1,10.9c-0.1,3.6-0.2,7.3-0.3,10.9c-0.1,3.6-0.3,7.2-0.5,10.9
			c-0.2,3.6-0.4,7.2-0.8,10.9c-0.3,3.6-0.7,7.2-1.4,10.8c-0.3,1.8-0.7,3.6-1.2,5.3c-0.5,1.8-1,3.5-1.7,5.2c-1.3,3.4-2.9,6.7-4.9,9.7
			c-2,3-4.4,5.8-7.1,8.2c-2.7,2.4-5.7,4.5-8.9,6.3c-3.2,1.7-6.5,3.2-10,4.3c-3.4,1.1-7,2-10.5,2.7c-3.6,0.7-7.2,1.1-10.8,1.5
			c-3.6,0.4-7.2,0.6-10.9,0.8c-3.6,0.2-7.2,0.3-10.9,0.4c-3.6,0.1-7.3,0.2-10.9,0.2c-3.6,0.1-7.3,0.1-10.9,0.1"/>
		<path class="st3" d="M102.1,198.2L102.1,198.2 M102.1,198.2H102"/>
		<path class="st3" d="M202.9,99.1c0,3.6,0,7.2-0.1,10.8c-0.1,3.6-0.2,7.2-0.3,10.8c-0.1,3.6-0.3,7.2-0.5,10.8
			c-0.2,3.6-0.4,7.2-0.8,10.8c-0.2,1.8-0.3,3.6-0.6,5.4c-0.2,1.8-0.5,3.6-0.8,5.3c-0.7,3.5-1.6,7-2.8,10.4c-0.6,1.7-1.4,3.3-2.2,4.9
			c-0.8,1.6-1.7,3.2-2.7,4.7s-2.1,2.9-3.2,4.3c-1.2,1.4-2.4,2.7-3.8,3.9c-1.3,1.2-2.8,2.3-4.2,3.3c-1.5,1-3,2-4.6,2.8
			c-1.6,0.9-3.2,1.6-4.9,2.3c-1.7,0.7-3.3,1.3-5.1,1.9c-3.4,1.1-6.9,2-10.5,2.6c-3.5,0.7-7.1,1.1-10.7,1.5
			c-3.6,0.3-7.2,0.6-10.8,0.8c-1.8,0.1-3.6,0.2-5.4,0.2c-1.8,0.1-3.6,0.1-5.4,0.2c-3.6,0.1-7.2,0.2-10.8,0.2
			c-3.6,0.1-7.2,0.1-10.8,0.1"/>
		<path class="st3" d="M102,1.1c3.6,0,7.2,0,10.8,0.1c3.6,0.1,7.2,0.1,10.8,0.2c1.8,0.1,3.6,0.1,5.4,0.2c1.8,0.1,3.6,0.1,5.4,0.2
			c3.6,0.2,7.2,0.4,10.8,0.8c3.6,0.3,7.2,0.8,10.7,1.5c3.5,0.7,7,1.5,10.5,2.6c1.7,0.6,3.4,1.2,5.1,1.9c1.7,0.7,3.3,1.5,4.9,2.3
			c1.6,0.9,3.1,1.8,4.6,2.8c1.5,1,2.9,2.1,4.2,3.3c1.3,1.2,2.6,2.5,3.8,3.9c1.2,1.4,2.3,2.8,3.2,4.3c1,1.5,1.9,3.1,2.7,4.7
			c0.8,1.6,1.5,3.3,2.2,4.9c1.3,3.4,2.2,6.9,2.8,10.4c0.3,1.8,0.6,3.6,0.8,5.3c0.2,1.8,0.4,3.6,0.6,5.4c0.3,3.6,0.6,7.2,0.8,10.8
			c0.1,1.8,0.2,3.6,0.3,5.4c0.1,1.8,0.2,3.6,0.2,5.4c0.1,3.6,0.3,7.2,0.3,10.8c0.1,3.6,0.1,7.2,0.1,10.8"/>
		<path class="st3" d="M102,197.2c-3.6,0-7.2,0-10.8-0.1c-3.6-0.1-7.2-0.1-10.8-0.2c-1.8-0.1-3.6-0.1-5.4-0.2
			c-1.8-0.1-3.6-0.1-5.4-0.2c-3.6-0.2-7.2-0.4-10.8-0.8c-3.6-0.3-7.2-0.8-10.7-1.5c-3.5-0.7-7-1.5-10.5-2.6
			c-1.7-0.6-3.4-1.2-5.1-1.9c-1.7-0.7-3.3-1.5-4.9-2.3c-1.6-0.9-3.1-1.8-4.6-2.8c-1.5-1-2.9-2.1-4.2-3.3c-1.3-1.2-2.6-2.5-3.8-3.9
			c-1.2-1.4-2.3-2.8-3.2-4.3c-1-1.5-1.9-3.1-2.7-4.7c-0.8-1.6-1.5-3.3-2.2-4.9c-1.3-3.4-2.2-6.9-2.8-10.4c-0.3-1.8-0.6-3.6-0.8-5.3
			s-0.4-3.6-0.6-5.4c-0.3-3.6-0.6-7.2-0.8-10.8c-0.1-1.8-0.2-3.6-0.3-5.4c-0.1-1.8-0.2-3.6-0.2-5.4c-0.1-3.6-0.3-7.2-0.3-10.8
			c-0.1-3.6-0.1-7.2-0.1-10.8"/>
		<path class="st4" d="M0.1,99.1C0.1,99.1,0.1,99.1,0.1,99.1C0.1,99.1,0.1,99.1,0.1,99.1C0.1,99.2,0.1,99.2,0.1,99.1
			C0.1,99.2,0.1,99.2,0.1,99.1z"/>
		<path class="st4" d="M203.9,99.1C203.9,99.1,203.9,99.1,203.9,99.1C203.8,99.1,203.8,99.1,203.9,99.1
			C203.8,99.2,203.8,99.2,203.9,99.1C203.9,99.2,203.9,99.2,203.9,99.1z"/>
		<path class="st4" d="M102,0.1C102,0.1,102,0.1,102,0.1C102,0.1,101.9,0.1,102,0.1C101.9,0.1,102,0.1,102,0.1
			C102,0.1,102,0.1,102,0.1z"/>
		<path class="st4" d="M102,198.2C102,198.2,102,198.1,102,198.2C102,198.1,101.9,198.2,102,198.2C101.9,198.2,102,198.2,102,198.2
			C102,198.2,102,198.2,102,198.2z"/>
	</g>
	<g id="_1874889794832">
		<path class="st5" d="M130.5,93.9c0-0.6-0.5-1.2-1.2-1.2c-0.6,0-1.2,0.5-1.2,1.2c0,0.6,0.5,1.2,1.2,1.2
			C130,95,130.5,94.5,130.5,93.9z"/>
		<path class="st5" d="M103.7,92.4h2.9h2.9c1.6,0,4.2,0,5.1,0c0.9,0,1.3,0.3,1.7,0.6c0.3,0.2,0.7,0.7,1,1c0.2,0.2,0.2,0.4-0.1,0.6
			c-0.5,0.4-1.2,0.8-2.6,0.8c-1.8,0-2.4,0-5.1,0h-2.9h-2.9c-2.7,0-3.3,0-5.1,0c-1.4,0-2.1-0.5-2.6-0.8c-0.3-0.2-0.3-0.4-0.1-0.6
			c0.3-0.3,0.7-0.7,1-1c0.4-0.3,0.8-0.6,1.7-0.6C99.5,92.4,102.1,92.4,103.7,92.4L103.7,92.4z"/>
		<path class="st5" d="M99.4,69.1h7.2h7.2c0.8,0,1.5,0.7,1.5,1.5l0,0c0,0.8-0.7,1.5-1.5,1.5h-7.2h-7.2c-0.8,0-1.5-0.7-1.5-1.5l0,0
			C97.9,69.8,98.6,69.1,99.4,69.1z"/>
		<path class="st5" d="M142.8,48.7c0-1.2-1-2.2-2.2-2.2c-1.2,0-2.2,1-2.2,2.2c0,1.2,1,2.2,2.2,2.2C141.8,50.9,142.8,49.9,142.8,48.7
			L142.8,48.7z M141.8,48.7c0-0.7-0.6-1.3-1.3-1.3c-0.7,0-1.3,0.6-1.3,1.3c0,0.7,0.6,1.3,1.3,1.3C141.3,49.9,141.8,49.4,141.8,48.7
			L141.8,48.7z"/>
		<path class="st5" d="M148.5,51.3c0.6,0,1.5,0,1.8,0s0.5-0.1,0.6-0.2c0.1-0.1,0.3-0.3,0.4-0.4c0.1-0.1,0.1-0.2,0-0.2
			c-0.2-0.1-0.5-0.3-1-0.3c-0.7,0-0.8,0-1.8,0s-1.2,0-1.8,0c-0.5,0-0.8,0.2-1,0.3c-0.1,0.1-0.1,0.2,0,0.2c0.1,0.1,0.3,0.3,0.4,0.4
			c0.1,0.1,0.3,0.2,0.6,0.2C147,51.3,147.8,51.3,148.5,51.3L148.5,51.3z"/>
		<path class="st5" d="M146,53.8c0-0.6,0-1.5,0-1.8c0-0.3-0.1-0.5-0.2-0.6c-0.1-0.1-0.3-0.3-0.4-0.4c-0.1-0.1-0.2-0.1-0.2,0
			c-0.1,0.2-0.3,0.5-0.3,1c0,0.7,0,0.8,0,1.8c0,1,0,1.8,0,2.5c0,0.9,0.6,1,0.9,1c0.1,0,0.2-0.1,0.2-0.2C146,56.7,146,54.4,146,53.8z
			"/>
		<path class="st5" d="M148.5,63.6c0.6,0,1.5,0,1.8,0s0.5,0.1,0.6,0.2c0.1,0.1,0.3,0.3,0.4,0.4c0.1,0.1,0.1,0.2,0,0.2
			c-0.2,0.1-0.5,0.3-1,0.3c-0.7,0-0.8,0-1.8,0s-1.2,0-1.8,0c-0.5,0-0.8-0.2-1-0.3c-0.1-0.1-0.1-0.2,0-0.2c0.1-0.1,0.3-0.3,0.4-0.4
			c0.1-0.1,0.3-0.2,0.6-0.2C147,63.6,147.8,63.6,148.5,63.6L148.5,63.6z"/>
		<path class="st5" d="M146,61.1c0,0.6,0,1.5,0,1.8c0,0.3-0.1,0.5-0.2,0.6c-0.1,0.1-0.3,0.3-0.4,0.4c-0.1,0.1-0.2,0.1-0.2,0
			c-0.1-0.2-0.3-0.5-0.3-1c0-0.7,0-0.8,0-1.8c0-1,0-1.8,0-2.5c0-0.9,0.6-1,0.9-1c0.1,0,0.2,0.1,0.2,0.2C146,58.2,146,60.4,146,61.1z
			"/>
		<path class="st5" d="M145.8,74.2c1,0,2.4,0,3,0s0.8-0.2,1-0.3c0.2-0.1,0.4-0.4,0.6-0.6c0.1-0.1,0.1-0.3,0-0.4
			c-0.3-0.2-0.7-0.5-1.6-0.5c-1.1,0-1.4,0-3,0c-1.6,0-1.9,0-3,0c-0.8,0-1.3,0.3-1.6,0.5c-0.2,0.1-0.2,0.3,0,0.4
			c0.2,0.2,0.4,0.4,0.6,0.6c0.2,0.2,0.5,0.3,1,0.3C143.3,74.2,144.8,74.2,145.8,74.2z"/>
		<path class="st5" d="M145.8,93.6c1,0,2.4,0,3,0s0.8,0.2,1,0.3c0.2,0.1,0.4,0.4,0.6,0.6c0.1,0.1,0.1,0.3,0,0.4
			c-0.3,0.2-0.7,0.5-1.6,0.5c-1.1,0-1.4,0-3,0c-1.6,0-1.9,0-3,0c-0.8,0-1.3-0.3-1.6-0.5c-0.2-0.1-0.2-0.3,0-0.4
			c0.2-0.2,0.4-0.4,0.6-0.6c0.2-0.2,0.5-0.3,1-0.3C143.3,93.6,144.8,93.6,145.8,93.6z"/>
		<path class="st5" d="M149.7,89.6c0,1,0,2.4,0,3c0,0.5,0.2,0.8,0.3,1c0.1,0.2,0.4,0.4,0.6,0.6c0.1,0.1,0.3,0.1,0.4,0
			c0.2-0.3,0.5-0.7,0.5-1.6c0-1.1,0-1.4,0-3s0-2.8,0-3.9c0-1.4-1-1.5-1.5-1.5c-0.2,0-0.3,0.1-0.3,0.3
			C149.7,85,149.7,88.6,149.7,89.6L149.7,89.6z"/>
		<path class="st5" d="M143.2,83h5.2c0.5,0,0.9,0.4,0.9,0.9l0,0c0,0.5-0.4,0.9-0.9,0.9h-5.2c-0.5,0-0.9-0.4-0.9-0.9l0,0
			C142.2,83.4,142.6,83,143.2,83z"/>
		<path class="st5" d="M149.7,78.1c0-1,0-2.4,0-3c0-0.5,0.2-0.8,0.3-1c0.1-0.2,0.4-0.4,0.6-0.6c0.1-0.1,0.3-0.1,0.4,0
			c0.2,0.3,0.5,0.7,0.5,1.6c0,1.1,0,1.4,0,3c0,1.6,0,2.8,0,3.9c0,1.4-1,1.5-1.5,1.5c-0.2,0-0.3-0.1-0.3-0.3
			C149.7,82.7,149.7,79.1,149.7,78.1L149.7,78.1z"/>
		<g>
			<path class="st5" d="M143,148c0-0.8-0.6-1.4-1.4-1.4c-0.8,0-1.4,0.6-1.4,1.4c0,0.8,0.6,1.4,1.4,1.4
				C142.4,149.4,143,148.8,143,148L143,148z"/>
			<path class="st5" d="M151.4,148c0-0.8-0.6-1.4-1.4-1.4c-0.8,0-1.4,0.6-1.4,1.4c0,0.8,0.6,1.4,1.4,1.4
				C150.7,149.4,151.4,148.8,151.4,148L151.4,148z"/>
		</g>
		<path class="st6" d="M37.7,104.8c-0.1,0-0.2-0.1-0.2-0.2s0.1-0.2,0.2-0.2h128.7c0.1,0,0.2,0.1,0.2,0.2s-0.1,0.2-0.2,0.2H37.7z"/>
		<path class="st6" d="M142.2,157c-0.1-0.2-0.2-0.4-0.2-0.6v0c0-0.2,0.1-0.4,0.3-0.5c0.2-0.1,0.4-0.2,0.6-0.2c0.2,0,0.4,0.1,0.5,0.3
			h0c0.1,0.1,0.2,0.3,0.4,0.4v0c0.2,0.1,0.3,0.2,0.5,0.3c0.2,0.1,0.4,0.2,0.7,0.2c0.2,0,0.5,0.1,0.7,0.1c0.3,0,0.5,0,0.7-0.1
			c0.2,0,0.5-0.1,0.7-0.2c0.2-0.1,0.4-0.2,0.5-0.3v0c0.2-0.1,0.3-0.2,0.4-0.4l0,0l0,0c0.1-0.2,0.3-0.3,0.5-0.3h0
			c0.2,0,0.4,0,0.6,0.2l0,0l0,0c0.2,0.1,0.3,0.3,0.3,0.5c0,0.2,0,0.4-0.2,0.6c-0.2,0.2-0.4,0.4-0.7,0.6c-0.3,0.2-0.6,0.4-0.9,0.5
			c-0.3,0.1-0.6,0.2-1,0.3h0c-0.3,0.1-0.7,0.1-1,0.1s-0.7,0-1-0.1c-0.3-0.1-0.7-0.2-1-0.3c-0.3-0.1-0.6-0.3-0.9-0.5
			C142.6,157.5,142.4,157.3,142.2,157L142.2,157z"/>
		<path class="st6" d="M154.5,157.3c0-0.2,0.1-0.4,0.2-0.6l0,0c0.1-0.1,0.3-0.2,0.6-0.2c0.2,0,0.4,0.1,0.6,0.2
			c0.1,0.1,0.2,0.3,0.2,0.6c0,0.8-0.2,1.7-0.5,2.4c-0.3,0.8-0.8,1.5-1.4,2c-0.6,0.6-1.3,1-2,1.4c-0.7,0.3-1.5,0.5-2.4,0.5h-8
			c-0.8,0-1.7-0.2-2.4-0.5c-0.8-0.3-1.5-0.8-2-1.4c-0.6-0.6-1-1.3-1.4-2c-0.3-0.7-0.5-1.5-0.5-2.4c0-0.2,0.1-0.4,0.2-0.6l0,0
			c0.1-0.1,0.3-0.2,0.6-0.2c0.2,0,0.4,0.1,0.6,0.2c0.1,0.1,0.2,0.3,0.2,0.6c0,0.6,0.1,1.2,0.4,1.8c0.2,0.6,0.6,1.1,1,1.5
			c0.4,0.4,1,0.8,1.5,1c0.6,0.2,1.2,0.4,1.8,0.4h8c0.6,0,1.2-0.1,1.8-0.4c0.6-0.2,1.1-0.6,1.5-1h0c0.4-0.4,0.8-1,1-1.5
			C154.3,158.5,154.5,157.9,154.5,157.3L154.5,157.3z"/>
		<path class="st6" d="M137.1,146.7c0,0.2-0.1,0.4-0.2,0.6c-0.1,0.1-0.3,0.2-0.6,0.2c-0.2,0-0.4-0.1-0.6-0.2l0,0
			c-0.1-0.1-0.2-0.3-0.2-0.6c0-0.8,0.2-1.7,0.5-2.4c0.3-0.8,0.8-1.5,1.4-2c0.6-0.6,1.3-1,2-1.4c0.7-0.3,1.5-0.5,2.4-0.5h8
			c0.8,0,1.7,0.2,2.4,0.5c0.8,0.3,1.5,0.8,2,1.4c0.6,0.6,1,1.3,1.4,2c0.3,0.7,0.5,1.5,0.5,2.4c0,0.2-0.1,0.4-0.2,0.6
			c-0.1,0.1-0.3,0.2-0.6,0.2c-0.2,0-0.4-0.1-0.6-0.2l0,0c-0.1-0.1-0.2-0.3-0.2-0.6c0-0.6-0.1-1.2-0.4-1.8c-0.2-0.6-0.6-1.1-1-1.5h0
			c-0.9-0.9-2-1.4-3.3-1.4h-8c-0.6,0-1.2,0.1-1.8,0.4c-0.6,0.2-1.1,0.6-1.5,1C137.6,144.2,137.1,145.4,137.1,146.7L137.1,146.7z"/>
		<path class="st7" d="M142.8,155.4c0.5-0.7,1.6-1.2,3-1.2c1.3,0,2.4,0.6,3,1.2"/>
		<g>
			<path class="st5" d="M145.2,118.7c0-1.5-1.3-2.8-2.8-2.8s-2.8,1.3-2.8,2.8c0,1.5,1.3,2.8,2.8,2.8
				C143.9,121.5,145.2,120.3,145.2,118.7z M144,118.7c0-0.9-0.7-1.6-1.6-1.6c-0.9,0-1.6,0.7-1.6,1.6c0,0.9,0.7,1.6,1.6,1.6
				C143.3,120.3,144,119.6,144,118.7z"/>
			<path class="st5" d="M152,130.1c0-1.5-1.3-2.8-2.8-2.8s-2.8,1.3-2.8,2.8c0,1.5,1.3,2.8,2.8,2.8C150.7,132.9,152,131.7,152,130.1z
				 M150.8,130.1c0-0.9-0.7-1.6-1.6-1.6c-0.9,0-1.6,0.7-1.6,1.6s0.7,1.6,1.6,1.6C150.1,131.7,150.8,131,150.8,130.1z"/>
			<path class="st5" d="M139.8,131.9l10.9-15.6c0.2-0.3,0.6-0.4,0.9-0.2l0,0c0.3,0.2,0.4,0.6,0.2,0.9l-10.9,15.6
				c-0.2,0.3-0.6,0.4-0.9,0.2h0C139.6,132.6,139.5,132.2,139.8,131.9z"/>
		</g>
		<path class="st2" d="M102,185.2c15.9,0,31.4-0.2,47.2-2.1c9.3-1.1,21.1-4.5,27.9-11.2c6.8-6.6,10-15.3,11-24.6
			c1.9-16.5,2.5-31.3,2.5-47.9c0-16.6-0.6-31.4-2.5-47.9c-1.1-9.3-4.2-18-11-24.6c-6.9-6.7-18.6-10.1-27.9-11.2
			c-15.8-1.9-31.3-2.1-47.2-2.1s-31.4,0.2-47.2,2.1c-9.3,1.1-21.1,4.5-27.9,11.2c-6.8,6.6-10,15.3-11,24.6
			C14,68,13.4,82.8,13.4,99.4c0,16.6,0.6,31.4,2.5,47.9c1.1,9.3,4.2,18,11,24.6c6.9,6.7,18.6,10.1,27.9,11.2
			C70.7,185,86.1,185.2,102,185.2L102,185.2z"/>
		<path class="st5" d="M115.9,85.8c0,1.6,0,4.2,0,5.1c0,0.9,0.3,1.3,0.6,1.7c0.2,0.3,0.7,0.7,1,1c0.2,0.2,0.4,0.2,0.6-0.1
			c0.4-0.5,0.8-1.2,0.8-2.6c0-1.8,0-2.4,0-5.1c0-2.7,0-10.5,0-12.3c0-2.3-1.6-2.5-2.4-2.5c-0.4,0-0.5,0.2-0.5,0.6
			C115.9,72.5,115.9,84.1,115.9,85.8L115.9,85.8z"/>
		<path class="st5" d="M103.7,48.7h2.9h2.9c1.6,0,4.2,0,5.1,0c0.9,0,1.3-0.3,1.7-0.6c0.3-0.2,0.7-0.7,1-1c0.2-0.2,0.2-0.4-0.1-0.6
			c-0.5-0.4-1.2-0.8-2.6-0.8c-1.8,0-2.4,0-5.1,0h-2.9h-2.9c-2.7,0-3.3,0-5.1,0c-1.4,0-2.1,0.5-2.6,0.8c-0.3,0.2-0.3,0.4-0.1,0.6
			c0.3,0.3,0.7,0.7,1,1c0.4,0.3,0.8,0.6,1.7,0.6C99.5,48.7,102.1,48.7,103.7,48.7L103.7,48.7z"/>
		<path class="st5" d="M97.2,55.3c0-1.6,0-4.2,0-5.1s-0.3-1.3-0.6-1.7c-0.2-0.3-0.7-0.7-1-1c-0.2-0.2-0.4-0.2-0.6,0.1
			c-0.4,0.5-0.8,1.2-0.8,2.6c0,1.8,0,2.4,0,5.1c0,2.7,0,10.5,0,12.3c0,2.3,1.6,2.5,2.4,2.5c0.4,0,0.5-0.2,0.5-0.6
			C97.2,68.7,97.2,57,97.2,55.3L97.2,55.3z"/>
		<path class="st5" d="M66.1,92.4h2.9h2.9c1.6,0,4.2,0,5.1,0c0.9,0,1.3,0.3,1.7,0.6c0.3,0.2,0.7,0.7,1,1c0.2,0.2,0.2,0.4-0.1,0.6
			c-0.5,0.4-1.2,0.8-2.6,0.8c-1.8,0-2.4,0-5.1,0h-2.9h-2.9c-2.7,0-3.3,0-5.1,0c-1.4,0-2.1-0.5-2.6-0.8c-0.3-0.2-0.3-0.4-0.1-0.6
			c0.3-0.3,0.7-0.7,1-1c0.4-0.3,0.8-0.6,1.7-0.6C61.9,92.4,64.4,92.4,66.1,92.4L66.1,92.4z"/>
		<path class="st5" d="M59.5,85.8c0,1.6,0,4.2,0,5.1c0,0.9-0.3,1.3-0.6,1.7c-0.2,0.3-0.7,0.7-1,1c-0.2,0.2-0.4,0.2-0.6-0.1
			c-0.4-0.5-0.8-1.2-0.8-2.6c0-1.8,0-2.4,0-5.1c0-2.7,0-10.5,0-12.3c0-2.3,1.6-2.5,2.4-2.5c0.4,0,0.5,0.2,0.5,0.6
			C59.5,72.5,59.5,84.1,59.5,85.8L59.5,85.8z"/>
		<path class="st5" d="M61.7,69.1h7.2h7.2c0.8,0,1.5,0.7,1.5,1.5l0,0c0,0.8-0.7,1.5-1.5,1.5h-7.2h-7.2c-0.8,0-1.5-0.7-1.5-1.5l0,0
			C60.2,69.8,60.9,69.1,61.7,69.1z"/>
		<path class="st5" d="M66.1,48.7h2.9h2.9c1.6,0,4.2,0,5.1,0c0.9,0,1.3-0.3,1.7-0.6c0.3-0.2,0.7-0.7,1-1c0.2-0.2,0.2-0.4-0.1-0.6
			c-0.5-0.4-1.2-0.8-2.6-0.8c-1.8,0-2.4,0-5.1,0h-2.9h-2.9c-2.7,0-3.3,0-5.1,0c-1.4,0-2.1,0.5-2.6,0.8c-0.3,0.2-0.3,0.4-0.1,0.6
			c0.3,0.3,0.7,0.7,1,1c0.4,0.3,0.8,0.6,1.7,0.6C61.9,48.7,64.4,48.7,66.1,48.7L66.1,48.7z"/>
		<path class="st5" d="M78.3,55.3c0-1.6,0-4.2,0-5.1s0.3-1.3,0.6-1.7c0.2-0.3,0.7-0.7,1-1c0.2-0.2,0.4-0.2,0.6,0.1
			c0.4,0.5,0.8,1.2,0.8,2.6c0,1.8,0,2.4,0,5.1c0,2.7,0,10.5,0,12.3c0,2.3-1.6,2.5-2.4,2.5c-0.4,0-0.5-0.2-0.5-0.6
			C78.3,68.7,78.3,57,78.3,55.3L78.3,55.3z"/>
		<path class="st5" d="M103.7,160.4h2.9h2.9c1.6,0,4.2,0,5.1,0c0.9,0,1.3,0.3,1.7,0.6c0.3,0.2,0.7,0.7,1,1c0.2,0.2,0.2,0.4-0.1,0.6
			c-0.5,0.4-1.2,0.8-2.6,0.8c-1.8,0-2.4,0-5.1,0h-2.9h-2.9c-2.7,0-3.3,0-5.1,0c-1.4,0-2.1-0.5-2.6-0.8c-0.3-0.2-0.3-0.4-0.1-0.6
			c0.3-0.3,0.7-0.7,1-1c0.4-0.3,0.8-0.6,1.7-0.6C99.5,160.4,102.1,160.4,103.7,160.4L103.7,160.4z"/>
		<path class="st5" d="M99.4,137.2h7.2h7.2c0.8,0,1.5,0.7,1.5,1.5l0,0c0,0.8-0.7,1.5-1.5,1.5h-7.2h-7.2c-0.8,0-1.5-0.7-1.5-1.5l0,0
			C97.9,137.8,98.6,137.2,99.4,137.2z"/>
		<path class="st5" d="M115.9,153.8c0,1.6,0,4.2,0,5.1s0.3,1.3,0.6,1.7c0.2,0.3,0.7,0.7,1,1c0.2,0.2,0.4,0.2,0.6-0.1
			c0.4-0.5,0.8-1.2,0.8-2.6c0-1.8,0-2.4,0-5.1c0-2.7,0-10.5,0-12.3c0-2.3-1.6-2.5-2.4-2.5c-0.4,0-0.5,0.2-0.5,0.6
			C115.9,140.5,115.9,152.2,115.9,153.8L115.9,153.8z"/>
		<path class="st5" d="M103.7,116.8h2.9h2.9c1.6,0,4.2,0,5.1,0c0.9,0,1.3-0.3,1.7-0.6c0.3-0.2,0.7-0.7,1-1c0.2-0.2,0.2-0.4-0.1-0.6
			c-0.5-0.4-1.2-0.8-2.6-0.8c-1.8,0-2.4,0-5.1,0h-2.9h-2.9c-2.7,0-3.3,0-5.1,0c-1.4,0-2.1,0.5-2.6,0.8c-0.3,0.2-0.3,0.4-0.1,0.6
			c0.3,0.3,0.7,0.7,1,1c0.4,0.3,0.8,0.6,1.7,0.6C99.5,116.8,102.1,116.8,103.7,116.8L103.7,116.8z"/>
		<path class="st5" d="M97.2,123.4c0-1.6,0-4.2,0-5.1c0-0.9-0.3-1.3-0.6-1.7c-0.2-0.3-0.7-0.7-1-1c-0.2-0.2-0.4-0.2-0.6,0.1
			c-0.4,0.5-0.8,1.2-0.8,2.6c0,1.8,0,2.4,0,5.1s0,10.5,0,12.3c0,2.3,1.6,2.5,2.4,2.5c0.4,0,0.5-0.2,0.5-0.6
			C97.2,136.7,97.2,125,97.2,123.4L97.2,123.4z"/>
		<path class="st5" d="M115.9,123.4c0-1.6,0-4.2,0-5.1c0-0.9,0.3-1.3,0.6-1.7c0.2-0.3,0.7-0.7,1-1c0.2-0.2,0.4-0.2,0.6,0.1
			c0.4,0.5,0.8,1.2,0.8,2.6c0,1.8,0,2.4,0,5.1s0,10.5,0,12.3c0,2.3-1.6,2.5-2.4,2.5c-0.4,0-0.5-0.2-0.5-0.6
			C115.9,136.7,115.9,125,115.9,123.4L115.9,123.4z"/>
		<path class="st5" d="M66.1,160.4h2.9h2.9c1.6,0,4.2,0,5.1,0c0.9,0,1.3,0.3,1.7,0.6c0.3,0.2,0.7,0.7,1,1c0.2,0.2,0.2,0.4-0.1,0.6
			c-0.5,0.4-1.2,0.8-2.6,0.8c-1.8,0-2.4,0-5.1,0h-2.9h-2.9c-2.7,0-3.3,0-5.1,0c-1.4,0-2.1-0.5-2.6-0.8c-0.3-0.2-0.3-0.4-0.1-0.6
			c0.3-0.3,0.7-0.7,1-1c0.4-0.3,0.8-0.6,1.7-0.6C61.9,160.4,64.4,160.4,66.1,160.4L66.1,160.4z"/>
		<path class="st5" d="M61.7,137.2h7.2h7.2c0.8,0,1.5,0.7,1.5,1.5l0,0c0,0.8-0.7,1.5-1.5,1.5h-7.2h-7.2c-0.8,0-1.5-0.7-1.5-1.5l0,0
			C60.2,137.8,60.9,137.2,61.7,137.2z"/>
		<path class="st5" d="M78.3,153.8c0,1.6,0,4.2,0,5.1s0.3,1.3,0.6,1.7c0.2,0.3,0.7,0.7,1,1c0.2,0.2,0.4,0.2,0.6-0.1
			c0.4-0.5,0.8-1.2,0.8-2.6c0-1.8,0-2.4,0-5.1c0-2.7,0-10.5,0-12.3c0-2.3-1.6-2.5-2.4-2.5c-0.4,0-0.5,0.2-0.5,0.6
			C78.3,140.5,78.3,152.2,78.3,153.8L78.3,153.8z"/>
		<path class="st5" d="M66.1,116.8h2.9h2.9c1.6,0,4.2,0,5.1,0c0.9,0,1.3-0.3,1.7-0.6c0.3-0.2,0.7-0.7,1-1c0.2-0.2,0.2-0.4-0.1-0.6
			c-0.5-0.4-1.2-0.8-2.6-0.8c-1.8,0-2.4,0-5.1,0h-2.9h-2.9c-2.7,0-3.3,0-5.1,0c-1.4,0-2.1,0.5-2.6,0.8c-0.3,0.2-0.3,0.4-0.1,0.6
			c0.3,0.3,0.7,0.7,1,1c0.4,0.3,0.8,0.6,1.7,0.6C61.9,116.8,64.4,116.8,66.1,116.8L66.1,116.8z"/>
		<path class="st5" d="M59.5,123.4c0-1.6,0-4.2,0-5.1c0-0.9-0.3-1.3-0.6-1.7c-0.2-0.3-0.7-0.7-1-1c-0.2-0.2-0.4-0.2-0.6,0.1
			c-0.4,0.5-0.8,1.2-0.8,2.6c0,1.8,0,2.4,0,5.1s0,10.5,0,12.3c0,2.3,1.6,2.5,2.4,2.5c0.4,0,0.5-0.2,0.5-0.6
			C59.5,136.7,59.5,125,59.5,123.4L59.5,123.4z"/>
		<path class="st5" d="M120.2,26.6h1.1c0.3,0,0.5,0.2,0.5,0.5V31c0,0.3-0.2,0.5-0.5,0.5h-1.1c-0.3,0-0.5-0.2-0.5-0.5v-3.8
			C119.6,26.9,119.9,26.6,120.2,26.6z"/>
		<path class="st5" d="M118.8,33.2h13c0.5,0,0.8-0.3,0.8-0.8v-1c0-0.2,0-0.3,0.2-0.3h0.6c0.3,0,0.6-0.2,0.6-0.6v-1.4c0,0,0,0,0,0
			s0,0,0,0v-1.4c0-0.4-0.3-0.6-0.6-0.6h-0.6c-0.2,0-0.2-0.1-0.2-0.3v-1c0-0.5-0.3-0.8-0.8-0.8h-13c-0.5,0-0.9,0.3-0.9,0.8v1.9
			c0,0.2,0.1,0.3,0.2,0.3h0.4c0.1,0,0.2-0.1,0.2-0.3v-1.5c0-0.3,0.1-0.4,0.4-0.4l12.2,0c0.3,0,0.3,0.1,0.3,0.4l0,0.9
			c0,0.3,0.3,0.6,0.7,0.6h0.8c0.2,0,0.2,0.1,0.2,0.3v1.1c0,0,0,0,0,0c0,0,0,0,0,0v1.1c0,0.1-0.1,0.3-0.2,0.3h-0.8
			c-0.4,0-0.7,0.3-0.7,0.6l0,0.9c0,0.2-0.1,0.4-0.3,0.4l-12.2,0c-0.3,0-0.4-0.1-0.4-0.4v-1.5c0-0.2-0.1-0.3-0.2-0.3h-0.4
			c-0.2,0-0.2,0.1-0.2,0.3v1.9C118,32.9,118.3,33.2,118.8,33.2L118.8,33.2z"/>
		<path class="st5" d="M123.2,26.6h1.1c0.3,0,0.5,0.2,0.5,0.5V31c0,0.3-0.2,0.5-0.5,0.5h-1.1c-0.3,0-0.5-0.2-0.5-0.5v-3.8
			C122.7,26.9,122.9,26.6,123.2,26.6z"/>
		<path class="st5" d="M126.3,26.6h1.1c0.3,0,0.5,0.2,0.5,0.5V31c0,0.3-0.2,0.5-0.5,0.5h-1.1c-0.3,0-0.5-0.2-0.5-0.5v-3.8
			C125.8,26.9,126,26.6,126.3,26.6z"/>
		<path class="st5" d="M129.4,26.6h1.1c0.3,0,0.5,0.2,0.5,0.5V31c0,0.3-0.2,0.5-0.5,0.5h-1.1c-0.3,0-0.5-0.2-0.5-0.5v-3.8
			C128.8,26.9,129.1,26.6,129.4,26.6z"/>
		<g>
			<path class="st6" d="M82.6,26.6c0.1,0,0.1,0.1,0.2,0.1l0,0c0,0,0.1,0.1,0.1,0.2v0c0,0.1,0,0.1,0,0.2c0,0.1,0,0.1,0,0.2v0
				c0,0.1-0.1,0.1-0.1,0.2h0c-0.4,0.4-0.7,1-0.7,1.6c0,0.6,0.2,1.2,0.7,1.6l0,0v0c0.1,0.1,0.2,0.2,0.2,0.4c0,0.1-0.1,0.3-0.2,0.4v0
				l0,0c-0.1,0.1-0.2,0.2-0.4,0.2c-0.1,0-0.3-0.1-0.4-0.2c-0.3-0.3-0.6-0.7-0.7-1.1v0C81.1,30,81,29.5,81,29.1
				c0-0.4,0.1-0.9,0.3-1.3v0c0.2-0.4,0.4-0.8,0.7-1.1v0c0,0,0.1-0.1,0.2-0.1c0.1,0,0.1,0,0.2,0C82.5,26.6,82.5,26.6,82.6,26.6
				L82.6,26.6L82.6,26.6z"/>
			<path class="st5" d="M84.4,28.1c-0.5,0-1,0.4-1,1c0,0.5,0.4,1,1,1c0.5,0,1-0.4,1-1C85.4,28.5,85,28.1,84.4,28.1z"/>
			<path class="st6" d="M86.8,26.7L86.8,26.7c0.3,0.3,0.6,0.7,0.7,1.1v0c0.2,0.4,0.3,0.8,0.3,1.3c0,0.4-0.1,0.9-0.3,1.3v0
				c-0.2,0.4-0.4,0.8-0.7,1.1c-0.1,0.1-0.1,0.1-0.2,0.1h0c-0.1,0-0.2,0-0.3,0c-0.1,0-0.2-0.1-0.2-0.1C86,31.4,86,31.3,86,31.2
				c0-0.1,0-0.2,0-0.3v0c0-0.1,0.1-0.2,0.1-0.2c0.2-0.2,0.4-0.5,0.5-0.7c0.1-0.3,0.2-0.6,0.2-0.9c0-0.3-0.1-0.6-0.2-0.9
				c-0.1-0.3-0.3-0.5-0.5-0.7l0,0v0c-0.1-0.1-0.2-0.2-0.2-0.4c0-0.1,0.1-0.3,0.2-0.4v0l0,0l0,0h0c0.1-0.1,0.2-0.2,0.4-0.2
				C86.6,26.6,86.7,26.6,86.8,26.7L86.8,26.7L86.8,26.7z"/>
			<path class="st6" d="M80.3,27.4c-0.2,0.5-0.3,1.1-0.3,1.7c0,0.6,0.1,1.2,0.3,1.7v0c0.2,0.5,0.5,1,1,1.4l0,0
				c0.1,0.1,0.2,0.2,0.2,0.4c0,0.1-0.1,0.3-0.2,0.4l0,0c-0.1,0.1-0.2,0.2-0.4,0.2c-0.1,0-0.3-0.1-0.4-0.2c-0.5-0.5-0.9-1.1-1.2-1.8
				c-0.3-0.7-0.4-1.4-0.4-2.1c0-0.7,0.1-1.5,0.4-2.1c0.3-0.7,0.7-1.3,1.2-1.8c0.1-0.1,0.2-0.1,0.2-0.1c0.1,0,0.2,0,0.3,0h0
				c0.1,0,0.2,0.1,0.2,0.1l0,0c0.1,0.1,0.1,0.2,0.1,0.2c0,0.1,0,0.2,0,0.3h0c0,0.1-0.1,0.2-0.1,0.2C80.8,26.4,80.5,26.8,80.3,27.4
				L80.3,27.4z"/>
			<path class="st5" d="M89.1,26c0.2,0.3,0.4,0.6,0.5,1l0,0.1l0,0c0.4,1,0.5,2.1,0.3,3.1c-0.2,1-0.7,2-1.5,2.8v0
				c-0.1,0.1-0.2,0.1-0.2,0.1v0c-0.1,0-0.2,0-0.3,0c-0.1,0-0.2-0.1-0.2-0.1l0,0c-0.1-0.1-0.1-0.2-0.1-0.2c0-0.1,0-0.2,0-0.3h0
				c0-0.1,0.1-0.2,0.1-0.2c0.4-0.4,0.7-0.9,1-1.4v0c0.2-0.5,0.3-1.1,0.3-1.7c0-0.6-0.1-1.2-0.3-1.7c-0.2-0.5-0.5-1-1-1.4
				c-0.1-0.1-0.2-0.3-0.2-0.4c0-0.1,0.1-0.3,0.2-0.4C87.7,25,87.9,25,88,25c0.1,0,0.3,0.1,0.4,0.2l0,0C88.7,25.4,88.9,25.7,89.1,26
				L89.1,26z"/>
		</g>
	</g>
</g>
</svg>
