<?xml version="1.0" encoding="utf-8"?>
<!-- Generator: Adobe Illustrator 27.1.1, SVG Export Plug-In . SVG Version: 6.00 Build 0)  -->
<svg version="1.1" id="Layer_1" xmlns="http://www.w3.org/2000/svg" xmlns:xlink="http://www.w3.org/1999/xlink" x="0px" y="0px"
	 viewBox="0 0 65.8 87.3" style="enable-background:new 0 0 65.8 87.3;" xml:space="preserve">
<style type="text/css">
	.st0{fill:none;stroke:#575654;stroke-width:0.216;stroke-linecap:round;stroke-linejoin:round;stroke-miterlimit:10;}
	.st1{fill:none;stroke:#575654;stroke-width:0.216;stroke-linejoin:bevel;stroke-miterlimit:22.926;}
	.st2{fill:#FFFFFF;}
	.st3{fill:none;stroke:#575654;stroke-width:0.283;stroke-miterlimit:22.926;}
	.st4{fill:none;stroke:#575654;stroke-width:0.339;stroke-linecap:round;stroke-linejoin:round;stroke-miterlimit:10;}
	.st5{fill:none;stroke:#575654;stroke-width:0.107;stroke-linecap:round;stroke-linejoin:round;stroke-miterlimit:10;}
</style>
<path class="st0" d="M50.7,44.6h1.1 M49,44.6h1.1 M17.8,44.6h0.9 M16.5,44.6h0.9 M5.4,44.8h0.5 M59.9,44.8h0.5 M17.3,45.1h0.5
	 M17.3,45.4h0.5 M50.1,45.7h0.5 M45.8,46.7h1.8 M45.8,47h1.5 M47.3,44.3l-0.6,0 M5.3,53.7L5,53.9 M4.2,51.9l0.2-0.1 M3.9,51.3
	l0.2-0.1 M61,25.7L61,25.7 M60.5,25.1L60.5,25.1 M60.6,25.6L60.3,26 M60.5,25.1v-9.4 M60.5,48.8v-9.4 M60.4,39.3v5.5 M60.4,19.2v6
	 M59.9,25.2v-6 M59.9,44.8v-5.5 M45.1,45.8l-0.3,0 M62.8,50.8l-0.7-0.1 M3.1,48.5H2.5 M63.3,48.5h-0.6 M15.3,48.6h0.4 M61.1,49.3H63
	 M4.8,49.3H2.8 M17.9,50.9h3.9 M21.7,51.2h-3.7 M20.8,50.5l-3.1,0 M17.9,50.8l3,0 M21.9,50.9L21.9,50.9 M18.8,59L18.8,59 M23.8,54.2
	L23.8,54.2 M23.4,53.9l0.4-0.5 M23.4,53.4l-0.4,0.5 M18.3,58.4l-0.1,0.1 M60.8,55.2l-0.5-0.6 M60.6,55.5L60,54.7 M61.7,51.1l0.2,0.1
	 M61.5,51.8l0.2,0.1 M60.8,53.9l-0.2-0.1 M44.7,52.4h-1.1 M36.3,57.5h-5.7 M50.9,60.2l-0.4,0.1 M60.4,9.4l-0.2,0.1 M61.7,12.1
	l-0.2,0.1 M60.5,10.2l0.2-0.1 M61.9,12.7l-0.2,0.1 M62.8,13.2L62.8,13.2 M60.3,9.3l0.5-0.6 M60,9.3l0.6-0.8 M51.8,44.6v-0.5
	 M50.9,59v2.1 M50.7,44.1v-1.1 M50.7,45.7v-1.1 M50.6,60.6v0.7 M50.1,44.6v1.1 M50.1,42.9v1.1 M49,44.1v0.5 M47.9,58.4v-0.5
	 M47.5,57.9v0.5 M47.4,61.8v-0.7 M47.1,61.3L47.1,61.3 M47.1,61.7V59 M14.4,43.4L14.4,43.4 M30.4,57.6h6.1 M47.5,57.9h0.4
	 M17.9,57.9h0.4 M36.5,57.9h-6.1 M18.3,58.4h-0.4 M47.9,58.4h-0.4 M47.6,58.5h2.8 M15.5,58.5h2.8 M15.6,41.7L15.6,41.7 M15.7,41.7
	L15.7,41.7 M45.3,1.9l0,0.2 M45.8,46.7V47 M45.8,41.6V42 M44.6,5.7V6 M44.1,6V5.7 M44,5.9V2.1 M43.9,1.9L43.9,1.9 M43.7,2.3V1.9
	 M46.6,44.3l0.1,1 M47.3,58.5L47.1,58 M50.9,61.2L50.9,61.2 M23.7,34.4L23.7,34.4 M32.9,63.9l4,0c7.7-0.2,18.2,0.2,23.9-6.1l1.6-2.1
	l1.3-2.6c1.9-4.8,1.7-11.9,2-17.1l0.1-4 M15.3,46.8L15.3,46.8 M14.9,61.1L14.9,61.1 M36.8,30.7l-0.1,0.3 M30.1,57.9l0-0.3 M39.6,6.5
	v0.6 M39.4,1.7v0.6 M39.1,5.9V1.9 M39.1,1.7L39.1,1.7 M39,5.5V6 M38.5,6V5.5 M38,5.3v1 M37.6,63.3v-0.8 M36.5,31.1v-0.3 M36.5,57.9
	v-0.3 M37.6,62.5v-0.2 M37.6,63.3v0.2 M36.7,57.6l0.1,0.3 M30.2,31.1l0-0.3 M5.3,8.5l0.6,0.8 M5,8.7l0.5,0.6 M47.6,58.5l-0.1-0.1
	 M23.8,35.2l-0.4-0.5 M22.9,34.7l0.4,0.5 M47,59L47,59 M15.3,60.3l-0.4-0.1 M39.6,6.5L39.6,6.5 M5.9,54.7l-0.6,0.8 M5.5,54.6L5,55.2
	 M18.5,58.5l0.2-0.5 M34,5.1v1.5 M33.5,31.1v-0.3 M33.4,30.7v0.3 M32.9,62.6v-0.2 M32.9,58.6v3.8 M32.9,63.4v0.5 M32.9,1.3V0.1
	 M32.9,5.1V1.7 M32.9,62.4L32.9,62.4 M31.9,6.6V5.1 M5.4,25.2L5.4,25.2 M4.8,25.7L4.8,25.7 M15.7,46.9L15.7,46.9 M15.6,46.9
	L15.6,46.9 M39.1,5.9L39.1,5.9 M5.3,39.4L5.3,39.4 M4.8,38.8L4.8,38.8 M5.2,38.9l0.4-0.4 M28.2,63.3l0,0.2 M28.2,62.5v-0.2
	 M30.4,57.6v0.3 M30.4,30.7v0.3 M28.2,62.5v0.8 M27.8,6.3v-1 M27.3,5.5V6 M26.8,6V5.5 M26.7,5.9V1.9 M26.7,1.8L26.7,1.8 M26.5,2.3
	V1.7 M26.2,7.1V6.5 M20.4,2.1V1.9 M5.2,25.6L5.6,26 M15.4,42L15.4,42 M22.3,6.5v0.6 M22.2,1.9v0.4 M22,1.9L22,1.9 M21.9,5.9V2.1
	 M21.8,5.7V6 M21.3,6V5.7 M22.3,6.5l0.1-0.1 M21.9,5.9L21.9,5.9 M18.8,59v2.7 M18.7,44.6v-0.5 M18.5,61.1v0.7 M18.3,44.6v-0.5
	 M18.3,58.4v-0.5 M17.9,50.8v0.4 M17.9,37.4v0.4 M17.9,58.4v-0.5 M17.8,44.1v-0.9 M17.8,45.4v-0.9 M17.3,44.6v0.9 M17.3,43.2v0.9
	 M16.8,44.1v0.5 M16.5,44.1v0.5 M15.8,46.3v0.8 M15.8,41.5v0.7 M15.8,47.1v1.5 M15.8,40v1.5 M15.7,46.9v1.7V46.9z M15.7,40v1.6
	 M15.3,48.6v-1.8 M15.3,41.9V40 M15.2,61.3v-0.7 M4.8,49.3L4.8,49.3 M15.5,58.5L15.5,58.5 M5.4,48.9L5.4,48.9 M14.9,59L14.9,59
	 M5.3,15.7L5.3,15.7 M4.8,15.1L4.8,15.1 M14.9,61.1V59 M5.9,39.3v5.5 M5.9,19.2v6 M5.4,25.2v-6 M5.4,44.8v-5.5 M5.3,39.4v9.4
	 M5.3,15.7v9.4 M0.1,32l0.1,4l0.1,3.9l0.2,3.6l0.3,3.4l0.5,3.2l0.9,3l1.3,2.6c5.2,8.4,16.8,8,25.5,8.2l4,0"/>
<path class="st0" d="M21.7,51.2l0.8,1.2l0.9,1.1 M23.4,35.2l-0.9,1.1l-0.8,1.1 M36.5,57.5l1.7-0.4l1.6-0.6 M26.4,56l1.3,0.6l1.3,0.5
	l1.4,0.3 M41.6,55.3l1.1-0.9c1.7-1.3,3.4-4,4-6l0.4-1.4 M47.1,41.5l-0.4-1.4c-0.6-2.1-2.3-4.6-4-6l-1.1-0.9 M30.4,31.1l-1.4,0.4
	l-1.3,0.4l-1.3,0.6 M39.8,32.2l-1.6-0.6l-1.7-0.4 M23.4,53.9l0.4,0.4 M23.7,34.4l-0.4,0.4 M41.7,55.5l1.2-0.9c2-1.7,3.2-3.7,4-6.1
	l0.4-1.4 M39.9,32.1l-1.5-0.6l-1.6-0.4 M30.2,31.1l-1.3,0.3l-1.2,0.4l-1.2,0.6l-1.1,0.7l-1.1,0.8l-1,0.9 M47.3,41.6l-0.4-1.4
	c-0.7-2.4-2.2-4.5-4-6.2l-1.2-0.9 M36.7,57.6l1.6-0.4l1.5-0.6 M23.4,53.9l1,0.9l1.1,0.8l1.1,0.6l1.2,0.6l1.2,0.4l1.3,0.4 M40.2,31.9
	l-1.1-0.5L38,31.1l-1.2-0.3 M47.6,42l-0.3-1.4c-0.8-2.7-2.4-5.2-4.6-7l-1.1-0.8 M41.6,55.9l1.1-0.8c2.2-1.8,3.9-4.3,4.6-7l0.3-1.4
	 M36.8,57.9l1.2-0.3l1.2-0.4l1.1-0.5 M22.9,53.9l1,0.9l1.1,0.9l1.2,0.7l1.3,0.6l1.3,0.5l1.4,0.3 M30.1,30.7l-1.4,0.4l-1.3,0.5
	l-1.3,0.6L25,33l-1.1,0.9l-1,0.9 M2.8,48.5l0.2,0.9 M30.2,57.6h0.2 M30.4,57.5l0.2,0 M36.3,57.5l0.2,0 M30.2,57.6h0.2 M36.5,57.6
	h0.2 M30.1,57.9l0.3,0 M36.5,57.9l0.3,0 M30.6,57.5l-0.2,0.1 M36.5,57.6l-0.2-0.1 M36.7,57.6l-0.2-0.1 M30.4,57.5l-0.3,0.1
	 M14.9,60.7L14.9,60.7 M14.9,61l0.3,0 M3.5,49.3L3.5,49.3 M3.8,50.5L4,51.2 M3.2,50.5l0.1,0.2v0.1 M2.9,50L3,50.5 M17.9,37.8
	l-0.6,0.1l-0.6,0.2l-0.4,0.4L16,38.9l-0.2,0.5L15.7,40 M17.9,37.7l-0.6,0.1l-0.6,0.2l-0.4,0.4L16,38.9l-0.2,0.6L15.7,40 M17.9,37.4
	l-0.6,0.1c-1.2,0.4-1.5,0.8-1.9,1.9L15.3,40 M15.5,46.9l0.1,0 M15.4,41.8L15.4,41.8l0.2-0.1 M15.7,41.7L15.7,41.7 M15.4,41.8
	L15.4,41.8 M15.8,41.5L15.8,41.5 M15.8,47.1L15.8,47.1 M20.2,44.3l-0.1-0.6l-0.2-0.5c-1.1-2.2-4.2-1.9-4.8,0.5L15,44.3l0.1,0.6
	c0.5,2.4,3.7,2.7,4.8,0.5l0.2-0.5L20.2,44.3z M20.3,44.3l-0.1-0.6L20,43.2c-1.1-2.3-4.4-1.9-5,0.6l-0.1,0.6l0.1,0.6
	c0.6,2.5,3.9,2.9,5,0.6l0.2-0.6L20.3,44.3z M14.4,45.3l0.4,0.8l0.6,0.7 M15.3,41.9l-0.6,0.7l-0.4,0.8 M15.7,47L15.7,47 M15.6,41.7
	L15.6,41.7L15.6,41.7L15.6,41.7z M15.3,46.8L15.3,46.8 M14.4,43.4L14.4,43.4 M15.7,46.9L15.7,46.9L15.7,46.9 M18.8,58l-0.4-0.1
	 M15.7,48.6l0.1,0.6l0.2,0.5l0.4,0.5l0.4,0.3l0.6,0.2l0.6,0 M15.7,48.6l0.1,0.6l0.2,0.5l0.4,0.5l0.4,0.4l0.6,0.2l0.6,0 M15.3,48.6
	l0.1,0.6c0.3,1.1,0.9,1.6,1.9,1.9l0.6,0 M5.5,54.5l0.2,0.3 M5.2,55L5.2,55l0.2,0.2 M13.2,44.3l-0.1-0.5l-0.2-0.5L12.5,43L12,42.7
	l-0.5-0.1L11,42.7L10.5,43l-0.4,0.4l-0.2,0.5l-0.1,0.5l0.1,0.5l0.2,0.5l0.4,0.4l0.4,0.2l0.5,0.1l0.5-0.1l0.5-0.2l0.4-0.4l0.2-0.5
	L13.2,44.3z M13.4,44.3l-0.1-0.5l-0.2-0.4c-0.9-1.4-2.9-1.1-3.4,0.4l-0.1,0.5l0.1,0.5c0.5,1.6,2.5,1.9,3.4,0.5l0.2-0.5L13.4,44.3z
	 M13.6,44.3l-0.1-0.5l-0.2-0.5c-1-1.6-3.4-1.4-3.9,0.5l-0.1,0.5l0.1,0.6c0.5,1.9,2.9,2.2,3.9,0.5l0.2-0.5L13.6,44.3z M13.7,44.3
	l-0.1-0.6l-0.2-0.5c-1-1.8-3.5-1.4-4.1,0.5l0,0.6l0,0.6c0.6,1.9,3.1,2.3,4.1,0.5l0.2-0.5L13.7,44.3z M14.3,43.5L14,42.9l-0.4-0.6
	c-1.6-1.8-4.6-1-5.1,1.3l-0.1,0.6l0.1,0.6c0.5,2.3,3.5,3.1,5.1,1.3l0.4-0.5l0.3-0.6 M14.4,43.4l-0.3-0.6l-0.4-0.5
	c-1.6-1.7-4.3-1-5.1,1.1L8.4,44v0.7c0.3,2.5,3.5,3.7,5.3,1.8l0.4-0.6l0.3-0.6 M5.4,39.3l0-0.2l-0.2-0.2 M5.3,39.4l-0.1-0.2l-0.2-0.2
	l-0.3-0.1 M5.9,39.3l-0.1-0.4l-0.3-0.4 M2.9,49.9L2.9,49.9 M47.3,41.6l-0.2-0.1 M63,20.1l0-0.3 M63,44.2l0-0.3 M44.6,5.7V5.2
	 M63.5,44.2v-0.3 M27.3,5.5V5 M60.3,38.5l0.1-6.5l-0.1-6 M26.8,5.2l-0.1-3.4 M44.1,5.5L44,2 M27.3,5l0-3.2 M18.8,61.8l0-2.8
	 M50.9,61.2l0-2.1 M26.5,1.7l-4.1,0.2 M43.5,1.9l-4.1-0.2 M30.8,1.7l-3.5,0 M29.4,1.6l-2.9,0.1 M39.4,1.7l-3.1-0.1 M38.5,5l-5.6-0.1
	 M38.5,1.7l-3.7,0 M32.9,4.9L27.3,5 M32.9,1.7l-2.1,0 M4.5,14.5l-1.8,0 M4.6,38.2l-2.8,0 M63.1,14.5l-1.8,0 M4.8,38.8l-3,0
	 M4.8,15.1l-2.2,0 M64,38.8l-3,0 M63.2,15.1l-2.2,0 M64,38.3l-2.8,0 M17.9,58.4h-1.7 M43.7,1.9h0.2 M22,1.9L22,1.9 M43.9,1.9
	L43.9,1.9 M43.7,1.9h0.2 M22,1.9h0.2 M21.9,2.1h0.3 M43.7,2.1H44 M21.9,2.3h4.8 M39.1,2.3H44 M44,2.5h-4.9 M26.7,2.5h-4.8 M32.9,0.1
	l-4,0C20.2,0.4,8.7-0.1,3.4,8.4l-1.3,2.6l-0.9,3l-0.5,3.2l-0.3,3.4l-0.2,3.6L0.2,28l-0.1,4 M49,2.3L49,2.3 M28.3,5.1h9.1 M27.3,5.5
	h-0.5 M39,5.5h-0.5 M44.6,5.7h-0.5 M21.8,5.7h-0.5 M44.1,6h0.5 M38.5,6H39 M26.8,6h0.5 M21.3,6h0.5 M43.4,6.4h-3.7 M26.2,6.4h-3.7
	 M39.6,6.5h3.9 M22.3,6.5h3.9 M37.5,6.6h-9.1 M41,7.1h-1.4 M26.2,7.1h-3.9 M41.5,7h2.2 M61.1,15.2h2.1 M2.7,15.2h2.1 M62.7,15.5h0.6
	 M2.5,15.5h0.6 M62.1,13.3l0.7-0.1 M5.9,19.2H5.4 M60.4,19.2h-0.5 M2.7,19.8H2.1 M63.8,19.8h-0.6 M62.7,20.1h0.9 M3.1,20.1H2.2
	 M3,13.2l0.7,0.1 M59.9,25.2h0.5 M5.4,25.2h0.5 M63.9,25.7h-2.9 M4.8,25.7H1.9 M60.4,15.6L60.4,15.6 M61.1,15.2L61.1,15.2
	 M30.4,30.7h6.1 M30.4,31.1h6.1 M30.6,31.1h5.7 M50.5,58.4L50.5,58.4 M50.9,59L50.9,59 M61,49.4L61,49.4 M60.5,48.8L60.5,48.8
	 M44.1,6L44.1,6 M43.4,6.4L43.4,6.4 M5.5,32H0.1 M60.4,32h5.3 M44.7,36.3h-1.1 M14.4,45.3L14.4,45.3 M21.9,37.7L21.9,37.7 M21,37.9
	l-3-0.1 M17.7,38.1l3.1,0.1 M17.9,37.4h3.7 M21.9,37.7h-3.9 M61.1,38.8h2.8 M1.9,38.8h2.8 M5.9,39.3H5.4 M60.4,39.3h-0.5 M15.8,40
	h-0.4 M47.3,41.6h-1.5 M45.1,42.8l-0.3,0 M5.5,54.5l0.2-0.1 M65.7,32l-0.1-4l-0.1-3.8c-0.4-5.1-0.2-11.3-3.1-15.8l-1.6-2.1l-1.9-1.7
	c-5-3.8-12-4.1-18.1-4.3l-3.9-0.1l-4,0 M60.6,38.9l-0.4-0.4 M61.1,38.8L61.1,38.8 M60.4,39.3L60.4,39.3 M26.8,6l-0.1-0.1 M26.2,6.4
	L26.2,6.4 M4.1,12.8l-0.2-0.1 M5.1,10.1l0.2,0.1 M4.4,12.2l-0.2-0.1 M47.6,42h-1.8 M50.7,42.9h-0.5 M17.8,43.2h-0.5 M17.8,43.6h-0.5
	 M62.7,43.9h0.9 M3.1,43.9H2.2 M17.3,44.1h-0.9 M18.7,44.1h-0.9 M50.1,44.1H49 M51.8,44.1h-1.1 M63.2,44.2h0.6 M2.1,44.2h0.6
	 M14.2,44.3h0.2"/>
<path class="st0" d="M39.4,1.8h-0.2 M49,2.5V2.3 M62.9,13.2l-0.6-1.9 M63.8,19.8l-0.2-2.1l-0.3-2.1 M50,2.5L52.2,3
	c12.3,3.4,11.4,13.5,11.9,24.4l0.1,4.6 M62.2,52.7l0.6-1.9h0 M47.4,61.8l3.2-0.5 M63.3,48.5l0.3-2.1l0.2-2.1 M3.1,15.5l-0.3,2.1
	l-0.2,2.2 M5.5,9.3L5,10.2l-0.5,1l-0.4,1l-0.4,1.1 M3.7,50.8H3 M3.8,50.8l0.3,1.1l0.4,1L5,53.8l0.5,0.9 M2.7,44.2l0.4,4.3
	 M15.2,60.6l3.2,0.5 M60.3,54.6l0.5-0.9l0.5-1l0.8-2.1 M47.4,61.1l3.2-0.5 M62.7,48.5l0.4-4.3 M62.1,13.3l-0.8-2.1l-0.5-1l-0.5-0.9
	 M63.2,19.8l-0.4-4.3 M30.8,1.6L30.8,1.6 M26.7,1.7L26.7,1.7l-0.2,0 M34.9,1.6L34.9,1.6 M39.4,1.8L39.4,1.8l-0.2,0 M2.9,19.8
	l0.3-2.9 M3.1,47.1l-0.3-2.9 M63,44.2l-0.3,2.9 M62.7,16.9l0.3,2.9 M47.1,61.4L47.1,61.4 M39.4,2.2h-0.2 M26.7,2.2h-0.2 M14.9,60.7
	L14.9,60.7 M39.1,2.2h0.2 M26.5,2.2h0.2 M26.7,2.2h-0.2 M39.4,2.2h-0.2 M21.3,5.2v0.5 M2.3,43.9v0.3 M2.3,19.8v0.3 M38.5,5v0.5
	 M5.6,38.5L5.5,32l0.1-6 M14.2,59.3l0,1.7 M21.3,2v3.2 M47,59l0,2.8 M14.9,59v2.1 M39.1,1.8L39,5.2 M21.8,2l0,3.5 M38.5,1.7l0,3.2
	 M46.5,59.3l0,2.6 M61.3,50H63 M61.3,26.3l2.8,0 M61,25.7l3,0 M61,49.4l2.1,0 M1.8,25.7l3,0 M2.7,49.4l2.1,0 M1.8,26.2l2.8,0
	 M43.3,1.9h0.2 M22.3,1.9h0.2 M44,1.9l0.4,0 M21.5,1.9l0.4,0 M28.2,63.5l4.7,0 M28.2,62.4l4.7,0 M37.6,63.3l-4.7,0l-4.7,0
	 M28.2,62.5l4.7,0l4.7,0 M32.9,63.5l4.7,0 M32.9,62.4l4.7,0 M60.4,25.2l0,0.2l0.2,0.2 M60.5,25.1l0.1,0.3l0.2,0.2l0.3,0 M59.9,25.2
	l0.1,0.4l0.3,0.4 M60.3,9.5l-0.2-0.3 M60.7,9l-0.2-0.2l0,0 M49,2.3L50,2.5 M39,5.2v0.3 M21.8,5.5v0.2 M2.9,19.8l0,0.3 M60.6,38.9
	l-0.2,0.2l0,0.2 M47.6,58.5l-0.3,0.1l-0.2,0.2L47.1,59 M50.9,59l-0.1-0.2l-0.2-0.2l-0.3-0.1 M61.1,38.8l-0.3,0.1l-0.2,0.2l-0.1,0.2
	 M60.3,38.5L60,38.8l-0.1,0.4 M47.5,57.9L47.1,58 M52.5,44.3l-0.1-0.5l-0.2-0.5c-1-1.7-3.3-1.3-3.9,0.5l-0.1,0.5l0.1,0.6
	c0.6,1.8,2.9,2.2,3.9,0.5l0.2-0.5L52.5,44.3z M53.1,44.3L53,43.7l-0.2-0.6c-1.1-2.3-4.4-1.9-5,0.6l-0.1,0.6l0.1,0.6
	c0.6,2.5,3.9,2.9,5,0.6l0.2-0.6L53.1,44.3z M51.5,61.1L51.5,61.1 M60.1,54.8l0.2-0.3 M60.7,55L60.7,55l-0.2,0.2 M2.8,43.9l0,0.3
	 M43.3,1.9h0.3 M33.9,1.4l2.3,0.2 M29.4,1.6l2.3-0.2 M34,1.5l0.8,0.1 M29.2,1.7l1.6-0.1 M30,1.7l0.7,0 M34.1,1.5l0.8,0.1 M34.9,1.6
	l0.8,0 M30.8,1.6l0.8-0.1 M34.9,1.6l1.6,0.1 M30.8,1.6l0.8-0.1 M43.5,1.9h0.9 M43.7,1.9h0.2 M18.5,61.3l0.3,0 M47.1,61.3l0.3,0
	 M39,6l0.1,0.3l0.2,0.2l0.3,0 M43.5,6.5l0.3,0L44,6.3L44.1,6 M43.4,6.4l0.3-0.1l0.2-0.2L44,5.9 M39.1,5.9l0.1,0.3l0.2,0.2l0.3,0.1
	 M37.5,6.6l0.3-0.1L38,6.3l0.2-0.2l0-0.3l0-0.3L38,5.3l-0.2-0.2l-0.3,0 M43.9,7l0.2-0.1 M44.1,6.9l0.2-0.2l0.2-0.3L44.6,6 M38.5,6
	l0.1,0.4l0.2,0.4L39.2,7l0.4,0.1 M43.7,7L43.9,7 M31.7,1.4L31.7,1.4 M49,2.3L47.1,2l-1.9-0.1 M48.4,2.3l-1.5-0.2l-1.6-0.1
	 M62.4,15.2L62.4,15.2 M62,13.4l-0.2-0.6 M62.7,13.6l-0.1-0.3 M63.1,14.5l-0.2-1 M47.1,61.6l0.3,0 M40.2,31.9l-0.1,0.3l0,0.3
	l0.1,0.2l0.2,0.2l0.3,0.1h0.3l0.2-0.1l0.2-0.2 M36.7,31.1h-0.2 M36.5,31.1h-0.2 M36.7,31.1h-0.2 M39.9,32.1v0.5L40,33l0.3,0.3
	l0.4,0.1l0.4,0l0.4-0.2 M39.8,32.2l0,0.4l0.2,0.4l0.3,0.3l0.4,0.1h0.4l0.4-0.2 M36.8,30.7h-0.3 M63.1,15.5L63,15.2 M49.8,2.6L49,2.3
	 M26.2,6.5l0.3,0l0.2-0.2L26.8,6 M28.3,5.1l-0.3,0l-0.2,0.2l-0.2,0.2l0,0.3l0,0.3l0.2,0.2l0.2,0.2l0.3,0.1 M26.2,7.1L26.6,7L27,6.8
	l0.2-0.4L27.3,6 M33.9,1.4l-1-0.1l-1.3,0.1 M34,1.5l-1.2-0.1l-1.2,0.1 M34.9,1.7l-1-0.2l-1.1-0.1l-1,0.1l-1,0.2 M36.5,1.7l-0.2-0.1
	 M29.4,1.6l-0.2,0.1 M34,1.5L34,1.5 M18.5,61.5l0.3,0 M30.6,31.1h-0.2 M30.4,31.1h-0.2 M30.4,30.7h-0.3 M36.4,31.1l0.2,0 M30.4,31.1
	l0.2,0.1 M30.2,31.1l0.2,0.1 M36.6,31.1l0.2-0.1 M2.8,15.2l0,0.3 M15.4,2.7l0.7-0.3l0.5-0.1 M22.2,1.9h0.3 M15.3,2.6l0.9-0.2
	 M21.5,1.9h0.9 M22,1.9h0.2 M47.1,47.1l0.2-0.1 M5.2,25.6l0.1-0.2l0.1-0.2 M21.8,6l0.1,0.3l0.2,0.2l0.2,0 M21.9,5.9l0.1,0.3l0.2,0.2
	l0.3,0.1 M4.8,25.7l0.3,0l0.2-0.2l0.1-0.3 M5.6,26l0.3-0.4l0.1-0.4 M21.3,6l0.1,0.4l0.2,0.4L21.9,7l0.4,0.1 M5.8,9.1L5.5,9.5 M5.2,9
	l0.2-0.2l0,0 M20.4,1.9L18.5,2l-1.8,0.3 M20.4,2.1l-1.9,0.1l-1.9,0.3 M4,12.8l-0.2,0.6 M3.4,15.2L3.4,15.2 M3.3,13.3l-0.1,0.2
	 M3,13.6l-0.2,1 M26.8,5.5V5.2 M44.1,5.7V5.5 M45.8,42L45.5,42l-0.2,0.2l-0.2,0.2v0.3 M45.8,41.6l-0.4,0.1L45,42l-0.2,0.4l0,0.4
	 M61.8,51.2l0.2-0.6 M62.3,49.3L62.3,49.3 M62.9,50.5L63,50 M62.9,49.3l0.2-0.9 M50.6,61l0.3,0 M62.1,50.4L62.1,50.4 M45.1,45.8v0.3
	l0.2,0.3l0.2,0.2l0.3,0.1 M41.6,55.9l-0.2-0.2c-0.6-0.4-1.2,0.1-1.2,0.7l0.1,0.3 M44.7,45.8l0,0.4l0.2,0.4l0.4,0.3l0.4,0.1
	 M41.7,55.5l-0.4-0.2l-0.4,0l-0.4,0.2L40,55.6L39.9,56v0.4 M41.6,55.3l-0.4-0.2l-0.4,0l-0.4,0.2L40,55.6L39.8,56l0,0.4 M50.9,60.7
	L50.9,60.7 M62.6,50.7l0.1-0.3 M44.7,45.8l0.1-1.5l-0.1-1.5 M45.1,45.8l0.1-1.5l-0.1-1.5 M40.6,55l1.1-0.7l1-0.9l0.9-1 M43.6,36.3
	l-0.9-1l-1-0.9l-1.1-0.7 M19.8,45.8l0.2,1.3l0.4,1.3l0.5,1.3l0.6,1.2 M23.7,53.5l1.1,0.9c7.2,5.3,17.2,1.9,19.8-6.6l0.3-1.4
	 M44.9,42.2l-0.3-1.4c-2.5-8.6-12.7-11.9-19.8-6.6l-1.1,0.9 M21.5,37.7L20.9,39l-0.5,1.3L20,41.5l-0.2,1.3 M20.2,44.5l0.1,1.4
	c2,13.4,20.2,15.1,24.6,2.3l0.4-1.4 M45.4,41.7L45,40.4c-4.5-12.7-22.6-11.1-24.6,2.3l-0.1,1.5 M21.9,50.9l0.9,1.3l1.1,1.2
	 M23.8,35.2l-1.1,1.2l-0.9,1.3 M21,37.7l-0.7,1.5l-0.5,1.5l-0.4,1.6 M33,31.2h-1.5c-2.5,0.2-4.9,1-6.9,2.6l-1.2,1 M23.4,53.9l1.1,1
	c2.1,1.5,4.3,2.4,6.9,2.6h1.5 M19.4,46.3l0.4,1.6l0.5,1.5l0.7,1.5 M45.8,41.6l-0.4-1.3c-1.5-5-6.3-8.8-11.5-9.1l-1.4,0 M32.3,57.4
	h1.5c5.3-0.3,10.1-4,11.6-9.1l0.4-1.4"/>
<path class="st0" d="M60.2,16.5l-0.3,2.7l-0.3-2.9C58.6,9.1,54.1,6.8,47.5,6l-2.9-0.3 M14.4,43.4L14.4,43.4 M14.3,43.5L14.3,43.5
	 M61,38.8l0.1-0.1l0.1-0.1l0.1-0.3 M44.6,5.2l2.7,0.2c6.4,0.8,11.4,2.8,12.7,9.8l0.2,1.3 M60.8,38.3l0.2-6.3 M61,38.8l-0.2,0
	l0.1-0.2l0-0.3l0.5-0.1 M60.2,49l0.2-0.1v-4.1 M61,49.4l0.2,0.1l0.1,0.2l0.1,0.4 M61.3,50l-0.4-0.1l-0.4-0.2l-0.2-0.4L60.2,49
	 M14.5,43.5l-0.2,0l-0.1,0.8 M60.7,25.7l0.1,0.2l0,0.2 M14.3,45.1l-0.1-0.8 M60.6,25.6l0.1,0.1 M60.3,26l0.6,0.2 M60.8,38.3
	l-0.5,0.2 M14.4,45.3L14.4,45.3l-0.1-0.1v0 M60.7,38.8l-0.1,0.1 M14.3,45.1h0.2 M60.4,47.4l-0.2,0 M15.5,46.9L15.5,46.9 M15.7,46.9
	L15.7,46.9L15.7,46.9 M15.7,46.9L15.7,46.9 M15.8,47L15.8,47 M15.7,46.9L15.7,46.9 M49.7,58.2l-1.7-0.2 M59.9,44.8l0.3,2.6
	 M50.5,58.2h-0.9l2-0.5c4.4-1.2,7.1-3.8,8.1-8.2l0.4-2V49 M51.6,61v-0.3v-1.1l0-0.3 M50.5,58.4h-2.5 M47,59l0.1-0.3 M47.3,58.5
	l0.2,0 M47,59l0,0.2l-0.2,0.1l-0.3,0.1 M46.7,58.6l-0.2,0.3l0,0.4 M19.3,61.8l0-2.6l0-0.4l-0.2-0.3 M49.7,58.2l-0.1,0.3 M18.3,58.4
	h0.1l0.1,0l0.2,0.2l0.2,0l0.2-0.1 M18.7,58.6l0.1,0.3 M15.3,58.2l0.1,0.3h0.9 M15.8,47L15.8,47 M21.9,50.9L21.9,50.9L21.6,51l0,0.2
	 M23.4,53.4l0.2,0.1l0.2-0.1 M23.4,53.9h-0.4 M47.3,58.5l-0.2,0.2l-0.2,0l-0.2-0.1 M30.2,57.6L30.2,57.6 M46.7,58.6l0.1-0.3l0.2-0.3
	 M5.4,48.9L5.7,49 M5.7,49l-0.1,0.4l-0.2,0.4L5,49.9L4.5,50 M5.4,48.9l0,0.2l-0.1,0.2l-0.4,0.2 M46.7,58.6l-3.4,0.2L39.8,59
	l-6.9,0.1 M32.9,59.1L26,59l-3.4-0.2l-3.4-0.2L19,58.3L18.8,58 M4.8,49.4l-0.2,0.1l-0.1,0.2L4.5,50 M5.7,49v-1.5l0.4,2
	c1.1,4.5,3.8,7,8.1,8.2l2,0.5h-0.9 M2.9,50h0.3h1.1h0.3 M5.4,47.4l0.2,0 M5.4,48.9v-4.1 M4.8,38.8l0.2,0 M4.8,38.8l-0.1-0.1
	l-0.1-0.1l-0.1-0.3 M4.6,38.2L5,38.3L4.9,32 M5,26.2L4.9,32 M4.8,25.7l0.2,0L5,26l0,0.2l-0.4,0.1 M5.7,15.6l-0.2,0v3.6 M5.7,16.6
	H5.4 M16.2,58.4l-0.1-0.3 M5.7,47.5l0.3-2.6 M17.9,57.9l-1.7,0.2 M41.6,55.3l0,0.2l-0.1,0.4 M41.6,33.3l0-0.1 M5.1,38.8L5,38.6
	l0-0.3 M39.8,32.2l0.1-0.1l0.4-0.2 M36.7,31.1L36.7,31.1 M5.2,38.9l-0.1-0.1 M5.6,38.5L5,38.3 M5,26.2L5.6,26 M30.4,31.1L30.4,31.1
	 M5.1,25.7l0.1-0.1 M36.4,31.1L36.4,31.1 M23.4,34.7h-0.4 M23.8,35.2l-0.2-0.1l-0.2,0.1 M21.9,37.7L21.9,37.7l-0.2-0.1l0-0.2
	 M5.9,19.2l-0.3-2.6 M21.3,5.2l0.3,0l0.1,0.1l0.1,0.2 M17.9,37.8l-0.2,0.1l0,0.2 M15.8,40l0.2-0.8l0.4-0.6l0.6-0.4l0.7-0.2
	 M15.8,41.5L15.8,41.5 M15.8,41.6L15.8,41.6 M21.3,5.2l-2.7,0.2C12.2,6.2,7.2,8.2,5.9,15.2l-0.2,1.3v-1 M4.8,25.7l-0.1,0.1L4.6,26
	l-0.1,0.3 M36.6,31.1L36.6,31.1 M41.7,33.2l-0.1-0.4 M47.3,41.6l0.4,0.3 M47.6,46.7L47.3,47 M39.8,56.4l0.1,0.1l0.4,0.2 M15.8,48.6
	l0.2,0.8l0.4,0.6l0.6,0.4l0.7,0.1 M17.7,50.5l0,0.2l0.2,0.1 M27.7,5.5h-0.4 M39,5.2L39,5.1L38.8,5l-0.3,0 M14.9,59l-0.1,0.2
	l-0.2,0.1l-0.4,0l0.1-0.4l0.2-0.4l0.4-0.2l0.4-0.1 M14.9,59l0.1-0.4l0.2-0.1l0.2,0 M18.9,59l0,0.2l0.1,0.1l0.3,0.1 M51,59l0.1,0.2
	l0.2,0.1l0.4,0 M50.5,58.4l0.1-0.3l0.4,0.1l0.4,0.2l0.2,0.4l0.1,0.4 M50.5,58.4l0.2,0l0.2,0.1L51,59 M61,49.4l-0.4-0.1l-0.1-0.2
	l0-0.2 M4.8,15.1l0.2,0l0.2,0.1l0.1,0.2l0,0.2 M4.8,15.1L4.7,15l-0.1-0.2l-0.1-0.4L5,14.6l0.4,0.2l0.2,0.4l0.1,0.4 M5.9,19.2
	l0.3-2.9C7.2,9.1,11.8,6.8,18.4,6l2.9-0.3 M63.7,20.1l0.3,5.6 M62.2,15.2l0.4,2.4l0.2,2.5 M63.1,14.5l0.1,0.6l0,0 M64,26.2l0.1,5.8
	 M64,26.2l0-0.5l0,0 M63.9,38.8L63.9,38.8l0.1-0.6 M64.1,32L64,38.3 M63,50l0.1-0.6l-0.1,0 M62,50.3l0.9,0.1 M60.1,54.4l0.2,0.1
	 M60,54.7l0.6-1l0.5-1.1l0.4-1.1l0.4-1.2 M46.5,61.8l-3.4,0.2l-3.4,0.1l-6.8,0.1 M32.9,62.3l-6.8-0.1l-3.4-0.1l-3.4-0.2 M3.8,49.3
	l-0.4-2.7l-0.2-2.8 M1.8,26.2L1.7,32l0.1,6.3l0,0.5l0.1,0l0.2,5 M5.7,9.5L5.5,9.4 M5.9,9.3l-0.6,1l-0.5,1l-0.4,1.1l-0.4,1.2
	 M3.9,13.5H3 M2.7,14.5l-0.1,0.6l0,0 M1.9,25.7l0.3-5.6 M3.1,20.1l0.2-2.5l0.3-2.4 M1.8,26.2l0-0.5l0,0 M5.3,55.5l0.8,1.1
	c1.8,2,4.3,3.4,6.9,4.1l1.3,0.4 M14.2,61l0.6,0.1 M2.8,49.3L2.8,49.3l0,0.6 M3,50.5h0.9l0.4,1.2l0.4,1.1l0.5,1l0.6,1 M18.8,60.8
	l-3.5-0.5 M18.8,61.7L18.8,61.7l0.5,0.1 M47.1,61.7L47.1,61.7l-0.5,0.1 M50.5,60.3l-3.5,0.5 M50.9,61.2l0.6-0.1 M51.6,61l1.3-0.4
	c2.6-0.8,5-2.1,6.9-4.1l0.8-1.1 M62.7,43.9l-0.2,2.8l-0.4,2.7 M63.9,38.8l-0.2,5 M62.9,13.5L62,13.6 M62,13.6l-0.4-1.2l-0.4-1.1
	l-0.5-1.1l-0.6-1 M60.6,8.5l-0.7-0.9c-3.2-3.8-8.4-5-13.1-5.5L44.5,2 M44.5,2H44l0,0.1 M21.9,2.1L21.9,2.1 M21.8,2h-0.6
	C15.8,2.4,9.6,3.2,5.9,7.6L5.3,8.5 M39.1,1.9L39.1,1.9 M39.1,1.8l-0.6,0 M27.3,1.7l-0.6,0v0l0,0 M3.6,11.3L4.2,10L5,8.7L4.2,10
	L3.6,11.3z M3,50.8l0.6,1.9L4.2,54L5,55.2L4.2,54l-0.6-1.3 M3,50.8L3,50.8h0.7 M3,13.2l0.7,0.1 M2.1,44.2l0.2,2.1l0.3,2.1
	 M15.2,61.3l3.2,0.5 M62.9,50.8l-0.7-0.1 M3.6,11.3L3,13.2l0,0 M2.5,15.5l-0.3,2.1l-0.2,2.1 M60.8,55.2l0.8-1.3l0.6-1.3L61.6,54
	L60.8,55.2z M1.6,32l0.1-4.5C2.2,17,1.2,6.8,13.1,3.2l2.2-0.6l-0.4,0.2 M62.2,11.3L61.6,10l-0.8-1.3l0.8,1.3L62.2,11.3z M18.8,61.6
	L18.8,61.6 M62.1,13.3l0.7-0.1 M47.1,61.6L47.1,61.6 M16.6,2.5V2.3 M22,1.9h0.2 M26.7,1.8h-0.2 M34.9,1.6L34.9,1.6 M30.7,1.6
	L30.7,1.6 M62.6,50.7L62.6,50.7 M62.9,49.3L62.9,49.3 M26.5,1.7l-4,0.2 M63.5,19.8v0.3 M63,15.2L63,15.2 M62.6,13.2L62.6,13.2
	 M22,1.9h-0.2 M21.5,1.9h-1.1 M32.9,1.1l-6.8,0.1l-3.4,0.2C18.3,1.5,13.4,2,9.4,4.1L8,5L6.6,6C3,9.5,2,13.5,1.6,18.4l-0.4,6.8
	L1.1,32 M32.9,0.3l-7,0.1l-3.5,0.1C17.1,0.8,12,1.3,7.4,4.4L6.1,5.5L4.8,6.7C2,10,1.2,13.8,0.8,18.1l-0.4,7l-0.2,7 M64.8,32
	l-0.2-6.8l-0.4-6.8c-0.3-4-1.1-8-3.8-11.1L59.2,6L57.9,5c-4.4-2.9-9.5-3.5-14.7-3.6l-3.4-0.2l-6.8-0.1 M65.6,32l-0.2-7l-0.4-7
	c-0.5-4.4-1.1-7.8-4-11.3l-1.2-1.3l-1.4-1.1c-4.5-3-9.7-3.6-15-3.8l-3.5-0.1l-7-0.1 M37.6,63.5l0.3-0.1l0.2-0.1l0.3-0.4l6.2-0.3
	l3-0.2c4.1-0.5,8.1-1.5,11.3-4.2l1.1-1.1l1-1.2c2.5-3.3,3-7.6,3.3-11.6l0.3-6.2l0.1-6.1 M32.9,63.7l7-0.1l3.5-0.2
	c5.3-0.3,10.5-0.8,15-3.8l1.4-1.1l1.2-1.3c2.9-3.5,3.6-6.9,4-11.3l0.4-7l0.2-7 M37.6,62.5l0.3,0.1l0.2,0.2 M37.6,62.4l0.5,0.1
	l0.2,0.1l0.1,0.2h-0.2L38,63.2l-0.4,0.2 M1.6,32l0.1,6.7l0.4,6.7C3,60.5,13.3,62,26.2,62.3l6.7,0.1l6.7-0.1
	c12.9-0.2,23.2-1.8,24.1-16.9l0.4-6.7l0.2-6.7 M28.2,62.4l-0.5,0.1l-0.2,0.1l-0.1,0.2 M28.2,63.3l-0.4-0.2l-0.2-0.3l0.2-0.2l0.3-0.1
	 M27.4,62.9h0.2 M1.1,32l0.1,6.1l0.3,6.2c0.3,4,0.8,8.3,3.3,11.6l1,1.2l1.1,1.1c3.2,2.7,7.3,3.7,11.3,4.2l3,0.2l6.2,0.3l0.3,0.4
	l0.2,0.1l0.2,0.1 M0.3,32l0.2,7l0.4,7c0.4,4.3,1.2,8,4,11.3l1.2,1.3l1.4,1.1c4.5,3,9.7,3.6,15,3.8l3.5,0.2l7,0.1 M39.1,2h0.2
	 M26.5,2h0.2 M3.3,13.3L3.3,13.3 M2.8,15.2L2.8,15.2 M45.3,1.9h-0.9 M2.9,49.3L2.9,49.3 M44,1.9h-0.2 M43.3,1.9l-4-0.2"/>
<path class="st0" d="M61.1,15.2H61l-0.1,0l-0.1,0l-0.1,0.1l0,0.1l-0.1,0.1v0.1l0,0.1 M4.8,49.3h0.1l0.1,0l0.1,0l0.1,0l0-0.1L5.3,49
	v-0.1l0-0.1 M5.3,15.7L5.3,15.7l0-0.2l-0.1-0.1l0-0.1l-0.1-0.1l-0.1,0l-0.1,0H4.8 M26.2,6.4h0.1c0.3-0.1,0.2-0.1,0.4-0.4V5.9
	 M15.5,58.5h-0.1l-0.1,0l-0.1,0l-0.1,0.1l0,0.1l-0.1,0.1V59l0,0.1 M18.8,59L18.8,59l0-0.2l-0.1-0.1l0-0.1l-0.1-0.1l-0.1,0l-0.1,0
	h-0.1 M60.5,48.8l0,0.1V49l0.1,0.1l0,0.1l0.1,0l0.1,0l0.1,0h0.1 M43.7,7l-0.2-0.5 M60.4,15.6l0-0.2l0.1-0.2l0.2-0.1l0.2,0
	 M60.4,15.6l-0.2,0l0.1-0.4l0.2-0.4l0.4-0.2l0.4-0.1 M41.5,7l-0.5,0 M61,15.1l0.2-0.1l0.1-0.2l0.1-0.4 M38.5,5.5h-0.4 M60.2,15.6
	v0.9 M44.6,5.2l0-3.2 M60.4,16.6l-0.2,0 M60.4,15.6v3.6 M61,25.7l-0.2,0 M61,25.7l0.1,0.1l0.1,0.1l0.1,0.3 M61.3,26.3l-0.4-0.1
	L61,32 M17.9,57.9l-2.4-0.4C9.6,56.1,7,53.3,6.2,47.3l-0.2-2.4 M47.1,58l-3.5,0.3L40,58.4l-7,0.1l-7.1-0.1l-3.5-0.2L18.8,58
	 M59.9,44.8l-0.2,2.4c-0.8,6-3.5,8.8-9.3,10.2l-2.4,0.4 M44.6,5.2l-0.3,0l-0.1,0.1l-0.1,0.2 M27.3,5L27,5l-0.2,0.1l0,0.1 M15.7,41.7
	L15.7,41.7l0-0.1 M15.7,41.7L15.7,41.7"/>
<path class="st1" d="M31.7,47.4 M31.7,47.4l-0.2,0.1 M31.7,47.2l-0.2,0.1 M30.7,47.9L30.7,47.9 M30.7,47.7L30.7,47.7 M28.8,48.7
	l0.2-0.1 M33.7,48.2l0.8-0.7 M34.6,47.4l-1.1,1 M34.5,47.2l-1.1,1 M30.8,47.9l0.1-0.2 M32.9,47.9l0.1-0.1 M31.7,47.5l0.1-0.1
	 M32.8,47.8L32.7,48 M32.8,47.6l-0.1,0.2 M37,48.7l0,0.1 M37,48.5l0,0.1 M37.7,48l0,0.2 M37.6,47.8l0,0.2 M37.8,48.1l0-0.2
	 M37.8,48.3l0-0.3 M37.6,48.2l0,0.3 M37.6,48l0,0.3 M37.2,48.6l0-0.2 M37.2,47.5l0-0.2 M37,48.6L37,48.6 M37,48.5L37,48.5 M35.8,48
	l0-0.6 M35.6,47.4l0,0.8 M35.6,47.2l0,1 M35,41.5l0-0.6 M35.2,48.5l0-0.2 M38.4,48.9l0,0.2 M38.1,47.3l0,0.2 M38.2,48.9l0,0.2
	 M37.9,47.4l0,0.2 M38,48.8l0,0.2 M37.8,47.5l0,0.2 M37.9,48.6l0,0.2 M37.8,48.3l0,0.2 M37.7,47.7l0,0.2 M37.6,47.8l0,0.2 M37.6,48
	l0,0.2 M37.1,48.2l0,0.2 M37,48.1l0,0.2 M37,48.5l0,0.2 M37,48.5l0,0.2 M37,48.6l0,0.2 M36.8,47.9l0,0.2 M36.9,48.8l0,0.2
	 M36.7,48.8l0,0.2 M36.6,47.9l0,0.2 M36.6,48.9l0,0.2 M36.3,47.9l0,0.2 M36.3,48.9l0,0.2 M36.1,47.9l0,0.2 M36.1,48.8l0,0.2
	 M36,48.7l0,0.2 M35.8,48l0,0.2 M35.9,48.6l0,0.2 M35.6,47.2l0,0.2 M37.9,48.6l0-0.2 M37.9,48.7l0-0.2 M33.1,47.6l0-0.2 M33.1,47.7
	L33.1,47.7 M35.6,48.6l0.1,0.2 M32.7,47.5l0.1,0.1 M31,47.4l-0.1-0.2 M31,47.6l-0.1-0.2 M33,47.4l-0.2-0.2 M33.1,47.6l-0.2-0.2
	 M30.6,47.3L30.6,47.3 M28.9,47.3l-0.2-0.2 M29,47.5l-0.2-0.2 M30.9,47.2l-0.2-0.1 M30.9,47.4l-0.2-0.1 M28.5,47.3l0.1,0.1
	 M27.8,48.6l-0.1-0.1 M27.8,48.7l-0.1-0.1 M28.8,47.2l-0.2-0.1 M28.8,47.3l-0.2-0.1 M27.5,48.7l0.2,0.1 M27.6,47.3l-0.2,0.1
	 M27.5,47.1l-0.2,0.2 M27.5,47.5l0.1-0.1 M27.4,47.5l-0.1,0.2 M27.4,47.3l-0.1,0.2 M31,47.8l0-0.1 M30.8,47.8l0,0.1 M30.8,47.6
	l0,0.1 M28.7,48.6l0,0.1 M28.7,48.4l0,0.1 M33,47.8l0-0.2 M31.5,47.4l0,0.2 M34.8,48.2l0-1 M34.8,49l0-0.5 M34.5,48.7l0,0.4
	 M34.6,47.7l0,0.7 M34.5,48.5l0,0.5 M34.5,47.5l0,0.7 M33.5,48.4L33.5,48.4 M33.4,48.2l0,0.2 M32.8,40.8l0-1.9 M32.8,43.3l0-1.9
	 M33.1,47.7L33.1,47.7 M33.1,49l0-0.2 M32.8,47.8L32.8,47.8 M32.8,47.6L32.8,47.6 M32.1,41.6l0,1.7 M32.1,39.1l0,1.9 M32.1,41.4
	l0,1.9 M32.1,38.9l0,1.9 M32.8,40.8l0,0.2 M34.8,48.2l0,0.2 M34.5,47.2l0,0.2 M34.5,47.5l0,0.2 M32.1,38.9l0,0.2 M34.5,48.2l0,0.2
	 M34.5,48.5l0,0.2 M32.1,40.8l0,0.2 M32.1,41.4l0,0.2 M33.7,48.2l0,0.2 M33.4,48.2l0,0.2 M33,47.4l0,0.2 M32.8,47.3l0,0.2
	 M32.8,47.6l0,0.2 M32.8,47.6l0,0.2 M32.7,47.2l0,0.2 M32.7,47.8l0,0.2 M32.4,47.1l0,0.2 M32.2,47.1l0,0.2 M29,47.5l0-0.2 M29,47.5
	L29,47.5 M31,47.5l0-0.1 M31,47.6L31,47.6 M30.7,47.4l0,0.1 M28.7,47.4l0,0.1 M30.4,48.1l0.4,0.8 M31.1,48.9L30.7,48 M31,48.9
	l-0.3-0.7 M27.6,48.5l-0.1-0.1 M27.7,48.7l-0.1-0.1 M27.4,48.6l0.2,0.2 M27.5,47.6l0-0.2 M28.9,48.6l0-0.2 M27.3,47.6l0,0.2
	 M27.3,47.4l0,0.2 M31.5,48.9L31.5,48.9 M31.4,48.7l0,0.2 M31,47.7l0-0.2 M30.8,47.7l0,0.1 M30.8,47.5l0,0.1 M29.9,40.9l0,0.4
	 M29.9,40.7l0,0.6 M29.6,47.8l0-0.6 M29.6,48.9l0-0.8 M29.4,47.2l0,1.6 M29.4,47.1l0,1.8 M31.9,47.2l0,0.2 M29.9,40.7l0,0.2
	 M31.7,47.2l0,0.2 M31.8,48.7l0,0.2 M31.5,47.4l0,0.2 M31.4,48.7l0,0.2 M31,47.4l0,0.2 M30.9,47.2l0,0.2 M30.8,47.5l0,0.2
	 M30.8,47.6l0,0.2 M30.7,47.1l0,0.2 M30.7,47.7l0,0.2 M30.7,48l0,0.2 M30.6,47.8l0,0.2 M30.4,47.1l0,0.2 M30.5,47.9l0,0.2
	 M29.6,47.8l0,0.2 M29.4,47.1l0,0.2 M28.9,47.3l0,0.2 M27.2,48.2l0,0.2 M27.5,48.4l0-0.2 M27.6,48.5l0-0.2 M27.3,48.4l0.1,0.2
	 M27.5,48.2l0-0.6 M27.3,47.8l0,0.5 M27.2,47.6l0,0.6 M28.8,47.2l0,0.2 M28.6,47.1l0,0.2 M28.7,48.4l0,0.2 M28.7,48.5l0,0.2
	 M28.4,47l0,0.2 M28.5,48.6l0,0.2 M28.4,48.6l0,0.2 M28,47l0,0.2 M27.7,47l0,0.2 M27.9,48.6l0,0.2 M27.5,47.1l0,0.2 M27.8,48.6
	l0,0.2 M27.6,48.5l0,0.2 M27.4,47.3l0,0.2 M27.5,48.4l0,0.2 M27.5,48.2l0,0.2 M27.3,47.4l0,0.2 M27.2,47.6l0,0.2"/>
<path class="st1" d="M32.8,38.9l-0.7,0 M32.8,39.1l-0.7,0 M32.1,40.8l-2.2-0.1 M35,40.8l-2.2-0.1 M32.1,41l-2.2-0.1 M35,41L32.8,41
	 M32.8,41.4l2.2,0.1 M29.9,41.3l2.2,0.1 M39.2,48.1l0-0.2 M39.2,48.1L39.2,48.1 M39.2,47.9l0-0.1 M39.2,48l0-0.1 M32.1,43.2l0.7,0
	 M27.7,47.1l-0.2,0.1 M27.8,47.2l-0.2,0.1 M31.9,47.2l-0.2,0.1 M31.9,47.3l-0.2,0.1 M28.6,48.8l0.2-0.1 M30.7,48l0.2-0.1 M27.6,47.4
	l0.1-0.1 M28.7,48.5l-0.1,0.1 M28.7,48.7l-0.1,0.1 M31.8,47.4l0.1-0.1 M31.8,48.8l1.1-0.8 M32.7,47.8l-1.3,0.9 M32.7,48l-1.3,0.9
	 M38.9,49l0.1-0.1 M38,47.6l-0.1,0.1 M37.9,47.4l-0.1,0.1 M37,48.9l0.1-0.2 M39,48.8L38.8,49 M39,48.6l-0.2,0.2 M37.9,47.8l0.2-0.2
	 M37,48.8L36.9,49 M37,48.7l-0.1,0.1 M39,48.9l0.1-0.2 M37.8,47.7l-0.1,0.2 M37.8,47.6l-0.1,0.2 M37.1,48.8l0.1-0.2 M39.1,48.7
	l0-0.1 M37.7,47.9l0,0.1 M37.7,47.7l0,0.1 M39.2,48.6l0-0.2 M39,48.5l0,0.2 M39,48.4l0,0.2 M39.2,48.4l0-0.4 M39,48.3l0,0.3
	 M39,48.1l0,0.3 M39.2,47.9l0,0.2 M39.1,47.7l0,0.2 M39.1,47.6l0,0.2 M38.9,47.5l0,0.2 M39,48.1l0,0.2 M39,48.4l0,0.2 M39,48.6
	l0,0.2 M38.7,47.3l0,0.2 M38.8,48.8l0,0.2 M38.4,47.3l0,0.2 M38.6,48.9l0,0.2 M39,47.9l0,0.2 M37.6,48.4l0,0.2 M37.6,48.6l0,0.1
	 M37,48.3l0,0.1 M37.2,48.4l-0.1-0.2 M37.2,48.6l-0.1-0.1 M39.1,47.7l-0.1-0.2 M39.2,47.9l-0.1-0.2 M37.7,48.7l0.1,0.2 M36,48.8
	l-0.1-0.2 M36,48.9l-0.1-0.2 M38.8,47.6l0.2,0.2 M38,48.8l-0.2-0.2 M38.1,49l-0.2-0.2 M36.9,48.2l0.1,0.1 M37.1,48.2L37,48.1
	 M37.2,48.4L37,48.3 M35.7,48.7l0.1,0.2 M39.1,47.6l-0.1-0.1 M39.1,47.8l-0.1-0.1 M37.8,48.8l0.1,0.1 M38.6,47.5l0.1,0.1 M38.2,48.9
	L38,48.8 M36.7,48.1l0.1,0.1 M38.2,49.1L38.1,49 M36.1,48.8L36,48.8 M36.1,49L36,48.9 M32.6,47.4l0.1,0.1 M38.9,47.5l-0.2-0.1
	 M38.9,47.7l-0.2-0.1 M37,48.1L36.8,48 M37,48.3l-0.2-0.1 M37.9,49l0.2,0.1 M35.8,48.9l0.2,0.1 M32.9,47.3l-0.2-0.1 M32.9,47.5
	l-0.2-0.1 M30.5,47.3l0.1,0 M36.6,48.1l0.2,0 M36.3,48.9l-0.2,0 M36.3,49.1l-0.2,0 M28.4,47.3l0.2,0 M28,48.6l-0.2,0 M28,48.8
	l-0.2,0 M38.4,47.5l0.2,0 M36.8,48l-0.2,0 M36.8,48.1l-0.2,0 M32.4,47.3l0.2,0 M30.7,47.1l-0.2,0 M30.7,47.3l-0.2,0 M38.4,48.9
	l-0.2,0 M28.6,47.1l-0.2,0 M38.4,49.1l-0.2,0 M28.6,47.3l-0.2,0 M36.1,49l0.2,0 M27.7,48.8l0.2,0 M38.7,47.3l-0.3,0 M38.7,47.5
	l-0.3,0 M32.7,47.2l-0.3,0 M32.7,47.4l-0.3,0 M38.1,49.1l0.3,0 M28.4,47L28,47 M30.5,47.1l-1.1,0 M32.4,47.1l-0.2,0 M34.8,47.2
	l-0.3,0 M37.2,47.3l-1.5,0 M28.4,47.2l-0.4,0 M30.5,47.3l-1.1,0 M32.4,47.3l-0.2,0 M34.8,47.4l-0.2,0 M37.1,47.4l-1.5,0 M35.8,47.4
	l1.3,0 M32.2,47.3l0.2,0 M29.6,47.3l0.9,0 M28,47.3l0.4,0 M31.5,47.5l0.2,0 M28.7,47.5l0.3,0 M36.6,47.9l-0.3,0 M30.5,47.9l-0.9,0
	 M36.6,48.1l-0.3,0 M36.3,48.1l0.3,0 M30.5,48.1l-0.9,0 M35.6,48.2l0.3,0 M29.6,48.1l0.8,0 M34.5,48.2l-0.8,0 M35.2,48.3l-0.5,0
	 M34.5,48.4l-0.8,0 M35.2,48.4l-0.4,0 M34.8,48.5l0.5,0 M33.4,48.5l1.1,0 M29,48.4l-0.3,0 M35.9,48.6l-0.3,0 M28.9,48.6l-0.2,0
	 M35.9,48.8l-0.2,0 M28.4,48.6l-0.4,0 M33.1,48.8l-1.3,0 M36.6,48.9l-0.3,0 M28.4,48.8l-0.4,0 M33.1,49l-1.2,0 M36.6,49.1l-0.3,0
	 M36.3,49.1l0.3,0 M34.5,49l0.3,0 M31.4,48.9l1.6,0 M30.8,48.9l0.3,0 M29.4,48.9l0.3,0 M28,48.9l0.4,0 M32.2,47.1l-0.3,0 M32.2,47.3
	l-0.3,0 M38.4,47.3l-0.3,0 M38.4,47.5l-0.3,0 M38.4,49.1l0.3,0 M28,47l-0.2,0 M28,47.2l-0.2,0 M31.9,47.4l0.2,0 M28.4,48.9l0.2,0
	 M38.2,47.5l0.2,0 M36.3,47.9l-0.2,0 M36.3,48.1l-0.2,0 M36.6,49.1l0.2,0 M38.6,48.9l-0.2,0 M38.7,49.1l-0.2,0 M27.8,47.3l0.2,0
	 M28.5,48.6l-0.2,0 M28.6,48.8l-0.2,0 M36.1,48.1l0.2,0 M36.7,48.8l-0.2,0 M36.8,49l-0.2,0 M30.6,47.8l-0.1,0 M30.7,48l-0.1,0
	 M36.1,47.9L35.8,48 M36.1,48.1l-0.2,0.1 M38.1,47.3l-0.2,0.1 M38.2,47.5L38,47.6 M36.8,49l0.2-0.1 M38.7,49.1l0.2-0.1 M38.1,47.6
	l0.1-0.1 M36.9,48.8l-0.1,0.1 M36.9,49L36.8,49 M38.8,48.8l-0.1,0.1 M38.8,49l-0.1,0.1 M35.9,48.2l0.2-0.1"/>
<polygon class="st2" points="13.2,52.9 11.3,50 9.1,45.6 9.2,44.1 9.9,42.5 11.5,41.3 12.7,41.6 14.2,42.8 16,45.1 18.8,48.4 
	18,52.3 "/>
<polygon class="st3" points="13.2,52.9 11.2,50 9.1,45.6 9.2,44.1 9.9,42.5 11.5,41.3 12.7,41.6 14.2,42.8 16,45.1 18.8,48.4 
	18,52.3 "/>
<path class="st2" d="M65.2,81.4l-1-2.4l-1-2.4l-1-2.5l-1.1-2.4L60,69.3l-1.1-2.2l-0.5-1l-0.5-1l-0.5-0.9l-0.5-0.8L56.7,63l-0.3-0.3
	l-0.3-0.3l-0.2-0.3l-0.2-0.3l-0.2-0.3l-0.3-0.3c-0.8-1.1-1.8-1.5-3.2-1.4l-0.3,0l-0.5,0.2l-0.5,0.2l-0.4,0.1L50,60.3l-0.4,0.1
	l-0.4,0l-0.4,0l-0.3,0l-0.8-0.1l-0.8-0.1L46.1,60l-0.8-0.1l-0.8-0.1l-0.8-0.1l-0.8-0.1l-0.8-0.1l-0.7-0.1l-0.7-0.1l-0.6-0.1
	l-0.6-0.1L39,59l-0.6,0l-0.7,0l-0.7,0l-1-0.2l-1.1-0.2l-1.1-0.2L32.7,58l-1.1-0.2l-1.1-0.2l-1.1-0.2l-1.1-0.1l-0.5-0.3l-0.5-0.3
	l-0.5-0.4l-0.5-0.4c-1.3-1.1-1.9-2.1-3.1-3.3l-1-1l-1-1c-1.1-1.1-2.2-2.1-3.2-3.3l-0.5-0.6L16.7,46l-0.6-0.7l-0.6-0.8
	c-0.6-0.7-1.2-1.4-1.8-2l-0.2-0.2L13.2,42L13,41.8l-0.3-0.2l-0.3-0.1l-0.3-0.1l-0.3-0.1l-0.2,0.1l-0.2,0.1l-0.2,0.1l-0.2,0.2
	l-0.2,0.2l-0.2,0.2l-0.2,0.2c-0.4,0.4-0.7,1-0.9,1.6l-0.1,0.4l-0.1,0.4c-0.3,1.1,0.9,2.8,1.3,3.8l0.6,1l0.3,0.5l0.3,0.6l0.3,0.5
	c0.7,1,1.4,1.9,2.1,2.8l1,1.7l1,1.7c1.5,2.2,3.1,4.5,4.8,6.5l0.7,0.8l0.7,0.8l0.7,0.8l0.7,0.8l-0.1,0.6l0,0.6l0,0.6l0.1,0.6l0.4,0.7
	c0.8,1.4,1.6,2.9,2.4,4.3l0.4,0.7l0.6,0.5c1.3,1,2.6,1.9,4,2.7l0.7,0.3L32,79.2c-0.7,1.1-1.5,2.2-1.9,3.5L30,82.9l-0.5-0.4
	c-1.1-0.8-2-1.8-2.8-2.8l-0.5-0.6l0.2-0.5l0.1-0.5l0.1-0.5l0.1-0.5c0.1-1.7,0-2.1-0.8-3.5l-0.3-0.6l-0.3-0.6l-0.4-0.6l-0.3-0.6
	l-0.3-0.6l-0.3-0.6l-0.3-0.3l-0.3-0.2l-0.1-0.1L23,69.3l-0.1-0.1l-0.2,0l-0.1,0l-0.1,0l-0.2,0l-0.2,0.1L22,69.3l-0.2,0.1l-0.1,0.1
	l-0.2,0.2l-0.3,0.8L21,71.2L20.8,72l-0.3,0.8l-0.3,0.8l-0.4,0.8l-0.4,0.9l-0.5,0.9l-0.4,0.5l-0.3,0.5l-0.3,0.5l-0.3,0.4l-0.3,0.4
	L17.1,79l-0.2,0.4l-0.1,0.4l-0.1,0.4l-0.1,0.4l0,0.4l0,0.4l0.1,0.4l0.1,0.4l0.2,0.4l0.2,0.4l0.5,0.8l0.5,0.8l0.5,0.8l0.6,0.8l0.7,1"
	/>
<path class="st4" d="M65.2,81.4L65.2,81.4l-1-2.4l-1-2.4l-1-2.5l-1.1-2.4L60,69.3l-1.1-2.2l-0.5-1l-0.5-1l-0.5-0.9l-0.5-0.9L56.7,63
	l-0.3-0.3l-0.3-0.3L55.9,62l-0.2-0.3l-0.2-0.3l-0.3-0.3c-0.8-1.1-1.8-1.5-3.2-1.4l-0.3,0l-0.5,0.2l-0.5,0.2l-0.4,0.1L50,60.3
	l-0.4,0.1l-0.4,0l-0.4,0l-0.3,0l-0.8-0.1l-0.8-0.1L46.1,60l-0.8-0.1l-0.8-0.1l-0.8-0.1l-0.8-0.1l-0.8-0.1l-0.7-0.1l-0.7-0.1
	l-0.6-0.1l-0.6-0.1L39,59l-0.6,0l-0.7,0l-0.7,0l-1-0.2l-1.1-0.2l-1.1-0.2L32.6,58l-1.1-0.2l-1.1-0.2l-1.1-0.2l-1.1-0.1L27.7,57
	l-0.5-0.3l-0.5-0.4l-0.5-0.4c-1.3-1.1-1.9-2.1-3.1-3.3l-1-1l-1-1c-1.1-1.1-2.2-2.1-3.2-3.3l-0.6-0.7l-0.6-0.7l-0.6-0.7l-0.6-0.8
	c-0.6-0.7-1.2-1.4-1.8-2l-0.2-0.2L13.2,42l-0.3-0.2l-0.3-0.2l-0.3-0.2l-0.3-0.1l-0.3-0.1l-0.2,0.1l-0.2,0.1l-0.2,0.1l-0.2,0.2
	l-0.2,0.2L10.4,42l-0.2,0.2c-0.4,0.4-0.7,1-0.9,1.6l-0.1,0.4l-0.1,0.4c-0.3,1.1,0.9,2.8,1.3,3.8l0.6,1l0.3,0.5l0.3,0.6l0.3,0.5
	c0.7,1,1.4,1.9,2.1,2.8l1,1.7l1,1.7c1.5,2.2,3.1,4.5,4.8,6.5l0.7,0.8l0.7,0.8l0.7,0.8l0.7,0.8l-0.1,0.6l0,0.6l0,0.6l0.1,0.6l0.4,0.7
	c0.8,1.4,1.6,2.9,2.4,4.3l0.4,0.7l0.6,0.5c1.3,1,2.6,1.9,4,2.7l0.7,0.3L32,79.2c-0.7,1.1-1.6,2.2-1.9,3.5L30,82.9l-0.5-0.4
	c-1.1-0.8-2-1.8-2.8-2.8l-0.5-0.6l0.2-0.5l0.1-0.5l0.1-0.5l0.1-0.5c0.1-1.7,0-2.1-0.8-3.5l-0.3-0.6l-0.3-0.6l-0.4-0.6l-0.3-0.6
	l-0.3-0.6l-0.3-0.6l-0.3-0.3l-0.3-0.2l-0.1-0.1L23,69.3l-0.1-0.1l-0.2,0l-0.1,0l-0.1,0l-0.2,0l-0.2,0.1L22,69.3l-0.2,0.1l-0.1,0.1
	l-0.2,0.2l-0.3,0.8L21,71.2L20.8,72l-0.3,0.8l-0.3,0.8l-0.4,0.8l-0.4,0.9l-0.5,1l-0.4,0.5l-0.3,0.5l-0.3,0.5l-0.3,0.4l-0.3,0.4
	L17,79l-0.2,0.4l-0.1,0.4l-0.1,0.4l-0.1,0.4l0,0.4l0,0.4l0.1,0.4l0.1,0.4l0.2,0.4l0.2,0.4l0.5,0.8l0.5,0.8l0.5,0.8l0.6,0.8l0.7,1"/>
<path class="st5" d="M26.4,71.7l0.3,0.1c0.5,0,1.1-0.1,1.5-0.5l0.2-0.2"/>
<path class="st5" d="M9.9,43.4l0.3,0.5c1,2.1,2.8,3.8,5,1.7l0.2-0.2"/>
<path class="st5" d="M22.5,60.1l0.6-0.3c1.1-0.6,1.9-1.2,2.8-2.1l0.4-0.4"/>
<path class="st5" d="M21,60l0.5-0.7c0.7-0.9,2.2-3.1,3.4-3.5l0.3-0.1"/>
<path class="st5" d="M53.2,65.1l0-0.5c0-2.2-1-3.6-3.1-4.1l-0.4-0.1"/>
<path class="st5" d="M42.4,60.1l0.9,0.2l0.8,0.2c1.2,0.4,2.6,0.4,3.5,1.4l0.2,0.2l0.4,0.5l0.3,0.5l0.3,0.5l0.3,0.5l0.3,0.7l0.4,1
	l0.5,1.2l0.6,1.2l0.6,1.2l0.6,1.1l0.5,0.9l0.4,0.6"/>
<path class="st5" d="M22.5,77.3l0.8,0c1.3,0,1.7,0.2,2.4,1.2l0.5,0.6"/>
<path class="st5" d="M30.5,82.5l0.3,0c0.5,0,1-0.1,1.5-0.4l0.2-0.2"/>
<path class="st5" d="M32.6,86.6l0.1-1l0.1-1l0-1l0-1l0-1l-0.1-1l-0.1-1l-0.1-1l-0.3-0.8l-0.3-0.8l-0.3-0.8c-0.7-1.9-1.9-3.7-3-5.4
	l-0.5-0.7l-0.5-0.7l-0.6-0.3c-1-0.6-2.1-1.5-2.9-2.3l-0.5-0.4"/>
<polyline class="st5" points="44.9,73.5 44.8,73 44.7,72.4 44.6,71.9 44.5,71.4 44.3,71.1 44.1,70.7 43.9,70.3 43.6,69.9 43.1,69.3 
	42.6,68.6 42,68 41.4,67.4 40.8,66.9 40.2,66.3 38.7,65.2 37.2,64.1 35.7,63 34.2,61.9 32.7,60.8 31.2,59.6 29.7,58.5 28.2,57.4 "/>
<path class="st5" d="M65.2,81.4L65.2,81.4l-1-2.4l-1-2.4l-1-2.5l-1.1-2.4L60,69.3l-1.1-2.2l-0.5-1l-0.5-1l-0.5-0.9l-0.5-0.9L56.7,63
	l-0.3-0.3l-0.3-0.3l-0.2-0.3l-0.2-0.3l-0.2-0.3l-0.3-0.3c-0.8-1.1-1.8-1.5-3.2-1.4l-0.3,0l-0.5,0.2l-0.5,0.2l-0.4,0.1L50,60.3
	l-0.4,0.1l-0.4,0l-0.4,0l-0.3,0l-0.8-0.1l-0.8-0.1L46.1,60l-0.8-0.1l-0.8-0.1l-0.8-0.1l-0.8-0.1l-0.8-0.1l-0.7-0.1l-0.7-0.1
	l-0.6-0.1l-0.6-0.1L39,59l-0.6,0l-0.7,0l-0.7,0l-1-0.2l-1.1-0.2l-1.1-0.2L32.7,58l-1.1-0.2l-1.1-0.2l-1.1-0.2l-1.1-0.1L27.7,57
	l-0.5-0.3l-0.5-0.4l-0.5-0.4c-1.3-1.1-1.9-2.1-3.1-3.3l-1-1l-1-1c-1.1-1.1-2.2-2.1-3.2-3.3l-0.6-0.6L16.7,46l-0.6-0.7l-0.6-0.8
	c-0.6-0.7-1.2-1.4-1.8-2l-0.2-0.2L13.2,42L13,41.8l-0.3-0.2l-0.3-0.1l-0.3-0.1l-0.3-0.1l-0.2,0.1l-0.2,0.1l-0.2,0.1l-0.2,0.2
	l-0.2,0.2l-0.2,0.2l-0.2,0.2c-0.4,0.4-0.7,1-0.9,1.6l-0.1,0.4l-0.1,0.4c-0.3,1.1,0.9,2.8,1.3,3.8l0.6,1l0.3,0.5l0.3,0.6l0.3,0.5
	c0.7,1,1.4,1.9,2.1,2.8l1,1.7l1,1.7c1.5,2.2,3.1,4.5,4.8,6.5l0.7,0.8l0.7,0.8l0.7,0.8l0.7,0.8l-0.1,0.6l0,0.6l0,0.6l0.1,0.6l0.4,0.7
	c0.8,1.4,1.6,2.9,2.4,4.3l0.4,0.7l0.6,0.5c1.3,1,2.6,1.9,4,2.7l0.7,0.3L32,79.2c-0.7,1.1-1.5,2.2-1.9,3.5L30,82.9l-0.5-0.4
	c-1.1-0.8-2-1.8-2.8-2.8l-0.5-0.6l0.2-0.5l0.1-0.5l0.1-0.5l0.1-0.5c0.1-1.7,0-2.1-0.8-3.5l-0.3-0.6l-0.3-0.6l-0.4-0.6l-0.3-0.6
	l-0.3-0.6l-0.3-0.6l-0.3-0.3l-0.3-0.2l-0.1-0.1L23,69.3l-0.1-0.1l-0.2,0l-0.1,0l-0.1,0l-0.2,0l-0.2,0.1L22,69.3l-0.2,0.1l-0.1,0.1
	l-0.2,0.2l-0.3,0.8L21,71.2L20.8,72l-0.3,0.8l-0.3,0.8l-0.4,0.8l-0.4,0.9l-0.5,1l-0.4,0.5l-0.3,0.5l-0.3,0.5l-0.3,0.4l-0.3,0.4
	L17,79l-0.2,0.4l-0.1,0.4l-0.1,0.4l-0.1,0.4l0,0.4l0,0.4l0.1,0.4l0.1,0.4l0.2,0.4l0.2,0.4l0.5,0.8l0.5,0.8l0.5,0.8l0.6,0.8l0.7,1"/>
</svg>
