<?xml version="1.0" encoding="utf-8"?>
<!-- Generator: Adobe Illustrator 27.1.1, SVG Export Plug-In . SVG Version: 6.00 Build 0)  -->
<svg version="1.1" id="Layer_1" xmlns:xodm="http://www.corel.com/coreldraw/odm/2003"
	 xmlns="http://www.w3.org/2000/svg" xmlns:xlink="http://www.w3.org/1999/xlink" x="0px" y="0px" viewBox="0 0 112.2 77.1"
	 style="enable-background:new 0 0 112.2 77.1;" xml:space="preserve">
<style type="text/css">
	.st0{fill:none;stroke:#5B5B5B;stroke-width:4;stroke-linejoin:bevel;stroke-miterlimit:10;}
</style>
<g id="图层_x0020_1">
	<g id="_1987374723344">
		<g>
			<line class="st0" x1="2.6" y1="43.1" x2="4" y2="60.2"/>
			<line class="st0" x1="2" y1="36.3" x2="2.6" y2="43"/>
			<polyline class="st0" points="4,60.1 4.2,61.5 5.1,63.6 6.5,65.3 8.5,66.7 			"/>
			<polyline class="st0" points="7.3,22.5 5.5,25.6 4,28.6 2.9,31.2 2.2,33.6 2,35.9 2,36.3 			"/>
			<path class="st0" d="M7.3,22.5L7.3,22.5 M7.3,22.5L7.3,22.5"/>
			<path class="st0" d="M8.9,19.7L8.9,19.7 M8.9,19.7l-1.6,2.8"/>
			<path class="st0" d="M7.3,22.4L7.3,22.4 M7.3,22.4L7.3,22.4"/>
			<polyline class="st0" points="16.3,10.3 14.3,12.3 12.4,14.6 10.6,17.1 8.9,19.7 			"/>
			<path class="st0" d="M18,8.7L18,8.7 M18,8.7l-1.7,1.5"/>
			<path class="st0" d="M9.2,20.7L9.2,20.7 M7.3,22.4l1.8-1.7"/>
			<polyline class="st0" points="11.4,68.2 11.7,68.3 14.5,69.3 17.8,70 21.6,70.5 25.7,70.9 30.1,71.2 34.8,71.6 39.8,71.9 
				45,72.4 			"/>
			<line class="st0" x1="9.7" y1="67.4" x2="9.9" y2="67.5"/>
			<line class="st0" x1="9.7" y1="67.4" x2="11.4" y2="68.2"/>
			<line class="st0" x1="8.5" y1="66.7" x2="9.9" y2="67.5"/>
			<polyline class="st0" points="45,72.4 50.3,72.9 55.5,73.5 60.5,74 65.1,74.4 69.6,74.8 73.9,75.1 77.9,75 81.6,74.5 84.8,73.8 
				87.7,72.7 89.4,71.8 			"/>
			<line class="st0" x1="45" y1="72.4" x2="45" y2="72.4"/>
			<line class="st0" x1="44.4" y1="71.9" x2="45" y2="72.4"/>
			<line class="st0" x1="43.8" y1="55.6" x2="43.7" y2="55.1"/>
			<line class="st0" x1="43.8" y1="55.6" x2="43.8" y2="56.1"/>
			<path class="st0" d="M38.2,55.4L38.2,55.4 M38.2,55.4L38.2,55.4"/>
			<path class="st0" d="M38.2,55.4L38.2,55.4 M38.2,55.4L38.2,55.4"/>
			<path class="st0" d="M49,56.4L49,56.4 M49,56.4L49,56.4"/>
			<polyline class="st0" points="68.3,3.6 62.6,3.1 57.2,2.7 52,2.4 47.1,2.1 42.4,2 37.9,2.1 33.7,2.5 30,3.1 26.7,4 23.7,5.1 
				21,6.6 18.6,8.3 18,8.7 			"/>
			<polyline class="st0" points="90.9,71 91.5,70.7 94,68.9 96.3,66.8 98.2,64.5 99.9,62.1 101.5,59.6 103.1,57 104.6,54.4 			"/>
			<path class="st0" d="M90.9,71L90.9,71 M89.4,71.8l1.6-0.9"/>
			<polyline class="st0" points="104.6,54.4 106.2,51.7 107.6,49 108.7,46.7 109.5,44.5 109.8,42.5 			"/>
			<polyline class="st0" points="105,10.8 102.9,9.5 100.1,8.3 96.7,7.3 92.8,6.5 88.5,5.9 83.9,5.3 79,4.7 73.7,4.2 68.3,3.6 			
				"/>
			<line class="st0" x1="106.8" y1="12.2" x2="105" y2="10.8"/>
			<polyline class="st0" points="110.2,18.6 110.1,17.4 109.5,15.5 108.5,13.8 			"/>
			<path class="st0" d="M110.1,25.4L110.1,25.4 M109.8,42.5l0.3-17.1"/>
			<path class="st0" d="M110.2,18.6L110.2,18.6 M110.1,25.4l0.1-6.7"/>
			<line class="st0" x1="108.5" y1="13.8" x2="106.7" y2="12.2"/>
			<path class="st0" d="M9.9,18.1c-0.1,0.2-0.3,0.4-0.4,0.7"/>
			<path class="st0" d="M11,16.5c-0.4,0.5-0.7,1.1-1.1,1.7"/>
			<path class="st0" d="M12,15c-0.4,0.5-0.7,1-1,1.5"/>
			<path class="st0" d="M12.5,14.4c-0.2,0.2-0.3,0.4-0.5,0.6"/>
			<path class="st0" d="M14.4,12.2c-0.1,0.1-0.2,0.2-0.3,0.3"/>
			<path class="st0" d="M16.6,10.3C16.6,10.4,16.5,10.4,16.6,10.3"/>
			<path class="st0" d="M11.4,67.9c0.1,0,0.1,0.1,0.2,0.1"/>
			<path class="st0" d="M18.3,8.7c-0.1,0-0.1,0.1-0.2,0.1"/>
			<path class="st0" d="M9.9,67.3C9.9,67.3,9.9,67.3,9.9,67.3"/>
			<path class="st0" d="M9.8,67.2c0,0,0.1,0,0.1,0.1"/>
			<path class="st0" d="M5.6,64.3c0,0.1,0.1,0.1,0.1,0.2"/>
			<path class="st0" d="M4.2,61.4c0,0.1,0,0.1,0.1,0.2"/>
			<path class="st0" d="M48.2,55.4c-0.1,0-0.2-0.1-0.3-0.1"/>
			<path class="st0" d="M47.9,55.3C47.9,55.3,47.9,55.3,47.9,55.3"/>
			<path class="st0" d="M49,56.4C49,56.4,49,56.3,49,56.4"/>
			<path class="st0" d="M38.2,55.4C38.2,55.4,38.2,55.4,38.2,55.4"/>
			<path class="st0" d="M48.8,57c0,0,0.1-0.1,0.1-0.1"/>
			<path class="st0" d="M48.9,56.9c0,0,0.1-0.1,0.1-0.2"/>
			<path class="st0" d="M38.3,54.9c0,0,0,0.1-0.1,0.1"/>
			<path class="st0" d="M38.3,54.9C38.3,54.9,38.3,54.9,38.3,54.9"/>
			<path class="st0" d="M39,55.2c0,0.1,0,0.1,0,0.2"/>
			<path class="st0" d="M89.3,71.6c0.5-0.2,1.1-0.5,1.6-0.8"/>
			<path class="st0" d="M96.5,42.7c0.1-0.1,0.1-0.1,0.2-0.2"/>
			<path class="st0" d="M89.3,71.8c0.5-0.2,1.1-0.5,1.6-0.8"/>
			<path class="st0" d="M92.8,46c0.2-0.1,0.4-0.2,0.6-0.3"/>
			<path class="st0" d="M92.7,46.1C92.8,46.1,92.8,46,92.7,46.1"/>
			<path class="st0" d="M107,12.4c-0.1-0.1-0.2-0.1-0.2-0.2"/>
			<path class="st0" d="M104.9,10.9C104.9,10.9,104.8,10.9,104.9,10.9"/>
			<path class="st0" d="M105,11c0,0-0.1-0.1-0.1-0.1"/>
			<path class="st0" d="M110,26.6c0-0.1,0-0.2,0-0.3"/>
			<path class="st0" d="M110,18.6c0,0,0-0.1,0-0.1"/>
			<path class="st0" d="M108.5,13.9c0,0-0.1-0.1-0.1-0.1"/>
			<path class="st0" d="M106.5,12.3C106.5,12.3,106.5,12.3,106.5,12.3"/>
			<path class="st0" d="M109.7,15.9c-0.1-0.2-0.2-0.5-0.3-0.7"/>
			<path class="st0" d="M109.7,16.1c0,0,0-0.1,0-0.1"/>
			<path class="st0" d="M39.4,54.5c1.4,0.1,2.7,0.3,4.1,0.4"/>
			<path class="st0" d="M43.8,55.6c1.6,0.1,3.2,0.3,4.8,0.4"/>
			<path class="st0" d="M39.3,56.5c1.4,0.1,2.9,0.3,4.3,0.4"/>
			<path class="st0" d="M43.6,56.9c1.4,0.1,2.9,0.3,4.3,0.4"/>
			<path class="st0" d="M43.7,55.1c1.4,0.1,2.7,0.2,4.1,0.4"/>
			<path class="st0" d="M39,55.2c1.6,0.2,3.2,0.3,4.7,0.4"/>
			<path class="st0" d="M43.8,55.6c1.6,0.1,3.2,0.3,4.8,0.4"/>
			<path class="st0" d="M43.8,54.9c1.4,0.1,2.7,0.2,4.1,0.4"/>
			<path class="st0" d="M39,55.1c1.6,0.2,3.2,0.3,4.7,0.4"/>
			<path class="st0" d="M43.8,56.1c1.4,0.1,2.9,0.3,4.3,0.4"/>
			<path class="st0" d="M39.5,55.7c1.4,0.1,2.9,0.3,4.3,0.4"/>
			<path class="st0" d="M39.1,45.8c1.5,0.1,3.1,0.3,4.6,0.4"/>
			<path class="st0" d="M39.1,45.6c1.6,0.1,3.1,0.3,4.7,0.4"/>
			<path class="st0" d="M39.4,54.7c1.4,0.1,2.7,0.3,4.1,0.4"/>
			<line class="st0" x1="39.4" y1="54.5" x2="39.2" y2="54.5"/>
			<path class="st0" d="M39.2,54.5c-0.1,0-0.2,0-0.3,0c-0.1,0-0.2,0-0.3,0.1c-0.1,0-0.1,0.1-0.2,0.1c-0.1,0.1-0.1,0.1-0.2,0.2"/>
			<path class="st0" d="M49,56.3C49,56.3,49,56.3,49,56.3c0-0.1,0-0.2-0.1-0.2"/>
			<path class="st0" d="M48.9,56.1C48.9,56,48.9,56,48.9,56.1c-0.1-0.1-0.1-0.2-0.1-0.2"/>
			<path class="st0" d="M48.8,55.8c0,0-0.1-0.1-0.1-0.1c-0.1-0.1-0.3-0.2-0.5-0.3"/>
			<line class="st0" x1="43.8" y1="54.9" x2="43.5" y2="54.9"/>
			<line class="st0" x1="2.6" y1="43" x2="2.6" y2="43"/>
			<line class="st0" x1="2.6" y1="43" x2="2.6" y2="43.1"/>
			<path class="st0" d="M2.6,43.1c0,0.4,0.1,0.7,0.2,1.1c0.1,0.4,0.2,0.7,0.4,1.1c0.2,0.4,0.4,0.7,0.6,1c0.2,0.4,0.5,0.7,0.8,1
				c0.3,0.3,0.7,0.7,1,1c0.4,0.3,0.8,0.6,1.2,0.9c0.5,0.3,1,0.6,1.5,0.8c0.5,0.3,1.1,0.5,1.7,0.7c0.6,0.2,1.2,0.5,1.8,0.7
				c0.6,0.2,1.3,0.4,2,0.6c1.4,0.4,2.8,0.7,4.2,0.9c1.5,0.3,3,0.5,4.4,0.7c1.5,0.2,3,0.4,4.5,0.6"/>
			<line class="st0" x1="26.8" y1="54.2" x2="26.9" y2="54.2"/>
			<path class="st0" d="M26.9,54.2c1.9,0.2,3.7,0.5,5.6,0.7c1.9,0.2,3.8,0.4,5.7,0.6"/>
			<path class="st0" d="M48.5,56c0.1,0,0.2,0,0.2,0c0.1,0,0.1,0,0.2,0.1"/>
			<line class="st0" x1="49" y1="56.4" x2="49" y2="56.4"/>
			<path class="st0" d="M49,56.4c1.6,0.1,3.3,0.3,4.9,0.4c1.7,0.1,3.3,0.2,5,0.3c0.8,0.1,1.7,0.1,2.5,0.1c0.8,0,1.7,0.1,2.5,0.1
				c0.8,0,1.7,0.1,2.5,0.1c0.8,0,1.7,0,2.5,0.1c0.8,0,1.7,0,2.5,0c0.8,0,1.7,0,2.5-0.1c1.7-0.1,3.4-0.2,5-0.4
				c0.8-0.1,1.6-0.2,2.4-0.4c0.8-0.1,1.6-0.3,2.4-0.5c0.7-0.2,1.5-0.4,2.2-0.6c0.7-0.2,1.4-0.4,2.1-0.7c0.6-0.2,1.3-0.5,1.9-0.8
				c0.6-0.3,1.2-0.6,1.7-0.9c1-0.6,2-1.2,3-1.9c0.8-0.6,1.6-1.3,2.4-2.1c0.7-0.7,1.3-1.4,1.9-2.2c0.6-0.7,1.1-1.4,1.7-2.2
				c0.5-0.7,1-1.5,1.5-2.2c0.5-0.7,0.9-1.5,1.4-2.2c0.4-0.7,0.9-1.5,1.3-2.2"/>
			<path class="st0" d="M104.9,38.2c0.6-1.1,1.2-2.1,1.8-3.2c0.6-1,1.1-2.1,1.6-3.2c0.2-0.5,0.5-1.1,0.7-1.6
				c0.2-0.5,0.4-1.1,0.6-1.6c0.3-1.1,0.6-2.1,0.6-3.2"/>
			<path class="st0" d="M110.1,25.4L110.1,25.4 M110.1,25.4L110.1,25.4"/>
			<path class="st0" d="M38.2,55.4C38.2,55.3,38.2,55.3,38.2,55.4c0-0.1,0.1-0.1,0.1-0.1"/>
			<path class="st0" d="M38.3,55.2c0,0,0.1,0,0.1-0.1c0.1,0,0.1,0,0.2,0c0.1,0,0.3,0,0.4,0"/>
			<path class="st0" d="M43.3,49.3c2.1,0.2,4.3,0.4,6.4,0.6c1.1,0.1,2.2,0.2,3.2,0.3c1.1,0.1,2.2,0.2,3.2,0.2
				c1.1,0.1,2.2,0.1,3.3,0.2c0.5,0,1.1,0.1,1.6,0.1c0.5,0,1.1,0.1,1.6,0.1c0.5,0,1.1,0.1,1.6,0.1c0.5,0,1.1,0,1.6,0.1
				c0.5,0,1.1,0,1.6,0c0.6,0,1.1,0,1.7,0c1.1,0,2.2,0,3.3,0c1.1,0,2.2-0.1,3.3-0.2c1.1-0.1,2.2-0.2,3.3-0.3c1.1-0.1,2.1-0.3,3.2-0.5
				c0.5-0.1,1-0.2,1.5-0.3c0.5-0.1,1-0.2,1.5-0.4c0.9-0.3,1.8-0.6,2.7-0.9c0.8-0.3,1.7-0.7,2.5-1.1c0.7-0.4,1.5-0.7,2.2-1.2"/>
			<path class="st0" d="M93.4,45.7c0.7-0.4,1.3-0.9,1.9-1.4c0.6-0.5,1.1-1,1.6-1.5"/>
			<path class="st0" d="M96.9,42.8c0.4-0.4,0.8-0.8,1.2-1.2c0.4-0.4,0.7-0.8,1.1-1.3c0.7-0.8,1.3-1.7,1.9-2.5"/>
			<path class="st0" d="M101.1,37.7c0.7-1,1.4-2,2-3.1c0.6-1,1.2-2.1,1.8-3.1"/>
			<path class="st0" d="M38.2,55.4C38.2,55.4,38.2,55.3,38.2,55.4c0-0.2,0-0.2,0-0.3"/>
			<path class="st0" d="M16.3,10.3c-0.2,0.2-0.4,0.3-0.5,0.5c-0.5,0.5-1,1-1.4,1.5"/>
			<path class="st0" d="M14.1,12.5c-0.1,0.2-0.3,0.3-0.4,0.5c-0.4,0.5-0.8,0.9-1.2,1.4"/>
			<path class="st0" d="M9.5,18.8c-0.2,0.3-0.4,0.6-0.6,0.9c-0.5,0.9-1.1,1.8-1.6,2.7"/>
			<path class="st0" d="M18,8.8c-0.1,0.1-0.3,0.2-0.4,0.4c-0.4,0.4-0.8,0.7-1.1,1.1"/>
			<path class="st0" d="M16.5,10.2c-0.8,0.8-1.5,1.7-2.2,2.6c-0.3,0.4-0.7,0.9-1,1.3c-0.3,0.4-0.6,0.9-0.9,1.3
				c-0.6,0.9-1.1,1.7-1.7,2.6c-0.5,0.9-1.1,1.8-1.6,2.7"/>
			<line class="st0" x1="47.9" y1="55.5" x2="48.1" y2="55.5"/>
			<path class="st0" d="M2,36.3c0,0.5,0.1,1.1,0.3,1.6c0.1,0.3,0.2,0.5,0.3,0.8c0.1,0.3,0.3,0.5,0.4,0.8c0.3,0.5,0.7,1,1.2,1.5
				c0.5,0.5,1.1,1,1.7,1.4c0.7,0.5,1.4,0.9,2.1,1.2c0.4,0.2,0.8,0.4,1.2,0.5c0.4,0.2,0.9,0.3,1.3,0.5c0.9,0.3,1.9,0.6,2.8,0.9
				c1,0.3,2,0.5,3.1,0.7c1.1,0.2,2.1,0.4,3.2,0.6c1.1,0.2,2.2,0.3,3.3,0.5c1.1,0.2,2.2,0.3,3.3,0.4c1.1,0.1,2.2,0.3,3.4,0.4
				c1.1,0.1,2.3,0.3,3.4,0.4c1.1,0.1,2.3,0.2,3.4,0.3c1.1,0.1,2.3,0.2,3.4,0.3c1.1,0.1,2.3,0.2,3.4,0.3"/>
			<path class="st0" d="M38.2,55.1C38.2,55.1,38.2,55.1,38.2,55.1c0,0.1,0,0.2,0,0.3"/>
			<path class="st0" d="M38.2,55.4C38.2,55.3,38.2,55.3,38.2,55.4c0-0.2,0-0.2,0-0.3"/>
			<path class="st0" d="M48.5,56c0-0.1,0-0.1,0-0.2c0-0.1-0.1-0.1-0.1-0.1c0,0-0.1-0.1-0.2-0.1c-0.1,0-0.1,0-0.2,0"/>
			<line class="st0" x1="48.1" y1="55.5" x2="48.1" y2="55.3"/>
			<line class="st0" x1="43.7" y1="55.1" x2="43.7" y2="54.9"/>
			<path class="st0" d="M39.4,54.7c-0.1,0-0.1,0-0.2,0c-0.1,0-0.1,0-0.1,0.1c0,0-0.1,0.1-0.1,0.1c0,0.1,0,0.1,0,0.2"/>
			<line class="st0" x1="43.7" y1="55.1" x2="43.5" y2="55.1"/>
			<line class="st0" x1="39.4" y1="54.7" x2="39.4" y2="54.5"/>
			<path class="st0" d="M68.2,3.7c-2.3-0.2-4.5-0.4-6.8-0.6C60.3,3,59.2,2.9,58,2.8c-1.1-0.1-2.3-0.2-3.4-0.2
				c-1.1-0.1-2.3-0.1-3.4-0.2c-1.1-0.1-2.3-0.1-3.4-0.2c-1.2,0-2.3-0.1-3.5-0.1c-1.2,0-2.3,0-3.5,0c-1.2,0-2.3,0-3.5,0.1
				c-1.2,0.1-2.3,0.2-3.5,0.3c-1.1,0.1-2.2,0.3-3.3,0.5c-0.5,0.1-1.1,0.2-1.6,0.4c-0.5,0.1-1,0.3-1.5,0.4c-0.9,0.3-1.9,0.6-2.8,1
				C23.8,5.2,23,5.6,22.2,6c-0.4,0.2-0.7,0.4-1.1,0.6c-0.3,0.2-0.7,0.4-1,0.7c-0.6,0.4-1.2,0.9-1.8,1.4"/>
			<path class="st0" d="M18.1,8.9L18.1,8.9 M18.1,8.9L18.1,8.9"/>
			<path class="st0" d="M18.1,8.9C18,9,17.8,9.1,17.7,9.2c-0.4,0.4-0.7,0.7-1.1,1.1"/>
			<path class="st0" d="M16.5,10.4c-0.7,0.8-1.4,1.6-2.1,2.5c-0.3,0.4-0.6,0.8-0.9,1.3c-0.3,0.4-0.6,0.8-0.9,1.3
				c-0.6,0.8-1.1,1.7-1.6,2.6c-0.5,0.9-1,1.7-1.5,2.6"/>
			<path class="st0" d="M102.5,29.1c0.2-0.3,0.4-0.6,0.5-0.9c0.5-0.9,1-1.9,1.5-2.8"/>
			<path class="st0" d="M104.6,25.3c0.3-0.5,0.6-1.1,0.8-1.6c0.3-0.5,0.5-1.1,0.7-1.6c0.2-0.5,0.4-1.1,0.6-1.6
				c0.2-0.5,0.4-1.1,0.5-1.6c0.1-0.5,0.2-1.1,0.3-1.6c0.1-0.5,0.1-1.1,0-1.6c0-0.3-0.1-0.5-0.1-0.8c-0.1-0.3-0.1-0.5-0.2-0.8
				c-0.1-0.3-0.2-0.5-0.4-0.8c-0.2-0.3-0.3-0.5-0.5-0.8"/>
			<path class="st0" d="M106.4,12.4c-0.1-0.1-0.2-0.2-0.3-0.4c-0.3-0.4-0.7-0.7-1.1-1.1"/>
			<path class="st0" d="M104.8,10.8c-0.4-0.4-0.9-0.7-1.4-1c-0.5-0.3-1.1-0.6-1.7-0.9c-0.6-0.3-1.3-0.5-1.9-0.8
				c-0.7-0.2-1.4-0.5-2.1-0.6c-0.7-0.2-1.5-0.4-2.2-0.5c-0.8-0.2-1.6-0.3-2.3-0.5c-0.8-0.1-1.6-0.3-2.4-0.4
				c-0.8-0.1-1.6-0.2-2.4-0.4c-1.6-0.2-3.3-0.4-4.9-0.6c-1.7-0.2-3.3-0.4-5-0.6c-1.7-0.2-3.4-0.3-5-0.5c-1.7-0.2-3.4-0.3-5.1-0.5"/>
			<line class="st0" x1="43.3" y1="49" x2="45.1" y2="49.2"/>
			<path class="st0" d="M45.1,49.2c1.2,0.1,2.4,0.2,3.6,0.3c1.2,0.1,2.4,0.2,3.6,0.3c1.2,0.1,2.4,0.2,3.6,0.3c0.6,0,1.2,0.1,1.8,0.1
				c0.6,0,1.2,0.1,1.8,0.1c0.6,0,1.2,0.1,1.8,0.1c0.6,0,1.2,0.1,1.8,0.1c0.6,0,1.2,0.1,1.8,0.1c0.6,0,1.2,0,1.8,0.1
				c1.2,0,2.4,0.1,3.6,0.1c1.2,0,2.4,0,3.7-0.1c1.2-0.1,2.4-0.1,3.6-0.3c1.2-0.1,2.4-0.3,3.6-0.5c1.1-0.2,2.3-0.4,3.4-0.7
				c1-0.3,2.1-0.6,3.1-1c0.9-0.3,1.9-0.7,2.8-1.2c0.8-0.4,1.6-0.8,2.4-1.3c0.7-0.4,1.4-0.9,2-1.4c0.6-0.5,1.2-1,1.7-1.5"/>
			<path class="st0" d="M96.7,42.6c0.4-0.4,0.8-0.8,1.2-1.2c0.4-0.4,0.7-0.8,1.1-1.2c0.7-0.8,1.3-1.6,1.9-2.5"/>
			<path class="st0" d="M100.9,37.6L100.9,37.6 M100.8,37.6L100.8,37.6"/>
			<path class="st0" d="M100.9,37.6c0.2-0.3,0.4-0.6,0.7-1c0.6-0.9,1.2-1.9,1.8-2.9"/>
			<path class="st0" d="M103.3,33.8c0.1-0.2,0.3-0.4,0.4-0.6c0.4-0.6,0.7-1.3,1.1-1.9"/>
			<path class="st0" d="M43.7,46.3c1.6,0.1,3.3,0.3,4.9,0.4c1.6,0.1,3.3,0.3,4.9,0.4c1.6,0.1,3.3,0.2,4.9,0.3c1.7,0.1,3.3,0.2,5,0.3
				c0.8,0,1.7,0.1,2.5,0.1c0.8,0,1.7,0.1,2.5,0.1c0.8,0,1.7,0,2.5,0c0.8,0,1.7,0,2.5-0.1c0.8,0,1.7-0.1,2.5-0.2
				c0.8-0.1,1.7-0.2,2.5-0.3c0.8-0.1,1.6-0.2,2.4-0.4c0.8-0.1,1.6-0.3,2.3-0.5"/>
			<path class="st0" d="M83.1,46.6c0.7-0.2,1.4-0.4,2.1-0.6c0.7-0.2,1.3-0.4,1.9-0.7c0.6-0.2,1.2-0.5,1.8-0.8
				c0.5-0.3,1.1-0.5,1.6-0.9c0.5-0.3,1-0.6,1.4-0.9c0.4-0.3,0.9-0.6,1.3-1c0.8-0.6,1.5-1.3,2.2-2"/>
			<path class="st0" d="M95.5,39.8c0.8-0.8,1.5-1.7,2.2-2.6c0.7-0.9,1.3-1.7,1.9-2.6c0.6-0.9,1.1-1.8,1.7-2.7
				c0.5-0.9,1.1-1.8,1.6-2.7"/>
			<path class="st0" d="M7.3,22.4L7.3,22.4 M7.3,22.4L7.3,22.4"/>
			<path class="st0" d="M7.3,22.5c-0.3,0.6-0.7,1.1-1,1.7c-0.3,0.6-0.6,1.1-0.9,1.7c-0.3,0.6-0.6,1.1-0.9,1.7
				c-0.3,0.6-0.5,1.1-0.8,1.7c-0.2,0.6-0.5,1.1-0.7,1.7c-0.2,0.6-0.4,1.2-0.5,1.7c-0.1,0.6-0.3,1.2-0.3,1.7c-0.1,0.6-0.1,1.2,0,1.7"
				/>
			<path class="st0" d="M2.2,36.3c0,0.4,0.1,0.8,0.2,1.2c0.1,0.2,0.1,0.4,0.2,0.6c0.1,0.2,0.2,0.4,0.3,0.6c0.2,0.4,0.4,0.8,0.7,1.1
				c0.3,0.4,0.6,0.7,1,1.1c0.4,0.4,0.8,0.7,1.2,1c0.5,0.3,1,0.6,1.5,0.9C7.8,43,8.4,43.2,9,43.5c0.6,0.3,1.3,0.5,1.9,0.7
				c0.7,0.2,1.4,0.4,2.1,0.6c0.7,0.2,1.5,0.4,2.2,0.6c1.5,0.3,3.1,0.6,4.7,0.9c0.8,0.1,1.6,0.3,2.4,0.4c0.8,0.1,1.6,0.2,2.4,0.3
				c1.6,0.2,3.3,0.4,4.9,0.6"/>
			<line class="st0" x1="29.6" y1="47.6" x2="29.9" y2="47.6"/>
			<path class="st0" d="M29.9,47.6c1.1,0.1,2.2,0.2,3.3,0.4c1.1,0.1,2.2,0.2,3.3,0.3c2.2,0.2,4.5,0.4,6.7,0.6"/>
			<path class="st0" d="M9.2,20.7c-0.3,0.6-0.7,1.2-1,1.8c-0.3,0.6-0.7,1.2-1,1.8c-0.3,0.6-0.6,1.2-0.9,1.8C6.1,26.4,6,26.7,5.8,27
				c-0.1,0.3-0.3,0.6-0.4,0.9c-0.3,0.6-0.5,1.2-0.7,1.8c-0.2,0.6-0.4,1.2-0.5,1.8C4.1,32.1,4,32.8,4,33.4c0,0.3,0,0.6,0,0.9
				c0,0.3,0.1,0.6,0.2,0.9c0.1,0.3,0.2,0.6,0.3,0.9c0.1,0.3,0.3,0.6,0.5,0.9c0.2,0.3,0.4,0.6,0.6,0.8c0.2,0.3,0.5,0.6,0.8,0.8
				c0.6,0.6,1.4,1.1,2.1,1.5c0.4,0.2,0.9,0.5,1.3,0.7c0.5,0.2,1,0.4,1.4,0.6c0.5,0.2,1,0.4,1.6,0.5c0.6,0.2,1.1,0.3,1.7,0.5
				c1.2,0.3,2.4,0.6,3.6,0.8c0.6,0.1,1.2,0.2,1.9,0.3c0.6,0.1,1.3,0.2,1.9,0.3c1.3,0.2,2.5,0.4,3.8,0.5"/>
			<line class="st0" x1="25.6" y1="44.4" x2="25.7" y2="44.4"/>
			<path class="st0" d="M25.7,44.4c2.2,0.3,4.4,0.6,6.7,0.8c2.3,0.2,4.5,0.5,6.8,0.7"/>
			<path class="st0" d="M43.8,46c1.6,0.1,3.2,0.3,4.9,0.4c1.6,0.1,3.3,0.3,4.9,0.4c1.6,0.1,3.3,0.2,4.9,0.3c1.6,0.1,3.3,0.2,4.9,0.3
				c0.8,0,1.7,0.1,2.5,0.1c0.8,0,1.7,0.1,2.5,0.1c0.8,0,1.7,0,2.5,0c0.8,0,1.7,0,2.5-0.1c0.8,0,1.7-0.1,2.5-0.2
				c0.8-0.1,1.6-0.2,2.5-0.3c0.8-0.1,1.6-0.2,2.4-0.4c0.8-0.1,1.5-0.3,2.3-0.5"/>
			<path class="st0" d="M83.1,46.3c0.8-0.2,1.6-0.4,2.3-0.7c0.7-0.2,1.4-0.5,2.1-0.8c1.3-0.5,2.5-1.2,3.6-1.9c1-0.6,1.9-1.4,2.8-2.1
				c0.4-0.4,0.8-0.7,1.2-1.1c0.4-0.4,0.7-0.8,1-1.1c0.3-0.4,0.6-0.8,1-1.2c0.3-0.4,0.6-0.8,0.9-1.2c0.6-0.8,1.1-1.6,1.6-2.4
				c0.5-0.8,1-1.6,1.5-2.4c0.5-0.8,0.9-1.6,1.4-2.4"/>
			<path class="st0" d="M43.3,49C43.3,49,43.3,49,43.3,49c0,0.2,0,0.3,0,0.3"/>
			<path class="st0" d="M104.8,31.2c0,0,0.1,0.1,0.1,0.1c0,0.1,0,0.1,0,0.2"/>
			<path class="st0" d="M68.2,3.7C68.2,3.7,68.2,3.7,68.2,3.7C68.2,3.7,68.3,3.6,68.2,3.7"/>
			<path class="st0" d="M9.5,20.6c-0.1,0-0.1,0-0.2,0c-0.1,0-0.1,0-0.1,0.1"/>
			<path class="st0" d="M43.8,46c0,0,0,0.1,0,0.1c0,0.1,0,0.1,0,0.2"/>
			<path class="st0" d="M102.5,29.1c0.1,0,0.1,0,0.2,0c0.1,0,0.1,0.1,0.1,0.1"/>
			<path class="st0" d="M9.5,20.6c-0.3,0.6-0.7,1.2-1,1.8c-0.3,0.6-0.7,1.2-1,1.8c-0.3,0.6-0.6,1.2-0.9,1.8
				c-0.3,0.6-0.6,1.2-0.8,1.8c-0.3,0.6-0.5,1.2-0.7,1.8c-0.2,0.6-0.4,1.2-0.5,1.8c-0.1,0.6-0.2,1.2-0.2,1.8c0,0.3,0,0.6,0,0.9
				c0,0.3,0.1,0.6,0.2,0.9c0.1,0.3,0.2,0.6,0.3,0.9c0.1,0.3,0.3,0.6,0.5,0.9c0.2,0.3,0.4,0.6,0.6,0.8c0.2,0.3,0.5,0.6,0.8,0.8
				C7.3,39,8,39.4,8.7,39.9c0.4,0.2,0.9,0.5,1.3,0.7c0.5,0.2,0.9,0.4,1.4,0.6c0.5,0.2,1,0.4,1.5,0.5c0.5,0.2,1.1,0.3,1.6,0.5
				c1.2,0.3,2.3,0.6,3.5,0.8c0.6,0.1,1.2,0.2,1.8,0.3c0.6,0.1,1.2,0.2,1.9,0.3c1.3,0.2,2.5,0.4,3.8,0.5"/>
			<line class="st0" x1="25.6" y1="44.1" x2="25.8" y2="44.1"/>
			<path class="st0" d="M25.8,44.1c2.2,0.3,4.4,0.6,6.6,0.8c2.2,0.2,4.5,0.5,6.7,0.7"/>
			<path class="st0" d="M104.8,31.2c0.6-1,1.2-2.1,1.8-3.1c0.3-0.5,0.6-1,0.8-1.6c0.3-0.5,0.5-1,0.8-1.6c0.2-0.5,0.5-1,0.7-1.6
				c0.2-0.5,0.4-1,0.6-1.6c0.3-1,0.6-2.1,0.6-3.2"/>
			<path class="st0" d="M110,18.6L110,18.6 M110,18.6L110,18.6"/>
			<path class="st0" d="M110,18.5c0-0.4,0-0.8-0.1-1.2c-0.1-0.4-0.1-0.8-0.3-1.2"/>
			<path class="st0" d="M109.4,15.2c-0.1-0.1-0.1-0.2-0.2-0.3c-0.2-0.3-0.4-0.7-0.6-1"/>
			<path class="st0" d="M108.4,13.8c-0.1-0.1-0.2-0.2-0.3-0.4c-0.3-0.4-0.7-0.7-1.1-1.1"/>
			<path class="st0" d="M102.9,29.2c0.4-0.8,0.9-1.5,1.3-2.3c0.4-0.8,0.8-1.5,1.2-2.3"/>
			<path class="st0" d="M105.4,24.7c0.3-0.5,0.5-1,0.7-1.5c0.2-0.5,0.5-1,0.7-1.6c0.2-0.5,0.4-1,0.6-1.6c0.2-0.5,0.3-1,0.4-1.6
				c0.1-0.5,0.2-1,0.2-1.6c0-0.5,0-1-0.1-1.6c0-0.3-0.1-0.5-0.2-0.8c-0.1-0.3-0.2-0.5-0.3-0.8c-0.1-0.3-0.3-0.5-0.4-0.8
				c-0.2-0.3-0.3-0.5-0.5-0.7"/>
			<line class="st0" x1="106.6" y1="12.3" x2="106.5" y2="12.3"/>
			<path class="st0" d="M106.5,12.2c-0.1-0.1-0.2-0.3-0.3-0.4c-0.4-0.4-0.8-0.7-1.2-1.1"/>
			<path class="st0" d="M105,31.5c0.6-1.1,1.2-2.1,1.8-3.2c0.3-0.5,0.6-1.1,0.8-1.6c0.3-0.5,0.5-1.1,0.8-1.6
				c0.2-0.5,0.5-1.1,0.7-1.6c0.2-0.5,0.4-1.1,0.6-1.6c0.2-0.5,0.3-1.1,0.4-1.6c0.1-0.5,0.2-1.1,0.2-1.6"/>
			<path class="st0" d="M49,56.4C49,56.4,49,56.5,49,56.4c0,0.2,0,0.2,0,0.3"/>
			<path class="st0" d="M45,72.4c-1.5-0.1-3-0.3-4.5-0.4c-1.5-0.1-3-0.2-4.5-0.3c-1.5-0.1-3-0.2-4.4-0.3c-0.7-0.1-1.5-0.1-2.2-0.2
				c-0.7-0.1-1.5-0.1-2.2-0.2c-0.7-0.1-1.4-0.1-2.2-0.2c-0.7-0.1-1.4-0.1-2.2-0.2c-0.7-0.1-1.4-0.1-2.1-0.2
				c-0.7-0.1-1.4-0.2-2.1-0.3c-0.7-0.1-1.3-0.2-2-0.3c-0.6-0.1-1.3-0.3-1.9-0.4c-0.6-0.2-1.2-0.3-1.8-0.5c-0.5-0.2-1.1-0.4-1.6-0.6"
				/>
			<path class="st0" d="M48.1,56.5c0,0.1,0,0.2,0,0.2c0,0.1,0,0.2,0,0.2c0,0.1,0,0.1,0,0.2c0,0.1,0,0.1-0.1,0.1"/>
			<path class="st0" d="M89.4,71.8c-0.7,0.4-1.4,0.7-2.1,1c-0.8,0.3-1.6,0.6-2.4,0.9c-0.9,0.3-1.7,0.5-2.6,0.6
				c-0.9,0.2-1.8,0.3-2.8,0.4c-1,0.1-1.9,0.2-2.9,0.2c-1,0-1.9,0-2.9,0c-1,0-1.9-0.1-2.9-0.1c-1-0.1-1.9-0.1-2.9-0.2
				c-1-0.1-1.9-0.2-2.9-0.3c-1-0.1-1.9-0.2-2.9-0.3c-1-0.1-1.9-0.2-2.9-0.3c-1-0.1-1.9-0.2-2.9-0.3c-1.9-0.2-3.8-0.4-5.7-0.6
				c-1.9-0.2-3.8-0.4-5.7-0.6"/>
			<path class="st0" d="M104.6,54.2c0.3-0.5,0.6-1,0.9-1.6c0.3-0.5,0.6-1,0.9-1.5c0.3-0.5,0.6-1,0.8-1.5c0.3-0.5,0.5-1,0.8-1.5
				c0.2-0.5,0.5-1,0.7-1.4c0.2-0.5,0.4-0.9,0.6-1.4c0.2-0.5,0.3-0.9,0.4-1.4c0.1-0.5,0.2-0.9,0.2-1.4"/>
			<path class="st0" d="M44.3,71.6c1.9,0.2,3.8,0.4,5.7,0.6c1.9,0.2,3.8,0.4,5.7,0.6c1,0.1,1.9,0.2,2.9,0.3c1,0.1,1.9,0.2,2.9,0.3
				c1,0.1,1.9,0.2,2.9,0.3c1,0.1,1.9,0.2,2.9,0.3c1,0.1,1.9,0.2,2.9,0.2c1,0.1,2,0.1,2.9,0.1c1,0,2,0,2.9,0c1,0,1.9-0.1,2.9-0.2
				c0.9-0.1,1.9-0.2,2.8-0.3c0.9-0.1,1.8-0.3,2.7-0.5c0.9-0.2,1.7-0.5,2.5-0.7c0.8-0.3,1.6-0.6,2.3-0.9"/>
			<path class="st0" d="M90.8,70.8c0.5-0.3,1-0.6,1.5-0.9c0.5-0.3,0.9-0.6,1.3-0.9c0.4-0.3,0.8-0.6,1.2-1c0.4-0.3,0.7-0.7,1.1-1
				c0.7-0.7,1.3-1.4,1.9-2.1c0.6-0.7,1.1-1.4,1.6-2.2c0.5-0.7,1-1.4,1.4-2.1c0.4-0.7,0.9-1.4,1.3-2.1c0.8-1.4,1.6-2.7,2.4-4.1"/>
			<path class="st0" d="M104.6,54.2L104.6,54.2 M104.6,54.4l0.1-0.1"/>
			<path class="st0" d="M44.4,71.9c1.9,0.2,3.8,0.4,5.7,0.6c1.9,0.2,3.8,0.4,5.7,0.6c1,0.1,1.9,0.2,2.9,0.3c1,0.1,1.9,0.2,2.9,0.3
				c1,0.1,1.9,0.2,2.9,0.3c1,0.1,1.9,0.2,2.9,0.3c1,0.1,1.9,0.2,2.9,0.2c1,0.1,2,0.1,2.9,0.1c1,0,2,0,2.9,0c1,0,1.9-0.1,2.9-0.2
				c0.9-0.1,1.9-0.2,2.8-0.4c0.9-0.1,1.8-0.3,2.7-0.6c0.8-0.2,1.7-0.5,2.5-0.8c0.8-0.3,1.5-0.6,2.3-0.9"/>
			<path class="st0" d="M48.1,56.5c0,0,0.1,0,0.1,0c0,0,0.1,0,0.1-0.1c0,0,0.1-0.1,0.1-0.1c0,0,0-0.1,0.1-0.1"/>
			<path class="st0" d="M48.5,56.2c0,0,0-0.1,0-0.1c0,0,0,0,0,0"/>
			<path class="st0" d="M38.2,55.4c-0.9-0.1-1.9-0.2-2.8-0.3c-2.8-0.3-5.6-0.6-8.4-1"/>
			<path class="st0" d="M26.9,54.2c-1.5-0.2-3-0.4-4.6-0.6c-1.5-0.2-3-0.5-4.5-0.7c-1.4-0.3-2.8-0.6-4.2-0.9c-0.7-0.2-1.3-0.4-2-0.6
				c-0.6-0.2-1.2-0.4-1.8-0.7c-0.6-0.2-1.1-0.5-1.7-0.7c-0.5-0.3-1-0.5-1.5-0.8c-0.4-0.3-0.8-0.6-1.2-0.9c-0.4-0.3-0.7-0.6-1-1
				c-0.3-0.3-0.6-0.6-0.8-1c-0.2-0.3-0.4-0.7-0.6-1c-0.2-0.3-0.3-0.7-0.4-1.1c-0.1-0.4-0.1-0.7-0.2-1.1"/>
			<path class="st0" d="M104.9,38.3c-0.4,0.7-0.9,1.5-1.3,2.2c-0.4,0.7-0.9,1.5-1.4,2.2c-0.5,0.7-1,1.5-1.5,2.2
				c-0.5,0.7-1.1,1.5-1.7,2.2c-0.6,0.7-1.3,1.5-1.9,2.2c-0.7,0.7-1.5,1.4-2.4,2.1c-0.5,0.3-0.9,0.7-1.4,1c-0.5,0.3-1,0.6-1.6,0.9
				c-0.6,0.3-1.2,0.6-1.7,0.9c-0.6,0.3-1.3,0.6-1.9,0.8c-0.7,0.3-1.4,0.5-2.1,0.7c-0.7,0.2-1.5,0.4-2.2,0.6
				c-0.8,0.2-1.6,0.3-2.4,0.5c-0.8,0.1-1.6,0.3-2.4,0.4c-0.8,0.1-1.7,0.2-2.5,0.3c-0.8,0.1-1.7,0.1-2.5,0.2
				c-1.7,0.1-3.4,0.1-5.1,0.1c-0.8,0-1.7,0-2.5-0.1c-0.8,0-1.7-0.1-2.5-0.1c-1.7-0.1-3.3-0.2-5-0.3c-1.7-0.1-3.3-0.2-5-0.3
				c-1.6-0.1-3.3-0.3-4.9-0.4"/>
			<path class="st0" d="M48.8,57c-0.1,0.1-0.2,0.2-0.4,0.3c-0.2,0.1-0.3,0.1-0.5,0.1"/>
			<path class="st0" d="M9.9,67.5c0.1,0.1,0.2,0.1,0.4,0.2c0.4,0.2,0.7,0.3,1.1,0.4"/>
			<path class="st0" d="M11.4,68.1c0.6,0.2,1.1,0.4,1.7,0.5c0.6,0.2,1.2,0.3,1.8,0.4c1.3,0.3,2.6,0.5,3.9,0.6
				c1.4,0.2,2.7,0.3,4.1,0.4c0.7,0.1,1.4,0.1,2.1,0.2c0.7,0.1,1.4,0.1,2.1,0.2c1.4,0.1,2.8,0.2,4.3,0.3c1.4,0.1,2.9,0.2,4.3,0.3
				c1.4,0.1,2.9,0.2,4.3,0.3c1.4,0.1,2.9,0.2,4.3,0.4"/>
			<path class="st0" d="M48.9,56.2C48.9,56.1,48.9,56.1,48.9,56.2c-0.1,0-0.1-0.1-0.2-0.1"/>
			<path class="st0" d="M48.8,56.1C48.8,56.1,48.7,56.1,48.8,56.1c-0.1,0-0.2,0-0.2,0"/>
			<path class="st0" d="M48.8,57c0,0.1-0.1,0.1-0.2,0.2c-0.1,0-0.1,0.1-0.2,0.1c-0.2,0.1-0.3,0.1-0.5,0.1"/>
			<path class="st0" d="M4,60.2c0,0.3,0.1,0.6,0.1,0.9c0,0.1,0,0.2,0.1,0.3"/>
			<path class="st0" d="M4.2,61.6c0.1,0.3,0.2,0.6,0.3,0.9c0.1,0.3,0.3,0.6,0.5,0.9"/>
			<path class="st0" d="M5,63.4c0,0.1,0.1,0.2,0.1,0.2c0.2,0.2,0.3,0.5,0.5,0.7"/>
			<path class="st0" d="M5.8,64.4C6,64.7,6.3,65,6.5,65.2c0.3,0.3,0.6,0.5,0.9,0.7c0.7,0.5,1.5,0.9,2.3,1.3"/>
			<path class="st0" d="M10,67.3c0.1,0.1,0.2,0.1,0.4,0.2c0.4,0.2,0.7,0.3,1.1,0.4"/>
			<path class="st0" d="M11.7,68c1.2,0.4,2.3,0.7,3.5,0.9c0.6,0.1,1.3,0.2,1.9,0.3c0.7,0.1,1.3,0.2,2,0.3c1.4,0.2,2.7,0.3,4.1,0.4
				c0.7,0.1,1.4,0.1,2.1,0.2c0.7,0.1,1.4,0.1,2.1,0.2c1.4,0.1,2.8,0.2,4.2,0.3c1.4,0.1,2.8,0.2,4.2,0.3c1.4,0.1,2.8,0.2,4.3,0.3
				c1.4,0.1,2.9,0.2,4.3,0.4"/>
			<path class="st0" d="M43.8,56.1c0,0.1,0,0.2,0,0.2c0,0.1,0,0.2,0,0.2c0,0.1,0,0.1-0.1,0.2c0,0.1,0,0.1-0.1,0.1"/>
			<path class="st0" d="M39,55.3c0,0.1,0.1,0.2,0.2,0.2c0.1,0.1,0.2,0.1,0.3,0.1"/>
			<path class="st0" d="M39.5,55.7c0,0.1,0,0.2,0,0.2c0,0.1,0,0.2,0,0.2c0,0.1,0,0.1-0.1,0.2c0,0.1,0,0.1-0.1,0.1"/>
			<path class="st0" d="M39.3,56.5c-0.1,0-0.3-0.1-0.4-0.1c-0.1-0.1-0.3-0.1-0.4-0.3c-0.1-0.1-0.1-0.1-0.1-0.2
				c0-0.1-0.1-0.1-0.1-0.2c-0.1-0.1-0.1-0.3-0.1-0.4"/>
			<path class="st0" d="M38.2,55.4C38.2,55.4,38.2,55.4,38.2,55.4c0-0.1,0.1-0.1,0.1-0.1"/>
			<path class="st0" d="M38.3,55.3C38.3,55.3,38.3,55.3,38.3,55.3c0.1,0,0.1-0.1,0.2-0.1"/>
			<path class="st0" d="M38.5,55.2C38.5,55.2,38.5,55.2,38.5,55.2c0.1,0,0.2,0,0.2,0"/>
			<path class="st0" d="M38.8,55.2C38.8,55.2,38.8,55.2,38.8,55.2c0.1,0,0.2,0,0.3,0"/>
			<path class="st0" d="M110.1,25.4c0,0.1,0,0.1,0,0.2c0,0.2,0,0.4,0,0.6"/>
			<path class="st0" d="M110,26.6c-0.1,0.5-0.2,1-0.3,1.5c-0.1,0.5-0.3,1-0.5,1.5c-0.2,0.5-0.4,1-0.6,1.5c-0.2,0.5-0.4,1-0.6,1.5
				c-0.2,0.5-0.5,1-0.7,1.5c-0.2,0.5-0.5,1-0.8,1.5c-0.5,1-1.1,1.9-1.6,2.9"/>
			<path class="st0" d="M104.9,38.2L104.9,38.2 M104.9,38.2L104.9,38.2"/>
			<path class="st0" d="M44.3,71.6c0,0,0,0.1,0,0.1c0,0,0,0,0,0c0,0,0,0,0,0"/>
			<path class="st0" d="M104.6,54.2C104.6,54.3,104.6,54.3,104.6,54.2c0,0.1,0,0.1,0,0.2"/>
			<path class="st0" d="M39.3,56.5c-0.1,0-0.3-0.1-0.4-0.1c-0.1-0.1-0.3-0.1-0.4-0.2c-0.1-0.1-0.2-0.2-0.2-0.3
				c-0.1-0.1-0.1-0.3-0.1-0.4"/>
		</g>
	</g>
</g>
</svg>
