<?xml version="1.0" encoding="utf-8"?>
<!-- Generator: Adobe Illustrator 27.1.1, SVG Export Plug-In . SVG Version: 6.00 Build 0)  -->
<svg version="1.1" id="Layer_1" xmlns="http://www.w3.org/2000/svg" xmlns:xlink="http://www.w3.org/1999/xlink" x="0px" y="0px"
	 viewBox="0 0 148 59.8" style="enable-background:new 0 0 148 59.8;" xml:space="preserve">
<style type="text/css">
	.st0{fill:#575755;}
	.st1{fill:none;stroke:#010101;stroke-width:0.283;stroke-miterlimit:10;}
	.st2{fill:none;stroke:#575755;stroke-width:0.283;stroke-linecap:round;stroke-linejoin:round;stroke-miterlimit:10;}
	.st3{fill:none;}
	.st4{fill:#FFFFFF;}
	.st5{fill:none;stroke:#575755;stroke-width:0.283;stroke-miterlimit:22.926;}
</style>
<path class="st0" d="M43.8,18h-1l0.2,0.5h-0.3L42.5,18h-1l-0.1-0.2h1l-0.2-0.5h0.3l0.2,0.5h1L43.8,18z M37.6,21.7
	c-0.2,0.1-0.6,0.1-0.9,0.1c-0.5,0-0.9-0.1-1.3-0.2c-0.4-0.2-0.6-0.4-0.7-0.6c-0.1-0.3,0-0.5,0.3-0.7c0.3-0.2,0.7-0.3,1.2-0.3
	c0.3,0,0.6,0,0.9,0.1l0.1,0.2c-0.3-0.1-0.6-0.1-0.9-0.1c-0.4,0-0.7,0.1-0.9,0.2c-0.2,0.1-0.3,0.3-0.2,0.5c0.1,0.2,0.2,0.4,0.5,0.5
	c0.3,0.1,0.6,0.2,1,0.2c0.4,0,0.6,0,0.9-0.1L37.6,21.7z M41.2,21.8h-0.5l-0.8-0.5c-0.2-0.1-0.3-0.2-0.4-0.2c-0.1,0-0.2-0.1-0.4-0.1
	h-0.3l0.3,0.7h-0.5L38,20H39c0.3,0,0.6,0,0.9,0.1c0.2,0.1,0.4,0.2,0.4,0.3c0.1,0.2-0.1,0.4-0.6,0.5l0,0c0.1,0,0.2,0,0.3,0.1
	c0.1,0,0.2,0.1,0.3,0.2L41.2,21.8z M38.5,20.2l0.2,0.6h0.5c0.2,0,0.4,0,0.5-0.1c0.1-0.1,0.1-0.1,0.1-0.2c0-0.1-0.1-0.2-0.3-0.2
	c-0.1-0.1-0.3-0.1-0.5-0.1H38.5z M43,20.5c0-0.1-0.1-0.2-0.3-0.2c-0.1-0.1-0.3-0.1-0.5-0.1c-0.1,0-0.3,0-0.4,0.1
	c-0.1,0-0.3,0.1-0.4,0.2l-0.1-0.2c0.1-0.1,0.2-0.1,0.3-0.1c0.1,0,0.3,0,0.5,0c0.3,0,0.6,0,0.8,0.1c0.2,0.1,0.4,0.2,0.4,0.3
	c0,0.1,0,0.2-0.1,0.3c-0.1,0.1-0.3,0.2-0.5,0.3c-0.3,0.1-0.4,0.2-0.5,0.2c-0.1,0-0.1,0.1-0.2,0.1c0,0,0,0.1,0,0.1h1.8l0.1,0.2h-2.2
	l0-0.1c0-0.1,0-0.2,0-0.3c0-0.1,0.1-0.1,0.2-0.2c0.1-0.1,0.3-0.1,0.5-0.2c0.2-0.1,0.4-0.2,0.5-0.3C43,20.6,43,20.6,43,20.5
	 M44.4,20.9c-0.1-0.3-0.1-0.5,0.1-0.7c0.2-0.2,0.4-0.2,0.8-0.2c0.8,0,1.2,0.3,1.4,0.9c0.1,0.3,0.1,0.5-0.1,0.7
	c-0.2,0.2-0.4,0.2-0.8,0.2c-0.4,0-0.7-0.1-0.9-0.2C44.7,21.4,44.5,21.2,44.4,20.9 M44.9,20.9c0.2,0.5,0.5,0.7,1,0.7
	c0.5,0,0.6-0.2,0.5-0.7c-0.2-0.5-0.5-0.7-1-0.7C44.8,20.2,44.7,20.4,44.9,20.9 M47.8,21.5c0.3,0.1,0.6,0.1,0.9,0.1
	c0.2,0,0.4,0,0.6-0.1c0.1-0.1,0.2-0.1,0.1-0.2c-0.1-0.2-0.4-0.3-1.1-0.3h-0.3l-0.1-0.2h0.3c0.6,0,0.8-0.1,0.7-0.3
	c-0.1-0.2-0.3-0.3-0.8-0.3c-0.2,0-0.5,0-0.7,0.1l-0.1-0.2c0.2-0.1,0.5-0.1,0.8-0.1c0.3,0,0.6,0,0.8,0.1c0.2,0.1,0.3,0.2,0.4,0.3
	c0.1,0.2-0.1,0.4-0.6,0.4l0,0c0.3,0,0.5,0.1,0.7,0.1s0.3,0.2,0.3,0.3c0.1,0.2,0,0.3-0.2,0.4c-0.2,0.1-0.5,0.1-0.9,0.1
	c-0.3,0-0.6,0-0.8-0.1L47.8,21.5z M52.1,20.5c0-0.1-0.1-0.2-0.3-0.2c-0.1-0.1-0.3-0.1-0.5-0.1c-0.1,0-0.3,0-0.4,0.1
	c-0.1,0-0.3,0.1-0.4,0.2l-0.1-0.2c0.1-0.1,0.2-0.1,0.3-0.1c0.1,0,0.3,0,0.5,0c0.3,0,0.6,0,0.8,0.1c0.2,0.1,0.4,0.2,0.4,0.3
	c0,0.1,0,0.2-0.1,0.3c-0.1,0.1-0.3,0.2-0.5,0.3c-0.3,0.1-0.4,0.2-0.5,0.2c-0.1,0-0.1,0.1-0.2,0.1c0,0,0,0.1,0,0.1H53l0.1,0.2h-2.2
	l0-0.1c0-0.1,0-0.2,0-0.3c0-0.1,0.1-0.1,0.2-0.2c0.1-0.1,0.3-0.1,0.5-0.2c0.2-0.1,0.4-0.2,0.5-0.3C52.1,20.6,52.1,20.6,52.1,20.5"/>
<path class="st1" d="M43.8,18h-1l0.2,0.5h-0.3L42.5,18h-1l-0.1-0.2h1l-0.2-0.5h0.3l0.2,0.5h1L43.8,18z M37.6,21.7
	c-0.2,0.1-0.6,0.1-0.9,0.1c-0.5,0-0.9-0.1-1.3-0.2c-0.4-0.2-0.6-0.4-0.7-0.6c-0.1-0.3,0-0.5,0.3-0.7c0.3-0.2,0.7-0.3,1.2-0.3
	c0.3,0,0.6,0,0.9,0.1l0.1,0.2c-0.3-0.1-0.6-0.1-0.9-0.1c-0.4,0-0.7,0.1-0.9,0.2c-0.2,0.1-0.3,0.3-0.2,0.5c0.1,0.2,0.2,0.4,0.5,0.5
	c0.3,0.1,0.6,0.2,1,0.2c0.4,0,0.6,0,0.9-0.1L37.6,21.7z M41.2,21.8h-0.5l-0.8-0.5c-0.2-0.1-0.3-0.2-0.4-0.2c-0.1,0-0.2-0.1-0.4-0.1
	h-0.3l0.3,0.7h-0.5L38,20H39c0.3,0,0.6,0,0.9,0.1c0.2,0.1,0.4,0.2,0.4,0.3c0.1,0.2-0.1,0.4-0.6,0.5l0,0c0.1,0,0.2,0,0.3,0.1
	c0.1,0,0.2,0.1,0.3,0.2L41.2,21.8z M38.5,20.2l0.2,0.6h0.5c0.2,0,0.4,0,0.5-0.1c0.1-0.1,0.1-0.1,0.1-0.2c0-0.1-0.1-0.2-0.3-0.2
	c-0.1-0.1-0.3-0.1-0.5-0.1H38.5z M43,20.5c0-0.1-0.1-0.2-0.3-0.2c-0.1-0.1-0.3-0.1-0.5-0.1c-0.1,0-0.3,0-0.4,0.1
	c-0.1,0-0.3,0.1-0.4,0.2l-0.1-0.2c0.1-0.1,0.2-0.1,0.3-0.1c0.1,0,0.3,0,0.5,0c0.3,0,0.6,0,0.8,0.1c0.2,0.1,0.4,0.2,0.4,0.3
	c0,0.1,0,0.2-0.1,0.3c-0.1,0.1-0.3,0.2-0.5,0.3c-0.3,0.1-0.4,0.2-0.5,0.2c-0.1,0-0.1,0.1-0.2,0.1c0,0,0,0.1,0,0.1h1.8l0.1,0.2h-2.2
	l0-0.1c0-0.1,0-0.2,0-0.3c0-0.1,0.1-0.1,0.2-0.2c0.1-0.1,0.3-0.1,0.5-0.2c0.2-0.1,0.4-0.2,0.5-0.3C43,20.6,43,20.6,43,20.5z
	 M44.4,20.9c-0.1-0.3-0.1-0.5,0.1-0.7c0.2-0.2,0.4-0.2,0.8-0.2c0.8,0,1.2,0.3,1.4,0.9c0.1,0.3,0.1,0.5-0.1,0.7
	c-0.2,0.2-0.4,0.2-0.8,0.2c-0.4,0-0.7-0.1-0.9-0.2C44.7,21.4,44.5,21.2,44.4,20.9z M44.9,20.9c0.2,0.5,0.5,0.7,1,0.7
	c0.5,0,0.6-0.2,0.5-0.7c-0.2-0.5-0.5-0.7-1-0.7C44.8,20.2,44.7,20.4,44.9,20.9z M47.8,21.5c0.3,0.1,0.6,0.1,0.9,0.1
	c0.2,0,0.4,0,0.6-0.1c0.1-0.1,0.2-0.1,0.1-0.2c-0.1-0.2-0.4-0.3-1.1-0.3h-0.3l-0.1-0.2h0.3c0.6,0,0.8-0.1,0.7-0.3
	c-0.1-0.2-0.3-0.3-0.8-0.3c-0.2,0-0.5,0-0.7,0.1l-0.1-0.2c0.2-0.1,0.5-0.1,0.8-0.1c0.3,0,0.6,0,0.8,0.1c0.2,0.1,0.3,0.2,0.4,0.3
	c0.1,0.2-0.1,0.4-0.6,0.4l0,0c0.3,0,0.5,0.1,0.7,0.1s0.3,0.2,0.3,0.3c0.1,0.2,0,0.3-0.2,0.4c-0.2,0.1-0.5,0.1-0.9,0.1
	c-0.3,0-0.6,0-0.8-0.1L47.8,21.5z M52.1,20.5c0-0.1-0.1-0.2-0.3-0.2c-0.1-0.1-0.3-0.1-0.5-0.1c-0.1,0-0.3,0-0.4,0.1
	c-0.1,0-0.3,0.1-0.4,0.2l-0.1-0.2c0.1-0.1,0.2-0.1,0.3-0.1c0.1,0,0.3,0,0.5,0c0.3,0,0.6,0,0.8,0.1c0.2,0.1,0.4,0.2,0.4,0.3
	c0,0.1,0,0.2-0.1,0.3c-0.1,0.1-0.3,0.2-0.5,0.3c-0.3,0.1-0.4,0.2-0.5,0.2c-0.1,0-0.1,0.1-0.2,0.1c0,0,0,0.1,0,0.1H53l0.1,0.2h-2.2
	l0-0.1c0-0.1,0-0.2,0-0.3c0-0.1,0.1-0.1,0.2-0.2c0.1-0.1,0.3-0.1,0.5-0.2c0.2-0.1,0.4-0.2,0.5-0.3C52.1,20.6,52.1,20.6,52.1,20.5"/>
<path class="st2" d="M50.6,10l-0.5,0.6 M54.9,29.2L54.9,29.2 M52.7,29.8L52.7,29.8c0.1-0.7,1.6-1,2.1-0.7l0.1,0 M52.3,14.1
	L52.3,14.1 M57.8,28.3l0,0.6 M58,31.5v0.3 M57.7,28.3l0,0.6 M56.8,17.6l0,0.3 M57.1,30.8l0.1,2 M55.6,11.9l0-0.8 M56.7,29.4l0,0.5
	 M55.8,16.4v0.4 M56.7,29.4v0.5 M55.7,16.3l0,0.3 M56.6,30.8l0.1,2 M55.8,30.2l0.2,3.2 M52.2,29.9l0,0.3l0.2,0.3l0.3,0.2 M55.5,30.1
	l-0.1-0.3 M55.5,29.2l-0.1-0.3c-0.7-0.9-2.9-0.4-3.2,0.7v0.3 M39.3,13.5L39,13.4 M39,13.8l0.3,0.1 M33.9,13.1L33.2,13 M32.7,13.6
	l-1-0.3 M34.4,13.9l-1-0.3 M33.4,14l-0.3-0.1 M33,14l1,0.3 M31.4,13.7l1,0.2 M32.8,14.2l-0.3-0.1 M31.9,14.5l0.6,0.1 M56.8,18l0.3,0
	 M24,22.4L24,22.4c0.7-0.3,1.7-0.3,2.1,0.3l0,0.1 M42,12.6l-0.2,0.2 M26.2,23.7l0.3-0.2l0.2-0.3l0.1-0.3v-0.2 M50.5,32.4l-0.2-4.6
	 M51.6,30.5l0.2,3.2 M51.6,37.7v-0.2 M51.3,37.8L51.3,37.8 M42.2,12.7l0-0.2 M41.9,12.4l0.1,0.2 M54.9,29.2L54.9,29.2 M63.6,25.8
	l-3-0.7 M63.6,25.9l-3-0.7 M64.8,26.2l-1.1-0.3 M64.8,26.2l-1-0.3 M62.1,25.6l-1.3-0.3 M62.1,25.6l-1.3-0.3 M27.7,17.9l0.5,0.1
	 M27.8,18.3l0.3,0.1 M26.7,18.1l0.7,0.2 M27.1,18.5l-0.7-0.1 M27.9,18.7l-0.3-0.1 M27.2,19l-0.5-0.1 M59.2,27l1.3,0.3 M60.5,27.5
	l-1.3-0.3 M60.5,28.1l-1.3-0.3 M15.6,18l-1-0.3 M66.8,30l-1-0.3 M57.8,28.2l2.9,0.7 M64.3,23.2l1.1-0.3 M65.6,23.4l-1,0.2
	 M32.3,16.8l0.4-0.4 M34,14.3l0.3-0.3 M29.6,18.9l2.6-2.8 M33.4,13.7l0.5-0.6 M32.5,14.6L33,14 M33.1,13.9l-0.3,0.3 M32.4,13.9
	l-0.5,0.6 M33.2,13l-0.5,0.6 M27.6,18.6L27.2,19 M28.2,18l-0.4,0.4 M29.2,16.9l0.3-0.3 M27.4,18.3l0.3-0.4 M26.7,18.9l0.4-0.4
	 M31.8,13.3l-0.3,0.4 M46.9,27.8v-0.1 M42.3,12.8v0.3 M42.2,13.2v-0.3 M42,13.1v0.4 M42.9,12.8l0-0.9 M42.2,12.4l0-0.9 M39.1,13.1
	L39,12.9 M38.9,13.4l-0.1-0.2 M38.8,13.5l0,0.2 M51.1,37.8l-0.2-0.4 M54.9,30.1L54.9,30.1L54.9,30.1 M52.6,30.6l0.3,0.2l0.3,0.1
	l0.4,0.1h0.4l0.4,0l0.3-0.1 M54.8,29.4L54.8,29.4 M23.9,21.9L23.9,21.9 M60.7,29.1l-3-0.7 M60.8,29.6l-3-0.7 M56.8,29.2l4.2,1
	 M60.9,30.4l-4.2-1 M55.1,29.2l0.7,0.2 M23.1,21.7l0.8,0.2 M55,29.7l0.7,0.2 M23,22.2l0.8,0.2 M58.5,30.9l0.7,0.2 M45.7,28.2
	L30,24.5 M58.3,31.2l-1.2-0.3 M61,31.8l-1.7-0.4 M63.2,32.6l1,0.2 M12,20.6l1,0.2 M58.7,31.7L58,31.5 M58.7,32L58,31.9 M63.3,33.5
	l1,0.2 M12,21.5l0.5,0.1 M57.4,33l1,0.2 M21,24.5l1,0.2 M17.5,23.7l0.9,0.2 M30.7,27l10.6,2.5 M54.8,29.4l-0.3,0H54l-0.4,0.1
	l-0.4,0.1l-0.3,0.2l-0.1,0.1 M26.4,18.4l0.3-0.3 M41.9,13.5l0-0.3 M39.6,13.5v0.3 M39.3,13.9l0-0.3 M39,13.4v0.3 M38.9,13.7v-0.3
	 M38.8,13.2l0,0.3 M38.8,29.4l0,0.7 M37.1,14.1l0-0.7 M31.8,13.3l0.3,0.5 M26.2,22.8L26,22.7l-0.4-0.1l-0.4,0h-0.4l-0.4,0l-0.3,0.1
	l-0.3,0.1L23.6,23l-0.1,0.2l0,0.3 M20.4,24.7l-1.5-0.3 M59.8,33.9L59,33.7 M57.3,33.6l1,0.2 M20.9,25l1,0.2 M17.4,24.2l0.9,0.2
	 M58.7,34l0.7,0.1 M18.5,24.6l1.8,0.5 M30.9,27.6l9.3,2.2 M37.3,29.1l-2-0.4 M35,28.7l2.2,0.5 M35.9,31.1l-4.2-1 M36.3,32l-6.2-1.5
	 M24,23.4L24,23.4 M33.2,13l-0.2,0.9 M35.5,36.3v0.5 M36.4,14.2v-0.5 M37.3,30.7l-0.1-1.5 M35.4,28.6L35.4,28.6 M35,28.7l0.2,2.2
	 M33.4,13.7v0.4 M34.2,30.7l-0.2-2.4 M32.7,13.6l0,0.7 M32.4,13.9l0.1,0.7 M36.6,36.6L36.3,32 M29.1,21.2l0.2,1 M51.9,37.1l0.5,0.1
	 M50.9,37.4l0.7,0.1 M51.3,37.8l-0.7-0.2 M30.6,35.2l6,1.4 M35.2,37.1L30.7,36 M27.7,17.9l-0.1,0.8 M26.2,22.8L26.2,22.8l0,0.3
	L26,23.2l-0.4,0.3l-0.3,0.1L25,23.6l-0.3,0l-0.3,0l-0.2,0l-0.2,0L24,23.4 M29.5,14.6l0-0.5 M29.6,23.1l-0.1-0.9 M27.9,18.7l0-0.4
	 M30.3,15.9L30.3,15.9 M30.4,24.6l-0.1-1.2 M31.8,36.3l-0.1-0.9 M30.6,35.2l-0.5-4.7 M28,27.2l-0.5-4.7 M27.5,22.5l-0.2-0.9l0.5,4.7
	 M26.7,22.7l0-0.2l-0.2-0.3L26.3,22L26,21.8l-0.4-0.1l-0.4-0.1l-0.4,0l-0.4,0l-0.4,0.1 M30.7,27l1,3.1 M29.7,23.7l0.3,0.8
	 M29.2,22.2l0.3,0.9 M30.1,30.5l-2.6-8.1 M30.6,35.2l-2.6-8 M26.9,18.5l-0.2-0.4 M27.2,19l-0.1-0.2 M32.9,29.1l0.9,1.5 M24,23.4
	L24,23.4 M25.2,43v0.3 M27.4,18.9l0-0.6 M28.7,41l0-0.9 M27.1,19v-0.5 M27.4,23.5l0.3,3.2 M28.1,40.7l0,0.9 M25.4,19.5l0-0.3
	 M23.8,21.9l0,0.5 M23.2,23.8l0.2,3.2 M23.4,23.5l0,0.1l0.1,0.2l0.2,0.1l0.3,0.1l0.3,0.1l0.4,0l0.4,0l0.8-0.3 M22.6,24.7l-0.1-2
	 M23.2,40.4l0-0.9 M22,24.7l-0.1-2 M20.3,25L20.3,25 M19,24.6v0.2 M18.5,24.6L18.5,24.6 M19.1,34.2l0-0.7 M25,43.8l0.8,8.7
	 M17.6,34.3l0-0.7 M12.4,49.4l0.8,0.2 M25.9,52.6l0.7,0.2 M38.2,55.5l2.4,0.5c4,0.7,7.5,1,11.4-0.3l1.4-0.6 M11,29.6l0.4,7.6
	 M12,20.6l0,0.9 M11,29.6l-0.2-2.3 M4.1,33.4l1.2,10.2 M5.4,43.6l0.2,1.1l0.7,1.2l1.1,1.1l1.5,1l2,0.9l0.9,0.3"/>
<path class="st2" d="M57.8,20.7l0-0.9 M55.7,16.8l-0.1-0.1 M56.3,15.7l0.1,0.1 M55.7,16.2L55.7,16.2 M55.8,16.1L55.8,16.1
	 M54.4,24.7L54.4,24.7 M56.3,29.6l0.3-0.3 M55.8,30L55.8,30 M56.7,29.3L56.7,29.3 M57.7,28.2l0,0.1 M59.1,27L59.1,27 M60.8,25.3
	l-0.1,0 M62.2,25.7L62.2,25.7l-0.1-0.1 M64.9,26.3L64.9,26.3l-0.1-0.1 M63.7,25.9L63.7,25.9l-0.1-0.1 M60.6,25.1l-0.1,0 M60.5,25.2
	L60.5,25.2L60.5,25.2 M54.8,29.6L54.8,29.6 M59,33.7L59,33.7 M55.7,29.9L55.7,29.9 M54.8,29.4l-0.1,0 M53.1,37.2l-0.1,0 M53.2,37.2
	l-0.3,0 M65.5,27.9v-0.3 M65.6,23.4L65.4,23 M66.9,30.6l0.3-0.6 M55.8,16l-0.4-0.2 M50.3,13.7L50.3,13.7 M50,14L50,14 M49.9,14.2
	L49.9,14.2 M53.9,42.4l0.7-0.4 M50.3,13.6L50.3,13.6 M54.2,54.8l0.2-0.1 M53.6,55.2l0.6-0.3 M53.6,55.1l0.6-0.3 M53.5,55.2
	L53.5,55.2 M53.5,55.1L53.5,55.1 M39.2,13.8H39 M39.1,13.8L39.1,13.8 M39,12.9l-2,0.6 M40.7,13.3l-1.1,0.2 M41.8,13.5l-2.3,0.4
	 M41.8,13.1l-1.2,0.2 M41.8,12.8l-2.3,0.4 M42.3,13.2L42.3,13.2 M42.2,12.4h-0.3 M33.5,16.3l0.2,0 M33.5,16.3h-0.2l-1.1,0
	 M47.9,27.3l0.1,0l1.4-0.3 M50.5,32.4l1.2-0.4 M46.9,27.6L46.9,27.6 M45.3,28.1l1.3-0.2 M44.3,27.9l2.6-0.3 M53.1,37.2l0.6-0.3
	l1.5-0.6l0.9-0.4 M23.2,40.4l2.4,0.6 M23.2,39.5l2.4,0.7 M51.3,37.8l0.7-0.3l1.1-0.3 M25.6,41l2.5,0.5 M25.6,40.1l2.6,0.5
	 M42.3,12.8L42.3,12.8 M29.5,22.2l0.2,0.9 M34.5,12.1L34.5,12.1 M30.2,24.3l0.3,0.3 M31.4,17.9l-0.3,0.3 M32.8,16.7l-0.6,0.5
	 M12.4,49.4l0.8,0.2 M12.5,49.3l0.7,0.2 M18.4,24.6L18.4,24.6 M18.3,24.4L18.3,24.4 M23.8,22.4L23.8,22.4 M23.8,21.9L23.8,21.9
	 M23.8,22.4L23.8,22.4 M18.4,24.6L18.4,24.6 M22.5,24.7v0.2 M29.4,14.6v0.2 M23.1,21.7L23.1,21.7 M25.9,24.7l0.1,0h0 M26.5,20.9
	L26.5,20.9 M18.1,35.4l-0.2-0.1l-0.2-0.1l0,0 M11.7,49.1l0.2,0 M11.7,49.2l0.7,0.2 M11.9,49.1l0.6,0.2 M20.3,25L20.3,25 M27.9,44.3
	L27.9,44.3 M27.8,26.4L27.8,26.4 M37.2,29.1l0.3,0 M28,27.2l-0.2-0.7v-0.2 M13.8,31.1l0,0.3 M33.4,16.3l-0.6,0.4 M23.9,21.9
	L23.9,21.9 M37.1,14.1l-0.7,0.3 M36.6,13.3l-0.3,0.1 M24.9,18.7l-0.1,0 M51.9,14l0.2,0l0.1,0 M55.6,11.1l-2.4-0.6 M28.9,17.2
	l-1.2,0.4 M53.1,10.5L50.6,10 M45.1,13l-1.4,0 M36.6,13.2l-0.3,0 M26.6,52.7l-0.7-0.1L26.6,52.7 M26.6,52.6l-0.7-0.2 M54.4,54.8
	l-0.2,0.1l-0.7,0.3 M54.4,54.8l1.7-0.8c3.6-2.1,6.6-5.5,9.5-8.4l1.8-2 M67.4,43.6l1.8-2c1.9-2.2,5-5.1,5.8-7.9l0.1-1.2 M50.5,32.4
	l-13.9,4.2 M54.8,30.9l0.3-0.1l0.2-0.2l0.2-0.2l0-0.2v0 M65,27.7l-3.8,4.1 M50.2,27.8l-14,4.2 M48,27.4l1.5-0.4 M45.6,28.2l1.3-0.4
	 M35.9,31.1l5.4-1.6 M54.9,29.3L54.9,29.3 M64.9,26.3l-3.8,4.1 M60.9,30.2l3.8-4 M63.8,26.6l-2.8,3 M59.2,31.4L58.6,32 M59.2,31.1
	l-0.6,0.6 M63.7,26l-2.8,3 M60.8,28.8l2.8-3 M58,31.5l0.6-0.6 M52.4,37.2l-0.3,0.3 M62.3,26.3L60.7,28 M51.6,37.5l0.3-0.4
	 M51.3,37.8L51.3,37.8 M62.2,25.8l-1.6,1.7 M60.5,27.3l1.5-1.7 M50.6,37.6l0.3-0.3 M60.8,25.3L59.2,27 M60.7,25.3L59.1,27
	 M60.6,25.2l-2.8,3 M57.7,28.2l-0.9,1 M60.5,25.2l-2.8,3 M60.4,25.2l-3.8,4.1 M75.1,32.5L75,22.3 M57.9,23.3l-0.3,0.3 M57.5,21.4
	l-3.1,3.3 M67.5,43.4l-0.2-9.3 M68.3,28.7L68,25.6l-0.2-2.3 M55.8,16.1L55.8,16.1 M57.7,15.1l-1.4,0.6 M57.6,15l-1.5,0.6 M55,30.2
	L55,30.2l-0.2,0.2l-0.2,0.1l-0.3,0h-0.6l-0.3-0.1l-0.3-0.1l-0.2-0.1L52.8,30l-0.1-0.2v0 M54.9,29.2L54.9,29.2 M64.4,24.2l-0.1-1
	 M66.8,30l0,0.9 M64.9,26.3l0.1,1.4 M65,27.7l-0.1-1.4 M63.7,25.9l0,0.6 M64.2,33.7l0-0.9 M63.8,26.6l0-0.6 M63.2,32.6l0,0.9
	 M64.3,23.2l0.3,0.4l0.1,1.2 M24.1,21.7l-0.3,0.1 M35.8,36.4l-0.6,0.7 M28.1,43.9L28.1,43.9 M28.2,41.5l0.5-0.6 M55.1,11.7l0.5-0.6
	 M28.1,40.7l0.5-0.6 M31.7,36.3l0.1-0.1 M52.2,14.2L52.2,14.2 M30.7,36.1l0.6-0.7 M56,16.1l0.1-0.2 M55.9,16l-0.1,0.2 M51.9,37.1
	l-0.1,0.6 M55.4,29.3L55.4,29.3 M59.8,19.1l0.1,4.7 M58.1,27.7l-0.2-4.4 M57.8,28l-0.2-4.4 M62.2,25.8l0,0.6L62.2,25.8 M61.1,30.4
	l0.1,1.4 M60.9,29l0,0.6 M61,31.8l-0.1-1.4 M60.6,27.4l0,0.6 M60.8,29.6l0-0.6 M60.5,28.1l0-0.6 M59.2,27.2l0,0.6 M59.1,27.1l0,0.6
	 M59.2,31.1l0,0.3 M59,34v0.2 M59,33.7L59,33.7 M57.9,20.3l0-0.6 M58.6,31.7V32 M57.6,18v-0.4 M57.3,17.7l0,0.3 M57.1,18v-0.3
	 M39.4,13.1l-0.3-0.1 M52.3,14.1l-1.2-0.3 M57.2,17.3l-0.3,0 M57.1,17.7l-0.3,0 M56.4,15.7L56,15.9 M56.1,15.9l0.3-0.1 M57.5,17.2
	l-0.3,0.1 M57.6,17.6l-0.3,0.1 M57.4,18l0.3,0 M23.8,21.8L23.8,21.8 M25.9,23.9l0.3-0.2 M42,13.4l0.2-0.2 M42.2,12.9L42,13.1
	 M21.9,42.5L21.9,42.5 M23.7,38.9l-0.5,0.6"/>
<path class="st2" d="M41.8,13.1l0-0.4l0.1,0l0.1,0.1l0.1,0.2L41.8,13.1L41.8,13.1z M39.3,13.5h0.3l0-0.2l-0.1-0.2 M39.3,13.5l0-0.2
	l0.1-0.2 M56.1,15.9L56.1,15.9L55.9,16 M57.7,23.6L57.3,24c-1.4,1.5-4.1,2.9-6,3.5l-1,0.3 M59.8,19.1l0,0.6
	c-0.1,1.2-0.7,2.3-1.4,3.2l-0.4,0.5 M56.3,15.7L56.3,15.7l-0.2-0.1 M37.1,14.1L37,13.9l-0.1-0.3l-0.2-0.2l-0.2-0.2 M43.1,13.1
	l-0.2-0.4 M58.1,19l0-0.5l-0.1-0.4l-0.2-0.5l-0.2-0.4 M46.9,27.7l0,0.1 M56.9,17.2l-0.4-0.6L56,16.1 M56.4,15.7L56.4,15.7
	 M56.1,15.9L56.1,15.9 M55.8,16.2L55.8,16.2l0.2-0.1 M48,27.4l-0.1-0.1l-0.2-0.1h-0.3l-0.2,0l-0.1,0.1l-0.2,0.1l0,0.1v0.1
	 M42.1,11.4h0.2c0.8,0.2,0.4,0.8,1.2,1.4l0.3,0.3 M36.6,13.3l0-0.7 M41.9,13.5L41.9,13.5l0.2,0 M39.3,13.9h0.2 M38.9,13.7L38.9,13.7
	l0.1,0.1 M42.2,13.2L42.2,13.2 M55.8,30L55.8,30 M57.6,15L57.6,15l0.2,0 M56.1,15.6L56.1,15.6L56,15.7v0.1 M55.8,16.7L55.8,16.7
	 M56.7,17.9L56.7,17.9 M55.8,16.8l0.5,0.5 M57.1,18h0.3 M27.3,21.6l0-0.6c0-1.1,0.7-2.7,1.4-3.5l0.4-0.5 M59.9,23.8v0.3l0,0.4
	l-0.2,0.8L59.5,26l-0.3,0.7 M30.2,23.4l0-0.1l-0.1,0l-0.2-0.1l-0.2,0h-0.2 M36.6,12.5l1.4-0.4l1.4-0.3l1.4-0.3l1.4-0.2 M29.4,16.6
	l0.5-0.5l0.5-0.4l0.4,0.1l0.9,0.2l0.4,0 M57.8,15.1l0.4,0.4c0.8,0.8,1.4,1.9,1.6,3l0,0.6 M57.5,21.4l0.3-0.6l0.2-0.6l0.1-0.6V19
	 M49.5,27l1.3-0.5L52,26l0.6-0.3l1.2-0.7l0.6-0.4 M57.1,30.9l-0.1,0l-0.2,0l-0.1,0l-0.1,0v0 M57.2,32.9L57.1,33h-0.3l0,0l0-0.1
	 M57.3,33.1l-0.1,0.3v0.2l0,0 M58.4,33.3l-0.1,0.1l0,0.1v0.2l0,0 M59,34l-0.1,0.1 M23.8,21.9L23.8,21.9 M23.1,21.7L23.1,21.7
	 M21.8,22.7L21.8,22.7l0.1,0.1h0.3l0.1-0.1 M22,24.8L22,24.8l0.2,0.1h0.1l0.1,0l0,0 M22,24.7L22,24.7L22,24.7 M59,34L59,34 M21,24.5
	L21,24.5 M58.4,33.3L58.4,33.3 M23.8,21.9L23.8,21.9l0.2,0.1l0.1,0.2 M24,22.2L24,22.2l0,0.2 M23.8,21.9L23.8,21.9 M57.4,33L57.4,33
	 M18.9,24.7L18.9,24.7 M57.3,32.8L57.3,32.8 M23.8,21.9L23.8,21.9l-0.1,0.3v0.1l0,0.1l0,0 M57.1,30.8L57.1,30.8 M23,21.8L23,21.8
	L22.9,22v0.2l0,0 M22.4,22.7L22.4,22.7 M55.8,29.4L55.8,29.4 M22.5,24.8L22.5,24.8 M19,24.6L19,24.6 M21.9,24.8l-0.1,0.1l0,0.1v0.1
	l0,0.1l0,0 M18.4,23.9L18.4,23.9 M20.9,24.5L20.9,24.5l-0.1,0.2v0.1l0,0.1v0h0 M55,29.3L55,29.3l-0.1,0 M18.3,23.9L18.3,23.9
	l-0.1,0.3v0.1l0,0l0,0.1 M55.8,29.4l-0.1,0.1v0.1l0,0.1l0,0.1l0,0 M24,22.4L24,22.4h-0.2 M23.7,22.4L23.7,22.4L23.7,22.4 M22.4,22.7
	v-0.2l0.1-0.1 M21.8,22.7v-0.2c0.1-0.6,0.3-0.8,0.9-0.9H23 M22.5,22.4L22.5,22.4l0.2-0.1H23 M22.4,25.1l0.1-0.1l0-0.1 M22,24.8
	L22,24.8 M21.8,25.3l0.1,0l0.2,0l0.1,0l0.1-0.1 M58.4,33.9l-0.1-0.1 M59,34L59,33.7l-0.1-0.2l-0.2-0.2l-0.3-0.1 M20.3,25.1l0-0.2
	l0.1-0.2l0.2-0.1l0.2,0H21 M20.8,25.1L20.8,25.1 M57.3,33.6l-0.2-0.1l-0.2-0.1l-0.2-0.2l0-0.3 M57.4,33L57.4,33L57.4,33l-0.2-0.2v0
	 M56.6,30.9l0-0.2l-0.1-0.2l-0.2-0.3L56,30l-0.3-0.1 M57.1,30.8l0-0.3c-0.1-0.5-0.5-0.9-1-1.1l-0.3-0.1 M55.1,29.2L55.1,29.2
	 M18.4,23.9l0.2,0.1l0.3,0.3l0,0.3 M18.3,24.5l0.1,0l0,0.1v0 M17.5,23.7L17.5,23.7 M54.8,29.5l0.1,0.2 M55,29.2L55,29.2l-0.1,0.3
	v0.1l0.1,0.1 M54.9,29.3L54.9,29.3l-0.1,0.1 M17.4,23.7l-0.1,0.1l0,0.1v0.2l0,0 M31.6,27.7l0.6,0.4l0.6,0.4 M36,15.2l0.8-0.3
	c3.8-1.2,8.3-1.7,12.2-0.9l0.9,0.2 M30.1,23.2l-0.2-0.5c-0.6-2.4,1.1-4.7,3-5.9l0.9-0.6 M31.1,24.8l-0.3-0.3l-0.2-0.3l-0.3-0.3
	l-0.2-0.3 M56.7,22.4L56.7,22.4 M56.8,18.7L57,19c0.2,0.6,0.3,1.7,0.1,2.3l-0.1,0.4 M49.9,14.2l0.7,0.2c2.1,0.7,3.5,1.2,5.2,2.8
	l0.3,0.3 M49.9,14.1L49.9,14.1 M31.2,18.2l-0.4,0.4c-0.7,0.7-1.2,2-1.3,3v0.6 M31.4,27.7l0.6,0.6c1.1,0.9,3.1,1.9,4.5,2.2l0.8,0.2
	 M36.1,15.1l0.9-0.3c3.7-1.3,7.8-1.6,11.7-1L50,14 M31.5,24.8l-0.3-0.3c-2.5-2.9-0.9-5.8,1.8-7.8l0.7-0.5 M56.8,22.2L56.8,22.2
	 M56.8,18.2l0.2,0.4c0.3,1.1,0.4,1.7,0.1,2.8l-0.2,0.5 M55.7,16.8l0.5,0.5 M50,14l0.7,0.2c1.2,0.3,3.2,1.2,4.2,2l0.6,0.5 M50,14
	L50,14 M42.3,13.2l1-0.1c2-0.1,4-0.1,6,0.3l1,0.2 M36.3,14.8l1.4-0.5l1.4-0.4 M32.5,25.1l-0.6-0.5c-2.1-2-2.2-4.6-0.3-6.7l0.6-0.7
	 M54.4,24.7l-0.6,0.4l-0.6,0.3l-0.6,0.3L52,26l-1.2,0.5L49.5,27 M57.2,18l0.2,0.5c0.3,1,0.2,2-0.1,2.9l-0.2,0.4 M50.3,13.6l0.7,0.2
	c1.6,0.5,2.6,0.9,4.1,1.8l0.6,0.5 M50.3,13.6L50.3,13.6 M33.2,16.3l-1.4,1.2l-0.4,0.5 M39,13.8l-1.4,0.4l-1.3,0.5 M50.3,13.6l-1-0.2
	c-2-0.4-4-0.4-6-0.3l-1,0.1 M55.8,16.1l-0.6-0.5c-1.5-1-3.1-1.6-4.8-2h0 M57.9,19.8l0-0.5l-0.1-0.4L57.4,18 M35,28.7l-0.4-0.1
	l-0.2-0.1l-0.2-0.1 M38.3,29.3h-0.6l-0.6-0.1 M32.8,29.1l-0.1-0.3 M35.1,28.6l0.2,0.1 M55.8,30.2v0.2c-0.4,1.3-3.6,1.5-4.1,0.3
	l0-0.2 M53.2,29.3l0.4,0h0.8l0.4,0.1 M51.6,30.5v-0.1l0-0.1l0.1-0.3l0.2-0.2l0.2-0.2 M55.7,30l0.1,0.3 M62.2,25.8l0-0.1l-0.1,0
	 M62.1,25.6L62.1,25.6 M60.8,25.3L60.8,25.3 M59.2,27L59.2,27l0,0.2l-0.1-0.1 M60.7,29.1v-0.1l0-0.1l0.1,0l0,0.1L60.7,29.1
	L60.7,29.1z M60.5,27.5L60.5,27.5l0-0.2 M62.3,26.3L62.3,26.3 M60.5,28.1L60.5,28.1l0.2,0 M60.5,27.3L60.5,27.3l0.1,0.2 M60.7,27.4
	L60.7,27.4l-0.2,0 M63.7,26L63.7,26l-0.1-0.1l0,0 M64.9,26.3L64.9,26.3 M60.6,25.2L60.6,25.2 M62.2,25.7L62.2,25.7 M63.7,25.9
	L63.7,25.9 M57.8,28.2L57.8,28.2l-0.1,0.2h0l0,0 M56.7,29.3L56.7,29.3 M60.9,30.4v-0.1l0-0.1l0.1,0.1l0,0.1L60.9,30.4L60.9,30.4z
	 M56.8,29.2L56.8,29.2l-0.1,0.2 M56.7,29.5L56.7,29.5L56.7,29.5 M63.8,26.6L63.8,26.6 M60.8,29.6L60.8,29.6l0.2,0 M59.1,27L59.1,27
	 M64.9,26.3L64.9,26.3l-0.1-0.1l0,0 M57.7,28.9L57.7,28.9L57.7,28.9 M60.8,25.3L60.8,25.3 M60.5,25.2L60.5,25.2 M57.7,28.2h0.1
	 M59.1,27.7L59.1,27.7 M60.7,25.1L60.7,25.1 M65,27.7L65,27.7 M61,31.8h0.1l0.1,0 M50.5,38.1L50.4,38v-0.2l0-0.2l0.1-0.1 M50.6,37.5
	l0.3-0.2l0.3-0.1l0.3-0.1l0.3,0H52l0.3,0l0.3,0.1l0.3,0.1 M48.8,38.5l0.1-0.3l0.2-0.2 M49.1,38.1l0.5-0.4l0.6-0.3 M53.1,37.2
	l-0.4-0.2c-1-0.3-2.7-0.1-3,1.1l0,0.2 M50.4,37.3L50,37.4l-0.3,0.2l-0.3,0.2l-0.5,0.5l-0.1,0.3 M25.9,24.8l-0.4,0
	c-0.7,0.1-1.9-0.1-2.3-0.8l0-0.2 M27.3,23.6v0.2L27.2,24L27,24.2l-0.2,0.1l-0.4,0.3L26,24.7 M25.3,22.6h0.4l0.4,0 M23.2,23.9v-0.2
	l0.1-0.2l0.2-0.3 M26.7,22.8L27,23l0.2,0.1l0.2,0.2l0,0.3 M31.3,15.5l0.5,0.1l0.5,0c1.7,0.2,5.8-1.4,3-3.2l-0.4-0.2l-0.4-0.1
	L33.9,12c-1.2-0.2-2.5,0-3.5,0.7L30,13l-0.2,0.2c-0.5,0.8-0.4,1.3,0.3,1.8l0.2,0.1l0.5,0.2L31.3,15.5z M31.3,15.7l0.7,0.1
	c1.1,0.2,4.2-0.4,4.4-1.9l0-0.2 M29.4,14.8l0.2,0.3l0.2,0.3l0.3,0.2l0.3,0.2 M29.4,14.2l0.1,0.3l0.1,0.3l0.2,0.2l0.3,0.2l0.3,0.2
	l0.3,0.1l0.6,0.2 M32.2,16.3l0.6,0c1.3-0.2,3-0.4,3.5-1.8v-0.3 M33.7,16.3l0.6-0.1c0.9-0.2,1.9-0.8,2.1-1.7v-0.3 M29.4,14.6v0.2
	l0.1,0.2l0.2,0.3l0.3,0.3l0.3,0.2 M36.4,13.7l-0.1-0.3l-0.2-0.3l-0.2-0.2l-0.3-0.2l-0.3-0.2l-0.3-0.2l-0.6-0.2 M34.4,12.1L33.7,12
	c-1.3-0.2-4,0.3-4.3,2v0.2 M25.4,19.5v0.1c0.3,0.6,0.7,0.7,1.3,0.8l0.6,0 M27.3,20.3l-0.6,0c-0.6-0.2-1.1-0.2-1.4-0.8l0-0.2
	 M27.7,19.1h-0.3c-0.5,0-1.4-0.1-1.2-0.8l0.1-0.1 M26.3,18.2l0.2-0.2c0.6-0.2,0.9-0.3,1.6-0.2l0.3,0.1 M26.5,20.9l-0.4-0.1
	c-0.9-0.1-2-1-1.3-1.9l0.1-0.2 M27.3,21l-0.4,0h-0.4 M24.9,18.8l0.3-0.2l0.3-0.2l0.3-0.2l0.3-0.1 M28.5,17.7l-0.4-0.1
	c-0.8-0.2-2.7,0.3-2.7,1.4l0,0.3 M26.2,18l-0.4,0.2c-2.5,1.1-1.2,3.1,1,3.2l0.5,0 M22.7,42.7l2.5,0.6 M25.2,43.3l2.5,0.6 M22.5,42.4
	l2.7,0.6l2.7,0.6 M25,43.8l2.5,0.6 M22.5,43.3l2.5,0.6 M55.9,16L55.9,16 M55.8,16.2l0,0.2 M56.1,15.9L55.9,16 M56,15.9L56,15.9"/>
<path class="st2" d="M56.1,21.2l0.1-0.2 M55.4,21.3v-0.6c-0.1-0.7,0.2-2.7,0.7-3.3l0.1-0.1h0.1 M56.1,17.2l-0.1,0
	c-0.6,0.5-0.8,2.8-0.9,3.5v0.5 M56.1,17.2l0.3,0l0.1,0l0,0l0.1,0.2l0.1,0.4l0.1,0.9 M55.1,21.2l0.3,0 M56.2,19.7l0.1-0.3 M55.9,20.1
	l0.2-0.2 M56.9,22l-0.1-3.2 M55.9,20.1l0.2-1.4l0.3,0.7 M56.2,20.9l0-1.2 M56.1,21.2l0-1.2 M55.4,23.6l0-2.3 M55.2,23.8l-0.1-2.6
	 M32.8,16.6l0-0.3 M29.6,18.9l0.1,2 M32.2,16.1l0.1,0.7 M13.2,49.5l3.2,0.8l9.5,2.2 M5.4,43.6l0.1,0.6c0.6,2.5,3.1,3.8,5.2,4.6
	l1.1,0.3 M32.5,42.8l1.8,0.1c8.5,0.5,18.5-1.3,25.9-5.8l0.8-0.5 M68.1,26.5l0.6,0.4l0.6,0.3 M67.2,30l0.2-0.5c0.5-1.2,0.6-2,0.7-3.3
	l0-0.6 M61,36.7l0.9-0.6c1.4-1,2.8-2.3,3.9-3.8l0.4-0.6 M54.4,54.7l1-0.5c4.8-2.5,8.4-7,12-10.7l0.1-0.1 M53.5,55.1L53.5,55.1
	 M26.6,52.6l5.8,1.4c7,1.5,13.1,3.6,20.2,1.4l0.9-0.3 M25.8,52.5L25.8,52.5 M67.5,43.4l0,0.1 M25.8,52.5L25.8,52.5l0.1,0.1 M75,22.3
	v0.4c-0.2,2.9-3.6,6.7-5.3,8.7l-2.4,2.6 M27.7,43.9L27.7,43.9l0.2,0l0-0.1v-0.1 M27.7,43.9l0,0.3l0,0.1l-0.1,0.1 M22.5,43.3L22.1,43
	l-0.2-0.2l-0.1-0.3 M28.1,43.8L28.1,43.8L28,43.7l-0.1,0 M28,44.3L28,44.3l-0.2,0.1h-0.3 M28,44.3L28,44.3l-0.2,0.1h-0.3 M52,11.7
	l-1.4-0.3l-1.4-0.3c-7.7-1.2-15.9-0.5-23.3,2.1l-1.4,0.6l-1.4,0.6c-4.5,2.1-10.1,5.9-10.7,11.3l0,0.7v0.7 M66.8,30l-0.6,0.7
	l-0.6,0.7l-0.7,0.7l-0.7,0.6 M22.5,43.3l-0.2-0.1L22.1,43L22,42.7l-0.1-0.3l0.1-0.1l0.1,0h0.3 M18.2,33.3L18,33.6v0.3l-0.3-0.1
	l-0.1-0.1l0-0.1 M18.4,33L18.4,33l0.1,0.1v0l-0.1,0.1h-0.3l-0.1,0l-0.1,0v-0.1l0.1-0.1l0.2,0H18.4z M22.7,42.7l0,0.3l0,0.1l-0.1,0.1
	 M18.4,33L18.4,33l0.1,0 M67.9,23.3l0,0.9c-0.1,2-0.6,3.2-1.6,4.9l-0.5,0.7 M22.5,42.4v0.1l0,0.1l0.1,0.1l0.1,0 M11,29.6l0.1,0.9
	c0.8,4.4,4.9,7.4,8.7,9.2l0.9,0.4 M23.7,38.9l-1.1-0.3C17.8,37,11.6,33.3,11,27.9l-0.1-0.6 M63.2,32.6l-0.6,0.5
	c-8.3,6.6-22.2,8.7-32.5,7.2l-1.4-0.2 M10.1,36.5l0.6-0.9l0.6-0.9 M12.4,28.2l0.1-0.7C14,20.7,22,16.8,28,14.9l1.4-0.4 M65.8,27.2
	l-0.2-3.8 M66.5,23.4l-0.1-0.6c-0.9-6-8-9.4-13.2-10.8L52,11.7 M58.9,16.5l1.3,0.7c2.8,1.7,5,3.6,6.1,6.8l0.2,0.7 M52.3,14.1
	l2.1,0.6l1.1,0.3l1.1,0.4 M19,33.5l0,0.1l-0.1,0.1l-0.3,0.1l-0.3,0l-0.3,0 M25.2,43.3l0,0.3l0,0.1L25,43.8 M71.5,22.3l-0.1-0.6
	c-0.5-2.5-3.7-3.7-5.8-4.4l-1.1-0.4 M67.5,43.4l2.3-2.5c1.6-1.8,5.3-5.3,5.4-8v-0.4 M20.8,40.1l1.4,0.5l1.4,0.5l1.4,0.4l1.4,0.3
	 M11,26.3l-1.2,1.5c-1,1.4-2.1,2.9-2.2,4.7V33 M26.3,41.9l1.6,0.3l1.5,0.3l1.6,0.2l1.6,0.2 M33.2,10.6l-0.9,0.1
	c-1.8,0.1-3.9,0.7-5.6,1.4l-0.9,0.4 M67.3,34.1l-1.9,2C54.3,48,45.9,47.9,30.7,44.5L28,44 M21.9,42.5l-2.5-0.6
	c-3.6-1.2-13.9-2.8-15.1-7.8l-0.1-0.6 M53.5,55.2l-0.9,0.3c-3.8,1.5-8.6,1.3-12.5,0.4l-1.9-0.4 M4.1,33.4l0-0.5
	c-0.1-3.1,3.4-7,5.2-9.1l2.5-2.8 M13.2,49.6l6.3,1.5l6.3,1.4l0.1,0 M10.9,27.3v-0.9c0.1-1.7,0.7-3.4,1.6-4.9l0.5-0.7 M7.6,33l0,0.4
	c0.6,3.7,8.2,5.2,10.8,6.1l2.3,0.6 M18.1,35.4l1,0.6c2,1.2,4.3,2,6.5,2.6l1.2,0.3 M12.3,27.2l0.1,0.7c0.4,2.7,2.3,5,4.4,6.6l0.9,0.7
	 M19,33.5l0-0.2l-0.1-0.2L18.7,33l-0.2,0 M64.2,33.7l0.7-0.6l0.7-0.7l0.6-0.7l0.6-0.7 M18.5,33h-0.3L18,33l-0.2,0.1l-0.1,0.1
	l-0.1,0.1l0,0.1v0.1 M56.1,36l1-0.5c4.4-2.3,9.3-6.1,9.4-11.5v-0.6 M26.8,38.9l1.5,0.3c7.1,1.3,14.6,1,21.6-0.9l1.5-0.4 M55.1,11.7
	l1.1,0.4C61,13.7,67,17.2,67.8,22.8l0,0.6 M15.6,18l0.9-0.7c8.4-6.6,22.3-8.4,32.5-7l1.2,0.2 M12,20.6l0.6-0.8l0.6-0.7l0.7-0.7
	l0.7-0.6 M5.5,43.6l0.1,0.6c0.5,2.5,3,3.9,5.2,4.6l1,0.3 M25.9,52.6L25.9,52.6l-6.4-1.5l-3.2-0.7L14.7,50l-1.5-0.4 M28,44v0.2
	L28,44.3 M38.2,55.5l-5.8-1.4l-5.8-1.4 M26.6,52.7l5.8,1.4c7.4,1.7,13.7,3.8,21.1,1.1h0 M54.4,54.8l0.9-0.5c3.3-1.6,6.6-5,9.1-7.6
	l2.9-3.2 M67.2,30l1.4-1.7c1-1.4,2.8-3.6,2.9-5.4v-0.6 M54.6,41.9l0.9-0.6l0.8-0.6l1.6-1.3l1.5-1.4l1.5-1.4 M32.5,42.8l2.7,0.6
	c6.5,1.2,11.9,2.3,18.1-0.7l0.6-0.3 M14.9,17.9l1.5-1.4c7.8-7.8,16.1-8.9,26.7-6.8l2,0.4 M11.8,21.1l0.2-0.2 M28.1,43.9l0-0.1
	 M58.6,13.1l2.4,0.6c3.7,1.2,13.2,2.8,13.9,8l0,0.6 M18.3,24.4L18.3,24.4 M19.2,34l0-0.2L19,33.7 M51.7,32l-0.2,0.2l-0.2,0.2
	l-0.1,0.2v0.3 M23.3,25.3l-0.2,0.2l-0.2,0.2L22.8,26l0,0.3 M17.6,33.8l-0.1,0.1l0,0.1 M56.5,32.5l0-0.3l-0.3-0.4l-0.2-0.1
	 M27.7,25.3L27.5,25 M20.3,25.1h0.3l0.1,0l0.1-0.1 M52.6,34l0.6,0.1c0.9,0.1,2.9-0.3,3.3-1.3l0-0.3 M24.2,27.4l0.5,0.1
	c1.1,0.1,2.2-0.1,3-0.8l0.2-0.2 M17.9,34.4l0.3,0l0.4-0.1l0.2,0l0.2-0.1l0.1-0.1V34l0-0.1 M59.8,19.7l1.1,0.7
	c2.1,1.6,4.1,3.8,4.5,6.6l0.1,0.6 M13.9,31.1v-0.5c0-5.4,5.5-9.4,9.9-11.4l1-0.5 M51.8,33.1l-0.3,0.3 M23.4,26.5l-0.3,0.3 M17.5,34
	l0.1,0.2l0.1,0.1l0.3,0.1 M27.7,26.3l-0.1-0.1 M27.9,26.5l-0.1-0.1 M22.8,26.2l0,0.2l0.1,0.2l0.2,0.2l0.2,0.1l0.4,0.2l0.5,0.2
	 M56.3,33.1L56,32.9 M51.2,32.9l0,0.2l0.3,0.4l0.2,0.1l0.4,0.2l0.5,0.2 M58.5,33.9L58.5,33.9l0.2,0.2 M18.3,24.5L18.3,24.5l0.2,0.1
	 M29.7,23.7l0.2,0l0.2,0l0.2-0.2v-0.1 M42.9,12.8l-0.1-0.2l-0.2-0.2l-0.2,0h-0.3 M37.1,13.4L37,13.2L36.9,13l-0.3-0.4 M38.8,13.2
	L38.8,13.2l0.1-0.2l0.2-0.1 M38.9,13.4v-0.1l0-0.1l0.1,0l0.1,0 M39.1,13.1L39,13.2v0.2 M39,13.4L39,13.4l-0.1-0.1 M42.3,12.8
	L42.3,12.8 M29.6,18.9l-0.3,0.6l-0.2,0.6l-0.1,0.6v0.6 M57.5,17.2l0,0.2l0,0.2 M57.1,17.7v-0.2l0.1-0.2l0.1,0.2l0,0.2H57.1z
	 M56.9,17.2l-0.1,0.2v0.2l-0.1,0l0,0 M56.9,17.2L56.9,17.2l-0.2,0.1l0,0.1v0.1l-0.4-0.6l-0.5-0.6 M55.7,16.4L55.7,16.4l0.1-0.2
	l0.1-0.1 M41.9,12.4l0.2,0l0.1,0.1 M55.7,16.4L55.7,16.4 M42.2,12.9l-0.1-0.2l-0.1-0.1l-0.1,0h0.2l0,0l0,0.1"/>
<polyline class="st3" points="0,57.5 143.1,57.5 143.1,0 0,0 "/>
<polygon class="st4" points="73.8,33.3 69.3,32.5 63.2,30.6 61.8,29 61,26.9 61.4,24.4 62.7,23.5 65.1,23.2 68.9,23.6 74.6,24 
	77.5,28.3 "/>
<polygon class="st1" points="73.8,33.3 69.3,32.5 63.2,30.6 61.8,29 61,26.9 61.4,24.4 62.7,23.5 65.1,23.2 68.9,23.6 74.6,24 
	77.5,28.3 "/>
<polygon class="st5" points="73.8,33.4 69.3,32.6 63.1,30.6 61.8,29 60.9,26.9 61.3,24.3 62.6,23.4 65.1,23.1 68.9,23.5 74.7,24 
	77.6,28.3 "/>
<path class="st4" d="M147.8,10.4l-3.1-1.3l-3.2-1.3l-3.3-1.3l-3.3-1.2l-3.2-1.1l-3-1l-1.4-0.5l-1.4-0.4l-1.3-0.4l-1.2-0.3l-0.5,0
	l-0.5,0l-0.6-0.1l-0.5-0.1l-0.5-0.1l-0.5-0.1l-0.5,0c-1.7-0.2-3.1,0.3-4.2,1.7l-0.2,0.3L115,4l-0.2,0.6l-0.3,0.5l-0.2,0.5L113.9,6
	l-0.3,0.4l-0.4,0.3L112.9,7L112,7.6l-0.8,0.6l-0.8,0.6l-0.8,0.6l-0.8,0.6l-0.9,0.6l-0.8,0.6l-0.9,0.6l-0.7,0.5l-0.7,0.5l-0.6,0.5
	l-0.7,0.5l-0.6,0.5l-0.6,0.6l-0.6,0.6l-0.7,0.6l-1.2,0.8L98.7,18l-1.2,0.9l-1.2,0.9l-1.2,0.9l-1.2,0.9l-1.2,0.9l-1.1,0.9l-0.7,0.2
	l-0.8,0.2l-0.8,0.2l-0.9,0.1c-2.2,0.3-3.7-0.1-5.9-0.1l-1.9,0l-1.9,0c-2.1,0.1-3.9,0.1-6,0l-1.1-0.1l-1.2-0.1l-1.2-0.1l-1.3-0.2
	c-1.1-0.1-2.4-0.2-3.6-0.1l-0.4,0l-0.4,0.1l-0.4,0.1l-0.4,0.1l-0.4,0.1L61.9,24l-0.4,0.2l-0.1,0.2l-0.1,0.3L61.1,25l0,0.3l0,0.4
	l0,0.4l0,0.4c0.1,0.7,0.3,1.6,0.7,2.2l0.2,0.5l0.3,0.4c0.8,1.3,3.4,1.7,4.7,2.3l1.5,0.4l0.8,0.2l0.8,0.2l0.8,0.2
	c1.5,0.3,3.1,0.5,4.6,0.6L78,34l2.5,0.5c3.4,0.6,7,1.2,10.4,1.4l1.4,0.1l1.3,0.1l1.3,0l1.4,0l0.5,0.6l0.6,0.6l0.6,0.5l0.7,0.5
	l1.1,0.3c2.1,0.6,4.2,1.1,6.3,1.7l1.1,0.3l1.1-0.1c2.1-0.3,4.2-0.7,6.2-1.3l0.9-0.3l0.2,0.7c0.4,1.7,0.7,3.5,1.5,5l0.2,0.3l-0.9,0.2
	c-1.7,0.3-3.5,0.3-5.2,0.1l-1-0.1l-0.3-0.6l-0.4-0.6l-0.4-0.6l-0.4-0.6c-1.5-1.6-2-2-4.1-2.5l-0.9-0.2l-0.8-0.2l-0.9-0.2l-0.8-0.2
	l-0.9-0.3l-0.8-0.2l-0.5,0l-0.4,0.1l-0.2,0L98.1,39l-0.2,0.1l-0.2,0.1l-0.1,0.1l-0.1,0.1l-0.1,0.2l-0.1,0.2l-0.1,0.2l-0.1,0.3l0,0.3
	l0,0.3l0.5,1l0.5,1l0.5,0.9l0.5,1l0.5,1l0.5,1.1l0.4,1.2l0.4,1.4l0.1,0.8l0.2,0.8l0.2,0.7l0.2,0.7l0.2,0.7l0.2,0.6l0.2,0.6l0.3,0.5
	l0.3,0.4l0.3,0.4l0.3,0.4l0.4,0.3l0.4,0.3l0.5,0.2l0.5,0.2l0.6,0.1l1.3,0.2l1.2,0.3l1.2,0.3l1.3,0.2l1.5,0.3l1.8,0.3l2.2,0.3
	l2.8,0.3l0.7,0.2l0.7,0.2l0.7,0.1l0.7,0.1l0.7,0l0.7-0.1l0.7-0.1l0.7-0.2l0.7-0.2l0.7-0.2l0.7-0.3l0.7-0.3l0.7-0.3l0.7-0.3l0.7-0.3
	l0.7-0.4l2-0.6l2-0.6l2-0.6l2-0.6l1-0.4l0.9-0.4l1-0.4l0.9-0.4l0.9-0.5l0.9-0.5l0.9-0.6l0.9-0.6l0.5-0.3"/>
<path class="st1" d="M147.8,10.4l-3.1-1.3l-3.2-1.3l-3.3-1.3l-3.3-1.2l-3.2-1.1l-3-1l-1.4-0.5l-1.4-0.4l-1.3-0.4l-1.2-0.3l-0.5,0
	l-0.5,0l-0.6-0.1l-0.5-0.1l-0.5-0.1l-0.5-0.1l-0.5,0c-1.7-0.2-3.1,0.3-4.2,1.7l-0.2,0.3L115,4l-0.2,0.6l-0.3,0.5l-0.2,0.5L113.9,6
	l-0.3,0.4l-0.4,0.3L112.9,7L112,7.6l-0.8,0.6l-0.8,0.6l-0.8,0.6l-0.8,0.6l-0.9,0.6l-0.8,0.6l-0.9,0.6l-0.7,0.5l-0.7,0.5l-0.6,0.5
	l-0.7,0.5l-0.6,0.5l-0.6,0.6l-0.6,0.6l-0.7,0.6l-1.2,0.8L98.7,18l-1.2,0.9l-1.2,0.9l-1.2,0.9l-1.2,0.9l-1.2,0.9l-1.1,0.9l-0.7,0.2
	l-0.8,0.2l-0.8,0.2l-0.9,0.1c-2.2,0.3-3.7-0.1-5.9-0.1l-1.9,0l-1.9,0c-2.1,0.1-3.9,0.1-6,0l-1.1-0.1l-1.2-0.1l-1.2-0.1l-1.3-0.2
	c-1.1-0.1-2.4-0.2-3.6-0.1l-0.4,0l-0.4,0.1l-0.4,0.1l-0.4,0.1l-0.4,0.1L61.9,24l-0.4,0.2l-0.1,0.2l-0.1,0.3L61.1,25l0,0.3l0,0.4
	l0,0.4l0,0.4c0.1,0.7,0.3,1.6,0.7,2.2l0.2,0.5l0.3,0.4c0.8,1.3,3.4,1.7,4.7,2.3l1.5,0.4l0.8,0.2l0.8,0.2l0.8,0.2
	c1.5,0.3,3.1,0.5,4.6,0.6L78,34l2.5,0.5c3.4,0.6,7,1.2,10.4,1.4l1.4,0.1l1.3,0.1l1.3,0l1.4,0l0.5,0.6l0.6,0.6l0.6,0.5l0.7,0.5
	l1.1,0.3c2.1,0.6,4.2,1.1,6.3,1.7l1.1,0.3l1.1-0.1c2.1-0.3,4.2-0.7,6.2-1.3l0.9-0.3l0.2,0.7c0.4,1.7,0.7,3.5,1.5,5l0.2,0.3l-0.9,0.2
	c-1.7,0.3-3.5,0.3-5.2,0.1l-1-0.1l-0.3-0.6l-0.4-0.6l-0.4-0.6l-0.4-0.6c-1.5-1.6-2-2-4.1-2.5l-0.9-0.2l-0.8-0.2l-0.9-0.2l-0.8-0.2
	l-0.9-0.3l-0.8-0.2l-0.5,0l-0.4,0.1l-0.2,0L98.1,39l-0.2,0.1l-0.2,0.1l-0.1,0.1l-0.1,0.1l-0.1,0.2l-0.1,0.2l-0.1,0.2l-0.1,0.3l0,0.3
	l0,0.3l0.5,1l0.5,1l0.5,0.9l0.5,1l0.5,1l0.5,1.1l0.4,1.2l0.4,1.4l0.1,0.8l0.2,0.8l0.2,0.7l0.2,0.7l0.2,0.7l0.2,0.6l0.2,0.6l0.3,0.5
	l0.3,0.4l0.3,0.4l0.3,0.4l0.4,0.3l0.4,0.3l0.5,0.2l0.5,0.2l0.6,0.1l1.3,0.2l1.2,0.3l1.2,0.3l1.3,0.2l1.5,0.3l1.8,0.3l2.2,0.3
	l2.8,0.3l0.7,0.2l0.7,0.2l0.7,0.1l0.7,0.1l0.7,0l0.7-0.1l0.7-0.1l0.7-0.2l0.7-0.2l0.7-0.2l0.7-0.3l0.7-0.3l0.7-0.3l0.7-0.3l0.7-0.3
	l0.7-0.4l2-0.6l2-0.6l2-0.6l2-0.6l1-0.4l0.9-0.4l1-0.4l0.9-0.4l0.9-0.5l0.9-0.5l0.9-0.6l0.9-0.6l0.5-0.3"/>
<path class="st2" d="M147.9,10.4l-3.1-1.3l-3.2-1.3l-3.3-1.3L135,5.4l-3.2-1.1l-3-1l-1.4-0.5l-1.4-0.4L124.6,2l-1.2-0.3l-0.5,0
	l-0.5,0l-0.6-0.1l-0.5-0.1l-0.5-0.1l-0.5-0.1l-0.5,0c-1.7-0.2-3.1,0.3-4.2,1.7l-0.2,0.3L115,3.9l-0.2,0.6l-0.3,0.5l-0.2,0.5L113.9,6
	l-0.3,0.4l-0.4,0.3l-0.4,0.3L112,7.6l-0.8,0.6l-0.8,0.6l-0.8,0.6l-0.8,0.6l-0.9,0.6l-0.8,0.6l-0.9,0.6l-0.7,0.5l-0.7,0.5l-0.6,0.5
	l-0.7,0.5l-0.6,0.5l-0.6,0.6l-0.6,0.6l-0.7,0.6l-1.2,0.8L98.7,18l-1.2,0.9l-1.2,0.9l-1.2,0.9l-1.2,0.9l-1.2,0.9l-1.1,0.9l-0.7,0.2
	L90,23.7l-0.8,0.2l-0.9,0.1c-2.2,0.3-3.7-0.1-5.9-0.1l-1.9,0L78.6,24c-2.1,0.1-4,0.1-6,0l-1.1-0.1l-1.2-0.1l-1.2-0.1l-1.3-0.2
	c-1.1-0.1-2.4-0.2-3.6-0.1l-0.4,0l-0.4,0.1l-0.4,0.1l-0.4,0.1l-0.4,0.1l-0.4,0.2l-0.4,0.2l-0.1,0.2l-0.1,0.3L61.1,25l0,0.3l0,0.4
	l0,0.4l0,0.4c0.1,0.7,0.3,1.6,0.7,2.2l0.2,0.5l0.3,0.4c0.8,1.3,3.4,1.7,4.8,2.3l1.5,0.4l0.8,0.2l0.8,0.2l0.8,0.2
	c1.5,0.3,3.1,0.5,4.6,0.6l2.5,0.5l2.5,0.5c3.4,0.6,7,1.2,10.4,1.4l1.4,0.1l1.3,0.1l1.4,0l1.4,0l0.5,0.6l0.6,0.6L98,38l0.7,0.5
	l1.1,0.3c2.1,0.6,4.2,1.1,6.3,1.7l1.1,0.3l1.1-0.1c2.1-0.3,4.2-0.7,6.2-1.3l0.9-0.3l0.2,0.7c0.4,1.7,0.7,3.5,1.5,5l0.2,0.3l-0.9,0.2
	c-1.7,0.3-3.5,0.3-5.3,0.1l-1-0.1l-0.3-0.6l-0.4-0.6l-0.4-0.6l-0.4-0.6c-1.5-1.6-2-2-4.1-2.5l-0.9-0.2l-0.8-0.2l-0.9-0.2l-0.8-0.2
	l-0.9-0.3l-0.8-0.2l-0.5,0l-0.4,0.1l-0.2,0.1L98.1,39l-0.2,0l-0.2,0.1l-0.1,0.1l-0.1,0.1l-0.1,0.2l-0.1,0.2L97.2,40l-0.1,0.3l0,0.3
	l0,0.3l0.5,1l0.5,1l0.5,0.9l0.5,1l0.5,1l0.5,1.1l0.4,1.2l0.4,1.4l0.1,0.8l0.2,0.8l0.2,0.7l0.2,0.7l0.2,0.7l0.2,0.6l0.2,0.6l0.3,0.5
	l0.3,0.4l0.3,0.4l0.3,0.4l0.4,0.3l0.4,0.3l0.5,0.2l0.5,0.2l0.6,0.1l1.3,0.2l1.2,0.3l1.2,0.3l1.3,0.2l1.5,0.3l1.9,0.3l2.2,0.3
	l2.8,0.3l0.7,0.2l0.7,0.2l0.7,0.1l0.7,0.1l0.7,0l0.7-0.1l0.7-0.1l0.7-0.2l0.7-0.2l0.7-0.2l0.7-0.3l0.7-0.3l0.7-0.3l0.7-0.3l0.7-0.3
	l0.7-0.4l2-0.6l2-0.6l2-0.6l2-0.6l1-0.4l0.9-0.4l1-0.4l0.9-0.4l0.9-0.5l0.9-0.5l0.9-0.6l0.9-0.6l0.5-0.3"/>
<path class="st2" d="M103.4,38.1l0.3-0.2c0.5-0.5,0.8-1.1,0.9-1.9l0-0.4 M61.8,27.8l0.7,0.2c2.9,1,6.2,0.8,6.1-3.2l0-0.4 M88.9,31.2
	l0.3-0.8c0.4-1.6,0.6-2.9,0.6-4.5l0-0.7 M87.5,32.5l-0.2-1.1c-0.2-1.5-0.9-4.9-0.2-6.4l0.2-0.3 M121.7,6.8l-0.5-0.5
	c-2.1-2.1-4.3-2.3-6.7-0.8l-0.5,0.4 M107.1,12.5l1-0.6l1-0.6c1.5-0.7,2.8-2.1,4.5-2.1l0.4,0l0.8,0.1l0.8,0.1l0.8,0.2l0.8,0.2
	l0.9,0.4l1.3,0.5l1.6,0.6l1.7,0.6l1.7,0.6l1.6,0.5l1.3,0.4l0.9,0.2 M105.1,46.9l0.7-0.7c1.2-1.2,1.7-1.4,3.3-1.2l1,0.1 M117.4,44.1
	l0.3-0.2c0.4-0.5,0.8-1.1,1-1.8l0-0.3 M123.1,45.9l-0.8-1l-0.9-1l-0.9-0.9l-0.9-0.9l-1-0.9l-1-0.9l-1-0.8l-1-0.7l-1-0.5l-1-0.4
	l-1-0.5c-2.5-1.1-5.2-1.5-7.8-2.1l-1.1-0.2l-1.1-0.2l-0.8,0.2c-1.5,0.4-3.3,0.6-4.8,0.7L96.3,36 M121.9,22.3l-0.5-0.4l-0.6-0.4
	l-0.6-0.4l-0.5-0.4l-0.6-0.1l-0.6-0.1l-0.6-0.1l-0.6-0.1l-1.1-0.2l-1.1-0.1l-1.1,0l-1.1,0l-1.1,0.1l-1.1,0.1l-2.4,0.4l-2.4,0.4
	l-2.4,0.4l-2.4,0.4l-2.4,0.4l-2.4,0.4L94.1,23l-2.4,0.4"/>
<polyline class="st3" points="0,57.5 143.1,57.5 143.1,0 0,0 "/>
</svg>
