<?xml version="1.0" encoding="utf-8"?>
<!-- Generator: Adobe Illustrator 21.0.0, SVG Export Plug-In . SVG Version: 6.00 Build 0)  -->
<svg version="1.1" id="Layer_1" xmlns="http://www.w3.org/2000/svg" xmlns:xlink="http://www.w3.org/1999/xlink" x="0px" y="0px"
	 viewBox="0 0 581.4 1417.3" style="enable-background:new 0 0 581.4 1417.3;" xml:space="preserve">
<g>
	<path d="M372.8,1403.4H207.6c-108.1,0-196-87.9-196-196v-997c0-108.1,87.9-196,196-196h165.2c108.1,0,196,87.9,196,196v997
		C568.8,1315.5,480.9,1403.4,372.8,1403.4z M207.6,28.3C107.2,28.3,25.5,110,25.5,210.4v997c0,100.4,81.7,182.1,182.1,182.1h165.2
		c100.4,0,182.1-81.7,182.1-182.1v-997c0-100.4-81.7-182.1-182.1-182.1H207.6z"/>
</g>
<g>
	<path d="M372.8,1358.3H207.6c-83.2,0-150.9-67.7-150.9-150.9v-997c0-83.2,67.7-150.9,150.9-150.9h165.2
		c83.2,0,150.9,67.7,150.9,150.9v997C523.7,1290.6,456,1358.3,372.8,1358.3z M207.6,66.4c-79.4,0-144,64.6-144,144v997
		c0,79.4,64.6,144,144,144h165.2c79.4,0,144-64.6,144-144v-997c0-79.4-64.6-144-144-144H207.6z"/>
</g>
<g>
	<circle cx="221.3" cy="330.3" r="7.5"/>
</g>
<g>
	<path d="M276.4,486.5l11.4-29.8h4.2l12.2,29.8h-4.5l-3.5-9h-12.5l-3.3,9H276.4z M285,474.3h10.1l-3.1-8.2c-0.9-2.5-1.7-4.6-2.1-6.2
		c-0.4,1.9-0.9,3.8-1.6,5.7L285,474.3z"/>
</g>
<g>
	<path d="M278.4,589.4v-29.8h11.2c2.3,0,4.1,0.3,5.5,0.9c1.4,0.6,2.5,1.5,3.2,2.8c0.8,1.3,1.2,2.6,1.2,3.9c0,1.3-0.3,2.5-1,3.6
		c-0.7,1.1-1.7,2-3.1,2.7c1.8,0.5,3.2,1.4,4.2,2.7s1.5,2.8,1.5,4.5c0,1.4-0.3,2.7-0.9,3.9c-0.6,1.2-1.3,2.1-2.2,2.8
		c-0.9,0.7-2,1.1-3.3,1.5s-2.9,0.5-4.8,0.5H278.4z M282.3,572.1h6.4c1.7,0,3-0.1,3.8-0.3c1-0.3,1.8-0.8,2.3-1.5s0.8-1.6,0.8-2.6
		c0-1-0.2-1.9-0.7-2.6c-0.5-0.8-1.2-1.3-2-1.5s-2.4-0.4-4.5-0.4h-6V572.1z M282.3,585.8h7.4c1.3,0,2.2,0,2.7-0.1
		c0.9-0.2,1.7-0.4,2.3-0.8c0.6-0.4,1.1-0.9,1.5-1.7c0.4-0.7,0.6-1.6,0.6-2.5c0-1.1-0.3-2.1-0.9-2.9c-0.6-0.8-1.4-1.4-2.4-1.7
		c-1-0.3-2.5-0.5-4.4-0.5h-6.9V585.8z"/>
</g>
<g>
	<path d="M298.7,681.7l3.9,1c-0.8,3.2-2.3,5.7-4.5,7.4c-2.1,1.7-4.8,2.5-7.9,2.5c-3.2,0-5.8-0.7-7.8-2c-2-1.3-3.5-3.2-4.6-5.7
		s-1.6-5.1-1.6-8c0-3.1,0.6-5.8,1.8-8.1s2.9-4.1,5.1-5.3c2.2-1.2,4.6-1.8,7.2-1.8c3,0,5.5,0.8,7.5,2.3c2,1.5,3.4,3.7,4.2,6.4
		l-3.9,0.9c-0.7-2.2-1.7-3.7-3-4.7s-3-1.5-5-1.5c-2.3,0-4.2,0.5-5.7,1.6c-1.5,1.1-2.6,2.6-3.2,4.4s-0.9,3.8-0.9,5.7
		c0,2.5,0.4,4.7,1.1,6.6c0.7,1.9,1.9,3.3,3.4,4.2s3.2,1.4,5.1,1.4c2.2,0,4.1-0.6,5.6-1.9C297.1,686.1,298.1,684.2,298.7,681.7z"/>
</g>
<g>
	<path d="M250.4,501.3h-71.3c-5.9,0-10.7-4.8-10.7-10.7v-35.2c0-5.9,4.8-10.7,10.7-10.7h71.3c5.9,0,10.7,4.8,10.7,10.7v35.2
		C261.1,496.5,256.3,501.3,250.4,501.3z"/>
	<path d="M250.4,604.1h-71.3c-5.9,0-10.7-4.8-10.7-10.7v-35.2c0-5.9,4.8-10.7,10.7-10.7h71.3c5.9,0,10.7,4.8,10.7,10.7v35.2
		C261.1,599.3,256.3,604.1,250.4,604.1z"/>
	<path d="M250.4,707h-71.3c-5.9,0-10.7-4.8-10.7-10.7v-35.2c0-5.9,4.8-10.7,10.7-10.7h71.3c5.9,0,10.7,4.8,10.7,10.7v35.2
		C261.1,702.2,256.3,707,250.4,707z"/>
	<path d="M250.4,809.8h-71.3c-5.9,0-10.7-4.8-10.7-10.7v-35.2c0-5.9,4.8-10.7,10.7-10.7h71.3c5.9,0,10.7,4.8,10.7,10.7V799
		C261.1,805,256.3,809.8,250.4,809.8z"/>
</g>
<g>
	<path d="M399.3,501.3h-71.3c-5.9,0-10.7-4.8-10.7-10.7v-35.2c0-5.9,4.8-10.7,10.7-10.7h71.3c5.9,0,10.7,4.8,10.7,10.7v35.2
		C410,496.5,405.2,501.3,399.3,501.3z"/>
	<path d="M399.3,604.1h-71.3c-5.9,0-10.7-4.8-10.7-10.7v-35.2c0-5.9,4.8-10.7,10.7-10.7h71.3c5.9,0,10.7,4.8,10.7,10.7v35.2
		C410,599.3,405.2,604.1,399.3,604.1z"/>
	<path d="M399.3,707h-71.3c-5.9,0-10.7-4.8-10.7-10.7v-35.2c0-5.9,4.8-10.7,10.7-10.7h71.3c5.9,0,10.7,4.8,10.7,10.7v35.2
		C410,702.2,405.2,707,399.3,707z"/>
	<path d="M399.3,809.8h-71.3c-5.9,0-10.7-4.8-10.7-10.7v-35.2c0-5.9,4.8-10.7,10.7-10.7h71.3c5.9,0,10.7,4.8,10.7,10.7V799
		C410,805,405.2,809.8,399.3,809.8z"/>
</g>
<g>
	<path d="M277.4,795v-29.8h10.3c2.3,0,4.1,0.1,5.3,0.4c1.7,0.4,3.2,1.1,4.4,2.1c1.6,1.3,2.7,3,3.5,5.1s1.2,4.4,1.2,7.1
		c0,2.3-0.3,4.3-0.8,6c-0.5,1.7-1.2,3.2-2,4.3s-1.7,2-2.7,2.7c-1,0.7-2.2,1.2-3.6,1.5s-3,0.5-4.8,0.5H277.4z M281.3,791.5h6.4
		c2,0,3.5-0.2,4.6-0.5c1.1-0.4,2-0.9,2.7-1.5c0.9-0.9,1.7-2.2,2.2-3.8c0.5-1.6,0.8-3.5,0.8-5.7c0-3.1-0.5-5.5-1.5-7.2
		s-2.3-2.8-3.7-3.4c-1.1-0.4-2.8-0.6-5.1-0.6h-6.3V791.5z"/>
</g>
<g>
	<path d="M185.6,847.5c0-4.9,1.3-8.8,4-11.6s6.1-4.2,10.3-4.2c2.7,0,5.2,0.7,7.4,2c2.2,1.3,3.9,3.1,5,5.5c1.2,2.3,1.7,5,1.7,8
		c0,3-0.6,5.7-1.8,8.1s-2.9,4.2-5.2,5.4s-4.6,1.8-7.2,1.8c-2.8,0-5.3-0.7-7.5-2c-2.2-1.4-3.9-3.2-5-5.5S185.6,850.1,185.6,847.5z
		 M189.6,847.5c0,3.6,1,6.4,2.9,8.5s4.4,3.1,7.3,3.1c3,0,5.4-1,7.3-3.1c1.9-2.1,2.9-5,2.9-8.9c0-2.4-0.4-4.5-1.2-6.3
		c-0.8-1.8-2-3.2-3.6-4.2s-3.3-1.5-5.3-1.5c-2.8,0-5.2,1-7.2,2.9C190.6,839.8,189.6,843,189.6,847.5z"/>
	<path d="M219.1,862v-29.8h4l15.6,23.4v-23.4h3.8V862h-4l-15.6-23.4V862H219.1z"/>
</g>
<g>
	<path d="M324.1,847.5c0-4.9,1.3-8.8,4-11.6c2.7-2.8,6.1-4.2,10.3-4.2c2.7,0,5.2,0.7,7.4,2c2.2,1.3,3.9,3.1,5,5.5s1.7,5,1.7,8
		c0,3-0.6,5.7-1.8,8.1c-1.2,2.4-2.9,4.2-5.2,5.4c-2.2,1.2-4.6,1.8-7.2,1.8c-2.8,0-5.3-0.7-7.5-2s-3.9-3.2-5-5.5
		C324.7,852.6,324.1,850.1,324.1,847.5z M328.2,847.5c0,3.6,1,6.4,2.9,8.5s4.4,3.1,7.3,3.1c3,0,5.4-1,7.3-3.1c1.9-2.1,2.9-5,2.9-8.9
		c0-2.4-0.4-4.5-1.2-6.3c-0.8-1.8-2-3.2-3.6-4.2s-3.3-1.5-5.3-1.5c-2.8,0-5.2,1-7.2,2.9S328.2,843,328.2,847.5z"/>
	<path d="M357.9,862v-29.8H378v3.5h-16.2v9.2h14v3.5h-14V862H357.9z"/>
	<path d="M383.3,862v-29.8h20.1v3.5h-16.2v9.2h14v3.5h-14V862H383.3z"/>
</g>
</svg>
