<?xml version="1.0" encoding="utf-8"?>
<!-- Generator: Adobe Illustrator 21.0.0, SVG Export Plug-In . SVG Version: 6.00 Build 0)  -->
<svg version="1.1" id="Layer_1" xmlns="http://www.w3.org/2000/svg" xmlns:xlink="http://www.w3.org/1999/xlink" x="0px" y="0px"
	 viewBox="0 0 527.5 1417.3" style="enable-background:new 0 0 527.5 1417.3;" xml:space="preserve">
<style type="text/css">
	.pair {
		animation: pair 2s infinite;
	}
	
	@keyframes pair {
		0%, 20%, 80%, 100% {
			fill: rgba(255,255,255,0);
		}
		50% {
			fill: #0074CC;
		}
	}
</style>
<g>
	<path d="M115.2,535.3c-14,21.8-22.8,45.9-26.2,71.5c-1,7.7-1.6,15.6-1.6,23.5c0,7.9,0.5,15.8,1.6,23.5
		c3.4,25.7,12.3,49.8,26.3,71.6c32.6,50.8,88.1,81.2,148.5,81.2c60.7,0,116.4-30.6,148.9-81.9c0.5-0.8,1-1.6,1.5-2.4
		c12.9-21,21.1-44.1,24.3-68.5c1-7.7,1.6-15.6,1.6-23.5c0-7.9-0.5-15.8-1.6-23.5c-3.2-24.4-11.4-47.5-24.3-68.5
		c-0.5-0.8-1-1.6-1.5-2.4c-32.6-51.3-88.2-81.9-148.9-81.9C203.4,454,147.8,484.4,115.2,535.3z M114.7,544.4v60.5H93.6
		C96.8,583.5,103.9,563.1,114.7,544.4z M114.7,716.3c-10.8-18.7-17.9-39-21.1-60.5h21.1V716.3z M415.8,710.8v-55h18.1
		C431,675.1,425,693.6,415.8,710.8z M415.8,549.9c9.1,17.2,15.2,35.6,18.1,55h-18.1V549.9z M406.2,540.1c0.5,0.8,1,1.5,1.4,2.3
		c0.5,0.8,0.9,1.5,1.4,2.3v64.6H431c0.9,6.9,1.3,14,1.3,21.1c0,7.1-0.5,14.2-1.3,21.1H409V716c-0.5,0.8-0.9,1.6-1.4,2.3
		c-0.5,0.8-0.9,1.5-1.4,2.3C375,769.7,321.8,799,263.7,799c-57.7,0-110.8-29-142-77.7c-0.1-0.1-0.2-0.3-0.2-0.4v-69.5h-25
		c-0.9-6.9-1.3-14-1.3-21.1c0-7.1,0.5-14.2,1.3-21.1h25v-69.5c0.1-0.1,0.1-0.2,0.2-0.3c31.2-48.7,84.3-77.7,142.1-77.7
		C321.8,461.7,375,491,406.2,540.1z"/>
	<path d="M176.5,606.2c-13.3,0-24.1,10.8-24.1,24.1c0,13.3,10.8,24.1,24.1,24.1c13.3,0,24.1-10.8,24.1-24.1
		C200.6,617.1,189.8,606.2,176.5,606.2z"/>
	<path d="M340.8,654.5c13.3,0,24.1-10.8,24.1-24.1c0-13.3-10.8-24.1-24.1-24.1c-13.3,0-24.1,10.8-24.1,24.1
		C316.7,643.6,327.6,654.5,340.8,654.5z"/>
	<path d="M55.4,630.4c0,114.9,93.5,208.3,208.3,208.3c114.9,0,208.3-93.4,208.3-208.3c0-114.9-93.4-208.3-208.3-208.3
		C148.9,422,55.4,515.5,55.4,630.4z M463.9,630.4c0,110.4-89.8,200.2-200.2,200.2S63.5,740.7,63.5,630.4
		c0-110.4,89.8-200.2,200.2-200.2S463.9,520,463.9,630.4z"/>
	<path d="M345.9,1118.3h-57c-0.6-0.6-1.3-1.2-1.9-1.7c0,0,0,0,0,0c0,0,0,0,0,0c0,0,0,0,0,0c-1.1-1-2.1-1.7-3.1-2.3l0,0c0,0,0,0,0,0
		l-0.5-0.3c-0.5-0.3-1-0.7-1.5-1l0,0c0,0,0,0-0.1,0c0,0,0,0-0.1,0l-0.3-0.2c-0.5-0.3-1.1-0.7-1.5-0.9c0,0-0.1,0-0.1-0.1c0,0,0,0,0,0
		l0,0c-0.4-0.2-0.9-0.5-1.3-0.7l-0.5-0.2l0,0c-0.2-0.1-0.4-0.2-0.6-0.3l-0.2-0.1c-0.4-0.2-0.7-0.3-1.1-0.5l-0.3-0.1
		c-0.6-0.3-1.2-0.5-1.8-0.7c-0.2-0.1-0.4-0.1-0.6-0.2c-0.4-0.1-0.8-0.3-1.2-0.4l-0.4-0.2c-0.7-0.2-1.4-0.4-2.1-0.6
		c-0.7-0.2-1.4-0.3-2-0.5l0,0c-5.9-1.2-12-1.2-17.8,0c-1.4,0.3-2.7,0.6-4.2,1.1l-0.4,0.2c-0.4,0.1-0.8,0.3-1.1,0.4
		c-0.2,0.1-0.4,0.1-0.5,0.2c-0.6,0.2-1.3,0.5-1.9,0.8l-0.3,0.2c-0.6,0.3-1.3,0.6-1.7,0.8c-0.7,0.3-1.4,0.7-1.9,1
		c-0.6,0.3-1.1,0.6-1.6,0.9l-0.3,0.2c0,0,0,0-0.1,0c0,0,0,0,0,0l0,0c-1.8,1.1-3.7,2.5-5.6,4.1l0,0c-0.4,0.4-0.8,0.7-1.1,1
		c0,0,0,0,0,0l-0.1,0.1c-0.1,0.1-0.2,0.2-0.3,0.2h-57.8c-17.7,0-32.1,14.4-32.1,32.1c0,17.7,14.4,32.1,32.1,32.1h57.8
		c0.2,0.2,0.5,0.4,0.7,0.7c0.5,0.5,1.1,0.9,1.5,1.2c0,0,0,0,0,0l0,0l0,0c2.6,2.1,5.5,4,8.6,5.6l0,0c0.1,0,0.1,0.1,0.2,0.1
		c0,0,0,0,0,0l0,0c0.5,0.3,1.1,0.5,1.6,0.7l0.4,0.2c0.7,0.3,1.3,0.5,1.9,0.8c0.2,0.1,0.3,0.1,0.5,0.2c0.4,0.1,0.8,0.3,1.2,0.4
		l0.4,0.1c0.7,0.2,1.4,0.4,2.1,0.6c0.7,0.2,1.4,0.3,2.1,0.5l0,0c2.9,0.6,5.9,0.9,8.9,0.9c3,0,6-0.3,8.9-0.9c1.4-0.3,2.7-0.6,4.2-1.1
		l0.4-0.1c0.6-0.2,1.1-0.4,1.6-0.6c0.1,0,0.3-0.1,0.4-0.1c0.5-0.2,1-0.4,1.5-0.6c0.2-0.1,0.4-0.1,0.5-0.2l0,0c0,0,0,0,0,0
		c0,0,0.1,0,0.1,0c0.6-0.3,1.2-0.5,1.7-0.8c3.4-1.7,6.6-3.8,9.5-6.3c0.4-0.3,0.7-0.6,1.2-1c0.1-0.1,0.1-0.1,0.2-0.2c0,0,0,0,0,0h57
		c17.7,0,32-14.4,32-32.1C377.9,1132.7,363.5,1118.3,345.9,1118.3z M146.7,1150.4c0-13.2,10.7-23.9,23.9-23.9h51
		c-4.6,7.1-7.1,15.3-7.1,23.9c0,8.6,2.5,16.9,7.1,23.9h-51C157.5,1174.3,146.7,1163.6,146.7,1150.4z M274.4,1182.7
		c-0.5,0.2-0.9,0.4-1.4,0.7l-0.3,0.1c-1,0.4-2,0.8-3.1,1.2l-0.2,0.1c-0.4,0.1-0.7,0.2-1,0.3c-0.2,0.1-0.4,0.1-0.6,0.2
		c-0.5,0.1-1,0.2-1.5,0.3l0,0c0,0,0,0-0.1,0c-4.8,1-9.7,1-14.7,0c-0.5-0.1-1-0.2-1.6-0.3c-0.2,0-0.4-0.1-0.5-0.1
		c-0.4-0.1-0.7-0.2-1.1-0.3l-0.3-0.1c-1-0.3-2.1-0.7-3.1-1.2l-0.2-0.1l0,0c0,0,0,0,0,0l-1.5-0.7c-2.5-1.2-4.9-2.7-7.1-4.6l-1.3-1.1
		c-0.5-0.5-1-1-1.5-1.5l0,0c-6.6-6.7-10.3-15.7-10.3-25.1c0-9.3,3.5-18,9.9-24.8l0.4-0.4c0.4-0.4,0.9-0.9,1.3-1.2l0.9-0.9
		c0,0,0,0,0,0c1.5-1.3,3.1-2.4,4.6-3.4l0.3-0.2c0.4-0.2,0.8-0.5,1.3-0.7c0.6-0.3,1.1-0.6,1.5-0.8l1.6-0.7c0,0,0,0,0,0l0,0l0.3-0.1
		c0.2-0.1,0.5-0.2,0.7-0.3c0.3-0.1,0.5-0.2,0.8-0.3c0.5-0.2,1-0.4,1.6-0.5l0.3-0.1c0.4-0.1,0.7-0.2,1.1-0.3c0.2,0,0.4-0.1,0.5-0.1
		c0.5-0.1,1-0.2,1.6-0.3l0,0c0,0,0,0,0.1,0c4.9-1,9.7-1,14.7,0c0.5,0.1,1,0.2,1.5,0.3c0.2,0,0.4,0.1,0.5,0.1
		c0.4,0.1,0.7,0.2,1.1,0.3l0.3,0.1c0.6,0.2,1.1,0.4,1.6,0.5c0.2,0.1,0.3,0.1,0.5,0.2c0.4,0.1,0.7,0.3,1.1,0.4
		c0.1,0.1,0.3,0.1,0.4,0.2c0.3,0.1,0.6,0.3,0.9,0.4l0.9,0.4c0.4,0.2,0.8,0.4,1.3,0.7c0.4,0.2,0.9,0.5,1.3,0.7l0.2,0.1
		c0.5,0.3,0.9,0.6,1.3,0.8l0.4,0.2c0.9,0.6,1.8,1.3,2.5,1.9c0.9,0.8,1.8,1.6,2.6,2.4l0.6,0.6c6.2,6.7,9.7,15.4,9.7,24.5
		c0,9.3-3.5,18-9.9,24.7l-0.4,0.4c-0.4,0.4-0.9,0.9-1.3,1.2c-0.2,0.2-0.5,0.4-0.7,0.6c-0.1,0.1-0.1,0.1-0.2,0.2
		C279.8,1179.6,277.2,1181.3,274.4,1182.7z M345.9,1174.3h-50.2c4.6-7.1,7.1-15.3,7.1-23.9c0-8.6-2.5-16.8-7.1-23.9h50.2
		c13.2,0,23.9,10.7,23.9,23.9S359,1174.3,345.9,1174.3z"/>
	<path d="M444.3,250.1c51.9-16.7,79.3-39.1,79.3-64.8v-81c0-25.7-27.4-48.1-79.3-64.8C396,23.9,331.8,15.3,263.7,15.3
		c-68.1,0-132.2,8.6-180.6,24.1C31.3,56.1,3.9,78.5,3.9,104.2v81c0,25.7,27.4,48.1,79.3,64.8c35.9,11.6,80.6,19.2,129.1,22.4v14
		h-25.5v81.8c-24.5,7.2-47.9,17.8-69.7,31.7c-42.6,27.2-76.8,65.5-98.9,110.8c-2,4.1-3,8.7-3,13.4v36.9v175.3v509.5
		c0,64.2,24.4,107.7,74.6,133c38.7,19.5,92.1,28.2,173,28.2c81,0,134.4-8.7,173-28.2c50.2-25.3,74.6-68.9,74.6-133.1V740.1V557.3
		v-36.7c0-4.9-1.1-9.7-3.3-13.9c-34.8-68.3-95.1-117.5-166.1-138.3v-81.9h-25.5v-14.1C364,269.3,408.5,261.6,444.3,250.1z
		 M507.8,185.3c0,17.4-25.5,36-68.3,49.8c-46.8,15.1-109.2,23.4-175.7,23.4c-66.5,0-128.9-8.3-175.7-23.4
		c-42.8-13.8-68.3-32.4-68.3-49.8v-13.4c21.1-35.7,124.3-63.7,244.1-63.7c119.8,0,223,28,244.1,63.7V185.3z M88,54.4
		c46.8-15.1,109.2-23.4,175.7-23.4c66.5,0,128.9,8.3,175.7,23.4c42.8,13.8,68.3,32.4,68.3,49.8v55c-32.4-34.5-128.1-58.9-244.1-58.9
		c-116,0-211.7,24.4-244.1,58.9v-55C19.7,86.8,45.2,68.2,88,54.4z M194.9,294.6h17.3v67.6c-5.8,1.1-11.6,2.4-17.3,3.9V294.6z
		 M31.4,1245.9V773.8c12.1,19.6,26.7,37.6,43.3,53.6v522.8C45.7,1327,31.4,1292.7,31.4,1245.9z M262.8,1390.9
		c-78.3,0-129.4-8.2-165.7-26.5c-5-2.5-9.8-5.3-14.2-8.3V834.9c10.7,9.4,22.1,18.1,34.2,25.8c43.8,27.9,94.5,42.7,146.6,42.7
		c67.3,0,130.3-24.3,179-66.7v519.7C402.1,1383.4,339.6,1390.9,262.8,1390.9z M450.9,1350.5V829.3c16.4-15.5,31-33.1,43.3-52.6
		v469.1C494.2,1295.2,478.7,1328.4,450.9,1350.5z M492.7,514c1,2,1.5,4.2,1.5,6.6v36.7v182.8c0,2.3-0.5,4.6-1.5,6.6
		c-44.1,86.6-131.8,140.5-229,140.5c-49,0-96.7-13.9-137.9-40.1c-40.1-25.6-72.2-61.6-93-104.2c-0.9-1.9-1.4-4.1-1.4-6.3V561.2
		v-36.9c0-2.2,0.5-4.4,1.4-6.3c20.8-42.6,53-78.7,93-104.3c41.1-26.2,88.8-40.1,137.9-40.1C360.9,373.6,448.6,427.4,492.7,514z
		 M332.9,294.6v71.5c-5.7-1.5-11.5-2.8-17.3-3.9v-67.6H332.9z M307.5,286.5v74.3c-14.3-2.3-28.9-3.5-43.7-3.5
		c-14.6,0-29.1,1.2-43.4,3.4v-74.3V273c14.2,0.8,28.7,1.2,43.4,1.2c14.8,0,29.4-0.4,43.7-1.2V286.5z"/>
</g>
<g>
	<path class="pair" d="M282.6,1129.3l-1.2-1.3c-0.7-0.7-1.5-1.5-2.3-2.1c-0.6-0.5-1.4-1.1-2.2-1.7l-0.2-0.1c-0.4-0.3-0.8-0.5-1.2-0.8
		l-0.3-0.2c-0.3-0.2-0.6-0.4-0.9-0.5l-0.3-0.1c-0.3-0.2-0.7-0.4-1-0.5l-0.8-0.4c-0.2-0.1-0.3-0.2-0.5-0.2c-0.3-0.1-0.5-0.2-0.7-0.3
		c-0.8-0.3-1.7-0.7-2.6-1l-0.7-0.2c-0.8-0.2-1.5-0.4-2.2-0.5c-4.6-0.9-8.8-0.9-13.1,0c-0.8,0.2-1.6,0.4-2.4,0.6l-0.7,0.2
		c-0.9,0.3-1.8,0.6-2.6,1l-1.8,0.8c-0.5,0.2-0.9,0.5-1.4,0.7c-0.4,0.2-0.8,0.4-1.1,0.6l-0.3,0.2c-1.2,0.8-2.6,1.7-4,2.9l-0.9,0.8
		c-0.3,0.3-0.7,0.7-1.2,1.1l-0.5,0.5c-5.5,5.9-8.6,13.6-8.6,21.7c0,8.4,3.2,16.3,9.1,22.3c0.4,0.4,0.9,0.9,1.3,1.3l1.2,1
		c1.9,1.6,4,3,6.3,4l1.8,0.8c0.8,0.3,1.7,0.7,2.6,0.9l0.6,0.2c0.8,0.2,1.6,0.4,2.4,0.6c4.5,0.9,8.8,0.9,13.1,0
		c0.8-0.2,1.6-0.4,2.4-0.6l0,0l0.6-0.2c1-0.3,1.9-0.7,2.8-1l0.6-0.3c0.3-0.1,0.6-0.3,0.9-0.4c2.5-1.2,4.8-2.8,7-4.6
		c0.3-0.3,0.6-0.5,0.8-0.7c0.3-0.3,0.7-0.7,1.1-1.1l0.6-0.6c5.5-5.9,8.5-13.5,8.5-21.6C290.5,1142.6,287.7,1135.1,282.6,1129.3z"/>
</g>
<g>
	<path class="pair" d="M345.9,1170.2c10.9,0,19.8-8.9,19.8-19.9s-8.9-19.9-19.8-19.9h-43.4c2.8,6.2,4.3,12.9,4.3,19.9
		c0,7-1.5,13.7-4.3,19.9H345.9z"/>
</g>
<g>
	<path class="pair" d="M170.7,1130.5c-11,0-19.9,8.9-19.9,19.9s8.9,19.9,19.9,19.9h44.2c-2.8-6.2-4.3-12.9-4.3-19.9
		c0-7,1.5-13.7,4.3-19.9H170.7z"/>
</g>
</svg>
