<?xml version="1.0" encoding="utf-8"?>
<!-- Generator: Adobe Illustrator 21.0.0, SVG Export Plug-In . SVG Version: 6.00 Build 0)  -->
<svg version="1.1" id="Layer_1" xmlns="http://www.w3.org/2000/svg" xmlns:xlink="http://www.w3.org/1999/xlink" x="0px" y="0px"
	 viewBox="0 0 970.7 1417.3" style="enable-background:new 0 0 970.7 1417.3;" xml:space="preserve">
<g>
	<path d="M657.8,475.7V354.4c76.6-9.8,141.9-25.7,189.3-46.1c52.6-22.6,80.4-50,80.4-79.3v-78.1c0-38.2-47.7-73.1-134.3-98.4
		c-83.6-24.4-194.5-37.8-312.4-37.8S251.8,28.1,168.3,52.5C81.6,77.8,33.9,112.7,33.9,150.9V229c0,29.3,27.8,56.7,80.4,79.3
		c47.4,20.4,112.7,36.3,189.3,46.1v122.5C143.2,500.6,19.7,639.3,19.7,806.2v264.5c0,183.6,149.4,333,333,333h264.5
		c183.6,0,333-149.4,333-333V806.2C950.1,636.4,822.3,495.8,657.8,475.7z M933.7,806.2v99.2c-15.5-213-179.9-385.3-389.3-413.1
		h113.3v-0.1C813.2,512.2,933.7,645.4,933.7,806.2z M926.8,938.4c0,243.7-198.2,441.9-441.9,441.9S43,1182.1,43,938.4
		s198.2-441.9,441.9-441.9S926.8,694.8,926.8,938.4z M283.4,335.1c-65.4-9.7-121.2-24-162.6-41.8c-45.5-19.6-70.5-42.4-70.5-64.3
		v-18.3c12.8-25.5,55.5-50,121.4-68.9c82.5-23.7,192.2-36.7,309-36.7s226.5,13,309,36.7c65.9,18.9,108.6,43.4,121.4,68.9V229
		c0,21.9-25,44.8-70.5,64.3c-41.4,17.8-97.2,32.1-162.6,41.8c-60.4,8.8-127.6,13.4-197.3,13.4C411,348.5,343.8,343.9,283.4,335.1z
		 M480.7,31c257.5,0,430.4,62,430.4,119.9v44.9c-19-23.5-59.7-44.9-119.2-61.9c-83.2-23.9-193.7-37-311.3-37
		c-117.5,0-228.1,13.1-311.3,37C110,150.9,69.3,172.3,50.3,195.8v-44.9C50.3,93,223.2,31,480.7,31z M320,348
		c50.5,5.7,104.8,8.7,160.7,8.7c55.9,0,110.2-3,160.7-8.7v126.1c-8-0.6-16.1-0.9-24.3-0.9H352.7c-11,0-21.9,0.6-32.7,1.6V348z
		 M311.1,492.3h114.2C216,520.1,51.6,692.4,36,905.4v-99.2C36,645.7,156.1,512.7,311.1,492.3z M36,1070.7v-99.2
		c16.2,221.9,193.9,399.6,415.8,415.8h-99.2C178.1,1387.3,36,1245.3,36,1070.7z M617.1,1387.3H518
		c221.9-16.2,399.6-193.9,415.8-415.8v99.2C933.7,1245.3,791.7,1387.3,617.1,1387.3z"/>
	<path d="M484.9,600c-186.6,0-338.4,151.8-338.4,338.4s151.8,338.4,338.4,338.4s338.4-151.8,338.4-338.4S671.5,600,484.9,600z
		 M205.4,778.4v112h-39.1C172.4,850.1,185.9,812.3,205.4,778.4z M205.4,1098.5c-19.5-34-33-71.8-39.1-112.1h39.1V1098.5z
		 M484.9,1260.5c-113.8,0-214-59.3-271.3-148.6V978.2h-48.4c-1.6-13-2.5-26.3-2.5-39.8c0-13.5,0.8-26.8,2.5-39.9h48.3V765
		c57.3-89.3,157.5-148.6,271.3-148.6c117.7,0,220.8,63.4,277,157.9v124.3h42.6c1.6,13.1,2.5,26.4,2.5,39.9c0,13.5-0.8,26.7-2.5,39.8
		h-42.7v124.5C705.7,1197.1,602.6,1260.5,484.9,1260.5z M803.4,890.4H770V788.8C786.5,820,798,854.2,803.4,890.4z M770,1088.1V986.4
		h33.4C798,1022.6,786.5,1056.8,770,1088.1z"/>
	<path d="M484.9,547.2c-215.7,0-391.2,175.5-391.2,391.2c0,215.7,175.5,391.2,391.2,391.2s391.2-175.5,391.2-391.2
		C876.1,722.7,700.6,547.2,484.9,547.2z M484.9,1313.3c-206.7,0-374.9-168.2-374.9-374.9c0-206.7,168.2-374.9,374.9-374.9
		s374.9,168.2,374.9,374.9C859.8,1145.1,691.6,1313.3,484.9,1313.3z"/>
	<path d="M330.9,900c-24.7,0-44.9,20.1-44.9,44.9s20.1,44.9,44.9,44.9s44.9-20.1,44.9-44.9S355.6,900,330.9,900z"/>
	<path d="M636.9,900c-24.7,0-44.9,20.1-44.9,44.9s20.1,44.9,44.9,44.9c24.7,0,44.9-20.1,44.9-44.9S661.6,900,636.9,900z"/>
</g>
</svg>
