<?xml version="1.0" encoding="utf-8"?>
<!-- Generator: Adobe Illustrator 23.0.3, SVG Export Plug-In . SVG Version: 6.00 Build 0)  -->
<svg version="1.1" id="Layer_1" xmlns="http://www.w3.org/2000/svg" xmlns:xlink="http://www.w3.org/1999/xlink" x="0px" y="0px"
	 viewBox="0 0 1417.3 1417.3" style="enable-background:new 0 0 1417.3 1417.3;" xml:space="preserve">
<style type="text/css">
	.st0{fill:#231F20;}
	.st1{fill:none;stroke:#000000;stroke-width:0.75;stroke-linecap:square;stroke-linejoin:bevel;stroke-miterlimit:22.9256;}
	.st2{fill:none;stroke:#231F20;stroke-width:0.75;stroke-linecap:square;stroke-linejoin:bevel;stroke-miterlimit:22.9256;}
	.st3{font-family:'MicrosoftYaHei';}
	.st4{font-size:148.2224px;}
	.st5{font-size:148.2524px;}
</style>
<path class="st0" d="M565-67.9v377.6h-17V-67.9H565z M634.1,213.7l12.7,8.2l-77.5,119.5L543.8,325l77.6-119.6L634.1,213.7z
	 M569.2,341.5l-12.7,19.6l-12.7-19.6H569.2z M569.2,341.5h-25.4l-77.5-119.5l25.4-16.5L569.2,325h-25.4L569.2,341.5z"/>
<polyline class="st1" points="724.8,1340.9 724.6,1340.9 724.4,1341 724,1341.1 723.5,1341.2 722.9,1341.2 722.2,1341.3 
	721.4,1341.4 720.5,1341.5 719.5,1341.6 718.4,1341.7 717.2,1341.8 716,1341.9 714.6,1342 713.1,1342.1 711.6,1342.2 709.9,1342.2 
	708.2,1342.3 "/>
<polyline class="st1" points="656,1335 660.2,1334.4 665.6,1333.7 671.3,1333 677.1,1332.4 "/>
<polyline class="st1" points="709,1296.3 707.5,1296.6 705.3,1296.9 702.8,1297.3 700.1,1297.7 697.2,1298.1 694,1298.5 690.5,1299 
	686.6,1299.5 678,1300.5 "/>
<polyline class="st1" points="653.6,1311.4 653.6,1311.4 654,1311.2 654.7,1311 655.7,1310.7 657,1310.4 658.6,1310 660.5,1309.7 
	662.6,1309.3 665,1309 667.7,1308.5 670.6,1308.1 673.7,1307.8 677,1307.4 680.6,1306.9 688.6,1305.9 "/>
<polyline class="st1" points="655.4,1328.4 653.8,1328.6 652,1328.9 650.4,1329.2 648.9,1329.5 647.7,1329.9 646.7,1330.2 
	645.7,1330.5 644.9,1331 "/>
<polyline class="st1" points="678,1300.5 673.7,1301.1 669.7,1301.5 666.3,1302 663.2,1302.5 660.5,1302.9 658.1,1303.3 656,1303.8 
	654.3,1304.2 652.8,1304.6 651.5,1305 650.4,1305.5 649.5,1306.1 648.5,1307.1 647.9,1308.5 647.8,1309.4 "/>
<polyline class="st1" points="688.6,1305.9 692.7,1305.4 696.6,1304.9 700.2,1304.4 703.4,1304 706.4,1303.5 709,1303 711.3,1302.6 
	713.3,1302.1 715,1301.7 716.4,1301.2 717.6,1300.7 718.6,1300.1 719.6,1299.1 720.3,1297.5 720.4,1296.7 "/>
<polyline class="st1" points="677.7,1325.6 672.9,1326.2 668,1326.7 663.3,1327.3 658.8,1327.9 655.4,1328.4 "/>
<polyline class="st1" points="677.1,1332.4 687.8,1331.3 692.6,1330.8 696.8,1330.3 700.8,1329.8 704.3,1329.4 707.6,1329 
	710.6,1328.5 713.2,1328.2 715.5,1327.8 717.5,1327.4 719.2,1327 720.6,1326.6 721.7,1326.2 722.8,1325.7 723.7,1325.1 
	724.7,1324.2 725.3,1322.7 725.4,1321.9 "/>
<line class="st1" x1="690.8" y1="1324.3" x2="677.7" y2="1325.6"/>
<polyline class="st1" points="645.6,1344.8 645.1,1344.9 644.6,1344.9 644.2,1345 643.8,1345 643.5,1345 643.3,1345.1 "/>
<line class="st1" x1="646.2" y1="1344.8" x2="645.6" y2="1344.8"/>
<line class="st1" x1="647.6" y1="1344.7" x2="646.2" y2="1344.8"/>
<line class="st1" x1="708.2" y1="1342.3" x2="704.5" y2="1342.5"/>
<line class="st1" x1="649.5" y1="1344.7" x2="647.6" y2="1344.7"/>
<line class="st1" x1="704.5" y1="1342.5" x2="700.4" y2="1342.7"/>
<line class="st1" x1="651.7" y1="1344.5" x2="649.5" y2="1344.7"/>
<line class="st1" x1="700.4" y1="1342.7" x2="696" y2="1342.9"/>
<line class="st1" x1="655.7" y1="1344.4" x2="651.7" y2="1344.5"/>
<line class="st1" x1="696" y1="1342.9" x2="691.3" y2="1343.1"/>
<line class="st1" x1="691.3" y1="1343.1" x2="686.5" y2="1343.3"/>
<line class="st1" x1="660.9" y1="1344.2" x2="655.7" y2="1344.4"/>
<line class="st1" x1="686.5" y1="1343.3" x2="679.1" y2="1343.5"/>
<line class="st1" x1="679.1" y1="1343.5" x2="660.9" y2="1344.2"/>
<line class="st1" x1="744.2" y1="1361.3" x2="374.3" y2="1361.3"/>
<line class="st1" x1="522.8" y1="1360.6" x2="595.7" y2="1360.6"/>
<line class="st1" x1="643.3" y1="1346.2" x2="483.6" y2="1346.2"/>
<line class="st1" x1="366.2" y1="1341.2" x2="374.6" y2="1341.2"/>
<line class="st1" x1="743.9" y1="1341.2" x2="752.2" y2="1341.2"/>
<line class="st1" x1="566" y1="1332.7" x2="643.3" y2="1332.7"/>
<line class="st1" x1="761" y1="1332.7" x2="743.9" y2="1332.7"/>
<line class="st1" x1="374.6" y1="1332.7" x2="357.5" y2="1332.7"/>
<line class="st1" x1="483.6" y1="1332.7" x2="552.5" y2="1332.7"/>
<line class="st1" x1="466.3" y1="1330.8" x2="400" y2="1330.8"/>
<line class="st1" x1="479.4" y1="1329.9" x2="387.7" y2="1329.9"/>
<line class="st1" x1="382.1" y1="1326.5" x2="512.1" y2="1326.5"/>
<line class="st1" x1="433.1" y1="1321.5" x2="517.2" y2="1321.5"/>
<line class="st1" x1="349.1" y1="1321.5" x2="433.1" y2="1321.5"/>
<line class="st1" x1="566" y1="1312.6" x2="552.5" y2="1312.6"/>
<line class="st1" x1="354.1" y1="1326.5" x2="382.1" y2="1326.5"/>
<line class="st1" x1="398.5" y1="1329.9" x2="386.9" y2="1329.9"/>
<line class="st1" x1="701.4" y1="1337.4" x2="686.5" y2="1336.4"/>
<polyline class="st1" points="686.5,1336.4 683.3,1336.1 680.1,1335.9 677,1335.6 673.9,1335.3 670.9,1335.1 668,1334.9 
	665.3,1334.6 662.7,1334.4 661.4,1334.2 "/>
<line class="st1" x1="295.7" y1="1263.7" x2="294.1" y2="1263.7"/>
<line class="st1" x1="271.7" y1="1263.7" x2="272.6" y2="1263.7"/>
<line class="st1" x1="731.6" y1="1296.3" x2="645.2" y2="1296.3"/>
<line class="st1" x1="566" y1="1295.8" x2="552.5" y2="1295.8"/>
<line class="st1" x1="764.3" y1="1292.9" x2="736.3" y2="1292.9"/>
<line class="st1" x1="685.3" y1="1287.8" x2="769.4" y2="1287.8"/>
<line class="st1" x1="601.3" y1="1287.8" x2="685.3" y2="1287.8"/>
<line class="st1" x1="645.2" y1="1296.3" x2="641.3" y2="1296.3"/>
<line class="st1" x1="639" y1="1296.3" x2="641.3" y2="1296.3"/>
<line class="st1" x1="736.3" y1="1292.9" x2="606.3" y2="1292.9"/>
<line class="st1" x1="845.8" y1="1263.6" x2="846.8" y2="1263.6"/>
<line class="st1" x1="822.8" y1="1263.6" x2="824.4" y2="1263.6"/>
<polyline class="st1" points="683.2,1318.7 690.9,1319.6 694.5,1320 697.9,1320.3 701,1320.8 704,1321.1 706.7,1321.5 709.2,1321.8 
	709.8,1321.9 "/>
<polyline class="st1" points="684.9,1312.2 681.2,1311.7 677.7,1311.3 674.4,1311 671.4,1310.6 668.6,1310.2 666,1309.8 
	663.6,1309.5 662.5,1309.3 "/>
<line class="st1" x1="294.4" y1="1198.8" x2="322.7" y2="1198.8"/>
<line class="st1" x1="791.6" y1="1196.4" x2="810.9" y2="1196.4"/>
<line class="st1" x1="822.7" y1="1191.6" x2="800.1" y2="1191.6"/>
<line class="st1" x1="318.3" y1="1191.6" x2="295.7" y2="1191.6"/>
<line class="st1" x1="294.1" y1="1187" x2="297.8" y2="1187"/>
<line class="st1" x1="820.7" y1="1187" x2="824.4" y2="1187"/>
<line class="st1" x1="307.5" y1="1196.4" x2="326.8" y2="1196.4"/>
<line class="st1" x1="795.8" y1="1198.8" x2="824.1" y2="1198.8"/>
<polyline class="st1" points="703.6,1296.3 704.6,1296.4 706.4,1296.7 "/>
<line class="st1" x1="314.6" y1="1151.4" x2="327.7" y2="1151.4"/>
<line class="st1" x1="790.7" y1="1151.4" x2="803.9" y2="1151.4"/>
<line class="st1" x1="314.6" y1="1148.9" x2="327.7" y2="1148.9"/>
<line class="st1" x1="790.7" y1="1148.9" x2="803.9" y2="1148.9"/>
<line class="st1" x1="803.9" y1="1137.6" x2="790.7" y2="1137.6"/>
<line class="st1" x1="327.7" y1="1137.6" x2="314.6" y2="1137.6"/>
<line class="st1" x1="314.6" y1="1135.1" x2="327.7" y2="1135.1"/>
<line class="st1" x1="790.7" y1="1135.1" x2="803.9" y2="1135.1"/>
<line class="st1" x1="355.9" y1="1331.1" x2="357.5" y2="1332.7"/>
<line class="st1" x1="845.8" y1="1102.9" x2="803.9" y2="1102.9"/>
<line class="st1" x1="314.6" y1="1102.9" x2="272.6" y2="1102.9"/>
<line class="st1" x1="322.7" y1="1091.2" x2="294.8" y2="1091.2"/>
<line class="st1" x1="795.8" y1="1091.2" x2="823.7" y2="1091.2"/>
<line class="st1" x1="393.4" y1="1343.4" x2="391.4" y2="1341.5"/>
<line class="st1" x1="346.3" y1="997.9" x2="345.2" y2="997.9"/>
<line class="st1" x1="345.2" y1="947.4" x2="346.3" y2="947.4"/>
<line class="st1" x1="336.5" y1="1002.3" x2="329.3" y2="1002.3"/>
<line class="st1" x1="336.7" y1="997.6" x2="328.1" y2="997.6"/>
<line class="st1" x1="781.6" y1="997.6" x2="790.4" y2="997.6"/>
<line class="st1" x1="294.9" y1="979.4" x2="336.8" y2="979.4"/>
<line class="st1" x1="781.6" y1="979.4" x2="823.5" y2="979.4"/>
<line class="st1" x1="823.5" y1="965.9" x2="781.6" y2="965.9"/>
<line class="st1" x1="336.8" y1="965.9" x2="294.9" y2="965.9"/>
<line class="st1" x1="790.4" y1="947.7" x2="781.6" y2="947.7"/>
<line class="st1" x1="336.7" y1="947.7" x2="328.1" y2="947.7"/>
<line class="st1" x1="772.1" y1="947.4" x2="773.2" y2="947.4"/>
<line class="st1" x1="773.2" y1="997.9" x2="772.1" y2="997.9"/>
<line class="st1" x1="367.2" y1="1343.1" x2="366.2" y2="1341.2"/>
<line class="st1" x1="313.7" y1="346.4" x2="314.6" y2="345.4"/>
<line class="st1" x1="336.5" y1="942.9" x2="331.3" y2="942.9"/>
<line class="st1" x1="336.7" y1="947.7" x2="331.3" y2="942.9"/>
<line class="st1" x1="462.7" y1="1338.1" x2="466.8" y2="1345.3"/>
<line class="st1" x1="403.6" y1="1338.1" x2="400" y2="1330.8"/>
<line class="st1" x1="297.2" y1="412.1" x2="313.1" y2="396.2"/>
<line class="st1" x1="313.7" y1="396.4" x2="297.4" y2="412.7"/>
<line class="st1" x1="352.9" y1="345.4" x2="354.5" y2="343.9"/>
<line class="st1" x1="725.1" y1="1330.5" x2="727.1" y2="1332.4"/>
<line class="st1" x1="744.2" y1="1361.3" x2="742.8" y2="1360"/>
<line class="st1" x1="752.2" y1="1352.5" x2="751.3" y2="1351.6"/>
<line class="st1" x1="291.6" y1="514" x2="290.1" y2="515.5"/>
<line class="st1" x1="251.5" y1="269.6" x2="251.5" y2="1263.7"/>
<line class="st1" x1="271.7" y1="1263.7" x2="271.7" y2="269.6"/>
<line class="st1" x1="272.6" y1="1263.7" x2="272.6" y2="1102.9"/>
<line class="st1" x1="272.6" y1="564.9" x2="272.6" y2="269.6"/>
<line class="st1" x1="273" y1="565.6" x2="273" y2="1102.9"/>
<line class="st1" x1="290.1" y1="412.1" x2="290.1" y2="515.5"/>
<line class="st1" x1="290.6" y1="422" x2="290.6" y2="412.7"/>
<line class="st1" x1="291" y1="422" x2="291" y2="412.7"/>
<line class="st1" x1="291.6" y1="514" x2="291.6" y2="423"/>
<line class="st1" x1="293.6" y1="423" x2="293.6" y2="412.7"/>
<line class="st1" x1="294.1" y1="1187" x2="294.1" y2="1263.7"/>
<line class="st1" x1="294.3" y1="565.6" x2="294.3" y2="1102.9"/>
<line class="st1" x1="294.8" y1="1091.2" x2="294.8" y2="1102.9"/>
<line class="st1" x1="294.9" y1="965.9" x2="294.9" y2="979.4"/>
<line class="st1" x1="295.3" y1="423" x2="295.3" y2="412.7"/>
<line class="st1" x1="295.7" y1="569.7" x2="295.7" y2="965.9"/>
<line class="st1" x1="295.7" y1="979.4" x2="295.7" y2="1091.2"/>
<line class="st1" x1="295.7" y1="1198.8" x2="295.7" y2="1263.7"/>
<line class="st1" x1="307.5" y1="1196.4" x2="307.5" y2="1198.8"/>
<line class="st1" x1="308.7" y1="1196.4" x2="308.7" y2="1198.8"/>
<line class="st1" x1="805.4" y1="396.2" x2="804.8" y2="396.4"/>
<line class="st1" x1="803.9" y1="1170.2" x2="820.7" y2="1187"/>
<polyline class="st1" points="643.3,1336.2 643.7,1336.9 644.5,1337.7 645.3,1338.1 646.2,1338.5 647.1,1338.8 648.2,1339.1 
	649.4,1339.3 650.9,1339.6 652.5,1339.9 654.4,1340.2 656.4,1340.4 658.7,1340.7 661.2,1340.9 663.8,1341.2 666.6,1341.5 
	669.5,1341.7 672.4,1341.9 675.4,1342.2 678.4,1342.4 681.4,1342.6 684.4,1342.9 688.6,1343.2 "/>
<line class="st1" x1="336.6" y1="947.6" x2="336.6" y2="942.9"/>
<line class="st1" x1="313.1" y1="396.2" x2="313.1" y2="377.7"/>
<line class="st1" x1="313.1" y1="365.5" x2="313.1" y2="343.9"/>
<line class="st1" x1="313.7" y1="396.4" x2="313.7" y2="378.3"/>
<line class="st1" x1="313.7" y1="364.9" x2="313.7" y2="346.4"/>
<line class="st1" x1="314.6" y1="1170.2" x2="314.6" y2="1102.9"/>
<line class="st1" x1="315.5" y1="1198.8" x2="315.5" y2="1196.4"/>
<line class="st1" x1="323.9" y1="417.9" x2="323.9" y2="350.4"/>
<line class="st1" x1="327.7" y1="1193.7" x2="327.7" y2="1096.2"/>
<line class="st1" x1="328.1" y1="947.7" x2="328.1" y2="965.9"/>
<line class="st1" x1="328.1" y1="979.4" x2="328.1" y2="997.6"/>
<line class="st1" x1="336.5" y1="1002.9" x2="336.5" y2="1002.3"/>
<line class="st1" x1="336.5" y1="942.9" x2="336.5" y2="942.4"/>
<line class="st1" x1="336.8" y1="965.9" x2="336.8" y2="979.4"/>
<line class="st1" x1="336.8" y1="1339.5" x2="336.8" y2="1002.9"/>
<line class="st1" x1="336.8" y1="942.4" x2="336.8" y2="569.7"/>
<line class="st1" x1="345.2" y1="947.4" x2="345.2" y2="570.1"/>
<line class="st1" x1="345.2" y1="1344.1" x2="345.2" y2="997.9"/>
<line class="st1" x1="346.3" y1="997.9" x2="346.3" y2="1002.9"/>
<line class="st1" x1="346.3" y1="947.4" x2="346.3" y2="942.4"/>
<line class="st1" x1="349.1" y1="1321.5" x2="349.1" y2="997.1"/>
<line class="st1" x1="349.1" y1="948.1" x2="349.1" y2="615.4"/>
<line class="st1" x1="352.9" y1="345.4" x2="352.9" y2="514"/>
<line class="st1" x1="354.5" y1="343.9" x2="354.5" y2="515.5"/>
<line class="st1" x1="355.9" y1="1331.1" x2="355.9" y2="1348.1"/>
<line class="st1" x1="357.5" y1="1332.7" x2="357.5" y2="1350.4"/>
<line class="st1" x1="358.7" y1="949" x2="358.7" y2="996.3"/>
<line class="st1" x1="366.2" y1="1352.8" x2="366.2" y2="1341.2"/>
<line class="st1" x1="367.2" y1="1343.1" x2="367.2" y2="1351.6"/>
<line class="st1" x1="336.6" y1="997.6" x2="336.6" y2="1002.3"/>
<line class="st1" x1="378.9" y1="573.3" x2="384.6" y2="567"/>
<polyline class="st1" points="462.4,592.2 462.4,592.2 462.1,592.3 461.5,592.6 460.7,592.8 459.5,593.1 458.1,593.4 456.4,593.8 
	454.5,594.2 452.2,594.5 449.7,594.9 446.9,595.3 443.9,595.8 440.7,596.2 437.2,596.7 430,597.7 "/>
<polyline class="st1" points="401.3,583.6 401.5,583.5 402,583.4 402.7,583.1 403.7,582.9 404.9,582.6 406.4,582.3 408.1,582 
	410,581.6 412.2,581.3 414.6,581 417.2,580.6 420,580.3 423,579.9 426.2,579.5 429.7,579.1 "/>
<polyline class="st1" points="467,567 466.9,567.1 466.2,567.3 465.3,567.5 464.2,567.8 462.9,568.1 461.3,568.4 459.5,568.7 
	457.5,569 455.2,569.3 452.7,569.7 449.9,570 447,570.4 443.7,570.8 440.2,571.2 "/>
<line class="st1" x1="602.8" y1="565.2" x2="595.8" y2="567.3"/>
<line class="st1" x1="272.6" y1="564.9" x2="273" y2="565.6"/>
<line class="st1" x1="294.3" y1="565.6" x2="295.7" y2="569.7"/>
<line class="st1" x1="376.2" y1="155.7" x2="376.3" y2="156.7"/>
<line class="st1" x1="373" y1="948.9" x2="373" y2="996.4"/>
<line class="st1" x1="374.6" y1="1341.2" x2="374.6" y2="1332.7"/>
<line class="st1" x1="377.7" y1="1348.4" x2="377.7" y2="1343.4"/>
<line class="st1" x1="391.4" y1="1341.5" x2="391.4" y2="1332.4"/>
<line class="st1" x1="393.4" y1="1330.5" x2="393.4" y2="1343.4"/>
<line class="st1" x1="411.3" y1="1351.1" x2="411.3" y2="1346"/>
<line class="st1" x1="412.8" y1="607" x2="413.5" y2="606.8"/>
<polyline class="st1" points="413.5,606.8 415.4,606.5 417.5,606.1 419.9,605.8 422.4,605.4 425.2,605 428.2,604.6 431.4,604.2 "/>
<polyline class="st1" points="430,597.7 426.5,598.1 423.2,598.5 420.2,599 417.5,599.4 415.1,599.8 412.9,600.2 410.8,600.6 
	409,601 407.5,601.3 406.1,601.7 404.9,602.1 403.8,602.6 402.8,603 402,603.7 401.2,604.7 400.7,605.9 400.6,606.8 "/>
<polyline class="st1" points="431.4,604.2 438.7,603.2 442.6,602.7 446.4,602.2 450,601.6 453.1,601.2 455.9,600.7 458.3,600.2 
	460.3,599.8 462.1,599.3 463.6,598.9 464.8,598.4 465.9,597.9 466.8,597.2 467.6,596.3 468.1,595 468.2,594.2 "/>
<polyline class="st1" points="441.3,577.8 445.1,577.4 448.6,576.9 451.8,576.5 454.7,576.1 457.3,575.8 459.7,575.4 461.8,575.1 
	463.7,574.8 465.3,574.4 466.8,574 468,573.7 469.1,573.4 470.1,573 471,572.6 471.8,572 472.6,571.1 473.1,569.8 473.2,568.9 "/>
<polyline class="st1" points="429,572.4 425.3,572.9 421.7,573.3 418.4,573.7 415.2,574.1 412.4,574.5 409.8,574.9 407.5,575.3 
	405.5,575.6 403.7,576 402.2,576.4 400.9,576.7 399.7,577.1 398.7,577.5 397.8,577.9 397,578.6 396.2,579.4 395.7,580.7 
	395.6,581.6 "/>
<line class="st1" x1="440.2" y1="571.2" x2="429" y2="572.4"/>
<line class="st1" x1="429.7" y1="579.1" x2="441.3" y2="577.8"/>
<line class="st1" x1="517.2" y1="615.4" x2="433.1" y2="615.4"/>
<line class="st1" x1="433.1" y1="615.4" x2="349.1" y2="615.4"/>
<line class="st1" x1="512.1" y1="610.3" x2="382.1" y2="610.3"/>
<line class="st1" x1="382.1" y1="610.3" x2="354.1" y2="610.3"/>
<line class="st1" x1="509.1" y1="610.3" x2="484.2" y2="610.3"/>
<line class="st1" x1="597.1" y1="607" x2="592.2" y2="607"/>
<line class="st1" x1="479.4" y1="607" x2="400.6" y2="607"/>
<line class="st1" x1="386.9" y1="607" x2="413.4" y2="607"/>
<line class="st1" x1="538.2" y1="601.9" x2="580.2" y2="601.9"/>
<line class="st1" x1="580.2" y1="591.8" x2="538.2" y2="591.8"/>
<line class="st1" x1="592.2" y1="586.8" x2="597.1" y2="586.8"/>
<line class="st1" x1="769.4" y1="581.8" x2="685.3" y2="581.8"/>
<line class="st1" x1="685.3" y1="581.8" x2="601.3" y2="581.8"/>
<line class="st1" x1="592.2" y1="607" x2="521.4" y2="607"/>
<line class="st1" x1="521.4" y1="586.8" x2="592.2" y2="586.8"/>
<line class="st1" x1="354.4" y1="610.3" x2="354.1" y2="610.3"/>
<polyline class="st1" points="425.9,590.4 436.6,591.7 440,592.2 443.2,592.6 446.1,593 448.7,593.3 451.2,593.7 453.3,594 
	454.2,594.2 "/>
<line class="st1" x1="414.7" y1="607" x2="413.7" y2="606.8"/>
<line class="st1" x1="297.2" y1="412.1" x2="297.4" y2="412.7"/>
<polyline class="st1" points="395.6,581.6 395.7,582.5 396.2,583.7 397,584.6 397.9,585.3 398.9,585.7 400,586.1 401.2,586.5 
	402.6,586.9 404.2,587.3 406.1,587.6 408.2,588 410.6,588.4 413.2,588.8 416,589.2 419.1,589.6 422.4,590 425.9,590.4 "/>
<line class="st1" x1="400.6" y1="606.8" x2="400.6" y2="607"/>
<line class="st1" x1="483.6" y1="1332.7" x2="483.6" y2="1346.2"/>
<line class="st1" x1="376.2" y1="1377.6" x2="376.3" y2="1376.7"/>
<line class="st1" x1="607.8" y1="278.3" x2="606.9" y2="280.7"/>
<line class="st1" x1="511.6" y1="529.7" x2="510.6" y2="532.1"/>
<line class="st1" x1="805.4" y1="349" x2="804.8" y2="349.6"/>
<line class="st1" x1="800.3" y1="343.9" x2="798.8" y2="345.4"/>
<line class="st1" x1="764.3" y1="576.7" x2="736.3" y2="576.7"/>
<line class="st1" x1="736.3" y1="576.7" x2="606.3" y2="576.7"/>
<line class="st1" x1="736.3" y1="576.7" x2="763.1" y2="576.7"/>
<line class="st1" x1="650.6" y1="573.3" x2="639" y2="573.3"/>
<line class="st1" x1="650.6" y1="573.3" x2="731.6" y2="573.3"/>
<line class="st1" x1="685.3" y1="572.4" x2="718.5" y2="572.4"/>
<line class="st1" x1="652.2" y1="572.4" x2="685.3" y2="572.4"/>
<line class="st1" x1="822.8" y1="569.7" x2="781.6" y2="569.7"/>
<line class="st1" x1="295.7" y1="569.7" x2="336.8" y2="569.7"/>
<line class="st1" x1="595.8" y1="567.3" x2="522.7" y2="567.3"/>
<line class="st1" x1="384.6" y1="567" x2="481.7" y2="567"/>
<line class="st1" x1="634.9" y1="567" x2="735.8" y2="567"/>
<line class="st1" x1="845.5" y1="565.6" x2="824.1" y2="565.6"/>
<line class="st1" x1="273" y1="565.6" x2="294.3" y2="565.6"/>
<line class="st1" x1="272.6" y1="564.9" x2="510.6" y2="564.9"/>
<line class="st1" x1="607.8" y1="564.9" x2="845.8" y2="564.9"/>
<line class="st1" x1="597.1" y1="559.9" x2="521.4" y2="559.9"/>
<line class="st1" x1="515.6" y1="532.1" x2="510.6" y2="532.1"/>
<line class="st1" x1="607.8" y1="532.1" x2="602.8" y2="532.1"/>
<line class="st1" x1="731.6" y1="573.3" x2="720" y2="573.3"/>
<polyline class="st1" points="441.9,567 444.7,567.3 447.8,567.7 450.8,568.1 453.5,568.4 456,568.8 457.6,569 "/>
<polyline class="st1" points="436,585 427.9,584 424.1,583.5 420.7,583.1 417.5,582.6 414.6,582.2 411.9,581.8 410.4,581.6 "/>
<line class="st1" x1="522.7" y1="567.3" x2="515.6" y2="565.2"/>
<line class="st1" x1="290.8" y1="422.2" x2="291.6" y2="423"/>
<line class="st1" x1="290.6" y1="412.7" x2="290.1" y2="412.1"/>
<line class="st1" x1="352.9" y1="514" x2="354.5" y2="515.5"/>
<polyline class="st1" points="468.2,594.2 468.1,593.3 467.5,592 466.8,591.1 465.9,590.5 464.9,589.9 463.8,589.5 462.4,589.1 
	460.8,588.7 458.8,588.2 456.6,587.8 454,587.4 451.1,586.9 447.9,586.5 444.2,586 440.2,585.4 436,585 "/>
<polyline class="st1" points="473.2,568.9 473.1,568.1 472.6,567 "/>
<line class="st1" x1="510.6" y1="532.1" x2="510.6" y2="564.9"/>
<line class="st1" x1="510.6" y1="278.3" x2="510.6" y2="260.7"/>
<line class="st1" x1="515.6" y1="532.1" x2="515.6" y2="565.2"/>
<line class="st1" x1="515.6" y1="278.3" x2="515.6" y2="260.7"/>
<line class="st1" x1="517.2" y1="1332.7" x2="517.2" y2="1346.2"/>
<line class="st1" x1="517.2" y1="1321.5" x2="517.2" y2="615.4"/>
<line class="st1" x1="519.3" y1="242.9" x2="519.3" y2="245.4"/>
<line class="st1" x1="521.4" y1="320.4" x2="521.4" y2="385.6"/>
<line class="st1" x1="521.4" y1="424.9" x2="521.4" y2="559.9"/>
<line class="st1" x1="521.4" y1="569.7" x2="521.4" y2="1332.7"/>
<line class="st1" x1="521.4" y1="1346.2" x2="521.4" y2="1350.8"/>
<line class="st1" x1="521.4" y1="1355.6" x2="521.4" y2="1360.6"/>
<line class="st1" x1="522.8" y1="1346.2" x2="522.8" y2="1350.8"/>
<line class="st1" x1="522.8" y1="1355.6" x2="522.8" y2="1360.6"/>
<line class="st1" x1="538.2" y1="591.8" x2="538.2" y2="601.9"/>
<line class="st1" x1="542.4" y1="371.6" x2="542.4" y2="514.5"/>
<line class="st1" x1="505.3" y1="1355.6" x2="505.1" y2="1363.6"/>
<line class="st1" x1="480" y1="1354.8" x2="479.7" y2="1362.8"/>
<line class="st1" x1="764" y1="510.5" x2="765.5" y2="508.9"/>
<line class="st1" x1="628.7" y1="573.2" x2="634.9" y2="567"/>
<line class="st1" x1="827.8" y1="412.7" x2="828.4" y2="412.1"/>
<line class="st1" x1="827.6" y1="422.2" x2="826.9" y2="423"/>
<line class="st1" x1="290.1" y1="515.5" x2="354.5" y2="515.5"/>
<line class="st1" x1="769" y1="515.5" x2="823.4" y2="515.5"/>
<line class="st1" x1="576" y1="514.5" x2="542.4" y2="514.5"/>
<line class="st1" x1="821.8" y1="514" x2="770.6" y2="514"/>
<line class="st1" x1="291.6" y1="514" x2="352.9" y2="514"/>
<line class="st1" x1="563.4" y1="476.7" x2="555" y2="476.7"/>
<line class="st1" x1="314.6" y1="345.4" x2="313.1" y2="343.9"/>
<line class="st1" x1="487.4" y1="573.3" x2="481.7" y2="567"/>
<line class="st1" x1="522.7" y1="567.3" x2="521.4" y2="559.9"/>
<polyline class="st1" points="647.8,1309.4 647.8,1310 648.5,1311.6 649.5,1312.6 650.5,1313.2 651.6,1313.8 653,1314.2 
	654.6,1314.6 656.5,1315 658.7,1315.4 661.2,1315.8 664,1316.3 667.3,1316.7 670.9,1317.2 674.9,1317.7 679,1318.2 683.2,1318.7 "/>
<line class="st1" x1="515.6" y1="260.7" x2="521.4" y2="320.4"/>
<line class="st1" x1="519.3" y1="245.4" x2="525.7" y2="311.5"/>
<line class="st1" x1="638.4" y1="1354.8" x2="638.7" y2="1362.8"/>
<line class="st1" x1="613.2" y1="1355.6" x2="613.4" y2="1363.6"/>
<line class="st1" x1="552.5" y1="1332.7" x2="552.5" y2="1295.8"/>
<line class="st1" x1="555" y1="476.7" x2="555" y2="391.2"/>
<line class="st1" x1="563.4" y1="476.7" x2="563.4" y2="391.2"/>
<line class="st1" x1="566" y1="1332.7" x2="566" y2="1295.8"/>
<line class="st1" x1="576" y1="371.6" x2="576" y2="514.5"/>
<line class="st1" x1="580.2" y1="601.9" x2="580.2" y2="591.8"/>
<line class="st1" x1="595.7" y1="1346.2" x2="595.7" y2="1350.9"/>
<line class="st1" x1="595.7" y1="1355.7" x2="595.7" y2="1360.6"/>
<line class="st1" x1="597.1" y1="1346.2" x2="597.1" y2="1350.8"/>
<line class="st1" x1="597.1" y1="1355.6" x2="597.1" y2="1360.6"/>
<line class="st1" x1="597.1" y1="1332.7" x2="597.1" y2="569.7"/>
<line class="st1" x1="597.1" y1="559.9" x2="597.1" y2="424.9"/>
<line class="st1" x1="597.1" y1="385.6" x2="597.1" y2="320.4"/>
<line class="st1" x1="599.1" y1="242.9" x2="599.1" y2="245.4"/>
<line class="st1" x1="601.3" y1="581.8" x2="601.3" y2="1287.8"/>
<line class="st1" x1="602.8" y1="260.7" x2="602.8" y2="278.3"/>
<line class="st1" x1="602.8" y1="532.1" x2="602.8" y2="565.2"/>
<line class="st1" x1="607.8" y1="260.7" x2="607.8" y2="278.3"/>
<line class="st1" x1="607.8" y1="532.1" x2="607.8" y2="564.9"/>
<line class="st1" x1="609.7" y1="1346.2" x2="609.7" y2="1332.7"/>
<line class="st1" x1="592.7" y1="311.5" x2="599.1" y2="245.4"/>
<line class="st1" x1="597.1" y1="320.4" x2="602.8" y2="260.7"/>
<line class="st1" x1="597.1" y1="559.9" x2="595.8" y2="567.3"/>
<line class="st1" x1="654.8" y1="567" x2="652.2" y2="572.4"/>
<line class="st1" x1="769" y1="515.5" x2="770.6" y2="514"/>
<line class="st1" x1="826.9" y1="423" x2="799.5" y2="423"/>
<line class="st1" x1="291.6" y1="423" x2="318.9" y2="423"/>
<line class="st1" x1="290.6" y1="422" x2="291" y2="422"/>
<line class="st1" x1="827.5" y1="422" x2="827.8" y2="422"/>
<line class="st1" x1="827.8" y1="412.7" x2="821.1" y2="412.7"/>
<line class="st1" x1="297.4" y1="412.7" x2="290.6" y2="412.7"/>
<line class="st1" x1="290.1" y1="412.1" x2="297.2" y2="412.1"/>
<line class="st1" x1="821.3" y1="412.1" x2="828.4" y2="412.1"/>
<line class="st1" x1="563.4" y1="409.4" x2="555" y2="409.4"/>
<line class="st1" x1="313.1" y1="396.2" x2="313.7" y2="396.4"/>
<line class="st1" x1="628.7" y1="573.2" x2="628.7" y2="576.7"/>
<line class="st1" x1="643.3" y1="1346.2" x2="643.3" y2="1332.7"/>
<line class="st1" x1="336.7" y1="997.6" x2="329.3" y2="1002.3"/>
<line class="st1" x1="563.4" y1="391.2" x2="555" y2="391.2"/>
<line class="st1" x1="542.4" y1="371.6" x2="576" y2="371.6"/>
<line class="st1" x1="323.9" y1="354.8" x2="313.7" y2="354.8"/>
<line class="st1" x1="804.8" y1="354.8" x2="798.7" y2="354.8"/>
<line class="st1" x1="323.9" y1="353.1" x2="313.7" y2="353.1"/>
<line class="st1" x1="314.6" y1="345.4" x2="352.9" y2="345.4"/>
<line class="st1" x1="770.6" y1="345.4" x2="798.8" y2="345.4"/>
<line class="st1" x1="800.3" y1="343.9" x2="769" y2="343.9"/>
<line class="st1" x1="354.5" y1="343.9" x2="313.1" y2="343.9"/>
<line class="st1" x1="606.9" y1="529.7" x2="607.8" y2="532.1"/>
<line class="st1" x1="511.6" y1="280.7" x2="510.6" y2="278.3"/>
<polyline class="st1" points="725.4,1321.9 725.3,1321.2 724.6,1319.7 723.7,1318.7 722.7,1318.1 721.6,1317.6 720.4,1317.3 
	718.9,1316.8 717.2,1316.5 715.2,1316.1 712.8,1315.7 710.1,1315.2 707.1,1314.8 703.9,1314.4 700.3,1313.9 696.6,1313.5 
	692.7,1313 684.9,1312.2 "/>
<line class="st1" x1="720.4" y1="1296.7" x2="720.3" y2="1296.3"/>
<line class="st1" x1="742.3" y1="1377.5" x2="742.2" y2="1376.6"/>
<polyline class="st1" points="729.8,1343.7 729.7,1343.3 729.3,1342.1 728.6,1341.2 728,1340.6 727.4,1340.3 726.8,1340.2 
	726.2,1340 725.6,1339.9 724.9,1339.7 724.2,1339.6 723.3,1339.4 722.2,1339.3 721.1,1339.1 719.8,1339 718.3,1338.8 716.7,1338.7 
	715,1338.5 713.1,1338.4 711,1338.2 708.8,1338 706.5,1337.8 701.4,1337.4 "/>
<line class="st1" x1="707.2" y1="1346.1" x2="707.2" y2="1351.1"/>
<line class="st1" x1="725.1" y1="1330.5" x2="725.1" y2="1339.7"/>
<line class="st1" x1="727.1" y1="1332.4" x2="727.1" y2="1341.5"/>
<line class="st1" x1="742.3" y1="155.9" x2="742.2" y2="156.7"/>
<line class="st1" x1="821.3" y1="412.1" x2="821.1" y2="412.7"/>
<line class="st1" x1="297.8" y1="1187" x2="314.6" y2="1170.2"/>
<line class="st1" x1="525.7" y1="311.5" x2="592.7" y2="311.5"/>
<line class="st1" x1="510.6" y1="278.3" x2="515.6" y2="278.3"/>
<line class="st1" x1="607.8" y1="278.3" x2="602.8" y2="278.3"/>
<line class="st1" x1="741.9" y1="573.2" x2="735.8" y2="567"/>
<line class="st1" x1="715.8" y1="567" x2="718.5" y2="572.4"/>
<line class="st1" x1="781.9" y1="1002.3" x2="782" y2="1002.9"/>
<line class="st1" x1="740.8" y1="1343.4" x2="740.8" y2="1348.5"/>
<line class="st1" x1="741.9" y1="573.2" x2="741.9" y2="576.7"/>
<line class="st1" x1="743.9" y1="1332.7" x2="743.9" y2="1341.2"/>
<line class="st1" x1="745.4" y1="948.9" x2="745.4" y2="996.4"/>
<line class="st1" x1="751.3" y1="1351.6" x2="751.3" y2="1343.1"/>
<line class="st1" x1="752.2" y1="1341.2" x2="752.2" y2="1352.7"/>
<line class="st1" x1="759.8" y1="949" x2="759.8" y2="996.3"/>
<line class="st1" x1="761" y1="1350.2" x2="761" y2="1332.7"/>
<line class="st1" x1="762.6" y1="1331.1" x2="762.6" y2="1348"/>
<line class="st1" x1="764" y1="510.5" x2="764" y2="349"/>
<line class="st1" x1="765.5" y1="350.4" x2="765.5" y2="508.9"/>
<line class="st1" x1="769.4" y1="581.8" x2="769.4" y2="948.1"/>
<line class="st1" x1="769.4" y1="997.1" x2="769.4" y2="1287.8"/>
<line class="st1" x1="772.1" y1="947.4" x2="772.1" y2="942.4"/>
<line class="st1" x1="772.1" y1="997.9" x2="772.1" y2="1002.9"/>
<line class="st1" x1="773.2" y1="1344.1" x2="773.2" y2="997.7"/>
<line class="st1" x1="773.2" y1="947.6" x2="773.2" y2="570.1"/>
<line class="st1" x1="781.6" y1="1339.4" x2="781.6" y2="1002.9"/>
<line class="st1" x1="781.6" y1="942.4" x2="781.6" y2="569.7"/>
<line class="st1" x1="781.6" y1="965.9" x2="781.6" y2="979.4"/>
<line class="st1" x1="790.4" y1="947.7" x2="790.4" y2="965.9"/>
<line class="st1" x1="790.4" y1="979.4" x2="790.4" y2="997.6"/>
<line class="st1" x1="790.7" y1="1096.2" x2="790.7" y2="1193.7"/>
<line class="st1" x1="794.5" y1="350.4" x2="794.5" y2="417.9"/>
<line class="st1" x1="824.1" y1="565.6" x2="822.8" y2="569.7"/>
<line class="st1" x1="845.8" y1="564.9" x2="845.5" y2="565.6"/>
<line class="st1" x1="462.7" y1="1338.1" x2="466.3" y2="1330.8"/>
<line class="st1" x1="403.6" y1="1338.1" x2="402.2" y2="1340.6"/>
<line class="st1" x1="271.7" y1="269.6" x2="272.6" y2="269.6"/>
<line class="st1" x1="510.6" y1="260.7" x2="515.6" y2="260.7"/>
<line class="st1" x1="607.8" y1="260.7" x2="602.8" y2="260.7"/>
<line class="st1" x1="519.3" y1="245.4" x2="599.1" y2="245.4"/>
<line class="st1" x1="519.3" y1="242.9" x2="599.1" y2="242.9"/>
<line class="st1" x1="846.8" y1="269.7" x2="845.8" y2="269.7"/>
<line class="st1" x1="823.4" y1="515.5" x2="821.8" y2="514"/>
<line class="st1" x1="828.4" y1="510.5" x2="826.9" y2="508.9"/>
<line class="st1" x1="803" y1="1196.4" x2="803" y2="1198.8"/>
<line class="st1" x1="803.9" y1="1102.9" x2="803.9" y2="1170.2"/>
<line class="st1" x1="804.8" y1="349.6" x2="804.8" y2="364.9"/>
<line class="st1" x1="804.8" y1="378.3" x2="804.8" y2="396.4"/>
<line class="st1" x1="805.4" y1="349" x2="805.4" y2="365.5"/>
<line class="st1" x1="805.4" y1="377.7" x2="805.4" y2="396.2"/>
<line class="st1" x1="809.7" y1="1198.8" x2="809.7" y2="1196.4"/>
<line class="st1" x1="810.9" y1="1198.8" x2="810.9" y2="1196.4"/>
<line class="st1" x1="822.8" y1="569.7" x2="822.8" y2="965.9"/>
<line class="st1" x1="822.8" y1="979.4" x2="822.8" y2="1091.2"/>
<line class="st1" x1="822.8" y1="1198.8" x2="822.8" y2="1263.6"/>
<line class="st1" x1="823.5" y1="965.9" x2="823.5" y2="979.4"/>
<line class="st1" x1="823.7" y1="1091.2" x2="823.7" y2="1102.9"/>
<line class="st1" x1="824.1" y1="565.6" x2="824.1" y2="1102.9"/>
<line class="st1" x1="824.4" y1="1263.6" x2="824.4" y2="1187"/>
<line class="st1" x1="826.9" y1="508.9" x2="826.9" y2="423"/>
<line class="st1" x1="827.5" y1="412.7" x2="827.5" y2="422"/>
<line class="st1" x1="827.8" y1="422" x2="827.8" y2="412.7"/>
<line class="st1" x1="828.4" y1="510.5" x2="828.4" y2="412.1"/>
<line class="st1" x1="845.5" y1="565.6" x2="845.5" y2="1102.9"/>
<line class="st1" x1="845.8" y1="269.7" x2="845.8" y2="564.9"/>
<line class="st1" x1="845.8" y1="1102.9" x2="845.8" y2="1263.6"/>
<line class="st1" x1="846.8" y1="269.7" x2="846.8" y2="1263.6"/>
<line class="st1" x1="729.7" y1="1344.4" x2="729.8" y2="1343.7"/>
<line class="st1" x1="782" y1="942.4" x2="781.9" y2="942.9"/>
<line class="st1" x1="821.1" y1="412.7" x2="804.8" y2="396.4"/>
<line class="st1" x1="805.4" y1="396.2" x2="821.3" y2="412.1"/>
<line class="st1" x1="866.9" y1="1263.6" x2="867" y2="269.7"/>
<line class="st1" x1="366.2" y1="1352.5" x2="367.2" y2="1351.6"/>
<line class="st1" x1="374.3" y1="1361.3" x2="375.7" y2="1360"/>
<line class="st1" x1="393.4" y1="1330.5" x2="391.4" y2="1332.4"/>
<line class="st1" x1="764" y1="349" x2="765.5" y2="350.4"/>
<line class="st1" x1="769" y1="343.9" x2="770.6" y2="345.4"/>
<line class="st1" x1="751.3" y1="1343.1" x2="752.2" y2="1341.2"/>
<polyline class="st1" points="640.9,1346.2 640.8,1346.3 640.2,1347.2 640,1347.9 "/>
<polyline class="st1" points="644.9,1331 644.1,1331.5 643.3,1332.5 643.2,1332.7 "/>
<polyline class="st1" points="648.4,1336.7 648.3,1336.7 648.5,1336.7 648.9,1336.5 649.6,1336.3 650.5,1336.1 651.7,1335.8 
	653,1335.5 654.6,1335.2 656,1335 "/>
<line class="st1" x1="762.6" y1="1331.1" x2="761" y2="1332.7"/>
<line class="st1" x1="726.2" y1="1342.3" x2="727.1" y2="1341.5"/>
<polyline class="st1" points="719.7,1319.9 719.7,1319.9 719.3,1320 718.7,1320.2 717.8,1320.5 716.6,1320.8 715.1,1321.1 
	713.4,1321.4 711.4,1321.7 709.2,1322.1 706.7,1322.4 704,1322.7 701.1,1323.1 697.9,1323.5 694.5,1323.8 690.8,1324.3 "/>
<path class="st1" d="M744,135.7c-122.9-10.6-246.6-10.7-369.5-0.1"/>
<path class="st1" d="M742.3,155.9c-121.8-10.5-244.3-10.6-366-0.1"/>
<path class="st1" d="M742.2,156.7c-121.7-10.5-244.1-10.5-365.9-0.1"/>
<path class="st1" d="M358.7,996.3c-4.3,0.1-8.7,0.2-13,0.3"/>
<path class="st1" d="M341.7,997.6c-1.7,0-3.4,0-5.1,0"/>
<path class="st1" d="M355.9,1348.1c0.5,0.7,1.1,1.5,1.6,2.3"/>
<path class="st1" d="M343.6,997.6c-0.6-0.1-1.3-0.1-1.9-0.1"/>
<path class="st1" d="M251.5,1263.7c0,69.9,53.4,128.1,123,134"/>
<path class="st1" d="M271.7,1263.7c0,59.4,45.4,108.8,104.6,113.9"/>
<path class="st1" d="M272.6,1263.7c0,58.9,45,107.9,103.7,113"/>
<path class="st1" d="M294.1,1263.7c0,43.1,29.8,80.3,71.8,89.7"/>
<path class="st1" d="M357.5,1350.4c2.9,0.9,5.8,1.8,8.8,2.4"/>
<path class="st1" d="M295.7,1263.7c0,30.6,15.5,59.1,41.1,75.8"/>
<path class="st1" d="M394.2,1344.7c3.2,0.2,6.3-1.4,7.9-4.2"/>
<path class="st1" d="M466.8,1345.3c1.4,2.4,3.9,4,6.6,4.2"/>
<path class="st1" d="M382.1,1326.5c0.7,2,2.6,3.4,4.8,3.4"/>
<path class="st1" d="M479.4,1329.9c2.1,0,4-1.4,4.8-3.4"/>
<path class="st1" d="M349.1,1321.5c0,1.4,0.5,2.6,1.5,3.6c0.9,0.9,2.2,1.5,3.6,1.5"/>
<path class="st1" d="M512.1,1326.5c2.8,0,5-2.3,5-5"/>
<path class="st1" d="M322.7,1198.8c1.3,0,2.6-0.5,3.6-1.5c0.9-0.9,1.5-2.3,1.5-3.6"/>
<path class="st1" d="M327.7,1096.2c0-2.8-2.3-5-5-5"/>
<path class="st1" d="M400,1330.8c-0.3-0.6-0.9-0.9-1.5-0.9"/>
<path class="st1" d="M467.8,1329.9c-0.6,0-1.2,0.4-1.5,0.9"/>
<path class="st1" d="M374.5,1397.7c122.9,10.6,246.6,10.5,369.5-0.1"/>
<path class="st1" d="M376.2,1377.6c121.8,10.4,244.2,10.4,366-0.1"/>
<path class="st1" d="M376.3,1376.7c121.7,10.4,244.1,10.4,365.9-0.1"/>
<path class="st1" d="M336.6,947.7c1.7,0,3.4,0,5.1-0.1"/>
<path class="st1" d="M374.5,135.6c-69.6,6-123,64.2-123,134"/>
<path class="st1" d="M376.2,155.7c-59.1,5.1-104.5,54.6-104.5,113.9"/>
<path class="st1" d="M376.3,156.7c-58.7,5-103.7,54.1-103.7,112.9"/>
<path class="st1" d="M313.7,364.9c-0.2,0.2-0.4,0.4-0.6,0.7"/>
<path class="st1" d="M313.1,377.7c0.2,0.2,0.4,0.4,0.6,0.7"/>
<path class="st1" d="M313.7,378.3c2.4,0,4.7-1.2,5.9-3.3c1.2-2.1,1.2-4.7,0-6.8c-1.2-2.1-3.5-3.4-5.9-3.3"/>
<path class="st1" d="M313.1,377.7c2.3,0.3,4.6-0.8,5.9-2.8c1.3-2,1.3-4.6,0-6.6c-1.2-2-3.5-3.1-5.9-2.8"/>
<path class="st1" d="M517.2,615.4c0-1.4-0.5-2.7-1.5-3.6c-0.9-0.9-2.2-1.5-3.6-1.5"/>
<path class="st1" d="M354.1,610.3c-1.3,0-2.6,0.5-3.6,1.5c-0.9,0.9-1.5,2.2-1.5,3.6"/>
<path class="st1" d="M484.2,610.3c-0.7-2-2.6-3.4-4.8-3.4"/>
<path class="st1" d="M386.9,607c-2.1,0-4,1.4-4.8,3.4"/>
<path class="st1" d="M772.8,996.6c-4.3-0.1-8.7-0.2-13-0.3"/>
<path class="st1" d="M781.6,997.6c-1.7,0-3.3,0-5,0"/>
<path class="st1" d="M761,1350.2c0.5-0.7,1.1-1.5,1.6-2.3"/>
<path class="st1" d="M744,1397.6c69.5-6,122.9-64.2,122.9-134"/>
<path class="st1" d="M742.3,1377.5c59.1-5.1,104.5-54.6,104.5-113.9"/>
<path class="st1" d="M742.2,1376.6c58.6-5,103.6-54.1,103.6-112.9"/>
<path class="st1" d="M752.6,1353.3c42-9.4,71.8-46.7,71.8-89.7"/>
<path class="st1" d="M752.2,1352.7c3-0.7,5.9-1.5,8.8-2.4"/>
<path class="st1" d="M781.6,1339.4c25.7-16.7,41.1-45.1,41.1-75.7"/>
<path class="st1" d="M601.3,1287.8c0,1.4,0.5,2.6,1.5,3.6c0.9,0.9,2.2,1.5,3.6,1.5"/>
<path class="st1" d="M764.3,1292.9c2.8,0,5-2.3,5-5"/>
<path class="st1" d="M634.3,1292.9c0.7,2,2.6,3.4,4.8,3.4"/>
<path class="st1" d="M731.6,1296.3c2.1,0,4-1.4,4.8-3.4"/>
<path class="st1" d="M790.7,1193.7c0,1.3,0.5,2.6,1.5,3.6c0.9,0.9,2.2,1.5,3.6,1.5"/>
<path class="st1" d="M795.8,1091.2c-2.8,0-5,2.3-5,5"/>
<path class="st1" d="M640.1,1349.6C640.2,1349.6,640.2,1349.7,640.1,1349.6"/>
<path class="st1" d="M377.7,1348.4c120.8,10.5,242.3,10.6,363.1,0.1"/>
<path class="st1" d="M377.7,1343.4c120.8,10.5,242.3,10.6,363.1,0.1"/>
<path class="st1" d="M759.8,949c4.3-0.1,8.7-0.2,13-0.3"/>
<path class="st1" d="M776.6,947.6c1.7,0.1,3.3,0.1,5,0.1"/>
<path class="st1" d="M774.8,947.6c0.6,0,1.2,0,1.9,0"/>
<path class="st1" d="M607.8,532.1c52.6-20.1,87.3-70.6,87.3-126.9c0-56.3-34.7-106.8-87.3-126.9"/>
<path class="st1" d="M510.6,278.3c-52.6,20.1-87.3,70.6-87.3,126.9c0,56.3,34.7,106.8,87.3,126.9"/>
<path class="st1" d="M867,269.7c0-69.8-53.4-128-122.9-134"/>
<path class="st1" d="M606.9,529.7c51.6-19.7,85.7-69.3,85.7-124.6c0-55.2-34.1-104.7-85.7-124.5"/>
<path class="st1" d="M511.6,280.7c-51.6,19.8-85.7,69.3-85.7,124.5c0,55.3,34.1,104.8,85.7,124.6"/>
<path class="st1" d="M846.8,269.7c0-59.3-45.4-108.8-104.5-113.9"/>
<path class="st1" d="M845.8,269.7c0-58.8-45-107.9-103.6-113"/>
<path class="st1" d="M798.7,354.8c-1.2-1.8-2.5-3.6-3.9-5.3"/>
<path class="st1" d="M805.4,365.5c-0.2-0.2-0.4-0.5-0.6-0.7"/>
<path class="st1" d="M804.8,378.3c0.2-0.2,0.4-0.4,0.6-0.7"/>
<path class="st1" d="M804.8,364.9c-2.4-0.1-4.7,1.2-5.9,3.3c-1.2,2.1-1.2,4.7,0,6.8c1.2,2.1,3.5,3.3,5.9,3.3"/>
<path class="st1" d="M805.4,365.5c-2.3-0.3-4.6,0.8-5.9,2.8c-1.3,2-1.3,4.6,0,6.6c1.3,2,3.5,3.1,5.9,2.8"/>
<path class="st1" d="M736.3,576.7c-0.7-2-2.6-3.4-4.8-3.4"/>
<path class="st1" d="M639,573.3c-2.1,0-4,1.4-4.8,3.4"/>
<path class="st1" d="M769.4,581.8c0-1.4-0.5-2.7-1.5-3.6c-0.9-0.9-2.2-1.5-3.6-1.5"/>
<path class="st1" d="M606.3,576.7c-1.3,0-2.6,0.5-3.6,1.5c-0.9,0.9-1.5,2.2-1.5,3.6"/>
<path class="st1" d="M718.5,572.4c0.3,0.6,0.9,0.9,1.5,0.9"/>
<path class="st1" d="M650.6,573.3c0.6,0,1.2-0.4,1.5-0.9"/>
<path class="st1" d="M414,607C413.9,606.9,413.9,606.9,414,607c-0.1-0.1-0.2-0.1-0.3-0.2"/>
<path class="st1" d="M640,1347.9c-0.1,0.3-0.1,0.6-0.1,0.9c0,0.3,0.1,0.6,0.2,0.9"/>
<line class="st1" x1="466.8" y1="1345.3" x2="458.9" y2="1344.9"/>
<line class="st1" x1="458.9" y1="1344.9" x2="458.6" y2="1344.9"/>
<path class="st1" d="M458.6,1344.9c-2.5-0.2-5-0.3-7.5-0.5c-3-0.2-6-0.4-9-0.6c-1.6-0.1-3.2-0.2-4.8-0.3c-1.6-0.1-3.3-0.2-4.9-0.4
	c-1.6-0.1-3.2-0.2-4.8-0.4c-1.6-0.1-3.1-0.2-4.7-0.4c-1.5-0.1-2.9-0.2-4.4-0.4c-1.3-0.1-2.7-0.2-4-0.4c-0.6-0.1-1.2-0.1-1.9-0.2
	c-0.6-0.1-1.2-0.1-1.7-0.1c-0.5-0.1-1.1-0.1-1.6-0.2c-0.5-0.1-1-0.1-1.5-0.1c-0.4-0.1-0.9-0.1-1.3-0.1c-0.4-0.1-0.8-0.1-1.1-0.1
	c-0.3-0.1-0.6-0.1-1-0.1c-0.1,0-0.3,0-0.4,0c-0.1-0.1-0.2-0.1-0.4-0.1c-0.1,0-0.2,0-0.3-0.1c-0.1,0-0.2,0-0.3,0c-0.1,0-0.2,0-0.2,0
	c-0.1-0.1-0.1-0.1-0.2-0.1c0,0-0.1,0-0.2,0c0,0,0,0-0.1,0s0,0-0.1,0c0,0,0,0,0,0c0,0,0,0,0,0c0,0,0,0,0,0c0,0,0,0,0,0"/>
<path class="st1" d="M655.4,1328.4c-0.1,0-0.3,0.1-0.5,0.1c-0.2,0.1-0.3,0.2-0.4,0.2c-0.3,0.2-0.5,0.5-0.7,0.8
	c-0.2,0.3-0.4,0.7-0.5,1c-0.1,0.4-0.2,0.8-0.2,1.2"/>
<path class="st1" d="M653.1,1331.7c0,0.5,0.1,0.9,0.2,1.4c0.1,0.5,0.3,0.8,0.6,1.2c0.3,0.3,0.6,0.5,0.9,0.7c0.3,0.2,0.7,0.2,1.1,0.1
	"/>
<path class="st1" d="M373,948.9C373,948.9,373,948.9,373,948.9c-0.1,0-0.1,0-0.2-0.1c-0.1,0-0.1,0-0.2,0c-0.1,0-0.2,0-0.3,0
	c-0.1,0-0.2,0-0.3,0c-0.1,0-0.3,0-0.4,0c-0.3-0.1-0.7-0.1-1-0.1"/>
<path class="st1" d="M773.6,997.6c0-0.1-0.1-0.1-0.1-0.1c-0.1,0-0.2,0-0.3-0.1c-0.2,0-0.3-0.1-0.5-0.1c-0.2,0-0.5-0.1-0.7-0.1"/>
<path class="st1" d="M771.9,997.3c-1.2-0.1-2.3-0.2-3.5-0.2c-1.7-0.1-3.5-0.1-5.2-0.2c-5.1-0.2-10.2-0.3-15.3-0.4"/>
<path class="st1" d="M794.5,350.4c0-0.9,0.2-1.8,0.7-2.5c0.5-0.8,1.2-1.4,1.9-1.8"/>
<path class="st1" d="M797.1,346.1c0.5-0.3,1.1-0.5,1.7-0.7"/>
<path class="st1" d="M803.7,346.4c-0.1-0.1-0.3-0.1-0.4-0.1c-0.5-0.2-0.9-0.3-1.4-0.4"/>
<path class="st1" d="M801.9,345.8c-0.1-0.1-0.3-0.1-0.4-0.1c-0.8-0.2-1.7-0.3-2.5-0.3"/>
<path class="st1" d="M370.6,948.8c-5.1-0.1-10.2-0.2-15.3-0.4c-1.7-0.1-3.5-0.1-5.2-0.2c-1.2-0.1-2.3-0.1-3.5-0.2"/>
<path class="st1" d="M346.6,948c-0.2,0-0.5-0.1-0.7-0.1c-0.2-0.1-0.4-0.1-0.5-0.1c-0.1,0-0.2,0-0.3-0.1c0,0-0.1-0.1-0.1-0.1"/>
<path class="st1" d="M346.3,1002.9c0.2,0,0.3,0.1,0.5,0.1c0.6,0.1,1.3,0.2,1.9,0.2"/>
<path class="st1" d="M346.3,942.4c0.2,0,0.3-0.1,0.5-0.1c0.6-0.1,1.3-0.2,1.9-0.3"/>
<path class="st1" d="M747.9,948.8c-0.3,0-0.7,0-1,0.1c-0.1,0-0.3,0-0.4,0c-0.1,0-0.2,0-0.3,0c-0.1,0-0.2,0-0.3,0c-0.1,0-0.1,0-0.2,0
	c0,0.1-0.1,0.1-0.1,0.1c0,0,0,0,0,0"/>
<path class="st1" d="M370.6,996.5c-5.1,0.1-10.2,0.2-15.3,0.4c-1.7,0.1-3.5,0.1-5.2,0.2c-1.2,0.1-2.3,0.1-3.5,0.2"/>
<path class="st1" d="M346.6,997.3c-0.2,0-0.5,0-0.7,0.1c-0.2,0-0.4,0.1-0.5,0.1c-0.1,0.1-0.2,0.1-0.3,0.1c0,0.1-0.1,0.1-0.1,0.1"/>
<path class="st1" d="M367.2,1351.6c0,1.3,0.3,2.6,0.9,3.7c0.5,1,1.2,1.9,2,2.6c0.8,0.7,1.7,1.2,2.6,1.5c0.9,0.4,1.9,0.5,2.9,0.5"/>
<path class="st1" d="M355.9,1348.1c-1.3-0.5-2.7-0.9-4-1.4c-1-0.4-2.1-0.8-3.1-1.2c-0.7-0.3-1.5-0.6-2.2-0.9
	c-0.4-0.1-0.8-0.3-1.3-0.5"/>
<path class="st1" d="M773.2,1344.1c-0.4,0.1-0.9,0.3-1.3,0.5c-0.7,0.3-1.5,0.6-2.2,0.9c-1,0.4-2.1,0.8-3.1,1.2
	c-1.3,0.5-2.7,0.9-4,1.4"/>
<path class="st1" d="M742.8,1360c1,0,2-0.2,2.9-0.5c1-0.3,1.9-0.8,2.6-1.5c0.9-0.7,1.6-1.6,2-2.6c0.6-1.1,0.9-2.4,0.9-3.7"/>
<path class="st1" d="M781.6,997.6c0,0.4,0,0.8,0,1.2c0,0.4,0,0.8,0,1.2c0,0.2,0,0.4,0,0.6c0,0.2,0.1,0.4,0.1,0.6
	c0.1,0.4,0.2,0.8,0.2,1.2"/>
<line class="st1" x1="336.5" y1="942.4" x2="336.8" y2="942.4"/>
<line class="st1" x1="781.6" y1="942.4" x2="782" y2="942.4"/>
<line class="st1" x1="336.8" y1="1002.9" x2="336.5" y2="1002.9"/>
<line class="st1" x1="782" y1="1002.9" x2="781.6" y2="1002.9"/>
<path class="st1" d="M602.8,532.1c-1.7-17.2-3-34.5-3.9-51.8c-1-18.4-1.6-36.9-1.9-55.5"/>
<path class="st1" d="M597.1,385.6c0.3-18.5,0.8-37,1.9-55.5c0.9-17.3,2.2-34.6,3.9-51.8"/>
<line class="st1" x1="772.8" y1="948.7" x2="773.4" y2="948.7"/>
<line class="st1" x1="773.4" y1="948.7" x2="773.8" y2="948.7"/>
<path class="st1" d="M773.8,948.7c1.3-0.1,2.5-0.1,3.8-0.1c1.1-0.1,2.2-0.1,3.3-0.1c1-0.1,1.9-0.1,2.9-0.1c0.8-0.1,1.6-0.1,2.4-0.1
	c0.6-0.1,1.2-0.1,1.9-0.2c0.4,0,0.9-0.1,1.3-0.1c0.1,0,0.3,0,0.5-0.1c0.1,0,0.2,0,0.3-0.1c0.1,0,0.1,0,0.2-0.1c0,0,0.1-0.1,0.1-0.1"
	/>
<path class="st1" d="M521.4,424.9c-0.3,18.5-0.9,37-1.9,55.5c-0.9,17.3-2.2,34.6-3.9,51.8"/>
<path class="st1" d="M515.6,278.3c1.7,17.2,3,34.5,3.9,51.8c1,18.4,1.6,36.9,1.9,55.5"/>
<path class="st1" d="M773.6,947.6c0.1,0,0.1,0,0.2,0c0.3,0,0.6,0.1,1,0.1"/>
<path class="st1" d="M341.7,947.6c0.2,0,0.4,0,0.5,0c0.5,0,0.9,0,1.4,0"/>
<path class="st1" d="M343.6,947.6c0.1,0,0.3,0,0.4,0c0.3-0.1,0.6-0.1,0.8-0.1"/>
<path class="st1" d="M358.7,949c0.7,0,1.3,0,2,0c0.8,0,1.5,0,2.3,0c0.8,0,1.6,0,2.5,0c0.8,0,1.6,0,2.4,0c0.4,0,0.7,0,1.1,0
	c0.3,0,0.7,0,1,0c0.3,0,0.6,0,0.9,0c0.3-0.1,0.5-0.1,0.8-0.1c0.2,0,0.4,0,0.6,0c0.1,0,0.3,0,0.4,0c0,0,0.1-0.1,0.2-0.1
	c0,0,0.1,0,0.1,0c0,0,0,0,0.1,0c0,0,0,0,0,0"/>
<path class="st1" d="M344.9,997.7c-0.1,0-0.1-0.1-0.2-0.1c-0.3,0-0.7,0-1,0"/>
<path class="st1" d="M328.1,997.6C328.1,997.5,328.1,997.5,328.1,997.6c0.1-0.1,0.2-0.1,0.3-0.1c0.1-0.1,0.2-0.1,0.3-0.1
	c0.2,0,0.3,0,0.5-0.1c0.4-0.1,0.9-0.1,1.3-0.1c0.6-0.1,1.2-0.1,1.9-0.1c0.8-0.1,1.6-0.1,2.4-0.1c1-0.1,1.9-0.1,2.9-0.1
	c1.1-0.1,2.2-0.1,3.3-0.1c1.3-0.1,2.6-0.1,3.8-0.1"/>
<line class="st1" x1="344.7" y1="996.6" x2="345.1" y2="996.6"/>
<line class="st1" x1="345.1" y1="996.6" x2="345.7" y2="996.6"/>
<path class="st1" d="M776.6,997.6c-0.2,0-0.3,0-0.5,0c-0.4,0-0.9,0.1-1.3,0.1"/>
<path class="st1" d="M774.8,997.6c-0.1,0-0.2,0-0.4,0c-0.3,0-0.5,0-0.8,0.1"/>
<line class="st1" x1="772.8" y1="996.6" x2="773.4" y2="996.6"/>
<line class="st1" x1="773.4" y1="996.6" x2="773.8" y2="996.6"/>
<path class="st1" d="M773.8,996.6c1.3,0.1,2.5,0.1,3.8,0.1c1.1,0.1,2.2,0.1,3.3,0.1c1,0.1,1.9,0.1,2.9,0.1c0.8,0.1,1.6,0.1,2.4,0.1
	c0.6,0.1,1.2,0.1,1.9,0.1c0.4,0.1,0.9,0.1,1.3,0.1c0.1,0.1,0.3,0.1,0.5,0.1c0.1,0.1,0.2,0.1,0.3,0.1c0.1,0,0.1,0,0.2,0.1
	c0,0,0.1,0,0.1,0.1"/>
<path class="st1" d="M745.4,948.9C745.4,948.9,745.4,948.9,745.4,948.9C745.5,948.9,745.5,948.9,745.4,948.9c0.1,0,0.2,0,0.2,0
	c0.1,0.1,0.1,0.1,0.2,0.1c0.1,0,0.3,0,0.4,0c0.2,0,0.4,0,0.6,0c0.3,0,0.5,0.1,0.8,0.1c0.3,0,0.6,0,0.9,0c0.3,0,0.7,0,1,0
	c0.4,0,0.7,0,1.1,0c0.8,0,1.6,0,2.4,0c0.8,0,1.6,0,2.5,0c0.8,0,1.5,0,2.3,0c0.7,0,1.3,0,2,0"/>
<path class="st1" d="M597.1,424.9c0-6.6,0.1-13.1,0.1-19.7c0-6.5-0.1-13-0.1-19.6"/>
<path class="st1" d="M606.9,529.7c-0.9,0.1-1.8,0.4-2.7,0.9c-0.6,0.4-1.2,0.8-1.4,1.5"/>
<path class="st1" d="M606.9,280.7c-2,20-3.4,40-4.3,60.1c-1,21.5-1.5,42.9-1.5,64.4c0,21.5,0.5,43,1.5,64.5
	c0.9,20,2.3,40.1,4.3,60.1"/>
<path class="st1" d="M602.8,278.3c0.2,0.7,0.8,1.1,1.4,1.5c0.9,0.5,1.8,0.7,2.7,0.9"/>
<path class="st1" d="M365.9,1353.4c0.1-0.1,0.1-0.2,0.2-0.3c0.1-0.1,0.1-0.3,0.2-0.4"/>
<path class="st1" d="M336.8,1339.5c0.9,0.6,1.9,1.2,2.8,1.7c0.9,0.5,1.7,1,2.6,1.5c0.4,0.2,0.7,0.4,1.1,0.6c0.3,0.2,0.6,0.3,0.9,0.4
	c0.2,0.1,0.4,0.2,0.6,0.3c0.1,0.1,0.2,0.1,0.3,0.1"/>
<path class="st1" d="M752.2,1352.6c0.1,0.1,0.1,0.2,0.2,0.4c0,0.1,0.1,0.2,0.2,0.4"/>
<path class="st1" d="M773.2,1344.1c0.1-0.1,0.2-0.1,0.3-0.1c0.2-0.1,0.4-0.2,0.6-0.3c0.3-0.2,0.6-0.3,0.9-0.5
	c0.4-0.2,0.7-0.4,1.1-0.5c0.9-0.5,1.7-1,2.6-1.5c1-0.6,1.9-1.2,2.8-1.8"/>
<path class="st1" d="M511.6,529.7c2-20,3.4-40,4.3-60.1c1-21.5,1.5-42.9,1.5-64.5c0-21.5-0.5-42.9-1.5-64.4
	c-0.9-20-2.3-40.1-4.3-60.1"/>
<path class="st1" d="M511.6,529.7c0.9,0.1,1.8,0.4,2.7,0.9c0.6,0.4,1.2,0.8,1.4,1.5"/>
<path class="st1" d="M521.4,385.6c0,6.6-0.1,13.1-0.1,19.6c0,6.6,0.1,13.1,0.1,19.7"/>
<path class="st1" d="M511.6,280.7c0.9-0.2,1.8-0.4,2.7-0.9c0.6-0.4,1.2-0.8,1.4-1.5"/>
<path class="st1" d="M515.6,260.7c0-1.4-0.1-2.8,0-4.2c0-1.4,0.1-2.8,0.3-4.2c0.1-0.7,0.2-1.4,0.3-2c0.1-0.7,0.3-1.3,0.5-2
	c0.5-1.4,1.3-3.1,2.6-3"/>
<path class="st1" d="M599.1,242.9c0.9,0,1.8,0.3,2.6,0.7c0.8,0.5,1.5,1.1,2,1.8c0.6,0.7,1.1,1.4,1.5,2.3c0.4,0.8,0.8,1.6,1,2.4
	c0.6,1.7,1,3.4,1.2,5.2c0.2,1.8,0.4,3.6,0.4,5.4"/>
<path class="st1" d="M510.6,260.7c0-0.9,0-1.8,0.1-2.7c0.1-0.9,0.1-1.8,0.3-2.7c0.2-1.3,0.5-2.6,0.8-3.9c0.4-1.3,0.8-2.6,1.5-3.7
	c0.3-0.6,0.7-1.2,1.1-1.7c0.4-0.5,0.8-1.1,1.3-1.5c1-0.9,2.3-1.5,3.7-1.5"/>
<path class="st1" d="M599.1,245.4c1.3-0.1,2.1,1.6,2.6,3c0.2,0.8,0.4,1.4,0.5,2c0.1,0.7,0.2,1.4,0.3,2.1c0.2,1.4,0.3,2.7,0.3,4.2
	c0,1.4,0,2.7,0,4.2"/>
<path class="st1" d="M781.6,947.7c0-0.4,0-0.8,0-1.2c0-0.4,0-0.8,0-1.2c0-0.2,0-0.4,0-0.6c0-0.2,0.1-0.4,0.1-0.6
	c0.1-0.4,0.2-0.8,0.2-1.2"/>
<path class="st1" d="M747.9,948.8c16.5-0.3,25.7-0.7,25.7-1.1"/>
<path class="st1" d="M772.1,942.4c-0.7-0.1-1.6-0.2-2.7-0.4"/>
<path class="st1" d="M769.4,1003.3c1.1-0.1,2-0.2,2.7-0.4"/>
<path class="st1" d="M323.9,350.4c0-2.8-2.3-5-5-5"/>
<path class="st1" d="M318.9,423c2.8,0,5-2.3,5-5"/>
<path class="st1" d="M804.8,349.6c0-1.2-0.4-2.3-1.1-3.2"/>
<path class="st1" d="M794.5,417.9c0,2.8,2.3,5,5,5"/>
<path class="st1" d="M483.9,609.8c1.2-12.3,2.4-24.5,3.5-36.4"/>
<path class="st1" d="M378.9,573.3c1.2,11.9,2.3,24.1,3.5,36.4"/>
<path class="st1" d="M607.8,564.9c-2.5,0-4.5,0.1-5,0.2"/>
<path class="st1" d="M479.9,1359.9c-32.7-0.2-75-0.2-104.3,0.1"/>
<path class="st1" d="M521.4,1360.6c0-0.2-5.6-0.4-16.2-0.5"/>
<path class="st1" d="M367.2,1343.1c7.4,0.1,16.3,0.2,26.2,0.4"/>
<path class="st1" d="M393.4,1330.5c-15.9,0.2-28.9,0.4-37.5,0.7"/>
<path class="st1" d="M762.6,1331.1c-8.6-0.3-21.7-0.5-37.5-0.7"/>
<path class="st1" d="M729.8,1343.4c8-0.1,15.3-0.2,21.5-0.3"/>
<path class="st1" d="M743.9,1341.2c-9.2,0-16.6,0.1-16.8,0.3"/>
<path class="st1" d="M727.1,1332.4c0.2,0.2,7.6,0.3,16.8,0.3"/>
<path class="st1" d="M592.2,607c-3.2-3.2-7.5-5-12-5"/>
<path class="st1" d="M538.2,601.9c-4.5,0-8.8,1.8-12,5"/>
<path class="st1" d="M580.2,591.8c4.5,0,8.8-1.8,12-5"/>
<path class="st1" d="M526.2,586.8c3.2,3.2,7.5,5,12,5"/>
<path class="st1" d="M328.1,947.7c0,0.5,11,0.9,30.6,1.3"/>
<path class="st1" d="M823.4,515.5c2.8,0,5-2.3,5-5"/>
<path class="st1" d="M764,510.5c0,2.8,2.3,5,5,5"/>
<path class="st1" d="M769,343.9c-2.8,0-5,2.3-5,5"/>
<path class="st1" d="M515.6,565.2c-0.4-0.1-2.5-0.2-5-0.2"/>
<path class="st1" d="M345.2,570.1c2.1,1.3,14.4,2.5,33.7,3.3"/>
<path class="st1" d="M744.2,1361.3c4.5,0,8.2-3.5,8.4-8"/>
<path class="st1" d="M805.4,349c0-2.8-2.2-5-5-5"/>
<path class="st1" d="M370.6,996.5c3.3-0.1,3.3-0.2,0-0.2c-3.3-0.1-8.6-0.1-11.9,0"/>
<path class="st1" d="M781.6,569.7c-4.4,0-8,0.2-8.4,0.4"/>
<path class="st1" d="M345.2,570.1c-0.4-0.2-4-0.4-8.4-0.4"/>
<path class="st1" d="M613,1360.1c-10.4,0.2-16,0.3-16,0.5"/>
<path class="st1" d="M742.8,1360c-29.3-0.2-71.6-0.2-104.4-0.1"/>
<path class="st1" d="M597.1,569.7c0,1.4,11.6,2.7,31.6,3.6"/>
<path class="st1" d="M374.6,1332.7c9.2,0,16.6-0.1,16.8-0.3"/>
<path class="st1" d="M759.8,996.3c-2.1-0.1-5.2-0.1-8.1-0.1c-2.9,0.1-5.2,0.1-6,0.1c-0.8,0.1,0,0.1,2.2,0.2"/>
<path class="st1" d="M597.1,569.7c0-0.7-7.2-1.3-18.9-1.7c-11.7-0.4-26.1-0.4-37.8,0c-11.7,0.4-18.9,1-18.9,1.7"/>
<path class="st1" d="M597.1,320.4c0-5.1-1.8-8.9-4.3-8.9"/>
<path class="st1" d="M525.7,311.5c-2.5,0-4.3,3.8-4.3,8.9"/>
<path class="st1" d="M487.4,573.3c21.5-0.9,34-2.3,34-3.7"/>
<path class="st1" d="M770.6,345.4c-2.8,0-5,2.3-5,5"/>
<path class="st1" d="M765.5,508.9c0,2.8,2.3,5,5,5"/>
<path class="st1" d="M821.8,514c2.8,0,5-2.3,5-5"/>
<path class="st1" d="M521.4,1360.6c0,0,0.5,0.1,1.4,0.1"/>
<path class="st1" d="M391.4,1341.5c-0.2-0.2-7.6-0.3-16.8-0.3"/>
<path class="st1" d="M741.9,573.2c18-0.8,29.3-1.9,31.3-3.1"/>
<path class="st1" d="M365.9,1353.4c0.3,4.4,3.9,7.9,8.4,7.9"/>
<path class="st1" d="M595.7,1360.6c0.9,0,1.4-0.1,1.4-0.1"/>
<path class="st1" d="M295.7,1191.6c-0.5,0-0.9,0.1-1.4,0.2"/>
<path class="st1" d="M323.4,1196.4c-0.2-2.7-2.4-4.7-5-4.7"/>
<path class="st1" d="M824.1,1191.8c-0.5-0.1-0.9-0.2-1.4-0.2"/>
<path class="st1" d="M800.1,1191.6c-2.7,0-4.9,2.1-5,4.7"/>
<line class="st1" x1="1015.3" y1="1339.9" x2="1015.8" y2="1339.9"/>
<line class="st1" x1="1208.5" y1="1339.9" x2="1207.9" y2="1339.9"/>
<line class="st1" x1="995.2" y1="1339.9" x2="995.2" y2="194"/>
<line class="st1" x1="1015.3" y1="194" x2="1015.3" y2="1339.9"/>
<line class="st1" x1="1015.8" y1="1339.9" x2="1015.8" y2="194"/>
<line class="st1" x1="1017" y1="194" x2="1017" y2="1339.9"/>
<line class="st1" x1="1181.2" y1="1376.1" x2="1181" y2="1375.6"/>
<line class="st1" x1="1181.2" y1="157.9" x2="1181" y2="158.4"/>
<line class="st1" x1="1206.8" y1="1339.9" x2="1206.8" y2="194"/>
<line class="st1" x1="1042.6" y1="157.9" x2="1042.7" y2="158.4"/>
<line class="st1" x1="1207.9" y1="194" x2="1207.9" y2="1339.9"/>
<line class="st1" x1="1208.5" y1="1339.9" x2="1208.5" y2="194"/>
<line class="st1" x1="1228.6" y1="194" x2="1228.6" y2="1339.9"/>
<line class="st1" x1="1042.6" y1="1376.1" x2="1042.7" y2="1375.6"/>
<line class="st1" x1="1015.3" y1="194" x2="1015.8" y2="194"/>
<line class="st1" x1="1208.5" y1="194" x2="1207.9" y2="194"/>
<path class="st1" d="M995.2,1339.9c0,25.8,17.1,48.5,41.9,55.6"/>
<path class="st1" d="M1186.7,1395.4c24.8-7.1,41.9-29.7,41.9-55.5"/>
<path class="st1" d="M1015.3,1339.9c0,16.8,11.1,31.6,27.3,36.2"/>
<path class="st1" d="M1181.2,1376.1c16.1-4.6,27.3-19.4,27.3-36.2"/>
<path class="st1" d="M1181,1375.6c15.9-4.6,26.9-19.1,26.9-35.7"/>
<path class="st1" d="M1015.8,1339.9c0,16.6,11,31.1,26.9,35.7"/>
<path class="st1" d="M1017,1339.9c0,16,10.6,30.1,26.1,34.6"/>
<path class="st1" d="M1180.7,1374.4c15.4-4.4,26.1-18.5,26.1-34.5"/>
<path class="st1" d="M1037.1,1395.5c48.9,13.9,100.7,13.9,149.6-0.1"/>
<path class="st1" d="M1042.6,1376.1c45.3,12.9,93.3,12.9,138.6,0"/>
<path class="st1" d="M1042.7,1375.6c45.2,12.9,93.1,12.9,138.3,0"/>
<path class="st1" d="M1043.1,1374.5c45,12.8,92.7,12.8,137.6-0.1"/>
<path class="st1" d="M1037.1,138.5c-24.8,7.1-41.9,29.7-41.9,55.5"/>
<path class="st1" d="M1042.6,157.9c-16.1,4.6-27.3,19.4-27.3,36.1"/>
<path class="st1" d="M1042.7,158.4c-15.9,4.6-26.9,19.1-26.9,35.7"/>
<path class="st1" d="M1043.1,159.5c-15.4,4.4-26.1,18.5-26.1,34.5"/>
<path class="st1" d="M1186.7,138.5c-48.9-14-100.7-14-149.6,0"/>
<path class="st1" d="M1181.2,157.9c-45.3-13-93.3-13-138.6,0"/>
<path class="st1" d="M1181,158.4c-45.2-12.9-93.1-13-138.3-0.1"/>
<path class="st1" d="M1180.7,159.5c-45-12.8-92.7-12.8-137.6,0"/>
<path class="st1" d="M1228.6,194c0-25.7-17.1-48.4-41.9-55.5"/>
<path class="st1" d="M1208.5,194c0-16.8-11.1-31.5-27.3-36.1"/>
<path class="st1" d="M1207.9,194c0-16.5-11-31.1-26.9-35.6"/>
<path class="st1" d="M1206.8,194c0-16-10.6-30.1-26.1-34.5"/>
<text transform="matrix(1 0 0 1 635.5601 712.2725)" class="st2 st3 st4">+</text>
<text transform="matrix(1 0 0 1 635.5601 712.2725)" class="st0 st3 st4">+</text>
<text transform="matrix(1.6123 0 0 1 632.0454 1286.9609)" class="st2 st3 st4">-</text>
<text transform="matrix(1.6123 0 0 1 632.0171 1286.9609)" class="st0 st3 st4">-</text>
<text transform="matrix(1 0 0 1 388.437 1304.4355)" class="st2 st3 st5">+</text>
<text transform="matrix(1 0 0 1 388.437 1304.4355)" class="st0 st3 st5">+</text>
<text transform="matrix(1.6123 0 0 1 388.5454 709.0566)" class="st2 st3 st5">-</text>
<text transform="matrix(1.6123 0 0 1 388.5181 709.0566)" class="st0 st3 st5">-</text>
</svg>
