<?xml version="1.0" encoding="utf-8"?>
<!-- Generator: Adobe Illustrator 21.0.0, SVG Export Plug-In . SVG Version: 6.00 Build 0)  -->
<svg version="1.1" id="Layer_1" xmlns="http://www.w3.org/2000/svg" xmlns:xlink="http://www.w3.org/1999/xlink" x="0px" y="0px"
	 viewBox="0 0 1417.3 1110.4" style="enable-background:new 0 0 1417.3 1110.4;" xml:space="preserve">
<style type="text/css">
	.pair {
		animation: pair 2s infinite;
	}
	
	@keyframes pair {
		0%, 20%, 80%, 100% {
			fill: rgba(255,255,255,0);
		}
		50% {
			fill: #0074CC;
		}
	}
</style>
<g>
	<path d="M1315.4,133.8c-42.2-29.4-83.9-34.6-87.9-35l-46.3-7.9c-1.8-1.4-4.2-1.9-6.4-1.2l-0.1,0.1L898.6,42.8l-4.3-0.7
		c-1.9-2.2-3-2.7-3.8-2.9c-0.5-0.2-1-0.4-1.5-0.5l-77.1-12.6c-2.4-0.4-4.8-0.3-7,0.4l-1,0.3L793.7,25
		C716.9,13.2,640,23.3,571.4,54.1c-31.2,14-60.5,32.2-87.2,53.8c-5.6,4.5-11.2,9.3-16.7,14.3l-75.9-13.4c0,0,0,0,0,0
		c-1.9-0.3-3.8-0.4-5.7-0.3c-0.1,0-0.3,0-0.4,0c-0.2,0-0.3,0-0.5,0.1c-2.6,0.2-5.1,0.9-7.6,1.9c-0.1,0.1-0.2,0.1-0.4,0.2
		c-0.5,0.2-1,0.4-1.4,0.7c0,0,0,0,0,0c0,0-0.1,0-0.1,0c-1.1,0.6-2.2,1.2-3.3,1.8c-1,0.5-2,1.1-2.9,1.6c-1.8,1-3.6,2.2-5.4,3.3
		c-0.2,0.1-0.5,0.3-0.7,0.4c-29.5,18.4-57.6,46.2-82.6,80.8l-15-3.7c-14.5-4.1-30.9,9.8-37.4,31.7c-5.7,19.3-1.5,37.5,9.4,44.6
		c-0.7,1.5-1.4,3-2.1,4.4c-0.3,0.7-0.6,1.3-0.9,2c-1.2,2.5-2.4,5.1-3.5,7.7c-0.4,0.8-0.7,1.6-1.1,2.4c-1.1,2.5-2.2,5-3.3,7.5
		c-0.4,0.9-0.8,1.9-1.2,2.8c-1,2.4-2,4.9-3,7.3c-0.4,1.1-0.9,2.2-1.3,3.3c-0.9,2.3-1.8,4.6-2.7,7c-0.5,1.3-1,2.6-1.5,4
		c-0.8,2.2-1.6,4.3-2.4,6.5c-0.6,1.6-1.1,3.3-1.7,4.9c-0.7,1.9-1.3,3.8-2,5.7c-0.7,2.2-1.5,4.4-2.2,6.7c-0.4,1.4-0.9,2.7-1.3,4.1
		c-1.1,3.7-2.3,7.3-3.4,11c-1.5,5-2.9,10-4.2,15.1c-0.3,1.1-0.6,2.3-0.9,3.4c-1,3.9-2,7.9-2.9,11.8c-0.2,0.6-0.3,1.3-0.5,1.9
		L59.4,357.9c-16.3-4.7-34.9,11.2-42.2,36.2c-7.4,25.1-0.3,48.5,16.1,53.4c0.1,0,0.2,0.1,0.3,0.1l148.6,36.9
		c-0.6,11.1-0.8,22-0.7,32.7c0,0.2,0,0.4,0,0.6c0.1,8,0.5,15.8,1,23.5c0.1,0.8,0.1,1.5,0.2,2.3c0.3,3.3,0.5,6.6,0.9,9.8
		c0,0.4,0.1,0.9,0.1,1.3c0.4,3.7,0.8,7.3,1.3,10.8c0,0.2,0.1,0.4,0.1,0.7c0.1,0.4,0.1,0.7,0.2,1.1c0.5,3.3,1,6.6,1.5,9.8
		c0,0.3,0.1,0.6,0.1,0.8c8.3,48.8,26.1,88.7,51.8,114.9c0.1,0.1,0.2,0.2,0.4,0.4c1.6,1.6,3.3,3.2,5,4.8c0.5,0.4,0.9,0.8,1.4,1.2
		c1.8,1.6,3.6,3.1,5.4,4.6c0.1,0.1,0.1,0.1,0.2,0.2c0.6,0.4,1.2,0.8,1.8,1.2c2.3,1.4,4.9,2.5,7.7,2.9l68.6,12.1
		c0.2,13.9,0.4,27,0.6,38.9l0,0.4c0.1,1.9,0.1,3.9,0.2,5.8c3.8,87.1,63.2,163,147.9,188.8c104.5,31.8,297.3,89.4,413.7,117.8
		c5.5,1.3,10.8,2.6,15.9,3.7c0.1,0,0.1,0,0.2,0.1c55.1,12.5,93.2,16.5,119.5,16.5c36.8,0,50.3-7.9,54.4-11.2
		c10.4-4.9,104.1-49.7,189-110.4c32.7-23.3,79.6-85.5,118.1-249c9.6-41,14.5-83.5,14.5-126.4V325
		C1403.2,265.7,1388,184.4,1315.4,133.8z M890,50.1c0.5-0.2,0.9-0.4,1.3-0.6c1.2,1.6,2.6,3.8,4.3,6.6c0,0.1,0.1,0.1,0.1,0.2l0,0
		l-50.4,17.6c-2.9,1-6,1.2-9.2,0.6l-96.6-13.7c0,0,0-0.1,0-0.1c0.4-1.5,2.3-4.8,4.5-7.4c0.2,0.2,0.4,0.3,0.7,0.4
		c0.2,0.1,0.3,0.2,0.4,0.3c0.5,0.3,1.1,0.5,1.7,0.6L833,66.8c0.8,0.2,1.7,0.3,2.6,0.3c0.2,0,0.4,0,0.7,0c0.3,0,0.6,0,0.9,0
		c0.2,0,0.4,0,0.6-0.1c0.8,0,1.5-0.1,2.3-0.2c0.3,0,0.7-0.1,1-0.1c1.1-0.2,2.2-0.5,3.3-0.8l35.3-12.3L890,50.1z M806.7,33.1
		c1.3-0.4,2.7-0.4,4-0.2l73.1,12l-18.3,6.4l-23.4,8.2c-1.9,0.7-3.9,0.9-5.9,0.8c-0.7,0-1.4-0.1-2-0.3L753,48.5l35.6-10.2v0
		L806.7,33.1z M241.4,231.3c4.4-14.9,14.4-24,20.3-22.3c0.1,0,0.2,0.1,0.3,0.1l10,2.5c-10,14.9-19.4,30.9-28.2,47.8
		C239.6,255,237.7,243.8,241.4,231.3z M183.2,470.5L37,434.2c-7.5-2.3-12-17.7-6.6-36.1c5.4-18.6,17.6-29,25.2-26.8
		c0.1,0,0.2,0.1,0.3,0.1L192.7,405C188.2,427,185,449,183.2,470.5z M329.1,419.1c-0.4,54.1-1.2,188.1-0.2,287.1l-66-11.7
		c-1.3-0.2-2.5-0.7-3.4-1.4c-1.8-1.4-3.6-3-5.4-4.5c-0.4-0.4-0.9-0.8-1.3-1.2c-1.6-1.5-3.1-3-4.7-4.5c-0.1-0.2-0.3-0.3-0.5-0.5
		c-1.8-1.9-3.6-3.8-5.3-5.9c0,0,0,0-0.1-0.1C194.9,620.3,182,508.1,210,390.8c0.4-1.6,0.8-3.1,1.2-4.7c0.6-2.4,1.2-4.8,1.8-7.2
		c0.4-1.5,0.8-3,1.2-4.4c1-3.7,2-7.4,3.1-11.1c0-0.1,0-0.2,0.1-0.2c1.1-3.8,2.3-7.6,3.5-11.3c0.3-1.1,0.7-2.1,1-3.2
		c0.9-2.7,1.7-5.4,2.6-8c0.4-1.3,0.9-2.5,1.3-3.8c0.9-2.5,1.7-5,2.6-7.4c0.4-1.2,0.9-2.5,1.4-3.7c0.9-2.6,1.9-5.1,2.9-7.7
		c0.4-1.1,0.8-2.1,1.2-3.2c1.2-3.1,2.4-6.1,3.7-9.1c0.2-0.5,0.4-1,0.6-1.4c4.7-11.2,9.7-22.2,15-32.9c0,0,0,0,0,0
		c10.6-21.2,22.3-41,34.9-59c0.4-0.3,0.7-0.7,1-1.1c26.7-37.7,56.5-66.7,86.7-84.2c1-0.6,2-1.1,3-1.6c1-0.6,2-1.2,3.1-1.7
		c0.1-0.1,0.2-0.1,0.3-0.2c0.4-0.2,0.8-0.4,1.2-0.5c0.2-0.1,0.4-0.1,0.6-0.2c0.4-0.1,0.8-0.2,1.2-0.3c0.1,0,0.2,0,0.4-0.1
		c1.2-0.2,2.4-0.2,3.5,0l65.7,11.6c-28,27.5-52.9,59.6-74,95.5C347.5,286.6,329.6,352.1,329.1,419.1z M481.8,940.9
		c-79.1-24.1-134.6-94.9-138.1-176.2c-0.1-1.9-0.1-3.7-0.2-5.6l0-0.3c-0.3-12.3-0.5-26-0.7-40.7l-0.1-3.7c0,0,0,0,0,0
		c-1.1-99.5-0.3-239.6,0.1-295.2c0.5-64.6,17.8-127.7,50-182.6c22.9-39,50.3-73.2,81.4-101.8c0,0,0,0,0,0c6.1-5.6,12.3-11,18.6-16.1
		c25.8-20.9,54.1-38.4,84.2-52c60-27,126.7-37.4,193.9-30.6l-24.7,7.1c-0.1,0-0.2,0.1-0.4,0.1l-0.5,0.2c0,0,0,0,0,0c0,0,0,0,0,0
		c0,0,0,0-0.1,0c-0.1,0-0.1,0.1-0.2,0.1c0,0,0,0,0,0c-5.7,2.7-12.4,12.7-12.4,17.2c0,0.1,0,0.2,0,0.3c-0.1,1.3,0.3,2.7,1,3.8
		c0.9,1.3,2.3,2.3,4.1,2.6l97.2,13.8c1.5,0.3,3,0.4,4.6,0.4c2.7,0,5.5-0.5,8-1.4l51.5-18c2.2-0.8,3.6-2.6,4-4.7l250.5,42.6
		c-43.9,14.6-79,27.9-122.3,46.3c-88.2,37.4-153,92-192.7,162.4C809.4,360.8,791.5,441,791,523.4c-0.6,91.8-1.4,260,0.6,354.1
		c0,2.1,0.1,4.3,0.2,6.4c3.3,79.5,26,135,67.5,165.7C742.3,1019.4,576.1,969.6,481.8,940.9z M910.7,1062.2
		C910.7,1062.2,910.7,1062.2,910.7,1062.2c-5.2-1.2-10.5-2.4-16-3.8c-4.1-1-8.4-2.1-12.7-3.1c-51.7-25.7-79.8-83.4-83.5-171.8
		c-0.1-2-0.1-4.1-0.2-6.2c-2-94-1.2-262.1-0.6-353.9c0.6-81.3,18.1-160.2,46.8-211.1c38.9-69,102.6-122.6,189.4-159.4
		c47.1-20,84.4-34,134.2-50.2l5.7,1c0.3,0,0.5,0.1,0.8,0.1c0.3,0.1,0.5,0.1,0.8,0.2l49.9,8.5c0.2,0,0.3,0,0.5,0.1
		c0.3,0,24,2.6,53.2,16.3c-45.2,2.6-114.9,30.8-132.2,38c-94.5,39.7-161.1,92.7-198,157.5c-34.2,60.1-42,150.6-42.4,215.9
		c-0.6,90.9-1.4,257.4,0.6,350.8c0,2.1,0.1,4.2,0.2,6.3c2.8,65.8,48.4,146.5,99.6,176.3c2.9,1.7,5.9,3.2,8.8,4.6
		C991.4,1077.1,957.6,1072.9,910.7,1062.2z M1389.4,595.3c0,41.8-4.8,83.2-14.2,123.2c-16.9,72-54.1,199.1-112.7,240.9
		c-88.5,63.2-186.8,109.1-187.8,109.5c-1,0.5-1.5,0.7-2.1,1.5c-1.1,0.9-9.4,6.4-34.5,7.7c-9.1-1.5-18.4-5-27.9-10.5
		c-48.6-28.3-93.5-108-96.1-170.6c-0.1-2-0.2-4.1-0.2-6.2c-2-93.3-1.2-259.7-0.6-350.6c0.5-64.5,8-153.7,41.5-212.5
		c36.1-63.4,101.6-115.4,194.6-154.5c52.3-22,112.9-40.2,143.2-37.4c4.9,2.8,9.9,5.9,14.8,9.3c54.4,37.9,81.9,98.4,81.9,179.8V595.3
		z"/>
	<path d="M1241.1,295.9c-56-16.4-122.6,18.4-178.3,93.1v0c-15.2,20.4-29.3,43.5-41.9,68.6c-14.2,28.5-26.2,59.2-35.5,91.1
		c-21.7,74-27.6,148.2-17,211c0,0-0.1,0-0.1,0.1l0.1,0.2c0.9,5.3,1.9,10.5,3,15.5c14.7,66.7,47.6,110.8,92.7,124
		c9.3,2.7,18.8,4.1,28.5,4.1c37.6,0,77.9-20,116.4-58.3c47.9-47.7,87.2-118.1,110.8-198.4C1368.6,480.3,1333.3,322.9,1241.1,295.9z
		 M992,550.5c9.2-31.5,21-61.8,35.1-89.9c12.4-24.7,26.2-47.4,41.2-67.5v0c18-24.2,37.2-44.1,56.7-59.3
		c9.6,61.1,3.5,133.3-17.3,204.4c-27.1,92.5-76.5,172.7-133,216.7C965.1,693.8,971,622.1,992,550.5z M1313.2,644.7
		c-23.2,79.2-61.9,148.6-109,195.4c-46.5,46.4-95.6,65-138.1,52.5c-42.5-12.5-73.7-54.6-87.8-118.8c-0.8-3.7-1.6-7.5-2.3-11.3
		c58.9-44.4,110.4-127.1,138.4-222.5c21.5-73.5,27.5-148.2,16.9-211c27.4-19.8,55.3-30.3,81.5-30.3c9,0,17.8,1.2,26.3,3.7
		C1327.7,328.5,1360.9,482,1313.2,644.7z"/>
</g>
<g>
	<path class="pair" d="M842.1,59.5l41.7-14.6l-73.1-12c-1.4-0.2-2.7-0.2-4,0.2L753,48.5L834.2,60c0.7,0.1,1.4,0.2,2,0.3
		C838.2,60.4,840.2,60.1,842.1,59.5z"/>
	<path class="pair" d="M739.7,60.8l96.6,13.7c3.2,0.6,6.3,0.4,9.2-0.6l50.4-17.6l0,0c0-0.1-0.1-0.1-0.1-0.2c-1.7-2.8-3.1-5-4.3-6.6
		c-0.4,0.3-0.8,0.5-1.3,0.6l-45.6,16c-1.1,0.4-2.2,0.6-3.3,0.8c-0.3,0.1-0.7,0.1-1,0.1c-0.8,0.1-1.5,0.2-2.3,0.2
		c-0.2,0-0.4,0.1-0.6,0.1c-0.3,0-0.6,0-0.9,0c-0.2,0-0.4,0-0.7,0c-0.9-0.1-1.7-0.2-2.6-0.3L747,54.7c-0.6-0.1-1.2-0.3-1.7-0.6
		c-0.2-0.1-0.3-0.2-0.4-0.3c-0.2-0.1-0.5-0.3-0.7-0.4C742,56,740,59.2,739.7,60.8C739.6,60.8,739.7,60.8,739.7,60.8z"/>
</g>
</svg>
