<?xml version="1.0" encoding="utf-8"?>
<!-- Generator: Adobe Illustrator 21.0.0, SVG Export Plug-In . SVG Version: 6.00 Build 0)  -->
<svg version="1.1" id="Layer_1" xmlns="http://www.w3.org/2000/svg" xmlns:xlink="http://www.w3.org/1999/xlink" x="0px" y="0px"
	 viewBox="0 0 702 1417.3" style="enable-background:new 0 0 702 1417.3;" xml:space="preserve">
<g>
	<path d="M618.1,72c-50.4-38.2-123.9-58.4-212.7-58.4H295.6c-88.8,0-162.3,20.2-212.7,58.4c-46.7,35.4-72.4,86.2-72.4,142.9v965.5
		c0,67.5,24.1,120.6,71.7,157.7c55,42.8,142.3,64.6,259.3,64.6h17.9c117.1,0,204.3-21.7,259.3-64.6c47.6-37.1,71.7-90.1,71.7-157.7
		V214.9C690.5,158.1,664.8,107.4,618.1,72z M310,26.3h80.9c45.9,11.5,129.5,54.4,146.4,123.6c0.1,0.2,0.2,0.7,0.4,1.5
		c5.9,21.1,17,67.2,24.7,139.4l2.5,23.6c12.5,117,28,262.5,28.9,315.8c0.3,16,1,31.1,1.6,44.4c1.7,36.9,3.1,66-7.5,72.9
		c-5.4,3.5-14.7,1.8-28.2-5.1l-2.3-1.4c-62.3-37.5-133.8-57.2-206.9-57.2s-144.6,19.8-206.9,57.3l-2.1,1.3c-13.7,7-23,8.7-28.4,5.2
		c-10.7-6.9-9.3-36-7.5-72.9c0.6-13.3,1.3-28.4,1.6-44.4c0.9-53.2,16.4-198.7,28.9-315.6l2.5-23.8c7.7-72.2,18.8-118.3,24.7-139.4
		c0.2-0.8,0.4-1.3,0.4-1.5C180.5,80.6,264.2,37.8,310,26.3z M677.8,1180.3c0,139.1-107.1,209.6-318.4,209.6h-17.9
		c-211.3,0-318.4-70.5-318.4-209.6V214.9c0-53.5,23.3-99.4,67.4-132.8c47-35.6,115.5-54.8,198.6-55.8
		C240.5,44,172.8,85.8,157.5,148.3c0,0.2-0.2,0.6-0.4,1.3c-6,21.3-17.1,67.8-24.9,140.4l-2.5,23.8c-13.1,123.1-28,262.6-28.9,316.1
		c-0.3,15.9-1,30.9-1.6,44.2c-2,41.9-3.3,69.6,10.4,78.5c2.8,1.8,6.2,2.8,10.1,2.8c6.5,0,14.6-2.6,24.8-7.7l2.3-1.4
		c61.3-36.9,131.7-56.3,203.7-56.3s142.3,19.5,203.6,56.3l2.5,1.5c10,5.1,18.1,7.6,24.6,7.6c3.9,0,7.3-0.9,10.1-2.8
		c13.7-8.9,12.4-36.6,10.4-78.5c-0.6-13.3-1.3-28.3-1.6-44.2c-0.9-53.5-16.5-199.3-29-316.3l-2.5-23.6
		c-7.7-72.7-18.9-119.2-24.9-140.4c-0.2-0.7-0.3-1.1-0.4-1.3C528.2,85.8,460.4,44,411.8,26.3c83.1,0.9,151.7,20.2,198.6,55.8
		c44.1,33.4,67.4,79.4,67.4,132.8V1180.3z"/>
	<path d="M350.5,851.8c-62.5,0-121.2,24.3-165.3,68.4c-11.2,11.2-21,23.2-29.8,36.4V956l-6,10.1c-0.2,0.4-0.3,0.7-0.6,1l-0.8,1.6
		c-0.1,0.2-0.3,0.6-0.4,0.7l-0.9,1.6l-0.8,1l-0.6,1.4c-0.1,0.2-0.3,0.5-0.4,0.7c-0.2,0.3-0.4,0.6-0.5,0.9l-1,2.1l-0.3,0.3h-0.3
		l-0.4,1.1c-0.2,0.6-0.4,1-0.6,1.4l-0.5,1.1c-0.2,0.6-0.4,1-0.5,1.3l-0.7,1.2l-1.7,3.9l-0.5,0.7l-0.2,0.4c-0.2,0.6-0.4,1.2-0.5,1.4
		l-0.5,0.7l-0.2,0.4c-0.1,0.3-0.2,0.6-0.3,0.8c-0.1,0.3-0.3,0.6-0.3,0.9l-2.3,5.3l-0.3,1c0,0.1-0.1,0.2-0.1,0.3
		c-0.1,0.3-0.3,0.7-0.6,1.1l-0.4,1.1c-0.1,0.3-0.2,0.6-0.3,0.8c-0.1,0.3-0.2,0.6-0.4,1l-0.3,1.1c-0.1,0.2-0.2,0.4-0.2,0.6
		c-0.1,0.2-0.2,0.4-0.2,0.6l-1.5,3.8c-0.1,0.4-0.2,0.8-0.3,1.1c0,0.1,0,0.2-0.1,0.3l-0.2,0.2l-1.3,4.2c-0.1,0.3-0.2,0.6-0.3,0.8
		c0,0.2-0.1,0.3-0.2,0.6l-1.1,3.8c-0.2,0.4-0.5,1.2-0.5,2.1l-0.2,0.5c-0.2,0.7-0.5,1.4-0.5,2.3l-0.2,0.5
		c-3.5,12.8-5.8,25.6-6.9,39.2c-0.5,6.7-0.7,13.5-0.7,20.2c0,9.6,0.3,16.6,1.1,23.3v2.5l0.2,0.2c0,0.5,0.1,1.1,0.2,1.6v0.9l0.1,0.5
		c0.1,0.4,0.1,1,0.1,1.6l0.2,0.9c0,0.4,0.1,0.9,0.1,1.3c0,0.3,0.1,0.5,0.1,1l0.5,2.3v0.9l0.1,0.5c0.1,0.3,0.1,0.5,0.2,0.8
		c0.1,0.3,0.1,0.7,0.2,1l0,0.7c4.1,23.5,11.7,46.3,22.8,67.7l0.5,0.6c0.1,0.1,0.1,0.3,0.2,0.4c0.1,0.3,0.3,0.5,0.4,0.8l0.5,1.1
		c0.1,0.2,0.3,0.5,0.4,0.7c0.2,0.3,0.3,0.5,0.5,0.9l0.5,1l1.4,2.1c0.1,0.3,0.3,0.6,0.5,0.8c0.1,0.2,0.3,0.4,0.3,0.6l0.4,0.7v0.4
		l0.5,0.5c0.3,0.3,0.4,0.6,0.7,1.1l5.9,9.8v-0.4c8.8,13.3,18.6,25.2,29.8,36.4c44.2,44.2,102.9,68.6,165.3,68.6s121-24.4,165.3-68.6
		c44.1-44.1,68.4-102.8,68.4-165.3c0-62.5-24.3-121.2-68.4-165.3C471.7,876.1,413,851.8,350.5,851.8z M148.8,980.7v79.9h-24.1
		C127.8,1032.6,135.9,1005.8,148.8,980.7z M148.8,1190.3c-12.6-24.1-20.6-49.8-23.8-76.5h23.8V1190.3z M565.9,1157.4L565.9,1157.4
		c-3.9,11.6-8.7,22.7-14.1,32.9v-76.6h24.1C574,1128.9,570.7,1143.6,565.9,1157.4z M551.8,980.7c5.8,11.2,10.7,22.7,14.5,34.4
		c4.9,14.9,8.2,30.2,9.8,45.5h-24.3V980.7z M576.9,1066.9c0.4,5.6,0.8,12.3,0.8,18.5c0,6.7-0.3,13.5-1,21.7l-31.2,0v95.1
		c-9.6,15.7-21.1,30.5-34.3,43.9c-43.1,42.9-100.2,66.5-160.7,66.5c-60.8,0-117.8-23.6-160.7-66.5c-13-13.2-24.5-28-34.3-44.1v-94.9
		h-31.2c-0.7-8.3-1-15-1-21.7c0-6.2,0.4-12.7,0.8-18.5h31.4v-98.1c9.9-16.3,21.4-31.1,34.3-43.9c42.8-43,99.9-66.7,160.7-66.7
		c60.6,0,117.7,23.7,160.7,66.8c13.2,13.2,24.7,28,34.3,43.9v98.1H576.9z"/>
	<path d="M233.2,1050.7c-19.2,0-34.7,15.6-34.7,34.7c0,19.2,15.6,34.7,34.7,34.7s34.7-15.6,34.7-34.7
		C267.9,1066.3,252.3,1050.7,233.2,1050.7z"/>
	<path d="M467.8,1051c-19.1,0-34.7,15.6-34.7,34.7c0,19.1,15.6,34.7,34.7,34.7c19.2,0,34.7-15.6,34.7-34.7
		C502.5,1066.5,486.9,1051,467.8,1051z"/>
	<path d="M350.5,801.5c-156.7,0-284.2,127.5-284.2,284.2s127.5,284.2,284.2,284.2c156.7,0,284.2-127.5,284.2-284.2
		S507.2,801.5,350.5,801.5z M350.5,1363.5c-153.2,0-277.9-124.6-277.9-277.9s124.6-277.9,277.9-277.9s277.9,124.6,277.9,277.9
		S503.7,1363.5,350.5,1363.5z"/>
	<path d="M350.5,412.5L350.5,412.5c-8.1,0-14.7-6.6-14.7-14.7V286.2c0-8.1,6.6-14.7,14.7-14.7h0c8.1,0,14.7,6.6,14.7,14.7v111.5
		C365.2,405.9,358.6,412.5,350.5,412.5z"/>
</g>
</svg>
