<?xml version="1.0" encoding="utf-8"?>
<!-- Generator: Adobe Illustrator 23.0.3, SVG Export Plug-In . SVG Version: 6.00 Build 0)  -->
<svg version="1.1" id="Layer_1" xmlns="http://www.w3.org/2000/svg" xmlns:xlink="http://www.w3.org/1999/xlink" x="0px" y="0px"
	 viewBox="0 0 1417.3 1417.3" style="enable-background:new 0 0 1417.3 1417.3;" xml:space="preserve">
<g>
	<path d="M1134.2,263.7c-66.2-61.5-192-87.8-420.6-87.8S359.3,202.2,293,263.7C221,330.6,188.9,466,188.9,702.8S221,1075,293,1141.9
		c66.2,61.5,192,87.8,420.6,87.8s354.4-26.2,420.6-87.8c72-66.9,104.1-202.3,104.1-439.1S1206.2,330.6,1134.2,263.7z M1129.1,1136.5
		c-64.7,60.1-189,85.8-415.5,85.8s-350.8-25.6-415.5-85.8c-70.3-65.3-101.7-199.1-101.7-433.6s31.4-368.3,101.7-433.6
		c64.7-60.1,189-85.8,415.5-85.8s350.8,25.6,415.5,85.8c70.3,65.3,101.7,199.1,101.7,433.6S1199.4,1071.1,1129.1,1136.5z"/>
	<path d="M1120.8,278.2c-62.2-57.8-184-82.5-407.2-82.5s-345,24.7-407.2,82.5C238.8,341,208.6,472,208.6,702.8
		c0,230.9,30.2,361.8,97.8,424.7c62.2,57.8,184,82.5,407.2,82.5s345-24.7,407.2-82.5c67.7-62.9,97.8-193.8,97.8-424.7
		C1218.7,472,1188.5,341,1120.8,278.2z M1113.7,1119.9c-60.1,55.9-179.8,79.7-400.1,79.7s-339.9-23.8-400.1-79.7
		c-65.3-60.7-94.5-189.3-94.5-417s29.1-356.3,94.5-417c60.1-55.9,179.8-79.7,400.1-79.7s339.9,23.8,400.1,79.7
		c65.3,60.7,94.5,189.3,94.5,417S1179.1,1059.2,1113.7,1119.9z"/>
	<path d="M1231.6,151.6c-103.9-90.4-260.1-129-522.1-129s-418.2,38.6-522.1,129C69.8,253.8,15,431.1,15,709.5s54.8,455.7,172.4,558
		c103.9,90.4,260.1,129,522.1,129s418.2-38.6,522.1-129c117.6-102.3,172.4-279.6,172.4-558S1349.2,253.8,1231.6,151.6z
		 M1217.9,1251.7c-99.8,86.8-251.9,123.9-508.4,123.9s-408.6-37-508.4-123.9c-112.7-98-165.2-270.3-165.2-542.2
		s52.5-444.2,165.2-542.2C300.9,80.5,453,43.5,709.5,43.5s408.6,37,508.4,123.9c112.7,98,165.2,270.3,165.2,542.2
		S1330.6,1153.7,1217.9,1251.7z"/>
	<path d="M713.6,560.9c-78.3,0-142,63.7-142,142s63.7,142,142,142s142-63.7,142-142S791.9,560.9,713.6,560.9z M713.6,834.4
		c-72.5,0-131.5-59-131.5-131.5s59-131.5,131.5-131.5s131.5,59,131.5,131.5C845.2,775.4,786.2,834.4,713.6,834.4z"/>
	<circle cx="709.5" cy="1125.1" r="15.7"/>
	<path d="M713.6,635.7c-37,0-67.1,30.1-67.1,67.1s30.1,67.1,67.1,67.1s67.1-30.1,67.1-67.1C780.8,665.8,750.6,635.7,713.6,635.7z
		 M713.6,759.5c-31.2,0-56.7-25.4-56.7-56.7c0-31.2,25.4-56.7,56.7-56.7s56.7,25.4,56.7,56.7S744.9,759.5,713.6,759.5z"/>
	<circle cx="709.5" cy="548.9" r="6.8"/>
	<circle cx="709.5" cy="509.4" r="6.8"/>
	<circle cx="709.5" cy="470" r="6.8"/>
	<circle cx="709.5" cy="430.6" r="6.8"/>
	<circle cx="709.5" cy="391.2" r="6.8"/>
	<circle cx="709.5" cy="351.8" r="6.8"/>
	<ellipse cx="691.4" cy="530.5" rx="6.8" ry="6.8"/>
	<ellipse cx="687.2" cy="491.3" rx="6.8" ry="6.8"/>
	<ellipse cx="683.1" cy="452.2" rx="6.8" ry="6.8"/>
	<ellipse cx="679" cy="413" rx="6.8" ry="6.8"/>
	<ellipse cx="674.9" cy="373.8" rx="6.8" ry="6.8"/>
	<ellipse cx="677.6" cy="553.1" rx="6.8" ry="6.8"/>
	<ellipse cx="669.4" cy="514.5" rx="6.8" ry="6.8"/>
	<ellipse cx="661.2" cy="476" rx="6.8" ry="6.8"/>
	<ellipse cx="653" cy="437.5" rx="6.8" ry="6.8"/>
	<ellipse cx="644.8" cy="398.9" rx="6.8" ry="6.8"/>
	<ellipse cx="636.6" cy="360.4" rx="6.8" ry="6.8"/>
	<ellipse cx="656" cy="539" rx="6.8" ry="6.8"/>
	<ellipse cx="643.8" cy="501.5" rx="6.8" ry="6.8"/>
	<ellipse cx="631.7" cy="464" rx="6.8" ry="6.8"/>
	<ellipse cx="619.5" cy="426.5" rx="6.8" ry="6.8"/>
	<ellipse cx="607.3" cy="389" rx="6.8" ry="6.8"/>
	<ellipse cx="647.1" cy="563.8" rx="6.8" ry="6.8"/>
	<ellipse cx="631.2" cy="527.9" rx="6.8" ry="6.8"/>
	<ellipse cx="615.2" cy="491.9" rx="6.8" ry="6.8"/>
	<ellipse cx="599.1" cy="455.9" rx="6.8" ry="6.8"/>
	<ellipse cx="583.1" cy="419.9" rx="6.8" ry="6.8"/>
	<ellipse cx="567.1" cy="383.9" rx="6.8" ry="6.8"/>
	<ellipse cx="623.2" cy="554.5" rx="6.8" ry="6.8"/>
	<ellipse cx="603.5" cy="520.4" rx="6.8" ry="6.8"/>
	<ellipse cx="583.8" cy="486.2" rx="6.8" ry="6.8"/>
	<ellipse cx="564.1" cy="452.1" rx="6.8" ry="6.8"/>
	<ellipse cx="544.4" cy="418" rx="6.8" ry="6.8"/>
	<ellipse cx="619.8" cy="580.7" rx="6.8" ry="6.8"/>
	<ellipse cx="596.6" cy="548.8" rx="6.8" ry="6.8"/>
	<ellipse cx="573.5" cy="516.9" rx="6.8" ry="6.8"/>
	<ellipse cx="550.3" cy="485.1" rx="6.8" ry="6.8"/>
	<ellipse cx="527.1" cy="453.2" rx="6.8" ry="6.8"/>
	<ellipse cx="504" cy="421.3" rx="6.8" ry="6.8"/>
	<ellipse cx="594.2" cy="576.5" rx="6.8" ry="6.8"/>
	<ellipse cx="568" cy="547.3" rx="6.8" ry="6.8"/>
	<ellipse cx="541.6" cy="518" rx="6.8" ry="6.8"/>
	<ellipse cx="515.2" cy="488.7" rx="6.8" ry="6.8"/>
	<ellipse cx="488.9" cy="459.4" rx="6.8" ry="6.8"/>
	<ellipse cx="596.4" cy="602.9" rx="6.8" ry="6.8"/>
	<ellipse cx="567.1" cy="576.5" rx="6.8" ry="6.8"/>
	<ellipse cx="537.8" cy="550.1" rx="6.8" ry="6.8"/>
	<ellipse transform="matrix(0.7795 -0.6264 0.6264 0.7795 -215.9534 434.0231)" cx="508.6" cy="523.8" rx="6.8" ry="6.8"/>
	<ellipse cx="479.3" cy="497.4" rx="6.8" ry="6.8"/>
	<ellipse cx="450" cy="471.1" rx="6.8" ry="6.8"/>
	<ellipse cx="570.7" cy="604.1" rx="6.8" ry="6.8"/>
	<ellipse cx="538.8" cy="580.9" rx="6.8" ry="6.8"/>
	<ellipse transform="matrix(0.7071 -0.7071 0.7071 0.7071 -245.966 521.8346)" cx="506.9" cy="557.8" rx="6.8" ry="6.8"/>
	<ellipse cx="475" cy="534.7" rx="6.8" ry="6.8"/>
	<ellipse cx="443.2" cy="511.5" rx="6.8" ry="6.8"/>
	<ellipse cx="578.2" cy="629.4" rx="6.8" ry="6.8"/>
	<ellipse cx="544" cy="609.7" rx="6.8" ry="6.8"/>
	<ellipse cx="509.9" cy="590" rx="6.8" ry="6.8"/>
	<ellipse cx="475.8" cy="570.4" rx="6.8" ry="6.8"/>
	<ellipse cx="441.7" cy="550.6" rx="6.8" ry="6.8"/>
	<ellipse cx="407.6" cy="530.9" rx="6.8" ry="6.8"/>
	<ellipse cx="553.3" cy="636" rx="6.8" ry="6.8"/>
	<ellipse cx="517.3" cy="620" rx="6.8" ry="6.8"/>
	<ellipse cx="481.2" cy="603.9" rx="6.8" ry="6.8"/>
	<ellipse cx="445.2" cy="587.9" rx="6.8" ry="6.8"/>
	<ellipse cx="409.3" cy="571.9" rx="6.8" ry="6.8"/>
	<ellipse cx="565.9" cy="659.2" rx="6.8" ry="6.8"/>
	<ellipse cx="528.4" cy="647" rx="6.8" ry="6.8"/>
	<ellipse cx="490.9" cy="634.8" rx="6.8" ry="6.8"/>
	<ellipse cx="453.5" cy="622.6" rx="6.8" ry="6.8"/>
	<ellipse cx="416" cy="610.5" rx="6.8" ry="6.8"/>
	<ellipse cx="378.5" cy="598.3" rx="6.8" ry="6.8"/>
	<ellipse cx="542.9" cy="670.7" rx="6.8" ry="6.8"/>
	<ellipse cx="504.3" cy="662.6" rx="6.8" ry="6.8"/>
	<ellipse cx="465.8" cy="654.4" rx="6.8" ry="6.8"/>
	<ellipse cx="427.2" cy="646.3" rx="6.8" ry="6.8"/>
	<ellipse cx="388.7" cy="638" rx="6.8" ry="6.8"/>
	<ellipse cx="560.1" cy="690.9" rx="6.8" ry="6.8"/>
	<ellipse cx="520.8" cy="686.7" rx="6.8" ry="6.8"/>
	<ellipse cx="481.6" cy="682.6" rx="6.8" ry="6.8"/>
	<ellipse cx="442.5" cy="678.5" rx="6.8" ry="6.8"/>
	<ellipse cx="403.3" cy="674.4" rx="6.8" ry="6.8"/>
	<ellipse cx="364.1" cy="670.3" rx="6.8" ry="6.8"/>
	<circle cx="539.9" cy="707" r="6.8"/>
	<circle cx="500.5" cy="707" r="6.8"/>
	<circle cx="461.1" cy="707" r="6.8"/>
	<circle cx="421.7" cy="707" r="6.8"/>
	<circle cx="382.3" cy="707" r="6.8"/>
	<ellipse cx="560.9" cy="723.1" rx="6.8" ry="6.8"/>
	<ellipse cx="521.7" cy="727.2" rx="6.8" ry="6.8"/>
	<ellipse cx="482.5" cy="731.3" rx="6.8" ry="6.8"/>
	<ellipse cx="443.4" cy="735.4" rx="6.8" ry="6.8"/>
	<ellipse cx="404.2" cy="739.5" rx="6.8" ry="6.8"/>
	<ellipse cx="365" cy="743.7" rx="6.8" ry="6.8"/>
	<ellipse cx="544.6" cy="743" rx="6.8" ry="6.8"/>
	
		<ellipse transform="matrix(0.9988 -4.854375e-02 4.854375e-02 0.9988 -35.8675 25.4519)" cx="506.1" cy="751.2" rx="6.8" ry="6.8"/>
	<ellipse cx="467.5" cy="759.4" rx="6.8" ry="6.8"/>
	<ellipse cx="429" cy="767.6" rx="6.8" ry="6.8"/>
	<ellipse cx="390.4" cy="775.8" rx="6.8" ry="6.8"/>
	<ellipse cx="568.5" cy="754.4" rx="6.8" ry="6.8"/>
	<ellipse cx="531" cy="766.5" rx="6.8" ry="6.8"/>
	<ellipse cx="493.5" cy="778.8" rx="6.8" ry="6.8"/>
	<ellipse cx="456" cy="791" rx="6.8" ry="6.8"/>
	<ellipse cx="418.6" cy="803.1" rx="6.8" ry="6.8"/>
	<ellipse cx="381.1" cy="815.2" rx="6.8" ry="6.8"/>
	<ellipse cx="556.6" cy="777.3" rx="6.8" ry="6.8"/>
	<ellipse cx="520.5" cy="793.3" rx="6.8" ry="6.8"/>
	<ellipse cx="484.5" cy="809.3" rx="6.8" ry="6.8"/>
	<ellipse cx="448.6" cy="825.4" rx="6.8" ry="6.8"/>
	<ellipse cx="412.6" cy="841.4" rx="6.8" ry="6.8"/>
	<ellipse cx="582.3" cy="783.4" rx="6.8" ry="6.8"/>
	<ellipse cx="548.2" cy="803.1" rx="6.8" ry="6.8"/>
	<ellipse cx="514.1" cy="822.8" rx="6.8" ry="6.8"/>
	<ellipse cx="480" cy="842.5" rx="6.8" ry="6.8"/>
	<ellipse cx="445.8" cy="862.2" rx="6.8" ry="6.8"/>
	<ellipse cx="411.7" cy="881.9" rx="6.8" ry="6.8"/>
	<ellipse cx="575.5" cy="808.3" rx="6.8" ry="6.8"/>
	<ellipse cx="543.7" cy="831.4" rx="6.8" ry="6.8"/>
	<ellipse cx="511.8" cy="854.6" rx="6.8" ry="6.8"/>
	<ellipse cx="479.9" cy="877.8" rx="6.8" ry="6.8"/>
	<ellipse cx="448" cy="900.9" rx="6.8" ry="6.8"/>
	<ellipse cx="602" cy="809" rx="6.8" ry="6.8"/>
	<ellipse cx="572.6" cy="835.3" rx="6.8" ry="6.8"/>
	<ellipse cx="543.3" cy="861.7" rx="6.8" ry="6.8"/>
	<ellipse cx="514.1" cy="888.1" rx="6.8" ry="6.8"/>
	<ellipse cx="484.7" cy="914.4" rx="6.8" ry="6.8"/>
	<ellipse cx="455.5" cy="940.7" rx="6.8" ry="6.8"/>
	<ellipse cx="600.4" cy="834.7" rx="6.8" ry="6.8"/>
	<ellipse cx="574.1" cy="864" rx="6.8" ry="6.8"/>
	<ellipse cx="547.8" cy="893.2" rx="6.8" ry="6.8"/>
	<ellipse cx="521.3" cy="922.5" rx="6.8" ry="6.8"/>
	<ellipse cx="494.9" cy="951.8" rx="6.8" ry="6.8"/>
	<ellipse cx="626.5" cy="829.9" rx="6.8" ry="6.8"/>
	<ellipse cx="603.3" cy="861.7" rx="6.8" ry="6.8"/>
	<ellipse cx="580.1" cy="893.7" rx="6.8" ry="6.8"/>
	<ellipse cx="557" cy="925.5" rx="6.8" ry="6.8"/>
	<ellipse cx="533.8" cy="957.4" rx="6.8" ry="6.8"/>
	<ellipse cx="510.6" cy="989.2" rx="6.8" ry="6.8"/>
	<ellipse cx="630.3" cy="855.3" rx="6.8" ry="6.8"/>
	<ellipse cx="610.7" cy="889.5" rx="6.8" ry="6.8"/>
	<ellipse cx="591" cy="923.6" rx="6.8" ry="6.8"/>
	<ellipse cx="571.2" cy="957.7" rx="6.8" ry="6.8"/>
	<ellipse cx="551.5" cy="991.8" rx="6.8" ry="6.8"/>
	<ellipse cx="654.7" cy="845.2" rx="6.8" ry="6.8"/>
	<ellipse cx="638.7" cy="881.3" rx="6.8" ry="6.8"/>
	<ellipse cx="622.6" cy="917.2" rx="6.8" ry="6.8"/>
	<ellipse cx="606.6" cy="953.2" rx="6.8" ry="6.8"/>
	<ellipse cx="590.6" cy="989.2" rx="6.8" ry="6.8"/>
	<ellipse transform="matrix(0.4067 -0.9136 0.9136 0.4067 -595.7204 1133.1401)" cx="574.6" cy="1025.2" rx="6.8" ry="6.8"/>
	<ellipse cx="663.9" cy="869.3" rx="6.8" ry="6.8"/>
	<ellipse cx="651.7" cy="906.8" rx="6.8" ry="6.8"/>
	<ellipse cx="639.6" cy="944.3" rx="6.8" ry="6.8"/>
	<ellipse cx="627.4" cy="981.7" rx="6.8" ry="6.8"/>
	<ellipse cx="615.2" cy="1019.2" rx="6.8" ry="6.8"/>
	<ellipse cx="685.6" cy="854.3" rx="6.8" ry="6.8"/>
	<ellipse cx="677.4" cy="892.9" rx="6.8" ry="6.8"/>
	<ellipse cx="669.2" cy="931.4" rx="6.8" ry="6.8"/>
	<ellipse cx="661.2" cy="969.9" rx="6.8" ry="6.8"/>
	<ellipse cx="652.8" cy="1008.5" rx="6.8" ry="6.8"/>
	<ellipse transform="matrix(0.2079 -0.9781 0.9781 0.2079 -513.5902 1459.8688)" cx="644.6" cy="1047" rx="6.8" ry="6.8"/>
	<ellipse cx="699.5" cy="876" rx="6.8" ry="6.8"/>
	<ellipse cx="695.4" cy="915.2" rx="6.8" ry="6.8"/>
	<ellipse cx="691.3" cy="954.3" rx="6.8" ry="6.8"/>
	<ellipse cx="687.2" cy="993.6" rx="6.8" ry="6.8"/>
	<ellipse transform="matrix(0.1045 -0.9945 0.9945 0.1045 -415.4046 1604.2032)" cx="683.1" cy="1032.8" rx="6.8" ry="6.8"/>
	<circle cx="717.8" cy="856.8" r="6.8"/>
	<circle cx="717.8" cy="896.2" r="6.8"/>
	<circle cx="717.8" cy="935.6" r="6.8"/>
	<circle cx="717.8" cy="975.1" r="6.8"/>
	<circle cx="717.8" cy="1014.5" r="6.8"/>
	<circle cx="717.8" cy="1053.9" r="6.8"/>
	<ellipse cx="735.9" cy="875.2" rx="6.8" ry="6.8"/>
	<ellipse cx="740" cy="914.3" rx="6.8" ry="6.8"/>
	<ellipse cx="744.1" cy="953.5" rx="6.8" ry="6.8"/>
	<ellipse cx="748.3" cy="992.7" rx="6.8" ry="6.8"/>
	<ellipse transform="matrix(0.9945 -0.1045 0.1045 0.9945 -103.7167 84.2726)" cx="752.4" cy="1031.9" rx="6.8" ry="6.8"/>
	<ellipse cx="749.7" cy="852.6" rx="6.8" ry="6.8"/>
	<ellipse cx="757.9" cy="891.2" rx="6.8" ry="6.8"/>
	<ellipse cx="766" cy="929.7" rx="6.8" ry="6.8"/>
	<ellipse cx="774.2" cy="968.2" rx="6.8" ry="6.8"/>
	<ellipse cx="782.5" cy="1006.7" rx="6.8" ry="6.8"/>
	<ellipse transform="matrix(0.9781 -0.2079 0.2079 0.9781 -200.0414 187.2237)" cx="790.6" cy="1045.3" rx="6.8" ry="6.8"/>
	<ellipse cx="771.2" cy="866.9" rx="6.8" ry="6.8"/>
	<ellipse cx="783.4" cy="904.3" rx="6.8" ry="6.8"/>
	<ellipse cx="795.6" cy="941.8" rx="6.8" ry="6.8"/>
	<ellipse cx="807.8" cy="979.2" rx="6.8" ry="6.8"/>
	<ellipse cx="819.9" cy="1016.8" rx="6.8" ry="6.8"/>
	<ellipse cx="779.9" cy="841.8" rx="6.8" ry="6.8"/>
	<ellipse cx="796" cy="877.8" rx="6.8" ry="6.8"/>
	<ellipse cx="812" cy="913.8" rx="6.8" ry="6.8"/>
	<ellipse cx="828" cy="949.8" rx="6.8" ry="6.8"/>
	<ellipse cx="844.1" cy="985.8" rx="6.8" ry="6.8"/>
	<ellipse cx="860.1" cy="1021.8" rx="6.8" ry="6.8"/>
	<ellipse cx="804.1" cy="851.2" rx="6.8" ry="6.8"/>
	<ellipse cx="823.8" cy="885.3" rx="6.8" ry="6.8"/>
	<ellipse cx="843.5" cy="919.5" rx="6.8" ry="6.8"/>
	<ellipse cx="863.2" cy="953.6" rx="6.8" ry="6.8"/>
	<ellipse cx="882.9" cy="987.7" rx="6.8" ry="6.8"/>
	<ellipse cx="807.5" cy="825" rx="6.8" ry="6.8"/>
	<ellipse cx="830.7" cy="856.8" rx="6.8" ry="6.8"/>
	<ellipse cx="853.8" cy="888.8" rx="6.8" ry="6.8"/>
	<ellipse cx="877" cy="920.6" rx="6.8" ry="6.8"/>
	<ellipse cx="900.1" cy="952.5" rx="6.8" ry="6.8"/>
	<ellipse cx="923.3" cy="984.4" rx="6.8" ry="6.8"/>
	<ellipse cx="832.9" cy="829.2" rx="6.8" ry="6.8"/>
	<ellipse cx="859.2" cy="858.4" rx="6.8" ry="6.8"/>
	<ellipse cx="885.7" cy="887.7" rx="6.8" ry="6.8"/>
	<ellipse cx="911.9" cy="917" rx="6.8" ry="6.8"/>
	<ellipse cx="938.3" cy="946.3" rx="6.8" ry="6.8"/>
	<ellipse cx="830.7" cy="802.9" rx="6.8" ry="6.8"/>
	<ellipse cx="860.1" cy="829.2" rx="6.8" ry="6.8"/>
	<ellipse cx="889.3" cy="855.5" rx="6.8" ry="6.8"/>
	<ellipse cx="918.6" cy="881.9" rx="6.8" ry="6.8"/>
	<ellipse cx="947.9" cy="908.3" rx="6.8" ry="6.8"/>
	<ellipse cx="977.2" cy="934.6" rx="6.8" ry="6.8"/>
	<ellipse cx="856.6" cy="801.6" rx="6.8" ry="6.8"/>
	<ellipse cx="888.5" cy="824.8" rx="6.8" ry="6.8"/>
	<ellipse cx="920.3" cy="848" rx="6.8" ry="6.8"/>
	<ellipse cx="952.2" cy="871.1" rx="6.8" ry="6.8"/>
	<ellipse cx="984.1" cy="894.2" rx="6.8" ry="6.8"/>
	<ellipse cx="849.1" cy="776.3" rx="6.8" ry="6.8"/>
	<ellipse cx="883.2" cy="796" rx="6.8" ry="6.8"/>
	<ellipse cx="917.3" cy="815.7" rx="6.8" ry="6.8"/>
	<ellipse cx="951.4" cy="835.4" rx="6.8" ry="6.8"/>
	<ellipse cx="985.6" cy="855.1" rx="6.8" ry="6.8"/>
	<ellipse cx="1019.7" cy="874.8" rx="6.8" ry="6.8"/>
	<ellipse cx="873.9" cy="769.7" rx="6.8" ry="6.8"/>
	<ellipse cx="909.9" cy="785.7" rx="6.8" ry="6.8"/>
	<ellipse cx="945.9" cy="801.8" rx="6.8" ry="6.8"/>
	<ellipse cx="981.9" cy="817.8" rx="6.8" ry="6.8"/>
	<ellipse transform="matrix(0.5478 -0.8366 0.8366 0.5478 -237.2891 1228.6206)" cx="1017.9" cy="833.8" rx="6.8" ry="6.8"/>
	<ellipse cx="861.4" cy="746.4" rx="6.8" ry="6.8"/>
	<ellipse cx="898.9" cy="758.7" rx="6.8" ry="6.8"/>
	<ellipse cx="936.4" cy="770.8" rx="6.8" ry="6.8"/>
	<ellipse cx="973.8" cy="783" rx="6.8" ry="6.8"/>
	<ellipse cx="1011.3" cy="795.1" rx="6.8" ry="6.8"/>
	<ellipse transform="matrix(0.309 -0.9511 0.9511 0.309 -43.1536 1555.3435)" cx="1048.8" cy="807.4" rx="6.8" ry="6.8"/>
	<ellipse cx="884.3" cy="734.9" rx="6.8" ry="6.8"/>
	<ellipse cx="922.9" cy="743.2" rx="6.8" ry="6.8"/>
	<ellipse cx="961.5" cy="751.2" rx="6.8" ry="6.8"/>
	<ellipse cx="1000" cy="759.6" rx="6.8" ry="6.8"/>
	<ellipse transform="matrix(0.2079 -0.9781 0.9781 0.2079 71.6989 1623.9128)" cx="1038.5" cy="767.7" rx="6.8" ry="6.8"/>
	<ellipse cx="867.1" cy="714.8" rx="6.8" ry="6.8"/>
	<ellipse cx="906.4" cy="719" rx="6.8" ry="6.8"/>
	<ellipse cx="945.6" cy="723.1" rx="6.8" ry="6.8"/>
	<ellipse cx="984.7" cy="727.2" rx="6.8" ry="6.8"/>
	<ellipse transform="matrix(0.2625 -0.9649 0.9649 0.2625 49.545 1527.3606)" cx="1023.9" cy="731.3" rx="6.8" ry="6.8"/>
	<ellipse transform="matrix(0.1045 -0.9945 0.9945 0.1045 220.6391 1715.7855)" cx="1063.1" cy="735.4" rx="6.8" ry="6.8"/>
	<circle cx="887.3" cy="698.7" r="6.8"/>
	<circle cx="926.7" cy="698.7" r="6.8"/>
	<circle cx="966.1" cy="698.7" r="6.8"/>
	<circle cx="1005.5" cy="698.7" r="6.8"/>
	<circle cx="1044.9" cy="698.7" r="6.8"/>
	<ellipse cx="866.4" cy="682.6" rx="6.8" ry="6.8"/>
	<ellipse cx="905.5" cy="678.5" rx="6.8" ry="6.8"/>
	<ellipse cx="944.7" cy="674.4" rx="6.8" ry="6.8"/>
	<ellipse cx="983.9" cy="670.3" rx="6.8" ry="6.8"/>
	
		<ellipse transform="matrix(5.615166e-02 -0.9984 0.9984 5.615166e-02 300.4474 1650.255)" cx="1023.1" cy="666.2" rx="6.8" ry="6.8"/>
	<ellipse transform="matrix(0.9945 -0.1045 0.1045 0.9945 -63.3664 114.6328)" cx="1062.3" cy="662" rx="6.8" ry="6.8"/>
	<ellipse cx="882.7" cy="662.7" rx="6.8" ry="6.8"/>
	<ellipse cx="921.1" cy="654.5" rx="6.8" ry="6.8"/>
	<ellipse cx="959.7" cy="646.3" rx="6.8" ry="6.8"/>
	<ellipse cx="998.3" cy="638.1" rx="6.8" ry="6.8"/>
	<ellipse transform="matrix(0.9781 -0.2079 0.2079 0.9781 -108.3061 229.3132)" cx="1036.7" cy="629.9" rx="6.8" ry="6.8"/>
	<ellipse cx="858.8" cy="651.3" rx="6.8" ry="6.8"/>
	<ellipse cx="896.3" cy="639.2" rx="6.8" ry="6.8"/>
	<ellipse cx="933.8" cy="627" rx="6.8" ry="6.8"/>
	<ellipse cx="971.2" cy="614.9" rx="6.8" ry="6.8"/>
	<ellipse cx="1008.7" cy="602.6" rx="6.8" ry="6.8"/>
	<ellipse transform="matrix(0.9511 -0.309 0.309 0.9511 -131.2446 352.1631)" cx="1046.2" cy="590.4" rx="6.8" ry="6.8"/>
	<ellipse cx="870.5" cy="628.4" rx="6.8" ry="6.8"/>
	<ellipse cx="906.5" cy="612.4" rx="6.8" ry="6.8"/>
	<ellipse cx="942.6" cy="596.4" rx="6.8" ry="6.8"/>
	<ellipse cx="978.5" cy="580.3" rx="6.8" ry="6.8"/>
	<ellipse cx="1014.5" cy="564.3" rx="6.8" ry="6.8"/>
	<ellipse cx="844.9" cy="622.3" rx="6.8" ry="6.8"/>
	<ellipse cx="879.1" cy="602.5" rx="6.8" ry="6.8"/>
	<ellipse cx="913.2" cy="582.9" rx="6.8" ry="6.8"/>
	<ellipse cx="947.3" cy="563.2" rx="6.8" ry="6.8"/>
	<ellipse cx="981.4" cy="543.5" rx="6.8" ry="6.8"/>
	<ellipse cx="1015.5" cy="523.8" rx="6.8" ry="6.8"/>
	<ellipse cx="851.7" cy="597.4" rx="6.8" ry="6.8"/>
	<ellipse cx="883.6" cy="574.2" rx="6.8" ry="6.8"/>
	<ellipse cx="915.5" cy="551.1" rx="6.8" ry="6.8"/>
	<ellipse cx="947.4" cy="527.8" rx="6.8" ry="6.8"/>
	<ellipse cx="979.2" cy="504.8" rx="6.8" ry="6.8"/>
	<ellipse cx="825.2" cy="596.7" rx="6.8" ry="6.8"/>
	<ellipse cx="854.6" cy="570.4" rx="6.8" ry="6.8"/>
	<ellipse cx="883.8" cy="544" rx="6.8" ry="6.8"/>
	<ellipse cx="913.1" cy="517.6" rx="6.8" ry="6.8"/>
	<ellipse cx="942.4" cy="491.3" rx="6.8" ry="6.8"/>
	<ellipse cx="971.6" cy="464.9" rx="6.8" ry="6.8"/>
	<ellipse cx="826.7" cy="571" rx="6.8" ry="6.8"/>
	<ellipse cx="853.1" cy="541.7" rx="6.8" ry="6.8"/>
	<ellipse cx="879.4" cy="512.5" rx="6.8" ry="6.8"/>
	<ellipse cx="905.9" cy="483.2" rx="6.8" ry="6.8"/>
	<ellipse cx="932.2" cy="454" rx="6.8" ry="6.8"/>
	<ellipse cx="800.8" cy="575.8" rx="6.8" ry="6.8"/>
	<ellipse cx="824" cy="544" rx="6.8" ry="6.8"/>
	<ellipse cx="847.1" cy="512.1" rx="6.8" ry="6.8"/>
	<ellipse cx="870.3" cy="480.2" rx="6.8" ry="6.8"/>
	<ellipse cx="893.4" cy="448.4" rx="6.8" ry="6.8"/>
	<ellipse cx="916.6" cy="416.4" rx="6.8" ry="6.8"/>
	<ellipse cx="796.9" cy="550.4" rx="6.8" ry="6.8"/>
	<ellipse cx="816.6" cy="516.2" rx="6.8" ry="6.8"/>
	<ellipse cx="836.3" cy="482.1" rx="6.8" ry="6.8"/>
	<ellipse cx="856" cy="448" rx="6.8" ry="6.8"/>
	<ellipse cx="875.7" cy="413.9" rx="6.8" ry="6.8"/>
	<ellipse cx="772.5" cy="560.5" rx="6.8" ry="6.8"/>
	<ellipse cx="788.5" cy="524.5" rx="6.8" ry="6.8"/>
	<ellipse cx="804.5" cy="488.6" rx="6.8" ry="6.8"/>
	<ellipse cx="820.5" cy="452.5" rx="6.8" ry="6.8"/>
	<ellipse cx="836.6" cy="416.5" rx="6.8" ry="6.8"/>
	<ellipse cx="852.6" cy="380.6" rx="6.8" ry="6.8"/>
	<ellipse cx="763.4" cy="536.3" rx="6.8" ry="6.8"/>
	<ellipse cx="775.6" cy="498.8" rx="6.8" ry="6.8"/>
	<ellipse cx="787.7" cy="461.4" rx="6.8" ry="6.8"/>
	<ellipse cx="799.9" cy="423.9" rx="6.8" ry="6.8"/>
	<ellipse cx="812.1" cy="386.4" rx="6.8" ry="6.8"/>
	<ellipse cx="741.6" cy="551.4" rx="6.8" ry="6.8"/>
	<ellipse cx="749.8" cy="512.8" rx="6.8" ry="6.8"/>
	<ellipse cx="758" cy="474.3" rx="6.8" ry="6.8"/>
	<ellipse cx="766.1" cy="435.7" rx="6.8" ry="6.8"/>
	<ellipse cx="774.4" cy="397.2" rx="6.8" ry="6.8"/>
	<ellipse cx="782.6" cy="358.7" rx="6.8" ry="6.8"/>
	<ellipse cx="727.7" cy="529.6" rx="6.8" ry="6.8"/>
	<ellipse cx="731.8" cy="490.5" rx="6.8" ry="6.8"/>
	<ellipse cx="735.9" cy="451.3" rx="6.8" ry="6.8"/>
	<ellipse cx="740" cy="412.1" rx="6.8" ry="6.8"/>
	<ellipse cx="744.1" cy="372.9" rx="6.8" ry="6.8"/>
</g>
</svg>
