<?xml version="1.0" encoding="utf-8"?>
<!-- Generator: Adobe Illustrator 23.0.3, SVG Export Plug-In . SVG Version: 6.00 Build 0)  -->
<svg version="1.1" id="Layer_1" xmlns="http://www.w3.org/2000/svg" xmlns:xlink="http://www.w3.org/1999/xlink" x="0px" y="0px"
	 viewBox="0 0 1417.3 1417.3" style="enable-background:new 0 0 1417.3 1417.3;" xml:space="preserve">
<style type="text/css">
	.st0{fill-rule:evenodd;clip-rule:evenodd;fill:#231F20;}
	.st1{fill:none;stroke:#231F20;stroke-width:4;stroke-miterlimit:22.9256;}
	.st2{fill-rule:evenodd;clip-rule:evenodd;fill:#FFFFFF;}
	.st3{fill-rule:evenodd;clip-rule:evenodd;fill:#D1E187;}
	.st4{fill-rule:evenodd;clip-rule:evenodd;fill:#00ADEE;}
	.st5{fill-rule:evenodd;clip-rule:evenodd;fill:#A5CD39;}
</style>
<path class="st0" d="M1229.4,413.2l81.8,34.3l-7.3-70.3L1229.4,413.2z M1362.5,328.3c-6.2,1.2-38.4,27.5-42.3,32.4l7,100.7
	c18.6,0.6,91,29.8,104.2,27.3c10-2,13.1-37.3,10-53.1l-2.6-13.1c-2.6-13-28.4-7.8-41.2-36.2c14,6.6,23.2,26.1,45.2,21.8l9.9-1.9
	c24.1-4.7,34.6-7,24.3-23c-22.1-34.2,1.7-17-36.4-22.7c-14.3-2.1-26.4-7.5-39.7-13C1395.1,344.9,1364.1,328,1362.5,328.3
	 M1487.6,399.9l-39.5,17.2c10,50.8-4.5,47.1-5.5,76.1c12.2,0.4,21.7,6,34.8,3.4c8.1-1.6,17.1-14.7,17.7-18.5l-23.2-24.1l32.8,18.1
	l15.6-31.1L1487.6,399.9z M1043.6,439c-5.9,0.4-8.8,0.9-16.8,2.9c-11.2,2.2-30.4,18.9-28.9,26.1c4.5,23,80.8,50.8,98.4,48.9
	l13.2-70.8C1086.9,438.8,1064.9,436.6,1043.6,439 M970,376.9c-14.6,1.8-29,27-25.7,43.7l1.3,6.6c3.5,17.7,17.3,23.2,29.4,28.3
	c-3.9-48.1,38.3-67.5,50.8-80.1L970,376.9z M1052.7,374.6c0,0,67.7-8.8,79.1,4.1c11.3,13,12.7,16.4,12.7,16.4s-40.2-10.6-73.4-7.2
	c-33.2,3.4-41.5,5.8-41.5,5.8L1052.7,374.6z M1343.5,127.5l-6.6,1.3c-37.6,7.4-113.7,97.2-141.2,124.6c-24.4,24.3-52.9,34.5-79.2,55
	c-28.9,22.5-48.4,27.8-80.7,54.9l-68.4,1.6c-20.1,3.9-35.4,27-36.1,44.5c-39.3,1.8-78.6,3.7-118,5.5c-4.1,0.2-4.1,11.7-0.1,11.8
	l117.7-6.1l0.2,2.6l1.9,9.8c3.9,20.1,27,35,44.5,35.6c14.2,50.1,90.5,49,130.6,85.5c42.9,39.1,86.3,53,131.8,83.7
	c46.2,31.2,78.3,64.8,121.7,98.9c41.7,32.7,66.2,87.1,103.1,126.5c39.4,42.1,68.7,75.3,120.1,101.1c6.4,3.2,51.8,42.6,60.3,50.3
	c15.4,14,45.9,31.7,64.4,44.1c51.8,34.8,76.4,52.7,123.4,96.3c14.2,13.1,105.4,117,113.3,115.5c26.1-5.1-69.1-95.9-79.5-106.4
	c-32-32.2-70.5-70.2-107.4-94.6c-40.2-26.7-81.8-47.6-117.2-80.1c-38.3-35.2-75.1-51.9-113.2-85.9c-38.3-34.2-64.3-67.5-96.9-110.2
	c-18.7-24.5-22.8-38.5-45.8-59c-17.5-15.6-36.4-31.7-54.6-46c-41.8-32.9-63.5-60.3-114.2-84.5c-32.9-15.6-94.9-53.8-115.2-80.3
	l16.4-82.3c-18.4-1.2-47.6-11.6-73.3-8.3c-24.9,3.3-34.7,8.3-52.7,26.2c-4.6-26.7,10.5-46.4,37.6-51.7l16.4-3.2
	c82-16.1,173.3,23,228.6,50c36.8,18,179.1,64.3,228.3,54.6l13.1-2.6c12.1-2.4,15.6-4.8,21.7-11.1l-42.7,8.4c1-15,20.2-25,27.1-38.7
	c3.2-6.4,5.6-16.7,10-21.8c8.4-9.8,12.7-5.4,18.7-19.1l-21.5,11.5c-12.2-15.1-48.4-55.6-52.9-78.3c-4.3-22,15.2-31.2,21.8-45.2
	c-20.3,9.1-31.8,36.9-33.6,37.3c-24.4,4.8-99.8-21.9-102.9-37.8l-0.6-3.3c-3.9-20,0.2-31.2,0.8-47.9l-4-0.5l-4.7,60.2
	c-24.4,19.8-109.5,76-147.2,83.4c-7.6,1.5-30.9-12.8-49.8-10.7c-10.1-35.6-55.2-36.9-94.4-29.2c2.1-4.5,77.6-49.8,89-57
	c40.9-25.9,48-32,79.6-63.3c24.6-24.4,43.8-47.4,67.8-71.3c38.6-38.5,58.4-27.6,100.8-17.7c68.3,15.9,134.3,30.8,200.6,49.2
	c47.5,13.2,179.8,21.4,208.6,41.6c42,29.6,53,166.4,77.8,232c28.3,74.7,57.8,148.9,85.1,225.4c16.5,46.3,26.9,59.6,58.2,87.3
	c33.8,29.8,36.1,43.2,57.8,87.8c30,61.9,84.1,117.6,124.3,167.2l15.7-6.6c-13.2-27-76.1-88.9-99.6-127.4
	c-38.3-62.7-39.9-93-93.4-140.9c-37-33.2-58.4-102.7-78.7-158.6c-20.3-56.3-44-122.3-67.7-179.2c-27.2-65.5-10.1-139-57.1-190.8
	c-31.3-34.5-108.9-34.4-159.8-42C1615.6,190.5,1375.5,121.2,1343.5,127.5"/>
<line class="st1" x1="234.7" y1="896.8" x2="234.6" y2="897.3"/>
<line class="st1" x1="111.5" y1="773.7" x2="111.1" y2="773.8"/>
<line class="st1" x1="816.8" y1="773.7" x2="817.2" y2="773.8"/>
<line class="st1" x1="234.7" y1="191.6" x2="234.6" y2="191.1"/>
<line class="st1" x1="464.2" y1="168.4" x2="464.2" y2="167.9"/>
<line class="st1" x1="693.7" y1="191.6" x2="693.7" y2="191.1"/>
<line class="st1" x1="816.8" y1="314.7" x2="817.2" y2="314.6"/>
<line class="st1" x1="111.5" y1="314.7" x2="111.1" y2="314.6"/>
<line class="st1" x1="693.7" y1="896.8" x2="693.7" y2="897.3"/>
<path class="st1" d="M817.2,773.8c31-151.5,31-307.8,0-459.3"/>
<path class="st1" d="M816.8,773.8c31-151.5,31-307.6,0-459.1"/>
<path class="st1" d="M814.3,773.2c30.9-151.1,30.9-306.9,0-458"/>
<path class="st1" d="M740,519.4c-0.2-6.4-0.4-12.8-0.6-19.2"/>
<path class="st1" d="M739.3,590.2c0.3-6.9,0.5-13.8,0.7-20.7"/>
<path class="st1" d="M740,569.4c0.4-16.7,0.4-33.4,0-50.1"/>
<path class="st1" d="M693.8,191.2c-75.6-15.4-152.5-23.2-229.7-23.2"/>
<path class="st1" d="M693.7,191.6c-75.6-15.4-152.5-23.2-229.6-23.2"/>
<path class="st1" d="M111.1,773.8c12.7,62.2,61.3,110.7,123.4,123.4"/>
<path class="st1" d="M111.5,773.8c12.7,62,61.1,110.4,123.1,123.1"/>
<path class="st1" d="M230.7,788.3c7,5.4,15.2,9.2,23.9,10.9"/>
<path class="st1" d="M223.9,783.2c0.3,0.3,6.4,4.8,6.8,5.1"/>
<path class="st1" d="M326.1,697.2c0-3.8-3.1-6.9-6.9-6.9c-3.8,0-6.9,3.1-6.9,6.9c0,3.8,3.1,6.9,6.9,6.9
	C323,704.1,326.1,701.1,326.1,697.2z"/>
<path class="st1" d="M337.8,731.2c0-3.8-3.1-6.9-6.9-6.9c-3.8,0-6.9,3.1-6.9,6.9c0,3.8,3.1,6.9,6.9,6.9
	C334.7,738.1,337.8,735,337.8,731.2z"/>
<path class="st1" d="M293.9,690.3c0-3.8-3.1-6.9-6.9-6.9c-3.8,0-6.9,3.1-6.9,6.9c0,3.8,3.1,6.9,6.9,6.9
	C290.9,697.2,293.9,694.1,293.9,690.3z"/>
<path class="st1" d="M350.8,661.2c0-3.8-3.1-6.9-6.9-6.9c-3.8,0-6.9,3.1-6.9,6.9c0,3.8,3.1,6.9,6.9,6.9
	C347.7,668.1,350.8,665,350.8,661.2z"/>
<path class="st1" d="M336.5,592.3c0-3.8-3.1-6.9-6.9-6.9c-3.8,0-6.9,3.1-6.9,6.9c0,3.8,3.1,6.9,6.9,6.9
	C333.4,599.2,336.5,596.1,336.5,592.3z"/>
<path class="st1" d="M324.6,626.1c0-3.8-3.1-6.9-6.9-6.9c-3.8,0-6.9,3.1-6.9,6.9c0,3.8,3.1,6.9,6.9,6.9
	C321.6,633,324.6,629.9,324.6,626.1z"/>
<path class="st1" d="M321.3,661.7c0-3.8-3.1-6.9-6.9-6.9c-3.8,0-6.9,3.1-6.9,6.9c0,3.8,3.1,6.9,6.9,6.9
	C318.2,668.7,321.3,665.6,321.3,661.7z"/>
<path class="st1" d="M328.6,555.9c0-3.8-3.1-6.9-6.9-6.9c-3.8,0-6.9,3.1-6.9,6.9c0,3.8,3.1,6.9,6.9,6.9
	C325.5,562.8,328.6,559.7,328.6,555.9z"/>
<path class="st1" d="M308.4,585.4c0-3.8-3.1-6.9-6.9-6.9c-3.8,0-6.9,3.1-6.9,6.9c0,3.8,3.1,6.9,6.9,6.9
	C305.3,592.3,308.4,589.2,308.4,585.4L308.4,585.4z"/>
<path class="st1" d="M295.9,619c0-3.8-3.1-6.9-6.9-6.9c-3.8,0-6.9,3.1-6.9,6.9c0,3.8,3.1,6.9,6.9,6.9
	C292.8,625.9,295.9,622.8,295.9,619z"/>
<path class="st1" d="M291.5,654.5c0-3.8-3.1-6.9-6.9-6.9c-3.8,0-6.9,3.1-6.9,6.9c0,3.8,3.1,6.9,6.9,6.9
	C288.4,661.4,291.5,658.3,291.5,654.5z"/>
<path class="st1" d="M282.6,571.1c0-3.8-3.1-6.9-6.9-6.9c-3.8,0-6.9,3.1-6.9,6.9c0,3.8,3.1,6.9,6.9,6.9
	C279.5,578,282.6,574.9,282.6,571.1z"/>
<path class="st1" d="M269,604.3c0-3.8-3.1-6.9-6.9-6.9c-3.8,0-6.9,3.1-6.9,6.9c0,3.8,3.1,6.9,6.9,6.9C266,611.2,269,608.1,269,604.3
	z"/>
<path class="st1" d="M262.2,639.5c0-3.8-3.1-6.9-6.9-6.9c-3.8,0-6.9,3.1-6.9,6.9c0,3.8,3.1,6.9,6.9,6.9
	C259.1,646.4,262.2,643.3,262.2,639.5z"/>
<path class="st1" d="M260.4,549.9c0-3.8-3.1-6.9-6.9-6.9c-3.8,0-6.9,3.1-6.9,6.9c0,3.8,3.1,6.9,6.9,6.9
	C257.3,556.8,260.4,553.8,260.4,549.9z"/>
<path class="st1" d="M244.6,582.2c0-3.8-3.1-6.9-6.9-6.9c-3.8,0-6.9,3.1-6.9,6.9c0,3.8,3.1,6.9,6.9,6.9
	C241.5,589.1,244.6,586,244.6,582.2z"/>
<path class="st1" d="M445.4,684.8c0-3.8-3.1-6.9-6.9-6.9c-3.8,0-6.9,3.1-6.9,6.9c0,3.8,3.1,6.9,6.9,6.9
	C442.3,691.7,445.4,688.6,445.4,684.8z"/>
<path class="st1" d="M468.8,712c0-3.8-3.1-6.9-6.9-6.9c-3.8,0-6.9,3.1-6.9,6.9c0,3.8,3.1,6.9,6.9,6.9
	C465.7,718.9,468.8,715.8,468.8,712z"/>
<path class="st1" d="M409.9,673.4c0-3.8-3.1-6.9-6.9-6.9c-3.8,0-6.9,3.1-6.9,6.9c0,3.8,3.1,6.9,6.9,6.9
	C406.8,680.3,409.9,677.2,409.9,673.4z"/>
<path class="st1" d="M425.4,705.7c0-3.8-3.1-6.9-6.9-6.9c-3.8,0-6.9,3.1-6.9,6.9c0,3.8,3.1,6.9,6.9,6.9
	C422.3,712.5,425.4,709.5,425.4,705.7z"/>
<path class="st1" d="M448.2,733.3c0-3.8-3.1-6.9-6.9-6.9c-3.8,0-6.9,3.1-6.9,6.9c0,3.8,3.1,6.9,6.9,6.9
	C445.2,740.1,448.2,737.1,448.2,733.3z"/>
<path class="st1" d="M385.2,688.3c0-3.8-3.1-6.9-6.9-6.9c-3.8,0-6.9,3.1-6.9,6.9c0,3.8,3.1,6.9,6.9,6.9
	C382.1,695.2,385.2,692.2,385.2,688.3z"/>
<path class="st1" d="M400.1,720.9c0-3.8-3.1-6.9-6.9-6.9c-3.8,0-6.9,3.1-6.9,6.9c0,3.8,3.1,6.9,6.9,6.9
	C397,727.8,400.1,724.7,400.1,720.9z"/>
<path class="st1" d="M422.1,749.2c0-3.8-3.1-6.9-6.9-6.9c-3.8,0-6.9,3.1-6.9,6.9c0,3.8,3.1,6.9,6.9,6.9
	C419,756.1,422.1,753,422.1,749.2z"/>
<path class="st1" d="M449.1,772.7c0-3.8-3.1-6.9-6.9-6.9c-3.8,0-6.9,3.1-6.9,6.9c0,3.8,3.1,6.9,6.9,6.9
	C446,779.6,449.1,776.6,449.1,772.7z"/>
<path class="st1" d="M356.8,696.5c0-3.8-3.1-6.9-6.9-6.9c-3.8,0-6.9,3.1-6.9,6.9c0,3.8,3.1,6.9,6.9,6.9
	C353.7,703.4,356.8,700.3,356.8,696.5z"/>
<path class="st1" d="M370.7,729.5c0-3.8-3.1-6.9-6.9-6.9c-3.8,0-6.9,3.1-6.9,6.9c0,3.8,3.1,6.9,6.9,6.9
	C367.6,736.4,370.7,733.3,370.7,729.5z"/>
<path class="st1" d="M390.7,759.3c0-3.8-3.1-6.9-6.9-6.9c-3.8,0-6.9,3.1-6.9,6.9c0,3.8,3.1,6.9,6.9,6.9
	C387.6,766.2,390.7,763.1,390.7,759.3z"/>
<path class="st1" d="M458.9,659.9c0-3.8-3.1-6.9-6.9-6.9c-3.8,0-6.9,3.1-6.9,6.9c0,3.8,3.1,6.9,6.9,6.9
	C455.8,666.8,458.9,663.8,458.9,659.9z"/>
<path class="st1" d="M429.3,652.8c0-3.8-3.1-6.9-6.9-6.9c-3.8,0-6.9,3.1-6.9,6.9c0,3.8,3.1,6.9,6.9,6.9
	C426.2,659.7,429.3,656.6,429.3,652.8z"/>
<path class="st1" d="M402.6,638.3c0-3.8-3.1-6.9-6.9-6.9c-3.8,0-6.9,3.1-6.9,6.9c0,3.8,3.1,6.9,6.9,6.9
	C399.5,645.2,402.6,642.1,402.6,638.3z"/>
<path class="st1" d="M380.6,617.4c0-3.8-3.1-6.9-6.9-6.9c-3.8,0-6.9,3.1-6.9,6.9c0,3.8,3.1,6.9,6.9,6.9
	C377.5,624.3,380.6,621.2,380.6,617.4z"/>
<path class="st1" d="M378.6,653.2c0-3.8-3.1-6.9-6.9-6.9s-6.9,3.1-6.9,6.9c0,3.8,3.1,6.9,6.9,6.9S378.6,657,378.6,653.2z"/>
<path class="st1" d="M364.7,591.5c0-3.8-3.1-6.9-6.9-6.9c-3.8,0-6.9,3.1-6.9,6.9c0,3.8,3.1,6.9,6.9,6.9
	C361.6,598.4,364.7,595.3,364.7,591.5z"/>
<path class="st1" d="M353.5,625.5c0-3.8-3.1-6.9-6.9-6.9c-3.8,0-6.9,3.1-6.9,6.9c0,3.8,3.1,6.9,6.9,6.9
	C350.4,632.4,353.5,629.3,353.5,625.5z"/>
<path class="st1" d="M356.1,562.4c0-3.8-3.1-6.9-6.9-6.9c-3.8,0-6.9,3.1-6.9,6.9c0,3.8,3.1,6.9,6.9,6.9
	C353,569.3,356.1,566.2,356.1,562.4z"/>
<path class="st1" d="M285.7,443.8c0-3.8-3.1-6.9-6.9-6.9c-3.8,0-6.9,3.1-6.9,6.9c0,3.8,3.1,6.9,6.9,6.9
	C282.7,450.7,285.7,447.6,285.7,443.8z"/>
<path class="st1" d="M256,463.8c0-3.8-3.1-6.9-6.9-6.9c-3.8,0-6.9,3.1-6.9,6.9c0,3.8,3.1,6.9,6.9,6.9
	C252.9,470.8,256,467.7,256,463.8z"/>
<path class="st1" d="M282,521.4c0-3.8-3.1-6.9-6.9-6.9c-3.8,0-6.9,3.1-6.9,6.9c0,3.8,3.1,6.9,6.9,6.9
	C278.9,528.3,282,525.2,282,521.4z"/>
<path class="st1" d="M294.4,473.3c0-3.8-3.1-6.9-6.9-6.9c-3.8,0-6.9,3.1-6.9,6.9c0,3.8,3.1,6.9,6.9,6.9
	C291.3,480.2,294.4,477.1,294.4,473.3z"/>
<path class="st1" d="M266.1,495.2c0-3.8-3.1-6.9-6.9-6.9c-3.8,0-6.9,3.1-6.9,6.9c0,3.8,3.1,6.9,6.9,6.9
	C263,502.1,266.1,499,266.1,495.2z"/>
<path class="st1" d="M242.5,522.3c0-3.8-3.1-6.9-6.9-6.9c-3.8,0-6.9,3.1-6.9,6.9c0,3.8,3.1,6.9,6.9,6.9
	C239.4,529.2,242.5,526.1,242.5,522.3z"/>
<path class="st1" d="M234.5,191.2c-62.1,12.7-110.7,61.3-123.4,123.4"/>
<path class="st1" d="M234.6,191.6c-62,12.7-110.4,61.1-123,123.1"/>
<path class="st1" d="M284.1,410.9c0-3.8-3.1-6.9-6.9-6.9c-3.8,0-6.9,3.1-6.9,6.9c0,3.8,3.1,6.9,6.9,6.9
	C281,417.8,284.1,414.7,284.1,410.9z"/>
<path class="st1" d="M318.8,429.9c0-3.8-3.1-6.9-6.9-6.9c-3.8,0-6.9,3.1-6.9,6.9c0,3.8,3.1,6.9,6.9,6.9
	C315.7,436.8,318.8,433.7,318.8,429.9z"/>
<path class="st1" d="M330.5,518.6c0-3.8-3.1-6.9-6.9-6.9c-3.8,0-6.9,3.1-6.9,6.9c0,3.8,3.1,6.9,6.9,6.9
	C327.4,525.5,330.5,522.4,330.5,518.6z"/>
<path class="st1" d="M303.3,541.9c0-3.8-3.1-6.9-6.9-6.9c-3.8,0-6.9,3.1-6.9,6.9c0,3.8,3.1,6.9,6.9,6.9
	C300.2,548.8,303.3,545.7,303.3,541.9z"/>
<path class="st1" d="M341.9,483.1c0-3.8-3.1-6.9-6.9-6.9c-3.8,0-6.9,3.1-6.9,6.9c0,3.8,3.1,6.9,6.9,6.9
	C338.8,490,341.9,486.9,341.9,483.1z"/>
<path class="st1" d="M309.6,498.6c0-3.8-3.1-6.9-6.9-6.9c-3.8,0-6.9,3.1-6.9,6.9c0,3.8,3.1,6.9,6.9,6.9
	C306.5,505.5,309.6,502.4,309.6,498.6z"/>
<path class="st1" d="M326.9,458.4c0-3.8-3.1-6.9-6.9-6.9c-3.8,0-6.9,3.1-6.9,6.9c0,3.8,3.1,6.9,6.9,6.9
	C323.8,465.3,326.9,462.2,326.9,458.4z"/>
<path class="st1" d="M354.1,424c0-3.8-3.1-6.9-6.9-6.9c-3.8,0-6.9,3.1-6.9,6.9c0,3.8,3.1,6.9,6.9,6.9
	C351,430.9,354.1,427.8,354.1,424z"/>
<path class="st1" d="M353.5,394.4c0-3.8-3.1-6.9-6.9-6.9c-3.8,0-6.9,3.1-6.9,6.9c0,3.8,3.1,6.9,6.9,6.9
	C350.4,401.3,353.5,398.2,353.5,394.4z"/>
<path class="st1" d="M318,399.3c0-3.8-3.1-6.9-6.9-6.9c-3.8,0-6.9,3.1-6.9,6.9c0,3.8,3.1,6.9,6.9,6.9
	C314.9,406.2,318,403.1,318,399.3z"/>
<path class="st1" d="M325,367.1c0-3.8-3.1-6.9-6.9-6.9c-3.8,0-6.9,3.1-6.9,6.9c0,3.8,3.1,6.9,6.9,6.9C321.9,374,325,370.9,325,367.1
	z"/>
<path class="st1" d="M423.8,437.9c0-3.8-3.1-6.9-6.9-6.9c-3.8,0-6.9,3.1-6.9,6.9c0,3.8,3.1,6.9,6.9,6.9
	C420.7,444.8,423.8,441.7,423.8,437.9z"/>
<path class="st1" d="M389.8,426.7c0-3.8-3.1-6.9-6.9-6.9c-3.8,0-6.9,3.1-6.9,6.9c0,3.8,3.1,6.9,6.9,6.9
	C386.7,433.6,389.8,430.5,389.8,426.7z"/>
<path class="st1" d="M452.9,429.3c0-3.8-3.1-6.9-6.9-6.9c-3.8,0-6.9,3.1-6.9,6.9c0,3.8,3.1,6.9,6.9,6.9
	C449.8,436.2,452.9,433.1,452.9,429.3z"/>
<path class="st1" d="M423,409.6c0-3.8-3.1-6.9-6.9-6.9c-3.8,0-6.9,3.1-6.9,6.9c0,3.8,3.1,6.9,6.9,6.9
	C419.9,416.5,423,413.5,423,409.6z"/>
<path class="st1" d="M389.2,397.8c0-3.8-3.1-6.9-6.9-6.9c-3.8,0-6.9,3.1-6.9,6.9c0,3.8,3.1,6.9,6.9,6.9
	C386.1,404.7,389.2,401.6,389.2,397.8z"/>
<path class="st1" d="M459.4,401.8c0-3.8-3.1-6.9-6.9-6.9c-3.8,0-6.9,3.1-6.9,6.9c0,3.8,3.1,6.9,6.9,6.9
	C456.3,408.7,459.4,405.6,459.4,401.8z"/>
<path class="st1" d="M429.9,381.6c0-3.8-3.1-6.9-6.9-6.9c-3.8,0-6.9,3.1-6.9,6.9c0,3.8,3.1,6.9,6.9,6.9
	C426.8,388.5,429.9,385.4,429.9,381.6z"/>
<path class="st1" d="M396.3,369.1c0-3.8-3.1-6.9-6.9-6.9c-3.8,0-6.9,3.1-6.9,6.9c0,3.8,3.1,6.9,6.9,6.9
	C393.2,376,396.3,372.9,396.3,369.1z"/>
<path class="st1" d="M360.8,364.6c0-3.8-3.1-6.9-6.9-6.9c-3.8,0-6.9,3.1-6.9,6.9c0,3.8,3.1,6.9,6.9,6.9
	C357.7,371.5,360.8,368.4,360.8,364.6z"/>
<path class="st1" d="M444.2,355.7c0-3.8-3.1-6.9-6.9-6.9c-3.8,0-6.9,3.1-6.9,6.9c0,3.8,3.1,6.9,6.9,6.9
	C441.1,362.6,444.2,359.5,444.2,355.7z"/>
<path class="st1" d="M411,342.2c0-3.8-3.1-6.9-6.9-6.9c-3.8,0-6.9,3.1-6.9,6.9c0,3.8,3.1,6.9,6.9,6.9C407.9,349.1,411,346,411,342.2
	z"/>
<path class="st1" d="M375.8,335.3c0-3.8-3.1-6.9-6.9-6.9c-3.8,0-6.9,3.1-6.9,6.9c0,3.8,3.1,6.9,6.9,6.9
	C372.7,342.2,375.8,339.1,375.8,335.3z"/>
<path class="st1" d="M465.3,333.5c0-3.8-3.1-6.9-6.9-6.9c-3.8,0-6.9,3.1-6.9,6.9c0,3.8,3.1,6.9,6.9,6.9
	C462.2,340.4,465.3,337.3,465.3,333.5z"/>
<path class="st1" d="M433.1,317.8c0-3.8-3.1-6.9-6.9-6.9c-3.8,0-6.9,3.1-6.9,6.9c0,3.8,3.1,6.9,6.9,6.9
	C430,324.7,433.1,321.6,433.1,317.8z"/>
<path class="st1" d="M355.3,532c0-3.8-3.1-6.9-6.9-6.9c-3.8,0-6.9,3.1-6.9,6.9c0,3.8,3.1,6.9,6.9,6.9
	C352.2,538.9,355.3,535.8,355.3,532z"/>
<path class="st1" d="M362.4,502.5c0-3.8-3.1-6.9-6.9-6.9c-3.8,0-6.9,3.1-6.9,6.9c0,3.8,3.1,6.9,6.9,6.9
	C359.3,509.4,362.4,506.3,362.4,502.5z"/>
<path class="st1" d="M376.9,475.8c0-3.8-3.1-6.9-6.9-6.9c-3.8,0-6.9,3.1-6.9,6.9c0,3.8,3.1,6.9,6.9,6.9
	C373.8,482.7,376.9,479.6,376.9,475.8z"/>
<path class="st1" d="M397.9,453.7c0-3.8-3.1-6.9-6.9-6.9c-3.8,0-6.9,3.1-6.9,6.9c0,3.8,3.1,6.9,6.9,6.9
	C394.8,460.7,397.9,457.6,397.9,453.7z"/>
<path class="st1" d="M362.1,451.7c0-3.8-3.1-6.9-6.9-6.9c-3.8,0-6.9,3.1-6.9,6.9c0,3.8,3.1,6.9,6.9,6.9
	C359,458.6,362.1,455.5,362.1,451.7z"/>
<path class="st1" d="M234.5,897.3c151.5,31,307.7,31,459.3,0"/>
<path class="st1" d="M234.6,896.8c151.5,30.9,307.6,30.9,459.1,0"/>
<path class="st1" d="M489,820.1c6.5-0.2,12.9-0.4,19.3-0.7"/>
<path class="st1" d="M461.4,820.2c2.5,0,25.1-0.1,27.5-0.2"/>
<path class="st1" d="M464.2,167.9c-77.1,0-154.1,7.8-229.7,23.2"/>
<path class="st1" d="M464.2,168.4c-77.1,0-154,7.8-229.6,23.2"/>
<path class="st1" d="M439.3,268.4c-6.4,0.2-12.9,0.4-19.3,0.7"/>
<path class="st1" d="M512.3,706.8c0-3.8-3.1-6.9-6.9-6.9c-3.8,0-6.9,3.1-6.9,6.9c0,3.8,3.1,6.9,6.9,6.9
	C509.2,713.7,512.3,710.6,512.3,706.8z"/>
<path class="st1" d="M545.8,719.3c0-3.8-3.1-6.9-6.9-6.9c-3.8,0-6.9,3.1-6.9,6.9c0,3.8,3.1,6.9,6.9,6.9
	C542.7,726.2,545.8,723.1,545.8,719.3z"/>
<path class="st1" d="M581.4,723.8c0-3.8-3.1-6.9-6.9-6.9c-3.8,0-6.9,3.1-6.9,6.9c0,3.8,3.1,6.9,6.9,6.9
	C578.3,730.7,581.4,727.6,581.4,723.8z"/>
<path class="st1" d="M498,732.7c0-3.8-3.1-6.9-6.9-6.9c-3.8,0-6.9,3.1-6.9,6.9c0,3.8,3.1,6.9,6.9,6.9
	C494.9,739.6,498,736.5,498,732.7z"/>
<path class="st1" d="M531.1,746.2c0-3.8-3.1-6.9-6.9-6.9c-3.8,0-6.9,3.1-6.9,6.9c0,3.8,3.1,6.9,6.9,6.9
	C528,753.1,531.1,750,531.1,746.2z"/>
<path class="st1" d="M566.3,753.1c0-3.8-3.1-6.9-6.9-6.9c-3.8,0-6.9,3.1-6.9,6.9c0,3.8,3.1,6.9,6.9,6.9
	C563.2,760,566.3,756.9,566.3,753.1z"/>
<path class="st1" d="M476.8,754.9c0-3.8-3.1-6.9-6.9-6.9c-3.8,0-6.9,3.1-6.9,6.9c0,3.8,3.1,6.9,6.9,6.9
	C473.7,761.8,476.8,758.7,476.8,754.9z"/>
<path class="st1" d="M509,770.6c0-3.8-3.1-6.9-6.9-6.9c-3.8,0-6.9,3.1-6.9,6.9c0,3.8,3.1,6.9,6.9,6.9
	C505.9,777.5,509,774.5,509,770.6z"/>
<path class="st1" d="M518.4,650.5c0-3.8-3.1-6.9-6.9-6.9c-3.8,0-6.9,3.1-6.9,6.9c0,3.8,3.1,6.9,6.9,6.9
	C515.3,657.4,518.4,654.3,518.4,650.5z"/>
<path class="st1" d="M489.2,659.2c0-3.8-3.1-6.9-6.9-6.9c-3.8,0-6.9,3.1-6.9,6.9c0,3.8,3.1,6.9,6.9,6.9
	C486.1,666.1,489.2,663,489.2,659.2z"/>
<path class="st1" d="M519.2,678.8c0-3.8-3.1-6.9-6.9-6.9c-3.8,0-6.9,3.1-6.9,6.9c0,3.8,3.1,6.9,6.9,6.9
	C516.1,685.7,519.2,682.6,519.2,678.8z"/>
<path class="st1" d="M482.7,686.6c0-3.8-3.1-6.9-6.9-6.9c-3.8,0-6.9,3.1-6.9,6.9c0,3.8,3.1,6.9,6.9,6.9
	C479.6,693.5,482.7,690.5,482.7,686.6z"/>
<path class="st1" d="M559.1,544.2c0-52.4-42.5-94.9-94.9-94.9c-52.4,0-94.9,42.5-94.9,94.9c0,52.4,42.5,94.9,94.9,94.9
	C516.6,639.1,559.1,596.6,559.1,544.2z"/>
<path class="st1" d="M554.7,690.6c0-4.8-3.9-8.6-8.6-8.6c-4.8,0-8.6,3.9-8.6,8.6c0,4.8,3.9,8.6,8.6,8.6
	C550.8,699.3,554.7,695.4,554.7,690.6z"/>
<path class="st1" d="M553,690.6c0-3.8-3.1-6.9-6.9-6.9c-3.8,0-6.9,3.1-6.9,6.9c0,3.8,3.1,6.9,6.9,6.9
	C549.9,697.5,553,694.4,553,690.6z"/>
<path class="st1" d="M544.3,634.7c0-3.8-3.1-6.9-6.9-6.9c-3.8,0-6.9,3.1-6.9,6.9c0,3.8,3.1,6.9,6.9,6.9
	C541.2,641.6,544.3,638.5,544.3,634.7z"/>
<path class="st1" d="M552.4,661.7c0-3.8-3.1-6.9-6.9-6.9c-3.8,0-6.9,3.1-6.9,6.9c0,3.8,3.1,6.9,6.9,6.9
	C549.3,668.6,552.4,665.6,552.4,661.7z"/>
<path class="st1" d="M580,636.7c0-3.8-3.1-6.9-6.9-6.9c-3.8,0-6.9,3.1-6.9,6.9c0,3.8,3.1,6.9,6.9,6.9
	C576.9,643.6,580,640.5,580,636.7z"/>
<path class="st1" d="M586.8,556.4c0-3.8-3.1-6.9-6.9-6.9c-3.8,0-6.9,3.1-6.9,6.9c0,3.8,3.1,6.9,6.9,6.9
	C583.7,563.3,586.8,560.2,586.8,556.4z"/>
<path class="st1" d="M579.7,586c0-3.8-3.1-6.9-6.9-6.9c-3.8,0-6.9,3.1-6.9,6.9c0,3.8,3.1,6.9,6.9,6.9
	C576.6,592.9,579.7,589.8,579.7,586z"/>
<path class="st1" d="M565.2,612.6c0-3.8-3.1-6.9-6.9-6.9c-3.8,0-6.9,3.1-6.9,6.9c0,3.8,3.1,6.9,6.9,6.9
	C562.1,619.5,565.2,616.5,565.2,612.6z"/>
<path class="st1" d="M693.8,897.3C756,884.6,804.5,836,817.2,773.8"/>
<path class="st1" d="M693.7,896.8c62-12.7,110.4-61.1,123.1-123.1"/>
<path class="st1" d="M702.3,783.8c0.3-0.3-4,4-3.7,3.7"/>
<path class="st1" d="M617.1,721.3c0-3.8-3.1-6.9-6.9-6.9c-3.8,0-6.9,3.1-6.9,6.9c0,3.8,3.1,6.9,6.9,6.9
	C614,728.2,617.1,725.1,617.1,721.3z"/>
<path class="st1" d="M611.7,569.8c0-3.8-3.1-6.9-6.9-6.9c-3.8,0-6.9,3.1-6.9,6.9c0,3.8,3.1,6.9,6.9,6.9
	C608.6,576.7,611.7,573.6,611.7,569.8z"/>
<path class="st1" d="M638.8,546.5c0-3.8-3.1-6.9-6.9-6.9c-3.8,0-6.9,3.1-6.9,6.9c0,3.8,3.1,6.9,6.9,6.9
	C635.7,553.4,638.8,550.3,638.8,546.5z"/>
<path class="st1" d="M600.2,605.4c0-3.8-3.1-6.9-6.9-6.9c-3.8,0-6.9,3.1-6.9,6.9c0,3.8,3.1,6.9,6.9,6.9
	C597.1,612.3,600.2,609.2,600.2,605.4z"/>
<path class="st1" d="M632.5,589.8c0-3.8-3.1-6.9-6.9-6.9c-3.8,0-6.9,3.1-6.9,6.9c0,3.8,3.1,6.9,6.9,6.9
	C629.4,596.7,632.5,593.6,632.5,589.8z"/>
<path class="st1" d="M660.1,567c0-3.8-3.1-6.9-6.9-6.9c-3.8,0-6.9,3.1-6.9,6.9c0,3.8,3.1,6.9,6.9,6.9
	C657,573.9,660.1,570.8,660.1,567z"/>
<path class="st1" d="M615.2,630.1c0-3.8-3.1-6.9-6.9-6.9c-3.8,0-6.9,3.1-6.9,6.9c0,3.8,3.1,6.9,6.9,6.9
	C612.1,637,615.2,633.9,615.2,630.1z"/>
<path class="st1" d="M647.8,615.2c0-3.8-3.1-6.9-6.9-6.9c-3.8,0-6.9,3.1-6.9,6.9c0,3.8,3.1,6.9,6.9,6.9
	C644.7,622.1,647.8,619,647.8,615.2z"/>
<path class="st1" d="M676,593.2c0-3.8-3.1-6.9-6.9-6.9c-3.8,0-6.9,3.1-6.9,6.9c0,3.8,3.1,6.9,6.9,6.9C673,600.1,676,597,676,593.2z"
	/>
<path class="st1" d="M699.6,566.2c0-3.8-3.1-6.9-6.9-6.9c-3.8,0-6.9,3.1-6.9,6.9c0,3.8,3.1,6.9,6.9,6.9
	C696.5,573.1,699.6,570,699.6,566.2z"/>
<path class="st1" d="M588.1,664.4c0-3.8-3.1-6.9-6.9-6.9c-3.8,0-6.9,3.1-6.9,6.9c0,3.8,3.1,6.9,6.9,6.9
	C585,671.3,588.1,668.3,588.1,664.4z"/>
<path class="st1" d="M623.4,658.5c0-3.8-3.1-6.9-6.9-6.9c-3.8,0-6.9,3.1-6.9,6.9c0,3.8,3.1,6.9,6.9,6.9
	C620.3,665.4,623.4,662.3,623.4,658.5z"/>
<path class="st1" d="M656.4,644.6c0-3.8-3.1-6.9-6.9-6.9c-3.8,0-6.9,3.1-6.9,6.9c0,3.8,3.1,6.9,6.9,6.9
	C653.3,651.5,656.4,648.4,656.4,644.6z"/>
<path class="st1" d="M686.1,624.6c0-3.8-3.1-6.9-6.9-6.9c-3.8,0-6.9,3.1-6.9,6.9c0,3.8,3.1,6.9,6.9,6.9
	C683,631.5,686.1,628.4,686.1,624.6z"/>
<path class="st1" d="M588.6,694c0-3.8-3.1-6.9-6.9-6.9c-3.8,0-6.9,3.1-6.9,6.9c0,3.8,3.1,6.9,6.9,6.9
	C585.5,700.9,588.6,697.8,588.6,694z"/>
<path class="st1" d="M624.1,689.1c0-3.8-3.1-6.9-6.9-6.9c-3.8,0-6.9,3.1-6.9,6.9c0,3.8,3.1,6.9,6.9,6.9
	C621,696,624.1,692.9,624.1,689.1z"/>
<path class="st1" d="M658,677.5c0-3.8-3.1-6.9-6.9-6.9c-3.8,0-6.9,3.1-6.9,6.9c0,3.8,3.1,6.9,6.9,6.9
	C654.9,684.4,658,681.3,658,677.5z"/>
<path class="st1" d="M111.1,314.6c-31,151.5-31,307.7,0,459.3"/>
<path class="st1" d="M111.5,314.7c-31,151.5-31,307.6,0,459.1"/>
<path class="st1" d="M114,315.2c-30.9,151.1-30.9,306.9,0,458"/>
<path class="st1" d="M188.3,569.1c0.2,6.4,0.4,12.8,0.6,19.2"/>
<path class="st1" d="M189,498.2c-0.3,6.9-0.5,13.8-0.7,20.7"/>
<path class="st1" d="M188.3,519c-0.4,16.7-0.4,33.4,0,50.1"/>
<path class="st1" d="M483.3,428.5c0-3.8-3.1-6.9-6.9-6.9c-3.8,0-6.9,3.1-6.9,6.9c0,3.8,3.1,6.9,6.9,6.9
	C480.2,435.4,483.3,432.3,483.3,428.5z"/>
<path class="st1" d="M512.8,435.6c0-3.8-3.1-6.9-6.9-6.9c-3.8,0-6.9,3.1-6.9,6.9c0,3.8,3.1,6.9,6.9,6.9
	C509.7,442.5,512.8,439.4,512.8,435.6z"/>
<path class="st1" d="M539.5,450.1c0-3.8-3.1-6.9-6.9-6.9c-3.8,0-6.9,3.1-6.9,6.9c0,3.8,3.1,6.9,6.9,6.9
	C536.4,457,539.5,453.9,539.5,450.1z"/>
<path class="st1" d="M561.5,471c0-3.8-3.1-6.9-6.9-6.9c-3.8,0-6.9,3.1-6.9,6.9c0,3.8,3.1,6.9,6.9,6.9
	C558.4,477.9,561.5,474.8,561.5,471z"/>
<path class="st1" d="M563.5,435.3c0-3.8-3.1-6.9-6.9-6.9c-3.8,0-6.9,3.1-6.9,6.9c0,3.8,3.1,6.9,6.9,6.9
	C560.5,442.2,563.5,439.1,563.5,435.3z"/>
<path class="st1" d="M577.4,496.9c0-3.8-3.1-6.9-6.9-6.9c-3.8,0-6.9,3.1-6.9,6.9c0,3.8,3.1,6.9,6.9,6.9
	C574.3,503.8,577.4,500.7,577.4,496.9z"/>
<path class="st1" d="M588.6,462.9c0-3.8-3.1-6.9-6.9-6.9c-3.8,0-6.9,3.1-6.9,6.9c0,3.8,3.1,6.9,6.9,6.9
	C585.5,469.8,588.6,466.7,588.6,462.9z"/>
<path class="st1" d="M591.3,427.2c0-3.8-3.1-6.9-6.9-6.9c-3.8,0-6.9,3.1-6.9,6.9c0,3.8,3.1,6.9,6.9,6.9
	C588.2,434.1,591.3,431,591.3,427.2z"/>
<path class="st1" d="M586,526c0-3.8-3.1-6.9-6.9-6.9c-3.8,0-6.9,3.1-6.9,6.9c0,3.8,3.1,6.9,6.9,6.9C582.9,532.9,586,529.9,586,526z"
	/>
<path class="st1" d="M496.7,403.6c0-3.8-3.1-6.9-6.9-6.9c-3.8,0-6.9,3.1-6.9,6.9c0,3.8,3.1,6.9,6.9,6.9
	C493.6,410.5,496.7,407.4,496.7,403.6z"/>
<path class="st1" d="M473.3,376.5c0-3.8-3.1-6.9-6.9-6.9c-3.8,0-6.9,3.1-6.9,6.9c0,3.8,3.1,6.9,6.9,6.9
	C470.3,383.4,473.3,380.3,473.3,376.5z"/>
<path class="st1" d="M532.2,415c0-3.8-3.1-6.9-6.9-6.9c-3.8,0-6.9,3.1-6.9,6.9c0,3.8,3.1,6.9,6.9,6.9
	C529.1,421.9,532.2,418.9,532.2,415z"/>
<path class="st1" d="M516.7,382.8c0-3.8-3.1-6.9-6.9-6.9c-3.8,0-6.9,3.1-6.9,6.9c0,3.8,3.1,6.9,6.9,6.9
	C513.6,389.7,516.7,386.6,516.7,382.8z"/>
<path class="st1" d="M493.9,355.2c0-3.8-3.1-6.9-6.9-6.9c-3.8,0-6.9,3.1-6.9,6.9c0,3.8,3.1,6.9,6.9,6.9
	C490.8,362.1,493.9,359,493.9,355.2z"/>
<path class="st1" d="M556.9,400.1c0-3.8-3.1-6.9-6.9-6.9c-3.8,0-6.9,3.1-6.9,6.9c0,3.8,3.1,6.9,6.9,6.9
	C553.8,407,556.9,403.9,556.9,400.1z"/>
<path class="st1" d="M542,367.5c0-3.8-3.1-6.9-6.9-6.9c-3.8,0-6.9,3.1-6.9,6.9c0,3.8,3.1,6.9,6.9,6.9
	C538.9,374.4,542,371.3,542,367.5z"/>
<path class="st1" d="M520.1,339.2c0-3.8-3.1-6.9-6.9-6.9c-3.8,0-6.9,3.1-6.9,6.9c0,3.8,3.1,6.9,6.9,6.9
	C517,346.1,520.1,343,520.1,339.2z"/>
<path class="st1" d="M493,315.7c0-3.8-3.1-6.9-6.9-6.9c-3.8,0-6.9,3.1-6.9,6.9c0,3.8,3.1,6.9,6.9,6.9
	C489.9,322.6,493,319.5,493,315.7z"/>
<path class="st1" d="M585.3,391.9c0-3.8-3.1-6.9-6.9-6.9c-3.8,0-6.9,3.1-6.9,6.9c0,3.8,3.1,6.9,6.9,6.9
	C582.2,398.8,585.3,395.7,585.3,391.9z"/>
<path class="st1" d="M571.4,358.9c0-3.8-3.1-6.9-6.9-6.9c-3.8,0-6.9,3.1-6.9,6.9c0,3.8,3.1,6.9,6.9,6.9
	C568.3,365.8,571.4,362.7,571.4,358.9z"/>
<path class="st1" d="M551.4,329.1c0-3.8-3.1-6.9-6.9-6.9c-3.8,0-6.9,3.1-6.9,6.9c0,3.8,3.1,6.9,6.9,6.9
	C548.3,336.1,551.4,333,551.4,329.1z"/>
<path class="st1" d="M605.6,496.1c0-3.8-3.1-6.9-6.9-6.9c-3.8,0-6.9,3.1-6.9,6.9c0,3.8,3.1,6.9,6.9,6.9
	C602.5,503,605.6,499.9,605.6,496.1z"/>
<path class="st1" d="M617.5,462.3c0-3.8-3.1-6.9-6.9-6.9c-3.8,0-6.9,3.1-6.9,6.9c0,3.8,3.1,6.9,6.9,6.9
	C614.4,469.2,617.5,466.1,617.5,462.3z"/>
<path class="st1" d="M620.9,426.7c0-3.8-3.1-6.9-6.9-6.9c-3.8,0-6.9,3.1-6.9,6.9c0,3.8,3.1,6.9,6.9,6.9
	C617.8,433.6,620.9,430.5,620.9,426.7z"/>
<path class="st1" d="M613.5,532.6c0-3.8-3.1-6.9-6.9-6.9c-3.8,0-6.9,3.1-6.9,6.9c0,3.8,3.1,6.9,6.9,6.9
	C610.4,539.5,613.5,536.4,613.5,532.6z"/>
<path class="st1" d="M633.7,503c0-3.8-3.1-6.9-6.9-6.9c-3.8,0-6.9,3.1-6.9,6.9c0,3.8,3.1,6.9,6.9,6.9
	C630.6,509.9,633.7,506.8,633.7,503z"/>
<path class="st1" d="M646.2,469.5c0-3.8-3.1-6.9-6.9-6.9c-3.8,0-6.9,3.1-6.9,6.9c0,3.8,3.1,6.9,6.9,6.9
	C643.1,476.3,646.2,473.3,646.2,469.5z"/>
<path class="st1" d="M650.6,433.9c0-3.8-3.1-6.9-6.9-6.9c-3.8,0-6.9,3.1-6.9,6.9c0,3.8,3.1,6.9,6.9,6.9
	C647.6,440.8,650.6,437.7,650.6,433.9z"/>
<path class="st1" d="M659.6,517.3c0-3.8-3.1-6.9-6.9-6.9c-3.8,0-6.9,3.1-6.9,6.9c0,3.8,3.1,6.9,6.9,6.9
	C656.5,524.2,659.6,521.1,659.6,517.3z"/>
<path class="st1" d="M673.1,484.1c0-3.8-3.1-6.9-6.9-6.9c-3.8,0-6.9,3.1-6.9,6.9c0,3.8,3.1,6.9,6.9,6.9
	C670,491,673.1,488,673.1,484.1z"/>
<path class="st1" d="M680,449c0-3.8-3.1-6.9-6.9-6.9c-3.8,0-6.9,3.1-6.9,6.9c0,3.8,3.1,6.9,6.9,6.9C676.9,455.9,680,452.8,680,449z"
	/>
<path class="st1" d="M681.7,538.5c0-3.8-3.1-6.9-6.9-6.9c-3.8,0-6.9,3.1-6.9,6.9c0,3.8,3.1,6.9,6.9,6.9
	C678.6,545.4,681.7,542.3,681.7,538.5z"/>
<path class="st1" d="M697.5,506.3c0-3.8-3.1-6.9-6.9-6.9c-3.8,0-6.9,3.1-6.9,6.9c0,3.8,3.1,6.9,6.9,6.9
	C694.4,513.2,697.5,510.1,697.5,506.3z"/>
<path class="st1" d="M817.2,314.6c-12.7-62.1-61.3-110.7-123.4-123.4"/>
<path class="st1" d="M816.8,314.7c-12.7-62-61.1-110.4-123-123.1"/>
<path class="st1" d="M616,391.2c0-3.8-3.1-6.9-6.9-6.9c-3.8,0-6.9,3.1-6.9,6.9c0,3.8,3.1,6.9,6.9,6.9C612.9,398.1,616,395,616,391.2
	z"/>
<path class="st1" d="M604.3,357.3c0-3.8-3.1-6.9-6.9-6.9c-3.8,0-6.9,3.1-6.9,6.9c0,3.8,3.1,6.9,6.9,6.9
	C601.2,364.2,604.3,361.1,604.3,357.3z"/>
<path class="st1" d="M648.2,398.1c0-3.8-3.1-6.9-6.9-6.9c-3.8,0-6.9,3.1-6.9,6.9c0,3.8,3.1,6.9,6.9,6.9
	C645.1,405,648.2,401.9,648.2,398.1z"/>
<path class="st1" d="M464.2,917.5c18.6,0,37.3-0.4,55.9-1.3c18.2-0.9,36.5-2.3,54.7-4c9.3-0.9,18.6-1.9,27.9-3
	c9.6-1.2,19.2-2.5,28.8-3.9c20.7-3.1,41.3-6.7,61.8-10.9"/>
<path class="st1" d="M693.2,894.3c7.4-1.5,14.7-3.6,21.8-6.1c7.1-2.6,14-5.7,20.7-9.2c6.7-3.6,13-7.7,19.1-12.2
	c6.1-4.5,11.8-9.4,17.2-14.8c5.3-5.3,10.3-11.1,14.8-17.2c4.5-6.1,8.6-12.5,12.2-19.1c3.6-6.7,6.7-13.6,9.2-20.7
	c2.6-7.1,4.6-14.4,6.1-21.8"/>
<path class="st1" d="M814.3,315.2c-1.5-7.4-3.6-14.7-6.1-21.8c-2.6-7.1-5.7-14-9.2-20.7c-3.6-6.7-7.7-13-12.2-19.1
	c-4.5-6.1-9.4-11.8-14.8-17.2c-5.3-5.3-11.1-10.3-17.2-14.8c-6.1-4.5-12.5-8.6-19.1-12.2c-6.7-3.6-13.6-6.7-20.7-9.2
	c-7.1-2.6-14.4-4.6-21.8-6.1"/>
<path class="st1" d="M693.2,194.1c-20.5-4.2-41.1-7.8-61.8-10.9c-9.6-1.4-19.2-2.7-28.8-3.9c-9.3-1.1-18.6-2.1-27.9-3
	c-18.2-1.8-36.4-3.1-54.7-4c-18.6-0.9-37.3-1.3-55.9-1.3"/>
<path class="st1" d="M464.2,170.9c-18.6,0-37.3,0.4-55.9,1.3c-18.2,0.9-36.5,2.3-54.7,4c-9.3,0.9-18.6,1.9-27.9,3
	c-9.6,1.2-19.2,2.5-28.8,3.9c-20.7,3.1-41.3,6.7-61.8,10.9"/>
<path class="st1" d="M235.1,194.1c-7.4,1.5-14.7,3.6-21.8,6.1c-7.1,2.6-14,5.7-20.7,9.2c-6.7,3.6-13,7.7-19.1,12.2
	c-6.1,4.5-11.8,9.4-17.2,14.8c-5.3,5.3-10.3,11.1-14.8,17.2c-4.5,6.1-8.6,12.4-12.2,19.1c-3.6,6.7-6.7,13.6-9.2,20.7
	c-2.6,7.1-4.6,14.4-6.1,21.8"/>
<path class="st1" d="M114,773.2c1.5,7.4,3.6,14.7,6.1,21.8c2.6,7.1,5.6,14,9.2,20.7c3.6,6.7,7.7,13,12.2,19.1
	c4.5,6.1,9.4,11.8,14.8,17.2c5.3,5.3,11.1,10.3,17.2,14.8c6.1,4.5,12.5,8.6,19.1,12.2c6.7,3.6,13.6,6.7,20.7,9.2
	c7.1,2.6,14.4,4.6,21.8,6.1"/>
<path class="st1" d="M235.2,894.3c20.5,4.2,41.1,7.8,61.8,10.9c9.6,1.4,19.2,2.7,28.8,3.9c9.3,1.1,18.6,2.1,27.9,3
	c18.2,1.8,36.4,3.1,54.7,4c18.6,0.9,37.3,1.3,55.9,1.3"/>
<path class="st1" d="M719.1,753.7c11-53.9,17.7-108.6,20.2-163.6"/>
<path class="st1" d="M739.4,500.1c-2.3-55.6-9.1-110.9-20.3-165.4"/>
<path class="st1" d="M209.2,753.7c1.9,9.1,9.1,22.4,15,29.6"/>
<path class="st1" d="M254.6,289.2c-8.7,1.8-17.9,6.5-24.9,11.9"/>
<path class="st1" d="M224.7,305.9c-5.8,7.3-13.7,19.6-15.5,28.8"/>
<path class="st1" d="M224.7,305.9c-0.3,0.3,5.3-5.2,5-5"/>
<path class="st1" d="M464.2,268c-8.3,0-16.5,0.1-24.8,0.3"/>
<path class="st1" d="M673.7,799.2c8.7-1.8,17.9-6.3,24.9-11.7"/>
<path class="st1" d="M702.3,783.8c5.8-7.3,14.9-20.9,16.8-30"/>
<path class="st1" d="M209.2,334.7c-11,53.9-17.8,108.6-20.2,163.6"/>
<path class="st1" d="M188.9,588.3c2.3,55.6,9.1,110.9,20.3,165.4"/>
<path class="st1" d="M461.4,820.2c-8.5-0.2-31.8-0.4-40.3-0.8c-8.7-0.4-17.5-0.8-26.2-1.4c-8.7-0.6-17.5-1.2-26.2-2
	c-8.6-0.8-17.2-1.7-25.8-2.7c-8.3-1-16.5-2-24.8-3.2c-7.8-1.1-15.6-2.3-23.3-3.5c-13.5-2.2-26.9-4.7-40.2-7.4"/>
<path class="st1" d="M254.6,289.2c11.5-2.3,23-4.5,34.5-6.4c6.6-1.1,13.2-2.2,19.8-3.1c7-1.1,14-2,21-3c7.3-0.9,14.6-1.8,22-2.6
	c7.5-0.8,15-1.5,22.6-2.2c7.6-0.6,15.2-1.2,22.8-1.7c7.6-0.5,15.2-0.9,22.8-1.2"/>
<path class="st1" d="M464.2,268c9,0,18.1,0.1,27.1,0.4c9.4,0.3,18.8,0.6,28.2,1.1c9.5,0.5,19.1,1.1,28.6,1.9
	c9.4,0.8,18.9,1.6,28.3,2.6c17.8,1.9,35.5,4.3,53.1,7.1c7.9,1.3,15.7,2.6,23.5,4c6.9,1.3,13.8,2.6,20.7,4"/>
<path class="st1" d="M673.7,289.2c3.2,0.7,6.3,1.5,9.3,2.7c2.7,1,5.3,2.3,7.9,3.7c2.3,1.3,4.6,2.8,6.7,4.4c2,1.5,3.9,3.2,5.8,5
	c1.8,1.8,3.5,3.7,5,5.8c1.6,2.1,3.1,4.4,4.4,6.7c1.4,2.5,2.7,5.2,3.7,7.9c1.2,3,2.1,6.1,2.7,9.3"/>
<path class="st1" d="M673.7,799.2c-11.5,2.3-22.9,4.5-34.5,6.4c-6.6,1.1-13.2,2.2-19.8,3.2c-7,1.1-14,2-21,3
	c-7.3,0.9-14.6,1.8-22,2.6c-7.5,0.8-15,1.5-22.6,2.2c-7.6,0.6-15.2,1.2-22.8,1.7c-7.6,0.5-15.2,0.9-22.8,1.2"/>
<path class="st2" d="M396.2,170c0,0,315.1-2.6,353,83.7C787.2,340,802,382.3,804.9,559c2.9,176.7-20.9,363.4-184.4,368.6
	c-163.5,5.2-227.6,33.1-354,8.6C140,911.7,127.7,934.9,63.4,829.7c-64.3-105.2-25.2-523-0.1-547.3c25.1-24.3,27.5-77.2,130-92.1
	C295.7,175.4,396.2,170,396.2,170z"/>
<path class="st1" d="M396.2,170c0,0,315.1-2.6,353,83.7C787.2,340,802,382.3,804.9,559c2.9,176.7-20.9,363.4-184.4,368.6
	c-163.5,5.2-227.6,33.1-354,8.6C140,911.7,127.7,934.9,63.4,829.7c-64.3-105.2-25.2-523-0.1-547.3c25.1-24.3,27.5-77.2,130-92.1
	C295.7,175.4,396.2,170,396.2,170z"/>
<path class="st2" d="M41.7,363.4c0,0-2.2-161.8,174.4-178.7C392.8,167.9,587,152,716.4,220.2c129.4,68.2,90.3,513.6,65,571.1
	C756.1,848.9,762.4,934,470,946C177.6,958,65.6,916.4,46.1,759c-19.6-157.3-29.6-191.5-18-276.5C39.7,397.5,41.7,363.4,41.7,363.4z"
	/>
<path class="st1" d="M41.7,363.4c0,0-2.2-161.8,174.4-178.7C392.8,167.9,587,152,716.4,220.2c129.4,68.2,90.3,513.6,65,571.1
	C756.1,848.9,762.4,934,470,946C177.6,958,65.6,916.4,46.1,759c-19.6-157.3-29.6-191.5-18-276.5C39.7,397.5,41.7,363.4,41.7,363.4z"
	/>
<line class="st1" x1="177.5" y1="924.2" x2="177.4" y2="924.7"/>
<line class="st1" x1="50" y1="796.7" x2="49.6" y2="796.8"/>
<line class="st1" x1="780.4" y1="796.7" x2="780.8" y2="796.8"/>
<line class="st1" x1="177.5" y1="193.9" x2="177.4" y2="193.4"/>
<line class="st1" x1="415.2" y1="169.8" x2="415.2" y2="169.4"/>
<line class="st1" x1="652.9" y1="193.8" x2="653" y2="193.4"/>
<line class="st1" x1="780.4" y1="321.4" x2="780.8" y2="321.3"/>
<line class="st1" x1="50" y1="321.4" x2="49.6" y2="321.3"/>
<line class="st1" x1="652.9" y1="924.2" x2="653" y2="924.7"/>
<path class="st1" d="M780.8,796.8c32.1-156.9,32.1-318.7,0-475.6"/>
<path class="st1" d="M780.4,796.7c32.1-156.9,32.1-318.6,0-475.4"/>
<path class="st1" d="M777.8,796.2c32-156.5,32-317.8,0-474.3"/>
<path class="st1" d="M679.3,776c11.4-55.8,18.4-112.5,20.9-169.4"/>
<path class="st1" d="M700.2,513.4c-2.4-57.6-9.4-114.9-21-171.3"/>
<path class="st1" d="M700.9,533.3c-0.2-6.7-0.4-13.3-0.7-19.9"/>
<path class="st1" d="M700.2,606.6c0.3-7.2,0.6-14.3,0.7-21.5"/>
<path class="st1" d="M700.9,585.1c0.4-17.3,0.4-34.6,0-51.8"/>
<path class="st1" d="M653,193.4c-78.3-16-158-24.1-237.8-24.1"/>
<path class="st1" d="M652.9,193.9c-78.2-16-157.9-24-237.7-24"/>
<path class="st1" d="M49.6,796.8c13.1,64.4,63.5,114.7,127.8,127.8"/>
<path class="st1" d="M50,796.7c13.1,64.2,63.3,114.4,127.5,127.5"/>
<path class="st1" d="M173.4,811.8c7.3,5.6,15.8,9.5,24.8,11.3"/>
<path class="st1" d="M151.1,776c1.9,9.5,9.4,23.1,15.5,30.7"/>
<path class="st1" d="M166.4,806.5c0.3,0.3,6.7,5,7,5.3"/>
<path class="st1" d="M272.3,717.5c0-4-3.2-7.2-7.1-7.2c-3.9,0-7.2,3.2-7.2,7.2c0,3.9,3.2,7.1,7.2,7.1
	C269.1,724.6,272.3,721.4,272.3,717.5z"/>
<path class="st1" d="M284.3,752.6c0-4-3.2-7.2-7.2-7.2c-3.9,0-7.1,3.2-7.1,7.2c0,3.9,3.2,7.1,7.1,7.1
	C281.1,759.8,284.3,756.6,284.3,752.6z"/>
<path class="st1" d="M238.9,710.3c0-3.9-3.2-7.2-7.1-7.2c-4,0-7.2,3.2-7.2,7.2c0,4,3.2,7.2,7.2,7.2
	C235.7,717.4,238.9,714.2,238.9,710.3z"/>
<path class="st1" d="M297.8,680.2c0-4-3.2-7.2-7.1-7.2c-3.9,0-7.2,3.2-7.2,7.2c0,3.9,3.2,7.1,7.2,7.1
	C294.6,687.3,297.8,684.1,297.8,680.2z"/>
<path class="st1" d="M283,608.8c0-3.9-3.2-7.2-7.1-7.2s-7.2,3.2-7.2,7.2c0,4,3.2,7.2,7.2,7.2S283,612.8,283,608.8z"/>
<path class="st1" d="M270.7,643.8c0-4-3.2-7.2-7.1-7.2c-4,0-7.2,3.2-7.2,7.2c0,3.9,3.2,7.1,7.2,7.1
	C267.5,651,270.7,647.8,270.7,643.8z"/>
<path class="st1" d="M267.2,680.7c0-4-3.2-7.2-7.2-7.2c-3.9,0-7.1,3.2-7.1,7.2c0,3.9,3.2,7.1,7.1,7.1
	C264,687.9,267.2,684.7,267.2,680.7z"/>
<path class="st1" d="M274.8,571.1c0-3.9-3.2-7.1-7.1-7.1c-4,0-7.2,3.2-7.2,7.1c0,4,3.2,7.2,7.2,7.2
	C271.6,578.2,274.8,575,274.8,571.1z"/>
<path class="st1" d="M253.9,601.7c0-4-3.2-7.2-7.1-7.2c-3.9,0-7.2,3.2-7.2,7.2c0,3.9,3.2,7.1,7.2,7.1
	C250.7,608.8,253.9,605.6,253.9,601.7z"/>
<path class="st1" d="M241,636.4c0-4-3.2-7.1-7.2-7.1c-3.9,0-7.1,3.2-7.1,7.1c0,4,3.2,7.2,7.1,7.2C237.8,643.6,241,640.4,241,636.4z"
	/>
<path class="st1" d="M236.4,673.2c0-3.9-3.2-7.1-7.2-7.1c-3.9,0-7.1,3.2-7.1,7.1c0,3.9,3.2,7.2,7.1,7.2
	C233.2,680.4,236.4,677.2,236.4,673.2z"/>
<path class="st1" d="M227.1,586.9c0-3.9-3.2-7.1-7.2-7.1c-3.9,0-7.1,3.2-7.1,7.1c0,4,3.2,7.2,7.1,7.2
	C223.9,594,227.1,590.8,227.1,586.9z"/>
<path class="st1" d="M213.1,621.2c0-4-3.2-7.2-7.1-7.2c-4,0-7.2,3.2-7.2,7.2c0,3.9,3.2,7.1,7.2,7.1
	C209.9,628.4,213.1,625.2,213.1,621.2z"/>
<path class="st1" d="M206,657.7c0-4-3.2-7.2-7.1-7.2c-3.9,0-7.2,3.2-7.2,7.2c0,3.9,3.2,7.1,7.2,7.1C202.8,664.8,206,661.6,206,657.7
	z"/>
<path class="st1" d="M204.2,565c0-3.9-3.2-7.2-7.2-7.2c-3.9,0-7.1,3.2-7.1,7.2c0,3.9,3.2,7.1,7.1,7.1
	C201,572.1,204.2,568.9,204.2,565z"/>
<path class="st1" d="M187.9,598.3c0-3.9-3.2-7.1-7.2-7.1c-3.9,0-7.1,3.2-7.1,7.1c0,4,3.2,7.2,7.1,7.2
	C184.7,605.5,187.9,602.3,187.9,598.3z"/>
<path class="st1" d="M395.8,704.6c0-4-3.2-7.2-7.2-7.2c-4,0-7.1,3.2-7.1,7.2c0,3.9,3.2,7.1,7.1,7.1
	C392.6,711.8,395.8,708.6,395.8,704.6z"/>
<path class="st1" d="M420,732.7c0-4-3.2-7.2-7.2-7.2c-3.9,0-7.1,3.2-7.1,7.2c0,3.9,3.2,7.1,7.1,7.1C416.8,739.9,420,736.7,420,732.7
	z"/>
<path class="st1" d="M359,692.8c0-4-3.2-7.2-7.2-7.2c-3.9,0-7.1,3.2-7.1,7.2c0,4,3.2,7.2,7.1,7.2C355.8,699.9,359,696.7,359,692.8z"
	/>
<path class="st1" d="M375.1,726.2c0-4-3.2-7.2-7.1-7.2c-3.9,0-7.2,3.2-7.2,7.2c0,3.9,3.2,7.2,7.2,7.2
	C371.9,733.4,375.1,730.2,375.1,726.2z"/>
<path class="st1" d="M398.7,754.8c0-4-3.2-7.2-7.1-7.2c-3.9,0-7.1,3.2-7.1,7.2c0,3.9,3.2,7.1,7.1,7.1
	C395.5,761.9,398.7,758.7,398.7,754.8z"/>
<path class="st1" d="M333.4,708.3c0-3.9-3.2-7.1-7.1-7.1c-4,0-7.2,3.2-7.2,7.1c0,4,3.2,7.2,7.2,7.2
	C330.2,715.4,333.4,712.2,333.4,708.3z"/>
<path class="st1" d="M348.9,742c0-4-3.2-7.2-7.2-7.2c-3.9,0-7.1,3.2-7.1,7.2c0,3.9,3.2,7.1,7.1,7.1C345.7,749.2,348.9,746,348.9,742
	z"/>
<path class="st1" d="M371.6,771.3c0-3.9-3.2-7.2-7.1-7.2c-4,0-7.2,3.2-7.2,7.2c0,3.9,3.2,7.1,7.2,7.1
	C368.4,778.4,371.6,775.3,371.6,771.3z"/>
<path class="st1" d="M399.6,795.7c0-3.9-3.2-7.2-7.1-7.2c-4,0-7.2,3.2-7.2,7.2c0,3.9,3.2,7.1,7.2,7.1
	C396.4,802.8,399.6,799.6,399.6,795.7z"/>
<path class="st1" d="M304,716.7c0-3.9-3.2-7.1-7.1-7.1s-7.1,3.2-7.1,7.1c0,4,3.2,7.2,7.1,7.2S304,720.7,304,716.7z"/>
<path class="st1" d="M318.4,750.9c0-3.9-3.2-7.1-7.1-7.1c-4,0-7.2,3.2-7.2,7.1c0,3.9,3.2,7.2,7.2,7.2
	C315.2,758.1,318.4,754.9,318.4,750.9z"/>
<path class="st1" d="M339.1,781.7c0-4-3.2-7.1-7.1-7.1c-3.9,0-7.2,3.2-7.2,7.1c0,3.9,3.2,7.2,7.2,7.2
	C335.9,788.9,339.1,785.7,339.1,781.7z"/>
<path class="st1" d="M409.7,678.9c0-3.9-3.2-7.1-7.1-7.1c-4,0-7.2,3.2-7.2,7.1c0,3.9,3.2,7.2,7.2,7.2
	C406.5,686,409.7,682.8,409.7,678.9z"/>
<path class="st1" d="M379.1,671.5c0-4-3.2-7.2-7.2-7.2c-3.9,0-7.1,3.2-7.1,7.2c0,3.9,3.2,7.1,7.1,7.1
	C375.9,678.7,379.1,675.5,379.1,671.5z"/>
<path class="st1" d="M351.5,656.5c0-3.9-3.2-7.1-7.2-7.1c-3.9,0-7.1,3.2-7.1,7.1c0,4,3.2,7.2,7.1,7.2
	C348.3,663.6,351.5,660.4,351.5,656.5z"/>
<path class="st1" d="M328.7,634.8c0-3.9-3.2-7.1-7.2-7.1c-3.9,0-7.1,3.2-7.1,7.1c0,3.9,3.2,7.2,7.1,7.2
	C325.5,642,328.7,638.8,328.7,634.8z"/>
<path class="st1" d="M326.6,671.8c0-3.9-3.2-7.1-7.2-7.1c-3.9,0-7.1,3.2-7.1,7.1c0,4,3.2,7.2,7.1,7.2
	C323.4,679,326.6,675.8,326.6,671.8z"/>
<path class="st1" d="M312.2,608c0-3.9-3.2-7.2-7.2-7.2c-3.9,0-7.1,3.2-7.1,7.2c0,3.9,3.2,7.1,7.1,7.1
	C309,615.1,312.2,611.9,312.2,608z"/>
<path class="st1" d="M300.6,643.2c0-4-3.2-7.2-7.2-7.2c-3.9,0-7.1,3.2-7.1,7.2c0,3.9,3.2,7.2,7.1,7.2
	C297.4,650.4,300.6,647.2,300.6,643.2z"/>
<path class="st1" d="M303.3,577.8c0-4-3.2-7.2-7.1-7.2c-4,0-7.2,3.2-7.2,7.2c0,4,3.2,7.1,7.2,7.1C300.1,585,303.3,581.8,303.3,577.8
	z"/>
<path class="st1" d="M230.4,455.1c0-4-3.2-7.2-7.1-7.2c-3.9,0-7.1,3.2-7.1,7.2c0,3.9,3.2,7.1,7.1,7.1
	C227.2,462.2,230.4,459,230.4,455.1z"/>
<path class="st1" d="M199.6,475.8c0-3.9-3.2-7.1-7.1-7.1c-3.9,0-7.1,3.2-7.1,7.1c0,3.9,3.2,7.2,7.1,7.2
	C196.4,483,199.6,479.8,199.6,475.8z"/>
<path class="st1" d="M226.6,535.4c0-3.9-3.2-7.1-7.2-7.1c-3.9,0-7.1,3.2-7.1,7.1c0,4,3.2,7.2,7.1,7.2
	C223.4,542.6,226.6,539.3,226.6,535.4z"/>
<path class="st1" d="M239.4,485.5c0-4-3.2-7.2-7.2-7.2c-3.9,0-7.1,3.2-7.1,7.2c0,4,3.2,7.1,7.1,7.1
	C236.2,492.7,239.4,489.5,239.4,485.5z"/>
<path class="st1" d="M210.1,508.3c0-3.9-3.2-7.1-7.2-7.1c-3.9,0-7.1,3.2-7.1,7.1c0,3.9,3.2,7.1,7.1,7.1
	C206.9,515.4,210.1,512.2,210.1,508.3z"/>
<path class="st1" d="M185.7,536.3c0-3.9-3.2-7.2-7.2-7.2s-7.1,3.2-7.1,7.2c0,3.9,3.2,7.1,7.1,7.1S185.7,540.2,185.7,536.3z"/>
<path class="st1" d="M177.4,193.4C113,206.6,62.7,256.9,49.6,321.2"/>
<path class="st1" d="M177.5,193.9C113.3,207,63.1,257.1,50,321.3"/>
<path class="st1" d="M198.2,295c-9,1.8-18.5,6.7-25.8,12.3"/>
<path class="st1" d="M167.2,312.2c-6.1,7.5-14.2,20.3-16.1,29.8"/>
<path class="st1" d="M167.2,312.2c-0.3,0.3,5.5-5.4,5.1-5.1"/>
<path class="st1" d="M228.8,421c0-3.9-3.2-7.1-7.2-7.1c-3.9,0-7.1,3.2-7.1,7.1c0,4,3.2,7.2,7.1,7.2
	C225.6,428.2,228.8,424.9,228.8,421z"/>
<path class="st1" d="M264.6,440.7c0-3.9-3.2-7.1-7.1-7.1c-3.9,0-7.2,3.2-7.2,7.1c0,4,3.2,7.2,7.2,7.2
	C261.4,447.8,264.6,444.6,264.6,440.7z"/>
<path class="st1" d="M276.8,532.5c0-4-3.2-7.2-7.2-7.2c-4,0-7.1,3.2-7.1,7.2c0,3.9,3.2,7.1,7.1,7.1
	C273.6,539.6,276.8,536.4,276.8,532.5z"/>
<path class="st1" d="M248.6,556.7c0-3.9-3.2-7.1-7.2-7.1c-3.9,0-7.1,3.2-7.1,7.1c0,4,3.2,7.2,7.1,7.2
	C245.4,563.8,248.6,560.6,248.6,556.7z"/>
<path class="st1" d="M288.6,495.7c0-4-3.2-7.2-7.1-7.2c-3.9,0-7.2,3.2-7.2,7.2c0,3.9,3.2,7.1,7.2,7.1
	C285.4,502.9,288.6,499.7,288.6,495.7z"/>
<path class="st1" d="M255.2,511.8c0-3.9-3.2-7.2-7.1-7.2c-4,0-7.2,3.2-7.2,7.2c0,3.9,3.2,7.1,7.2,7.1
	C252,518.9,255.2,515.7,255.2,511.8z"/>
<path class="st1" d="M273.1,470.1c0-4-3.2-7.2-7.1-7.2c-3.9,0-7.2,3.2-7.2,7.2c0,3.9,3.2,7.1,7.2,7.1
	C269.9,477.3,273.1,474.1,273.1,470.1z"/>
<path class="st1" d="M301.2,434.5c0-3.9-3.2-7.1-7.2-7.1c-3.9,0-7.1,3.2-7.1,7.1c0,3.9,3.2,7.2,7.1,7.2
	C298,441.7,301.2,438.5,301.2,434.5z"/>
<path class="st1" d="M300.6,403.9c0-3.9-3.2-7.1-7.2-7.1c-3.9,0-7.1,3.2-7.1,7.1c0,4,3.2,7.2,7.1,7.2
	C297.4,411,300.6,407.8,300.6,403.9z"/>
<path class="st1" d="M263.9,408.9c0-4-3.2-7.2-7.2-7.2c-3.9,0-7.1,3.2-7.1,7.2c0,3.9,3.2,7.1,7.1,7.1
	C260.7,416.1,263.9,412.9,263.9,408.9z"/>
<path class="st1" d="M271.1,375.6c0-4-3.2-7.2-7.1-7.2c-4,0-7.2,3.2-7.2,7.2c0,3.9,3.2,7.1,7.2,7.1
	C267.9,382.7,271.1,379.5,271.1,375.6z"/>
<path class="st1" d="M373.4,448.9c0-3.9-3.2-7.1-7.2-7.1c-3.9,0-7.1,3.2-7.1,7.1c0,4,3.2,7.2,7.1,7.2
	C370.2,456.1,373.4,452.9,373.4,448.9z"/>
<path class="st1" d="M338.2,437.3c0-3.9-3.2-7.1-7.1-7.1c-4,0-7.2,3.2-7.2,7.1c0,4,3.2,7.2,7.2,7.2
	C335,444.5,338.2,441.3,338.2,437.3z"/>
<path class="st1" d="M403.5,440c0-4-3.2-7.2-7.2-7.2c-3.9,0-7.1,3.2-7.1,7.2c0,3.9,3.2,7.1,7.1,7.1
	C400.3,447.1,403.5,443.9,403.5,440z"/>
<path class="st1" d="M372.5,419.7c0-3.9-3.2-7.1-7.1-7.1c-4,0-7.2,3.2-7.2,7.1c0,3.9,3.2,7.2,7.2,7.2
	C369.3,426.8,372.5,423.6,372.5,419.7z"/>
<path class="st1" d="M337.5,407.4c0-4-3.2-7.2-7.2-7.2c-3.9,0-7.1,3.2-7.1,7.2c0,3.9,3.2,7.1,7.1,7.1
	C334.3,414.5,337.5,411.3,337.5,407.4z"/>
<path class="st1" d="M410.3,411.5c0-4-3.2-7.2-7.1-7.2c-3.9,0-7.2,3.2-7.2,7.2c0,3.9,3.2,7.1,7.2,7.1
	C407.1,418.7,410.3,415.5,410.3,411.5z"/>
<path class="st1" d="M379.7,390.6c0-4-3.2-7.2-7.2-7.2c-3.9,0-7.1,3.2-7.1,7.2c0,3.9,3.2,7.1,7.1,7.1
	C376.5,397.8,379.7,394.6,379.7,390.6z"/>
<path class="st1" d="M344.9,377.7c0-4-3.2-7.2-7.1-7.2c-4,0-7.2,3.2-7.2,7.2c0,4,3.2,7.2,7.2,7.2
	C341.7,384.8,344.9,381.6,344.9,377.7z"/>
<path class="st1" d="M308.1,373c0-3.9-3.2-7.1-7.1-7.1c-3.9,0-7.1,3.2-7.1,7.1c0,4,3.2,7.2,7.1,7.2C304.9,380.2,308.1,377,308.1,373
	z"/>
<path class="st1" d="M394.5,363.8c0-4-3.2-7.1-7.1-7.1c-4,0-7.2,3.2-7.2,7.1c0,4,3.2,7.2,7.2,7.2C391.3,371,394.5,367.8,394.5,363.8
	z"/>
<path class="st1" d="M360.2,349.8c0-4-3.2-7.2-7.2-7.2c-3.9,0-7.1,3.2-7.1,7.2c0,3.9,3.2,7.1,7.1,7.1
	C357,357,360.2,353.8,360.2,349.8z"/>
<path class="st1" d="M323.7,342.7c0-3.9-3.2-7.2-7.2-7.2c-3.9,0-7.1,3.2-7.1,7.2c0,4,3.2,7.1,7.1,7.1
	C320.5,349.8,323.7,346.7,323.7,342.7z"/>
<path class="st1" d="M416.4,340.8c0-3.9-3.2-7.1-7.2-7.1c-3.9,0-7.1,3.2-7.1,7.1c0,4,3.2,7.2,7.1,7.2
	C413.2,348,416.4,344.8,416.4,340.8z"/>
<path class="st1" d="M383.1,324.5c0-3.9-3.2-7.1-7.1-7.1c-4,0-7.2,3.2-7.2,7.1c0,4,3.2,7.2,7.2,7.2
	C379.9,331.7,383.1,328.5,383.1,324.5z"/>
<path class="st1" d="M302.5,546.4c0-3.9-3.2-7.2-7.2-7.2c-3.9,0-7.1,3.2-7.1,7.2c0,3.9,3.2,7.1,7.1,7.1
	C299.3,553.5,302.5,550.3,302.5,546.4z"/>
<path class="st1" d="M309.9,515.8c0-3.9-3.2-7.1-7.2-7.1c-3.9,0-7.1,3.2-7.1,7.1c0,4,3.2,7.2,7.1,7.2
	C306.7,522.9,309.9,519.7,309.9,515.8z"/>
<path class="st1" d="M324.9,488.1c0-3.9-3.2-7.2-7.1-7.2c-3.9,0-7.1,3.2-7.1,7.2c0,4,3.2,7.2,7.1,7.2
	C321.7,495.3,324.9,492.1,324.9,488.1z"/>
<path class="st1" d="M346.5,465.3c0-4-3.2-7.2-7.1-7.2c-3.9,0-7.2,3.2-7.2,7.2c0,3.9,3.2,7.2,7.2,7.2
	C343.3,472.5,346.5,469.3,346.5,465.3z"/>
<path class="st1" d="M309.5,463.2c0-3.9-3.2-7.2-7.1-7.2c-3.9,0-7.2,3.2-7.2,7.2c0,4,3.2,7.2,7.2,7.2
	C306.3,470.4,309.5,467.2,309.5,463.2z"/>
<path class="st1" d="M177.4,924.6c156.9,32.1,318.7,32.1,475.6,0"/>
<path class="st1" d="M177.5,924.2c156.9,32,318.6,32,475.4,0"/>
<path class="st1" d="M440.9,844.7c6.7-0.2,13.4-0.4,20-0.7"/>
<path class="st1" d="M412.4,844.9c2.5,0,26-0.1,28.5-0.2"/>
<path class="st1" d="M415.2,169.4c-79.9,0-159.6,8.1-237.8,24.1"/>
<path class="st1" d="M415.2,169.8c-79.9,0-159.5,8.1-237.7,24"/>
<path class="st1" d="M389.5,273.4c-6.7,0.2-13.4,0.4-20,0.7"/>
<path class="st1" d="M415.2,273c-8.6,0-17.1,0.1-25.7,0.3"/>
<path class="st1" d="M465,727.4c0-4-3.2-7.2-7.1-7.2c-4,0-7.2,3.2-7.2,7.2c0,3.9,3.2,7.1,7.2,7.1C461.8,734.6,465,731.4,465,727.4z"
	/>
<path class="st1" d="M499.8,740.4c0-3.9-3.2-7.2-7.2-7.2c-3.9,0-7.1,3.2-7.1,7.2c0,3.9,3.2,7.1,7.1,7.1
	C496.6,747.5,499.8,744.3,499.8,740.4z"/>
<path class="st1" d="M536.6,745c0-3.9-3.2-7.2-7.1-7.2c-3.9,0-7.2,3.2-7.2,7.2c0,3.9,3.2,7.1,7.2,7.1
	C533.4,752.1,536.6,748.9,536.6,745z"/>
<path class="st1" d="M450.2,754.2c0-3.9-3.2-7.2-7.2-7.2c-3.9,0-7.1,3.2-7.1,7.2c0,3.9,3.2,7.1,7.1,7.1
	C447,761.4,450.2,758.2,450.2,754.2z"/>
<path class="st1" d="M484.6,768.2c0-3.9-3.2-7.1-7.1-7.1c-4,0-7.2,3.2-7.2,7.1c0,4,3.2,7.2,7.2,7.2
	C481.4,775.4,484.6,772.2,484.6,768.2z"/>
<path class="st1" d="M521,775.4c0-4-3.2-7.2-7.2-7.2c-3.9,0-7.1,3.2-7.1,7.2c0,3.9,3.2,7.2,7.1,7.2C517.8,782.5,521,779.3,521,775.4
	z"/>
<path class="st1" d="M428.3,777.2c0-3.9-3.2-7.2-7.1-7.2c-4,0-7.2,3.2-7.2,7.2c0,3.9,3.2,7.1,7.2,7.1
	C425.1,784.3,428.3,781.1,428.3,777.2z"/>
<path class="st1" d="M461.6,793.5c0-3.9-3.2-7.1-7.2-7.1c-3.9,0-7.1,3.2-7.1,7.1c0,3.9,3.2,7.1,7.1,7.1
	C458.4,800.7,461.6,797.5,461.6,793.5z"/>
<path class="st1" d="M471.3,669.1c0-3.9-3.2-7.2-7.1-7.2c-3.9,0-7.2,3.2-7.2,7.2c0,3.9,3.2,7.1,7.2,7.1
	C468.1,676.3,471.3,673.1,471.3,669.1z"/>
<path class="st1" d="M441.2,678.1c0-4-3.2-7.2-7.2-7.2c-3.9,0-7.1,3.2-7.1,7.2c0,3.9,3.2,7.2,7.1,7.2
	C438,685.2,441.2,682,441.2,678.1z"/>
<path class="st1" d="M472.2,698.4c0-3.9-3.2-7.1-7.2-7.1c-3.9,0-7.1,3.2-7.1,7.1c0,4,3.2,7.2,7.1,7.2
	C469,705.5,472.2,702.3,472.2,698.4z"/>
<path class="st1" d="M434.4,706.5c0-4-3.2-7.2-7.1-7.2c-3.9,0-7.1,3.2-7.1,7.2c0,4,3.2,7.2,7.1,7.2
	C431.2,713.7,434.4,710.5,434.4,706.5z"/>
<path class="st1" d="M513.5,559c0-54.3-44-98.3-98.3-98.3c-54.3,0-98.3,44-98.3,98.3c0,54.3,44,98.3,98.3,98.3
	C469.5,657.3,513.5,613.3,513.5,559z"/>
<path class="st1" d="M509,710.6c0-4.9-4-8.9-8.9-8.9c-4.9,0-8.9,4-8.9,8.9c0,4.9,4,8.9,8.9,8.9C504.9,719.6,509,715.6,509,710.6z"/>
<path class="st1" d="M507.2,710.6c0-3.9-3.2-7.1-7.1-7.1c-4,0-7.2,3.2-7.2,7.1c0,4,3.2,7.2,7.2,7.2
	C504,717.8,507.2,714.6,507.2,710.6z"/>
<path class="st1" d="M498.2,652.7c0-4-3.2-7.2-7.1-7.2c-3.9,0-7.1,3.2-7.1,7.2c0,3.9,3.2,7.1,7.1,7.1
	C495,659.9,498.2,656.7,498.2,652.7z"/>
<path class="st1" d="M506.5,680.7c0-3.9-3.2-7.2-7.2-7.2c-3.9,0-7.1,3.2-7.1,7.2c0,3.9,3.2,7.1,7.1,7.1
	C503.3,687.9,506.5,684.7,506.5,680.7z"/>
<path class="st1" d="M535.2,654.8c0-3.9-3.2-7.2-7.2-7.2c-3.9,0-7.1,3.2-7.1,7.2c0,3.9,3.2,7.1,7.1,7.1
	C532,661.9,535.2,658.7,535.2,654.8z"/>
<path class="st1" d="M542.2,571.7c0-4-3.2-7.2-7.1-7.2c-4,0-7.2,3.2-7.2,7.2c0,3.9,3.2,7.2,7.2,7.2
	C539,578.8,542.2,575.6,542.2,571.7z"/>
<path class="st1" d="M534.8,602.3c0-3.9-3.2-7.2-7.2-7.2c-3.9,0-7.1,3.2-7.1,7.2c0,3.9,3.2,7.1,7.1,7.1
	C531.6,609.4,534.8,606.2,534.8,602.3z"/>
<path class="st1" d="M519.8,629.9c0-3.9-3.2-7.2-7.1-7.2c-3.9,0-7.1,3.2-7.1,7.2c0,3.9,3.2,7.1,7.1,7.1
	C516.6,637,519.8,633.8,519.8,629.9z"/>
<path class="st1" d="M653,924.7c64.4-13.1,114.7-63.5,127.8-127.8"/>
<path class="st1" d="M652.9,924.2c64.2-13.1,114.4-63.3,127.5-127.5"/>
<path class="st1" d="M632.2,823.1c9-1.8,18.5-6.5,25.8-12.1"/>
<path class="st1" d="M661.9,807.1c6.1-7.5,15.5-21.6,17.4-31.1"/>
<path class="st1" d="M661.9,807.1c0.3-0.3-4.2,4.1-3.8,3.8"/>
<path class="st1" d="M573.6,742.4c0-3.9-3.2-7.1-7.2-7.1c-3.9,0-7.1,3.2-7.1,7.1c0,4,3.2,7.2,7.1,7.2
	C570.4,749.6,573.6,746.4,573.6,742.4z"/>
<path class="st1" d="M567.9,585.6c0-4-3.2-7.2-7.1-7.2c-4,0-7.1,3.2-7.2,7.2c0,4,3.2,7.2,7.2,7.2
	C564.8,592.7,567.9,589.5,567.9,585.6z"/>
<path class="st1" d="M596.1,561.4c0-4-3.2-7.2-7.2-7.2c-3.9,0-7.1,3.2-7.1,7.2c0,3.9,3.2,7.1,7.1,7.1
	C592.9,568.5,596.1,565.3,596.1,561.4z"/>
<path class="st1" d="M556.1,622.3c0-4-3.2-7.2-7.2-7.2c-3.9,0-7.1,3.2-7.1,7.2c0,3.9,3.2,7.1,7.1,7.1
	C552.9,629.5,556.1,626.3,556.1,622.3z"/>
<path class="st1" d="M589.5,606.3c0-4-3.2-7.2-7.2-7.2c-3.9,0-7.1,3.2-7.1,7.2c0,4,3.2,7.2,7.1,7.2
	C586.3,613.4,589.5,610.2,589.5,606.3z"/>
<path class="st1" d="M618.1,582.6c0-3.9-3.2-7.1-7.1-7.1c-4,0-7.2,3.2-7.2,7.1c0,3.9,3.2,7.2,7.2,7.2
	C614.9,589.8,618.1,586.6,618.1,582.6z"/>
<path class="st1" d="M571.6,647.9c0-4-3.2-7.1-7.1-7.1c-3.9,0-7.1,3.2-7.1,7.1s3.2,7.2,7.1,7.2C568.4,655.1,571.6,651.9,571.6,647.9
	z"/>
<path class="st1" d="M605.3,632.5c0-4-3.2-7.2-7.2-7.2c-3.9,0-7.1,3.2-7.1,7.2c0,3.9,3.2,7.1,7.1,7.1
	C602.1,639.7,605.3,636.5,605.3,632.5z"/>
<path class="st1" d="M634.6,609.8c0-3.9-3.2-7.1-7.1-7.1c-4,0-7.2,3.2-7.2,7.1c0,4,3.2,7.2,7.2,7.2
	C631.4,616.9,634.6,613.7,634.6,609.8z"/>
<path class="st1" d="M659,581.8c0-3.9-3.2-7.1-7.1-7.1c-4,0-7.2,3.2-7.2,7.1c0,4,3.2,7.2,7.2,7.2C655.8,588.9,659,585.7,659,581.8z"
	/>
<path class="st1" d="M543.5,683.5c0-3.9-3.2-7.1-7.1-7.1c-3.9,0-7.2,3.2-7.2,7.1c0,4,3.2,7.2,7.2,7.2
	C540.3,690.7,543.5,687.5,543.5,683.5z"/>
<path class="st1" d="M580.1,677.4c0-3.9-3.2-7.1-7.2-7.1c-3.9,0-7.1,3.2-7.1,7.1c0,3.9,3.2,7.2,7.1,7.2
	C576.9,684.5,580.1,681.3,580.1,677.4z"/>
<path class="st1" d="M614.3,663c0-4-3.2-7.2-7.1-7.2S600,659,600,663c0,3.9,3.2,7.2,7.2,7.2S614.3,666.9,614.3,663z"/>
<path class="st1" d="M645.1,642.2c0-3.9-3.2-7.1-7.2-7.1s-7.1,3.2-7.1,7.1c0,4,3.2,7.2,7.1,7.2S645.1,646.2,645.1,642.2z"/>
<path class="st1" d="M544.1,714.2c0-3.9-3.2-7.2-7.2-7.2c-3.9,0-7.1,3.2-7.1,7.2c0,3.9,3.2,7.1,7.1,7.1
	C540.9,721.3,544.1,718.1,544.1,714.2z"/>
<path class="st1" d="M580.8,709.1c0-4-3.2-7.2-7.1-7.2c-3.9,0-7.2,3.2-7.2,7.2c0,3.9,3.2,7.1,7.2,7.1
	C577.6,716.2,580.8,713.1,580.8,709.1z"/>
<path class="st1" d="M615.9,697.1c0-3.9-3.2-7.2-7.1-7.2c-4,0-7.2,3.2-7.2,7.2c0,3.9,3.2,7.1,7.2,7.1
	C612.7,704.2,615.9,701,615.9,697.1z"/>
<path class="st1" d="M49.6,321.2c-32.1,156.9-32.1,318.7,0,475.6"/>
<path class="st1" d="M50,321.3c-32,156.9-32,318.6,0,475.4"/>
<path class="st1" d="M52.6,321.9c-32,156.5-32,317.8,0,474.3"/>
<path class="st1" d="M151.1,342c-11.4,55.8-18.4,112.5-20.9,169.4"/>
<path class="st1" d="M130.2,604.7c2.4,57.6,9.4,114.9,21,171.3"/>
<path class="st1" d="M129.5,584.8c0.2,6.6,0.4,13.3,0.7,19.9"/>
<path class="st1" d="M130.2,511.4c-0.3,7.1-0.6,14.3-0.7,21.5"/>
<path class="st1" d="M129.5,532.9c-0.4,17.3-0.4,34.6,0,51.9"/>
<path class="st1" d="M435,439.2c0-3.9-3.2-7.1-7.2-7.1c-3.9,0-7.1,3.2-7.1,7.1c0,4,3.2,7.2,7.1,7.2C431.8,446.3,435,443.1,435,439.2
	z"/>
<path class="st1" d="M465.6,446.5c0-4-3.2-7.2-7.1-7.2c-3.9,0-7.2,3.2-7.2,7.2c0,4,3.2,7.2,7.2,7.2
	C462.4,453.7,465.6,450.5,465.6,446.5z"/>
<path class="st1" d="M493.2,461.5c0-3.9-3.2-7.1-7.1-7.1c-4,0-7.2,3.2-7.2,7.1c0,3.9,3.2,7.2,7.2,7.2
	C490,468.7,493.2,465.5,493.2,461.5z"/>
<path class="st1" d="M516,483.2c0-3.9-3.2-7.1-7.1-7.1c-4,0-7.2,3.2-7.2,7.1c0,3.9,3.2,7.2,7.2,7.2C512.8,490.4,516,487.2,516,483.2
	z"/>
<path class="st1" d="M518.1,446.2c0-3.9-3.2-7.2-7.1-7.2c-3.9,0-7.2,3.2-7.2,7.2c0,3.9,3.2,7.1,7.2,7.1
	C514.9,453.3,518.1,450.1,518.1,446.2z"/>
<path class="st1" d="M532.5,510c0-4-3.2-7.2-7.1-7.2c-3.9,0-7.2,3.2-7.2,7.2c0,3.9,3.2,7.2,7.2,7.2C529.3,517.2,532.5,514,532.5,510
	z"/>
<path class="st1" d="M544.1,474.8c0-4-3.2-7.2-7.1-7.2c-4,0-7.2,3.2-7.2,7.2c0,3.9,3.2,7.1,7.2,7.1
	C540.9,482,544.1,478.8,544.1,474.8z"/>
<path class="st1" d="M546.9,437.9c0-4-3.2-7.2-7.1-7.2s-7.1,3.2-7.1,7.2c0,3.9,3.2,7.2,7.1,7.2S546.9,441.8,546.9,437.9z"/>
<path class="st1" d="M541.4,540.2c0-4-3.2-7.2-7.2-7.2c-3.9,0-7.1,3.2-7.1,7.2c0,3.9,3.2,7.1,7.1,7.1
	C538.2,547.4,541.4,544.2,541.4,540.2z"/>
<path class="st1" d="M448.9,413.4c0-4-3.2-7.2-7.2-7.2c-3.9,0-7.1,3.2-7.1,7.2c0,4,3.2,7.2,7.1,7.2
	C445.7,420.6,448.9,417.4,448.9,413.4z"/>
<path class="st1" d="M424.7,385.3c0-4-3.2-7.2-7.1-7.2c-4,0-7.2,3.2-7.2,7.2c0,3.9,3.2,7.1,7.2,7.1
	C421.5,392.5,424.7,389.3,424.7,385.3z"/>
<path class="st1" d="M485.7,425.3c0-3.9-3.2-7.2-7.2-7.2c-3.9,0-7.1,3.2-7.1,7.2c0,3.9,3.2,7.1,7.1,7.1
	C482.5,432.4,485.7,429.2,485.7,425.3z"/>
<path class="st1" d="M469.6,391.8c0-4-3.2-7.2-7.2-7.2c-3.9,0-7.1,3.2-7.1,7.2c0,3.9,3.2,7.1,7.1,7.1
	C466.4,399,469.6,395.8,469.6,391.8z"/>
<path class="st1" d="M446,363.3c0-3.9-3.2-7.1-7.1-7.1c-3.9,0-7.2,3.2-7.2,7.1c0,4,3.2,7.2,7.2,7.2C442.8,370.4,446,367.2,446,363.3
	z"/>
<path class="st1" d="M511.3,409.8c0-3.9-3.2-7.1-7.2-7.1c-4,0-7.1,3.2-7.1,7.1c0,3.9,3.2,7.2,7.1,7.2
	C508.1,416.9,511.3,413.7,511.3,409.8z"/>
<path class="st1" d="M495.8,376c0-4-3.2-7.2-7.2-7.2c-4,0-7.1,3.2-7.1,7.2c0,3.9,3.2,7.1,7.1,7.1C492.6,383.2,495.8,380,495.8,376z"
	/>
<path class="st1" d="M473.1,346.7c0-3.9-3.2-7.2-7.2-7.2c-3.9,0-7.1,3.2-7.1,7.2c0,4,3.2,7.2,7.1,7.2
	C469.9,353.9,473.1,350.7,473.1,346.7z"/>
<path class="st1" d="M445.1,322.4c0-3.9-3.2-7.1-7.2-7.1c-3.9,0-7.1,3.2-7.1,7.1c0,4,3.2,7.2,7.1,7.2
	C441.9,329.5,445.1,326.3,445.1,322.4z"/>
<path class="st1" d="M540.7,401.3c0-3.9-3.2-7.2-7.1-7.2c-3.9,0-7.2,3.2-7.2,7.2c0,3.9,3.2,7.1,7.2,7.1
	C537.5,408.4,540.7,405.2,540.7,401.3z"/>
<path class="st1" d="M526.3,367.1c0-3.9-3.2-7.1-7.2-7.1c-3.9,0-7.1,3.2-7.1,7.1c0,3.9,3.2,7.2,7.1,7.2
	C523.1,374.3,526.3,371.1,526.3,367.1z"/>
<path class="st1" d="M505.6,336.3c0-3.9-3.2-7.1-7.1-7.1c-3.9,0-7.1,3.2-7.1,7.1c0,3.9,3.2,7.2,7.1,7.2
	C502.4,343.5,505.6,340.3,505.6,336.3z"/>
<path class="st1" d="M561.7,509.2c0-4-3.2-7.2-7.1-7.2c-3.9,0-7.1,3.2-7.1,7.2c0,3.9,3.2,7.1,7.1,7.1
	C558.5,516.4,561.7,513.2,561.7,509.2z"/>
<path class="st1" d="M574,474.2c0-3.9-3.2-7.1-7.2-7.1c-3.9,0-7.1,3.2-7.1,7.1c0,4,3.2,7.2,7.1,7.2C570.8,481.4,574,478.2,574,474.2
	z"/>
<path class="st1" d="M577.5,437.3c0-4-3.2-7.2-7.1-7.2c-4,0-7.2,3.2-7.2,7.2c0,3.9,3.2,7.1,7.2,7.1
	C574.3,444.4,577.5,441.3,577.5,437.3z"/>
<path class="st1" d="M569.9,547c0-3.9-3.2-7.1-7.2-7.1c-3.9,0-7.1,3.2-7.1,7.1c0,4,3.2,7.2,7.1,7.2
	C566.7,554.1,569.9,550.9,569.9,547z"/>
<path class="st1" d="M590.8,516.3c0-3.9-3.2-7.1-7.2-7.1c-3.9,0-7.1,3.2-7.1,7.1c0,4,3.2,7.2,7.1,7.2
	C587.6,523.5,590.8,520.3,590.8,516.3z"/>
<path class="st1" d="M603.7,481.6c0-3.9-3.2-7.2-7.1-7.2c-4,0-7.2,3.2-7.2,7.2c0,3.9,3.2,7.1,7.2,7.1
	C600.5,488.7,603.7,485.5,603.7,481.6z"/>
<path class="st1" d="M608.3,444.8c0-3.9-3.2-7.1-7.1-7.1c-3.9,0-7.2,3.2-7.2,7.1c0,4,3.2,7.2,7.2,7.2
	C605.1,452,608.3,448.7,608.3,444.8z"/>
<path class="st1" d="M617.6,531.2c0-3.9-3.2-7.2-7.1-7.2c-4,0-7.2,3.2-7.2,7.2c0,3.9,3.2,7.1,7.2,7.1
	C614.4,538.3,617.6,535.1,617.6,531.2z"/>
<path class="st1" d="M631.6,496.8c0-3.9-3.2-7.1-7.2-7.1s-7.1,3.2-7.1,7.1c0,4,3.2,7.2,7.1,7.2S631.6,500.8,631.6,496.8z"/>
<path class="st1" d="M638.7,460.4c0-4-3.2-7.2-7.1-7.2c-3.9,0-7.1,3.2-7.1,7.2c0,3.9,3.2,7.1,7.1,7.1
	C635.5,467.5,638.7,464.3,638.7,460.4z"/>
<path class="st1" d="M640.5,553.1c0-4-3.2-7.2-7.1-7.2c-3.9,0-7.2,3.2-7.2,7.2c0,4,3.2,7.2,7.2,7.2
	C637.3,560.2,640.5,557,640.5,553.1z"/>
<path class="st1" d="M656.8,519.7c0-4-3.2-7.2-7.1-7.2c-3.9,0-7.2,3.2-7.2,7.2c0,3.9,3.2,7.1,7.2,7.1
	C653.6,526.9,656.8,523.7,656.8,519.7z"/>
<path class="st1" d="M780.8,321.2c-13.1-64.4-63.4-114.6-127.8-127.8"/>
<path class="st1" d="M780.4,321.3C767.3,257.1,717.1,207,653,193.9"/>
<path class="st1" d="M572.4,400.6c0-4-3.2-7.2-7.2-7.2c-3.9,0-7.1,3.2-7.1,7.2c0,3.9,3.2,7.1,7.1,7.1
	C569.2,407.7,572.4,404.5,572.4,400.6z"/>
<path class="st1" d="M560.4,365.4c0-4-3.2-7.2-7.1-7.2c-4,0-7.2,3.2-7.2,7.2c0,3.9,3.2,7.2,7.2,7.2
	C557.2,372.6,560.4,369.4,560.4,365.4z"/>
<path class="st1" d="M605.8,407.8c0-3.9-3.2-7.2-7.2-7.2c-3.9,0-7.1,3.2-7.1,7.2c0,3.9,3.2,7.1,7.1,7.1
	C602.6,414.9,605.8,411.7,605.8,407.8z"/>
<path class="st1" d="M415.2,945.6c19.3,0,38.6-0.5,57.9-1.4c18.9-0.9,37.8-2.3,56.6-4.2c9.6-0.9,19.3-2,28.9-3.1
	c10-1.2,19.9-2.5,29.8-4c21.4-3.2,42.8-7,64-11.3"/>
<path class="st1" d="M652.4,921.6c7.7-1.6,15.2-3.7,22.6-6.3c7.4-2.7,14.5-5.9,21.4-9.6c6.9-3.7,13.5-7.9,19.8-12.6
	c6.3-4.7,12.2-9.8,17.8-15.3c5.5-5.5,10.6-11.5,15.3-17.8c4.7-6.3,8.9-12.9,12.6-19.8c3.7-6.9,6.9-14.1,9.6-21.4
	c2.7-7.4,4.8-14.9,6.4-22.6"/>
<path class="st1" d="M777.8,321.9c-1.6-7.7-3.7-15.2-6.4-22.6c-2.7-7.4-5.9-14.5-9.6-21.4c-3.7-6.9-7.9-13.5-12.6-19.8
	c-4.7-6.3-9.8-12.3-15.3-17.8c-5.5-5.5-11.5-10.6-17.8-15.3c-6.3-4.7-12.9-8.9-19.8-12.6c-6.9-3.7-14.1-6.9-21.4-9.6
	c-7.4-2.7-14.9-4.8-22.6-6.4"/>
<path class="st1" d="M652.4,196.5c-21.2-4.3-42.6-8.1-64-11.3c-9.9-1.5-19.9-2.8-29.8-4c-9.6-1.2-19.2-2.2-28.9-3.2
	c-18.8-1.8-37.7-3.2-56.6-4.2c-19.3-0.9-38.6-1.4-57.9-1.4"/>
<path class="st1" d="M415.2,172.5c-19.3,0-38.6,0.4-57.9,1.4c-18.9,0.9-37.8,2.3-56.6,4.2c-9.6,0.9-19.3,2-28.9,3.2
	c-9.9,1.2-19.9,2.5-29.8,4c-21.4,3.2-42.8,7-64,11.3"/>
<path class="st1" d="M178,196.4c-7.7,1.6-15.2,3.7-22.6,6.4c-7.4,2.7-14.5,5.9-21.4,9.6c-6.9,3.7-13.5,7.9-19.8,12.6
	c-6.3,4.7-12.3,9.8-17.8,15.3c-5.5,5.5-10.6,11.5-15.3,17.8c-4.7,6.3-8.9,12.9-12.6,19.8c-3.7,6.9-6.9,14.1-9.6,21.4
	c-2.7,7.4-4.8,14.9-6.4,22.6"/>
<path class="st1" d="M52.6,796.2c1.6,7.7,3.7,15.2,6.4,22.6c2.7,7.4,5.9,14.5,9.6,21.4c3.7,6.9,7.9,13.5,12.6,19.8
	c4.7,6.3,9.8,12.3,15.3,17.8c5.5,5.5,11.5,10.6,17.8,15.3c6.3,4.7,12.9,8.9,19.8,12.6c6.9,3.7,14.1,6.9,21.4,9.6
	c7.4,2.7,14.9,4.8,22.6,6.3"/>
<path class="st1" d="M178.1,921.6c21.2,4.3,42.6,8.1,64,11.3c9.9,1.5,19.9,2.8,29.8,4c9.6,1.2,19.2,2.2,28.9,3.1
	c18.8,1.8,37.7,3.2,56.6,4.2c19.3,0.9,38.6,1.4,57.9,1.4"/>
<path class="st1" d="M412.4,844.9c-8.8-0.2-33-0.4-41.8-0.8c-9-0.4-18.1-0.9-27.1-1.5c-9.1-0.6-18.1-1.3-27.2-2.1
	c-8.9-0.8-17.8-1.7-26.7-2.8c-8.6-1-17.1-2.1-25.7-3.3c-8.1-1.1-16.1-2.4-24.1-3.7c-13.9-2.3-27.8-4.8-41.7-7.6"/>
<path class="st1" d="M198.2,295c11.9-2.4,23.8-4.6,35.7-6.6c6.8-1.2,13.6-2.2,20.5-3.3c7.2-1.1,14.5-2.1,21.8-3
	c7.6-1,15.1-1.9,22.7-2.7c7.8-0.8,15.6-1.6,23.4-2.2c7.9-0.7,15.8-1.2,23.6-1.7c7.8-0.5,15.7-0.9,23.6-1.3"/>
<path class="st1" d="M415.2,273c9.4,0,18.7,0.1,28.1,0.4c9.7,0.3,19.5,0.7,29.2,1.2c9.9,0.5,19.7,1.2,29.6,2
	c9.8,0.8,19.6,1.7,29.3,2.7c18.4,2,36.7,4.4,55,7.4c8.1,1.3,16.3,2.7,24.4,4.2c7.2,1.3,14.3,2.7,21.4,4.1"/>
<path class="st1" d="M632.2,295c3.3,0.7,6.5,1.6,9.6,2.8c2.8,1.1,5.5,2.4,8.1,3.8c2.4,1.4,4.7,2.9,6.9,4.6c2.1,1.6,4.1,3.4,6,5.2
	c1.9,1.9,3.6,3.9,5.2,6c1.7,2.2,3.2,4.5,4.6,6.9c1.5,2.6,2.8,5.3,3.8,8.1c1.2,3.1,2.1,6.3,2.8,9.6"/>
<path class="st1" d="M632.2,823.1c-11.9,2.4-23.8,4.6-35.7,6.6c-6.8,1.2-13.6,2.3-20.5,3.3c-7.2,1.1-14.5,2.1-21.8,3.1
	c-7.6,1-15.2,1.9-22.7,2.7c-7.8,0.8-15.6,1.6-23.4,2.2c-7.9,0.7-15.8,1.3-23.6,1.7c-7.8,0.5-15.7,0.9-23.6,1.3"/>
<path class="st3" d="M404.2,860.5c10.6,0,19.2,8.6,19.2,19.2c0,10.6-8.6,19.2-19.2,19.2c-10.6,0-19.2-8.6-19.2-19.2
	C385,869.1,393.6,860.5,404.2,860.5z"/>
<path class="st1" d="M404.2,860.5c10.6,0,19.2,8.6,19.2,19.2c0,10.6-8.6,19.2-19.2,19.2c-10.6,0-19.2-8.6-19.2-19.2
	C385,869.1,393.6,860.5,404.2,860.5z"/>
<path class="st4" d="M811.5,407.8c6.8,0,12.4,5.5,12.4,12.4c0,6.8-5.5,12.4-12.4,12.4c-6.8,0-12.4-5.5-12.4-12.4
	C799.1,413.3,804.6,407.8,811.5,407.8z"/>
<path class="st1" d="M811.5,407.8c6.8,0,12.4,5.5,12.4,12.4c0,6.8-5.5,12.4-12.4,12.4c-6.8,0-12.4-5.5-12.4-12.4
	C799.1,413.3,804.6,407.8,811.5,407.8z"/>
<path class="st5" d="M402.7,855.5c15.9,0,28.7,12.9,28.7,28.7c0,15.9-12.9,28.7-28.7,28.7c-15.9,0-28.7-12.9-28.7-28.7
	C374,868.3,386.9,855.5,402.7,855.5z"/>
<path class="st1" d="M402.7,855.5c15.9,0,28.7,12.9,28.7,28.7c0,15.9-12.9,28.7-28.7,28.7c-15.9,0-28.7-12.9-28.7-28.7
	C374,868.3,386.9,855.5,402.7,855.5z"/>
</svg>
