<?xml version="1.0" encoding="utf-8"?>
<!-- Generator: Adobe Illustrator 20.0.0, SVG Export Plug-In . SVG Version: 6.00 Build 0)  -->
<svg version="1.1" id="Layer_1" xmlns="http://www.w3.org/2000/svg" xmlns:xlink="http://www.w3.org/1999/xlink" x="0px" y="0px"
	 viewBox="0 0 581.1 1084.4" style="enable-background:new 0 0 581.1 1084.4;" xml:space="preserve">
<g>
	<path d="M581.1,290.5c0-77.6-30.2-150.6-85.1-205.4C441.1,30.2,368.1,0,290.5,0S140,30.2,85.1,85.1S0,212.9,0,290.5
		c0,14.1,1,28.2,3,42v0.1l0,0c0,0,0,0,0,0.1v0.2c0,0.2,0.1,0.5,0.1,0.7c0.1,0.6,0.2,1.3,0.3,1.9s0.2,1.1,0.3,1.7
		c0,0.3,0.1,0.6,0.1,0.9c1.1,6.8,2.6,13.9,4.3,21.4c0.1,0.3,0.2,0.6,0.2,0.9c5.6,23.6,14.6,52.1,27.2,79.1
		c9.5,20.3,20.9,40.9,32,60.8c20.7,37.2,42,75.7,51.5,113.6c11.1,61.4,17,128.9,18,206.4c0.1,6,2.6,12.7,7.6,20.6
		c5.6,8.9,10.8,16.5,15.8,23.2c0.3,6.9,1,12.3,3.6,16.9c1.6,3,5.1,5.2,11.6,9.1c1.4,0.8,3.2,1.9,4.6,2.8c1.3,1.8,2.6,3.7,3.6,5.6
		c1.2,2.2,2.1,4.5,2.6,6.7l0.1,0.3l0.1,0.2c1.6,4.5,3,10.3,4.2,17.2c1.3,7.5,2.3,16.2,3.1,25.4c0.8,10.1,1.3,20.6,1.6,31
		c0.3,11.5,0.4,22.9,0.1,33.1l-0.1,3.6l0.5,0.1l27.7,30h-0.2l9.4,8.2l24.3,21.2l0.1,0.1l0.6,0.5c4.4,3.8,8.9,7.6,31.9,8.5h0.4
		c23-0.8,27.4-4.7,31.9-8.5l0.6-0.5l0.1-0.1l24.3-21.2l9.4-8.2h-0.1l28.5-30.1c-0.1,0-0.2,0-0.4,0l-0.1-3.6
		c-0.2-10.2-0.2-21.6,0.1-33.1c0.2-10.3,0.8-20.9,1.6-31c0.8-9.2,1.8-17.8,3.1-25.4c1.1-6.8,2.5-12.7,4.2-17.2l0.1-0.2l0.1-0.3
		c0.5-2.2,1.4-4.4,2.5-6.7c1.4-2.5,3.2-5.1,5.1-7.4l0.1-0.1c0.9-0.4,1.8-0.9,2.6-1.2c7.4-3.4,11.4-5.4,13.2-8.8
		c2.5-4.6,3.3-10,3.6-16.9c5-6.7,10.2-14.3,15.8-23.2c5-7.9,7.5-14.6,7.6-20.6c1.1-77.5,7-145,18-206.4
		c9.5-37.9,30.8-76.4,51.5-113.6c11.1-19.9,22.5-40.6,32-60.8c18.2-38.9,28.8-80.7,32.6-106.8H578
		C580,318.8,581.1,304.7,581.1,290.5z M95.1,95.1c52.2-52.2,121.6-80.9,195.4-80.9s143.2,28.7,195.4,80.9s80.9,121.6,80.9,195.4
		c0,38.9-7.9,76.4-23.5,111.7c-165.1,4.4-335.1,4.4-505.8-0.2C31,387.4,25.8,372.1,22,356.7c-1.6-6.6-2.8-12.8-3.8-18.5
		c0-0.1,0-0.2-0.1-0.3c-0.1-0.7-0.2-1.4-0.4-2c-0.1-0.4-0.1-0.8-0.2-1.2c-0.1-0.5-0.2-0.9-0.2-1.4c-0.1-0.9-0.3-1.8-0.4-2.6l0,0
		v-0.3c-1.9-13.1-2.8-26.5-2.8-39.8C14.2,216.7,42.9,147.3,95.1,95.1z M284.4,872.7L284.4,872.7c2.1,0.1,4.2,0.1,6.3,0.1
		c2.1,0,4.2,0,6.3,0v-0.1c37.2-0.5,73.9-2.7,109.4-6.7c-0.2,2.8-0.6,5.5-1.3,7.3c-1.5,0.9-5,2.6-7.2,3.6c-5.1,2.4-8.4,4-10.5,5.9
		c-0.3,0-0.6,0.1-0.9,0.1c-5.3,0.5-11,1-17,1.4c-11.7,0.8-24.3,1.4-36.9,1.8c-14.6,0.5-29.2,0.7-42.8,0.8
		c-13.5-0.1-28.3-0.3-42.8-0.8c-12.6-0.4-25.2-1-36.8-1.8c-6-0.4-11.6-0.8-16.6-1.3c-1.1-0.1-2.1-0.2-3.2-0.3
		c-1.8-1.3-4.1-2.8-7.3-4.7c-2.1-1.3-5.5-3.3-6.8-4.3c-0.8-1.9-1.2-4.6-1.4-7.5C210.4,870,247.1,872.2,284.4,872.7z M316.4,1069.9
		l-0.6,0.5c-3.2,2.7-6.4,5.5-25.8,6.3c-19.4-0.7-22.6-3.5-25.8-6.3l-0.6-0.5l-15.7-13.6c2.4,0.1,5.1,0.2,7.9,0.3
		c5,0.2,10.4,0.3,16.3,0.3c5.7,0.1,11.8,0.1,17.9,0.1s12.2-0.1,17.9-0.1c5.8-0.1,11.3-0.2,16.3-0.3c2.8-0.1,5.4-0.2,7.8-0.3
		L316.4,1069.9z M386.1,896.4c-1.4,2.6-2.4,5.3-3.1,8.1c-1.7,4.8-3.2,10.9-4.4,17.8c-1.3,7.6-2.3,16.3-3,25.5
		c-0.8,9.7-1.3,20.2-1.6,30.7c-0.3,10.1-0.4,20.1-0.2,29.3l-3.7,0.3c-3,0.2-5.7,0.4-8.4,0.6c-3.6,0.2-7.2,0.4-10.6,0.6
		c-3.8,0.2-7.5,0.4-11.1,0.5c-4.2,0.2-8.2,0.3-12.1,0.4c-4.2,0.1-8.4,0.2-12.4,0.3c-4.4,0.1-8.7,0.2-12.8,0.2
		c-4.4,0.1-8.7,0.1-12.8,0.1c-4.1,0-8.4-0.1-12.8-0.1c-4.1-0.1-8.4-0.1-12.8-0.2c-4.1-0.1-8.2-0.2-12.4-0.3
		c-3.9-0.2-7.9-0.3-12.1-0.4c-3.6-0.2-7.3-0.3-11.1-0.5c-3.4-0.2-6.9-0.4-10.6-0.6c-2.6-0.2-5.4-0.4-8.3-0.6l-3.7-0.3
		c0.1-6.4,0.1-13.1,0-20c10,0.9,20.9,1.5,32.1,2c20.6,0.9,42,1.3,60.5,1.3v-6c-18.7,0-40-0.4-60.2-1.3c-11.4-0.5-22.4-1.2-32.5-2.1
		c0-1.1-0.1-2.2-0.1-3.2c-0.1-4.9-0.3-9.9-0.6-14.7c10.2,0.9,21.4,1.6,32.9,2.1c20.6,0.9,42,1.3,60.5,1.3v-6
		c-18.7,0-40-0.4-60.2-1.3c-11.7-0.5-23.1-1.2-33.5-2.2c-0.2-3.4-0.4-6.7-0.7-10c-0.2-2.7-0.5-5.4-0.8-8c10.6,1,22.5,1.7,34.7,2.3
		c20.6,0.9,42,1.3,60.5,1.3v-6c-18.7,0-40-0.4-60.2-1.3c-12.5-0.6-24.7-1.3-35.6-2.4c-0.5-4-1-7.8-1.7-11.4
		c-0.4-2.4-0.8-4.6-1.3-6.7c11.6,1.1,24.7,2,38.3,2.6c20.6,0.9,42,1.3,60.5,1.3v-6c-18.7,0-40-0.4-60.2-1.3
		c-14.3-0.6-28.1-1.6-40.1-2.8c-0.5-1.8-1-3.4-1.6-5c-0.6-2.7-1.7-5.4-3-8.1c-0.9-1.7-2-3.3-3-4.9l3.4,0.4c5.3,0.5,10.9,1,16.6,1.3
		c11.2,0.8,23.7,1.3,36.5,1.8c14.3,0.5,28.8,0.7,42.2,0.8h0.1c13.5-0.1,28-0.3,42.3-0.8c12.8-0.4,25.3-1,36.5-1.8
		c5.9-0.4,11.6-0.8,16.9-1.4l3.6-0.4C388.1,893,387,894.7,386.1,896.4z M408,857.4l-1.1,1.5c-37.6,4.2-76.6,6.5-116.2,6.8
		c-39.6-0.3-78.6-2.6-116.3-6.8l-1.1-1.5c-4.8-6.3-9.9-13.8-15.4-22.3c23.4,6.2,65,11.5,126.4,11.9l0,0c2.1,0,4.1,0,6.2,0h0.1h0.1
		c2,0,4.1,0,6.2,0l0,0c61.3-0.4,102.9-5.7,126.3-11.9C417.9,843.6,412.8,851.1,408,857.4z M501.2,493.5
		c-21.2,38.1-43,77.5-52.9,117.3l-0.1,0.4C437,673.4,431,741.8,429.9,820.1c0,1.3-0.4,3.3-1.6,6.2c-25.6,8.4-78.1,13.6-139.1,13.6
		c-59.8-0.1-111.1-5.3-136.2-13.6c-1.2-2.9-1.6-4.9-1.6-6.2c-1.1-78.4-7.1-146.7-18.3-208.9l-0.1-0.4
		c-9.9-39.8-31.8-79.2-52.9-117.3c-11-19.7-22.3-40.1-31.5-60c-3.8-8-7.2-16.2-10.3-24.3c86.1,2.3,172.1,3.4,257.4,3.4
		c83.3,0,165.9-1.1,247.3-3.3c-3.1,8.1-6.5,16.2-10.2,24.2C523.5,453.3,512.2,473.7,501.2,493.5z"/>
</g>
</svg>
